M48
; DRILL file {KiCad 8.0.0} date 2024-05-13T20:24:04+1000
; FORMAT={-:-/ absolute / inch / decimal}
; #@! TF.CreationDate,2024-05-13T20:24:04+10:00
; #@! TF.GenerationSoftware,Kicad,Pcbnew,8.0.0
; #@! TF.FileFunction,Plated,1,2,PTH
FMAT,2
INCH
; #@! TA.AperFunction,Plated,PTH,ViaDrill
T1C0.0118
; #@! TA.AperFunction,Plated,PTH,ViaDrill
T2C0.0197
; #@! TA.AperFunction,Plated,PTH,ComponentDrill
T3C0.0236
; #@! TA.AperFunction,Plated,PTH,ComponentDrill
T4C0.0984
; #@! TA.AperFunction,Plated,PTH,ComponentDrill
T5C0.1142
; #@! TA.AperFunction,Plated,PTH,ComponentDrill
T6C0.1693
%
G90
G05
T1
X0.0276Y1.0984
X0.0315Y1.9921
X0.0354Y2.1663
X0.0354Y0.6378
X0.0768Y1.8268
X0.122Y0.8701
X0.122Y0.7126
X0.126Y1.0866
X0.1654Y1.9331
X0.1811Y2.2047
X0.1811Y2.1339
X0.1811Y2.0709
X0.1811Y2.0079
X0.2362Y2.2047
X0.2362Y0.3465
X0.2362Y0.2992
X0.2362Y0.2598
X0.25Y1.8366
X0.2613Y2.0682
X0.2613Y1.9931
X0.264Y2.1459
X0.2766Y1.9134
X0.2992Y2.2047
X0.3051Y1.939
X0.3091Y1.7343
X0.3189Y1.6673
X0.3382Y2.0682
X0.3386Y1.935
X0.3417Y2.1459
X0.3417Y1.9931
X0.3504Y1.8366
X0.378Y2.189
X0.378Y1.4331
X0.378Y1.4016
X0.401Y1.696
X0.4017Y1.9152
X0.4177Y2.1467
X0.4194Y2.069
X0.4362Y1.9181
X0.459Y1.2832
X0.4929Y1.7362
X0.5015Y2.2047
X0.502Y2.1398
X0.5113Y1.9385
X0.5669Y0.2992
X0.5669Y0.2598
X0.5669Y0.2205
X0.5669Y0.1811
X0.6063Y0.2992
X0.6063Y0.2598
X0.6063Y0.2205
X0.6073Y2.1102
X0.6195Y2.0326
X0.6195Y1.9921
X0.6277Y2.1345
X0.6457Y2.4469
X0.653Y2.2559
X0.6693Y0.1496
X0.6772Y1.8583
X0.6772Y1.8189
X0.689Y2.3307
X0.7146Y1.8461
X0.7397Y2.3942
X0.7516Y1.7764
X0.7559Y2.1555
X0.814Y2.4843
X0.8209Y2.2972
X0.8583Y2.4016
X0.8858Y2.4746
X1.0077Y1.0561
X1.0236Y1.2047
X1.0354Y1.9193
X1.0363Y0.0889
X1.0591Y1.9429
X1.0591Y1.8937
X1.0663Y1.2212
X1.0709Y1.8504
X1.0798Y0.4145
X1.0846Y1.9193
X1.09Y0.9626
X1.0914Y1.1933
X1.1024Y1.2264
X1.1063Y0.1535
X1.1102Y1.2618
X1.1142Y0.9409
X1.1148Y0.9859
X1.1326Y0.232
X1.133Y0.2646
X1.1341Y0.1999
X1.136Y1.8177
X1.1374Y1.2376
X1.1378Y0.9154
X1.1383Y0.4038
X1.1401Y0.964
X1.1575Y0.8583
X1.1578Y1.794
X1.1598Y0.4275
X1.161Y1.8434
X1.1631Y0.9416
X1.1648Y0.3761
X1.1713Y0.2646
X1.1724Y0.1991
X1.1726Y0.2311
X1.1805Y1.7708
X1.1832Y0.4503
X1.1858Y1.8226
X1.1876Y0.3986
X1.189Y1.7244
X1.2088Y1.7998
X1.2103Y0.4232
X1.252Y1.6969
X1.2756Y1.6732
X1.2776Y1.7224
X1.2992Y1.6516
X1.3012Y1.6998
X1.3144Y1.6053
X1.3248Y1.6772
T2
X0.8031Y1.9291
X0.8504Y1.9134
X0.8661Y1.9843
X0.9134Y1.9528
X0.9213Y2.0472
X0.9484Y2.23
X0.9484Y2.1749
X0.9484Y2.1198
X0.9528Y2.0
X0.9921Y2.0472
X1.0079Y2.2283
X1.0079Y2.1732
X1.0079Y2.1181
X1.0551Y2.063
X1.063Y2.2283
X1.063Y2.1732
X1.063Y2.1181
X1.0698Y1.1275
X1.0698Y1.0394
X1.1246Y1.8818
X1.126Y2.4646
X1.126Y2.2913
X1.126Y2.2283
X1.126Y2.1732
X1.126Y1.9921
X1.1453Y0.3107
X1.1457Y1.126
X1.1457Y1.0669
X1.1654Y1.3071
X1.1654Y0.1614
X1.1654Y0.0433
X1.185Y2.4646
X1.185Y2.4055
X1.185Y2.3465
X1.185Y2.2874
X1.185Y2.2283
X1.185Y2.1693
X1.185Y1.9921
X1.1855Y1.933
X1.1902Y1.3566
X1.2047Y1.2441
X1.2047Y1.185
X1.2047Y1.126
X1.2047Y1.0669
X1.2047Y1.0079
X1.2047Y0.8898
X1.2077Y0.3107
X1.2126Y1.4094
X1.2244Y0.811
X1.2244Y0.752
X1.2244Y0.6929
X1.2244Y0.6339
X1.2244Y0.5748
X1.2244Y0.5157
X1.2244Y0.1614
X1.2244Y0.1024
X1.2244Y0.0433
X1.2283Y1.3071
X1.2377Y1.4724
X1.2402Y2.122
X1.2427Y1.7603
X1.2441Y2.4646
X1.2441Y2.4055
X1.2441Y2.3465
X1.2441Y2.2874
X1.2441Y2.2283
X1.2441Y2.1732
X1.2441Y2.0512
X1.2441Y1.9921
X1.2441Y1.9331
X1.2441Y1.874
X1.2638Y1.126
X1.2638Y1.0669
X1.2638Y1.0079
X1.2638Y0.9488
X1.2638Y0.8898
X1.2638Y0.3976
X1.2638Y0.3386
X1.2638Y0.2795
X1.2638Y0.2205
X1.2835Y1.5591
X1.2835Y1.5
X1.2835Y1.4409
X1.2835Y1.3819
X1.2835Y0.811
X1.2835Y0.752
X1.2835Y0.6929
X1.2835Y0.1614
X1.2835Y0.1024
X1.2835Y0.0433
X1.2992Y1.3071
X1.3031Y2.4646
X1.3031Y2.4055
X1.3031Y2.3465
X1.3031Y1.8189
X1.3228Y1.2441
X1.3228Y1.185
X1.3228Y1.126
X1.3228Y1.0669
X1.3228Y1.0079
X1.3228Y0.9488
X1.3228Y0.8898
X1.3228Y0.4567
X1.3228Y0.3976
X1.3228Y0.3386
X1.3228Y0.2795
X1.3228Y0.2205
X1.3425Y1.5591
X1.3425Y1.5
X1.3425Y0.811
X1.3425Y0.752
X1.3425Y0.6929
X1.3425Y0.1614
X1.3425Y0.1024
X1.3425Y0.0433
X1.3622Y2.4646
X1.3622Y2.4055
X1.3622Y2.3465
X1.3622Y2.1198
X1.3622Y2.0512
X1.3622Y1.815
X1.3622Y1.7559
X1.373Y1.3002
X1.3819Y1.2441
X1.3819Y1.0079
X1.3819Y0.9488
X1.3819Y0.8898
X1.3819Y0.4567
X1.3819Y0.3976
X1.3819Y0.2205
X1.3937Y1.6457
X1.4016Y1.5591
X1.4016Y0.811
X1.4016Y0.752
X1.4016Y0.6929
X1.4016Y0.1614
X1.4016Y0.1024
X1.4016Y0.0433
X1.4213Y2.4646
X1.4213Y2.4055
X1.4213Y2.3465
X1.4213Y2.0512
X1.4213Y1.815
X1.4213Y1.7559
X1.4213Y1.6969
X1.4409Y1.2441
X1.4409Y1.0079
X1.4409Y0.9488
X1.4409Y0.8898
X1.4409Y0.4567
X1.4409Y0.3976
X1.4409Y0.2205
X1.4528Y1.6457
X1.4606Y1.5591
X1.4606Y1.5
X1.4606Y1.3031
X1.4606Y0.811
X1.4606Y0.752
X1.4606Y0.6929
X1.4606Y0.1614
X1.4606Y0.1024
X1.4606Y0.0433
X1.4803Y2.4646
X1.4803Y2.4055
X1.4803Y2.3465
X1.4803Y2.2874
X1.4803Y2.1198
X1.4803Y2.0512
X1.4803Y1.815
X1.4803Y1.7559
X1.4803Y1.6969
X1.5Y1.2441
X1.5Y1.185
X1.5Y1.126
X1.5Y1.0669
X1.5Y1.0079
X1.5Y0.9488
X1.5Y0.8898
X1.5Y0.4567
X1.5Y0.3976
X1.5Y0.3386
X1.5Y0.2795
X1.5Y0.2205
X1.5118Y1.6457
X1.5197Y1.5591
X1.5197Y1.4803
X1.5197Y1.4213
X1.5197Y1.3622
X1.5197Y1.3031
X1.5197Y0.811
X1.5197Y0.752
X1.5197Y0.6929
X1.5197Y0.6339
X1.5197Y0.5748
X1.5197Y0.5157
X1.5197Y0.1614
X1.5197Y0.1024
X1.5197Y0.0433
X1.5394Y2.4646
X1.5394Y2.4055
X1.5394Y2.3465
X1.5394Y2.2874
X1.5394Y2.2283
X1.5394Y2.1693
X1.5394Y2.1198
X1.5394Y2.0512
X1.5394Y1.9921
X1.5394Y1.9331
X1.5394Y1.874
X1.5394Y1.815
X1.5394Y1.7559
X1.5394Y1.6969
X1.5591Y1.2441
X1.5591Y1.185
X1.5591Y1.126
X1.5591Y1.0669
X1.5591Y1.0079
X1.5591Y0.9488
X1.5591Y0.8898
X1.5591Y0.4567
X1.5591Y0.3976
X1.5591Y0.3386
X1.5591Y0.2795
X1.5591Y0.2205
X1.5709Y1.6457
X1.5787Y1.5591
X1.5787Y1.4803
X1.5787Y1.4213
X1.5787Y1.3622
X1.5787Y1.3031
X1.5787Y0.811
X1.5787Y0.752
X1.5787Y0.6929
X1.5787Y0.6339
X1.5787Y0.5748
X1.5787Y0.5157
X1.5787Y0.1614
X1.5787Y0.1024
X1.5984Y2.4055
X1.5984Y2.2874
X1.5984Y2.2283
X1.5984Y2.1693
X1.5984Y2.1198
X1.5984Y2.0512
X1.5984Y1.9921
X1.5984Y1.9331
X1.5984Y1.874
X1.5984Y1.7559
X1.5984Y1.6969
X1.6181Y1.2441
X1.6181Y1.185
X1.6181Y1.126
X1.6181Y1.0669
X1.6181Y0.9488
X1.6181Y0.8898
X1.6181Y0.4567
X1.6181Y0.3976
X1.6181Y0.3386
X1.6181Y0.2795
X1.6192Y0.2257
X1.6299Y1.6457
X1.6323Y0.135
X1.6378Y1.5669
X1.6378Y1.4803
X1.6378Y1.4213
X1.6378Y1.3622
X1.6378Y1.3031
X1.6378Y0.811
X1.6378Y0.6339
X1.6378Y0.5748
X1.6378Y0.5157
X1.6575Y2.2874
X1.6575Y2.2283
X1.6575Y2.1693
X1.6575Y2.1198
X1.6575Y2.0512
X1.6575Y1.9921
X1.6575Y1.9331
X1.6575Y1.874
X1.6575Y1.7559
X1.6575Y1.6969
X1.6769Y0.2249
X1.6772Y1.2441
X1.6772Y1.185
X1.6772Y1.126
X1.6772Y1.0669
X1.6772Y0.9488
X1.6772Y0.8898
X1.6772Y0.4567
X1.6772Y0.3976
X1.6772Y0.3386
X1.6772Y0.2795
X1.6969Y1.5669
X1.6969Y1.4803
X1.6969Y1.4213
X1.6969Y1.3622
X1.6969Y1.3031
X1.6969Y0.811
X1.6969Y0.6339
X1.6969Y0.5748
X1.6969Y0.5157
T3
X0.7539Y-0.2028
X0.7542Y2.7488
X0.7911Y-0.113
X0.7911Y-0.2925
X0.7913Y2.8386
X0.7913Y2.659
X0.8809Y-0.0758
X0.8809Y-0.3297
X0.8811Y2.8758
X0.8811Y2.6218
X0.9707Y-0.113
X0.9707Y-0.2925
X0.9709Y2.8386
X0.9709Y2.659
X1.0079Y-0.2028
X1.0081Y2.7488
T4
X0.1516Y1.7343
T5
X0.3465Y1.0079
X0.3465Y0.7244
X1.4094Y2.2126
X1.4094Y1.9291
X1.4114Y1.4016
X1.4114Y1.1181
X1.4114Y0.5886
X1.4114Y0.3051
T6
X0.8809Y-0.2028
X0.8811Y2.7488
T3
G00X0.1044Y1.5933
M15
G01X0.0808Y1.5933
M16
G05
G00X0.1044Y1.2531
M15
G01X0.0808Y1.2531
M16
G05
G00X0.0886Y1.1319
M15
G01X0.1319Y1.1319
M16
G05
G00X0.0886Y0.6004
M15
G01X0.1319Y0.6004
M16
G05
G00X0.2788Y1.5933
M15
G01X0.2355Y1.5933
M16
G05
G00X0.2788Y1.2531
M15
G01X0.2355Y1.2531
M16
G05
G00X1.6673Y2.3366
M15
G01X1.624Y2.3366
M16
G05
G00X1.6673Y1.8051
M15
G01X1.624Y1.8051
M16
G05
G00X1.6693Y1.5256
M15
G01X1.626Y1.5256
M16
G05
G00X1.6693Y0.9941
M15
G01X1.626Y0.9941
M16
G05
G00X1.6693Y0.7126
M15
G01X1.626Y0.7126
M16
G05
G00X1.6693Y0.1811
M15
G01X1.626Y0.1811
M16
G05
M30
