%TF.GenerationSoftware,KiCad,Pcbnew,7.0.7*%
%TF.CreationDate,2023-09-08T11:43:04+10:00*%
%TF.ProjectId,JonoBro,4a6f6e6f-4272-46f2-9e6b-696361645f70,rev?*%
%TF.SameCoordinates,Original*%
%TF.FileFunction,Soldermask,Top*%
%TF.FilePolarity,Negative*%
%FSLAX46Y46*%
G04 Gerber Fmt 4.6, Leading zero omitted, Abs format (unit mm)*
G04 Created by KiCad (PCBNEW 7.0.7) date 2023-09-08 11:43:04*
%MOMM*%
%LPD*%
G01*
G04 APERTURE LIST*
G04 Aperture macros list*
%AMRoundRect*
0 Rectangle with rounded corners*
0 $1 Rounding radius*
0 $2 $3 $4 $5 $6 $7 $8 $9 X,Y pos of 4 corners*
0 Add a 4 corners polygon primitive as box body*
4,1,4,$2,$3,$4,$5,$6,$7,$8,$9,$2,$3,0*
0 Add four circle primitives for the rounded corners*
1,1,$1+$1,$2,$3*
1,1,$1+$1,$4,$5*
1,1,$1+$1,$6,$7*
1,1,$1+$1,$8,$9*
0 Add four rect primitives between the rounded corners*
20,1,$1+$1,$2,$3,$4,$5,0*
20,1,$1+$1,$4,$5,$6,$7,0*
20,1,$1+$1,$6,$7,$8,$9,0*
20,1,$1+$1,$8,$9,$2,$3,0*%
%AMRotRect*
0 Rectangle, with rotation*
0 The origin of the aperture is its center*
0 $1 length*
0 $2 width*
0 $3 Rotation angle, in degrees counterclockwise*
0 Add horizontal line*
21,1,$1,$2,0,0,$3*%
%AMFreePoly0*
4,1,17,1.371000,0.720000,0.950000,0.720000,0.950000,0.580000,1.370000,0.580000,1.370000,0.080000,0.950000,0.080000,0.950000,-0.080000,1.370000,-0.080000,1.370000,-0.580000,0.950000,-0.580000,0.950000,-0.720000,1.370000,-0.720000,1.370000,-1.225000,-0.950000,-1.225000,-0.950000,1.225001,1.371000,1.225000,1.371000,0.720000,1.371000,0.720000,$1*%
%AMFreePoly1*
4,1,6,0.725000,-0.725000,-0.725000,-0.725000,-0.725000,0.125000,-0.125000,0.725000,0.725000,0.725000,0.725000,-0.725000,0.725000,-0.725000,$1*%
G04 Aperture macros list end*
%ADD10C,1.500000*%
%ADD11RoundRect,0.200000X0.275000X-0.200000X0.275000X0.200000X-0.275000X0.200000X-0.275000X-0.200000X0*%
%ADD12RoundRect,0.225000X0.250000X-0.225000X0.250000X0.225000X-0.250000X0.225000X-0.250000X-0.225000X0*%
%ADD13C,2.500000*%
%ADD14RoundRect,0.218750X0.256250X-0.218750X0.256250X0.218750X-0.256250X0.218750X-0.256250X-0.218750X0*%
%ADD15R,1.700000X1.700000*%
%ADD16O,1.700000X1.700000*%
%ADD17RoundRect,0.200000X-0.275000X0.200000X-0.275000X-0.200000X0.275000X-0.200000X0.275000X0.200000X0*%
%ADD18RoundRect,0.200000X-0.200000X-0.275000X0.200000X-0.275000X0.200000X0.275000X-0.200000X0.275000X0*%
%ADD19RoundRect,0.250000X-0.550000X1.500000X-0.550000X-1.500000X0.550000X-1.500000X0.550000X1.500000X0*%
%ADD20C,2.800000*%
%ADD21R,1.200000X1.200000*%
%ADD22R,2.000000X0.900000*%
%ADD23R,4.100000X4.100000*%
%ADD24C,4.100000*%
%ADD25RotRect,0.630000X0.500000X50.000000*%
%ADD26FreePoly0,50.000000*%
%ADD27RoundRect,0.112500X0.053033X0.212132X-0.212132X-0.053033X-0.053033X-0.212132X0.212132X0.053033X0*%
%ADD28R,0.400000X0.800000*%
%ADD29R,0.800000X0.400000*%
%ADD30FreePoly1,270.000000*%
%ADD31R,1.450000X1.450000*%
%ADD32R,0.700000X0.700000*%
%ADD33RoundRect,0.200000X0.200000X0.275000X-0.200000X0.275000X-0.200000X-0.275000X0.200000X-0.275000X0*%
%ADD34RoundRect,0.225000X-0.250000X0.225000X-0.250000X-0.225000X0.250000X-0.225000X0.250000X0.225000X0*%
%ADD35RoundRect,0.150000X0.150000X-0.587500X0.150000X0.587500X-0.150000X0.587500X-0.150000X-0.587500X0*%
%ADD36RoundRect,0.150000X0.512500X0.150000X-0.512500X0.150000X-0.512500X-0.150000X0.512500X-0.150000X0*%
%ADD37R,1.500000X2.500000*%
%ADD38C,2.000000*%
G04 APERTURE END LIST*
D10*
%TO.C,FID2*%
X160000000Y-65500000D03*
%TD*%
D11*
%TO.C,R8*%
X141088353Y-93678731D03*
X141088353Y-92028731D03*
%TD*%
D12*
%TO.C,C7*%
X134289908Y-108024973D03*
X134289908Y-106474973D03*
%TD*%
D13*
%TO.C,H1*%
X144000000Y-98500000D03*
%TD*%
%TO.C,H2*%
X136588353Y-70253731D03*
%TD*%
D14*
%TO.C,D2*%
X140838353Y-115041231D03*
X140838353Y-113466231D03*
%TD*%
D11*
%TO.C,R1*%
X132162395Y-104882780D03*
X132162395Y-103232780D03*
%TD*%
%TO.C,R6*%
X142588353Y-111828731D03*
X142588353Y-110178731D03*
%TD*%
D15*
%TO.C,J5*%
X144974320Y-118053731D03*
D16*
X147514320Y-118053731D03*
X150054320Y-118053731D03*
X152594320Y-118053731D03*
X155134320Y-118053731D03*
X157674320Y-118053731D03*
%TD*%
D17*
%TO.C,R9*%
X146288353Y-92828731D03*
X146288353Y-94478731D03*
%TD*%
D18*
%TO.C,R7*%
X142013353Y-104253731D03*
X143663353Y-104253731D03*
%TD*%
D19*
%TO.C,C5*%
X136467663Y-109600687D03*
X136467663Y-115200687D03*
%TD*%
%TO.C,C1*%
X123567663Y-108053731D03*
X123567663Y-113453731D03*
%TD*%
D14*
%TO.C,D3*%
X142588353Y-115041231D03*
X142588353Y-113466231D03*
%TD*%
D20*
%TO.C,TP3*%
X121600000Y-104600000D03*
%TD*%
D12*
%TO.C,C8*%
X150088353Y-102028731D03*
X150088353Y-100478731D03*
%TD*%
D21*
%TO.C,D1*%
X128640199Y-114928152D03*
X131440199Y-114928152D03*
%TD*%
D22*
%TO.C,J1*%
X121850000Y-81571987D03*
D23*
X127850000Y-71221987D03*
D22*
X121850000Y-68071987D03*
D24*
X127850000Y-78421987D03*
%TD*%
D11*
%TO.C,R3*%
X140838353Y-111828731D03*
X140838353Y-110178731D03*
%TD*%
D25*
%TO.C,Q3*%
X140249751Y-88470842D03*
X140740019Y-88882226D03*
X141245609Y-89306466D03*
X141735877Y-89717850D03*
D26*
X142165901Y-87696315D03*
%TD*%
D12*
%TO.C,C3*%
X126067663Y-105175687D03*
X126067663Y-103625687D03*
%TD*%
D11*
%TO.C,R5*%
X148400825Y-102078731D03*
X148400825Y-100428731D03*
%TD*%
D27*
%TO.C,D4*%
X153838507Y-84230679D03*
X152353583Y-85715603D03*
%TD*%
D28*
%TO.C,U2*%
X154282962Y-103849122D03*
X153482962Y-103849122D03*
X152682962Y-103849122D03*
X151882962Y-103849122D03*
X151082962Y-103849122D03*
X150282962Y-103849122D03*
X149482962Y-103849122D03*
X148682962Y-103849122D03*
X147882962Y-103849122D03*
X147082962Y-103849122D03*
X146282962Y-103849122D03*
D29*
X145382962Y-104949122D03*
X145382962Y-105749122D03*
X145382962Y-106549122D03*
X145382962Y-107349122D03*
X145382962Y-108149122D03*
X145382962Y-108949122D03*
X145382962Y-109749122D03*
X145382962Y-110549122D03*
X145382962Y-111349122D03*
X145382962Y-112149122D03*
X145382962Y-112949122D03*
X145382962Y-113749122D03*
X145382962Y-114549122D03*
D28*
X146282962Y-115649122D03*
X147082962Y-115649122D03*
X147882962Y-115649122D03*
X148682962Y-115649122D03*
X149482962Y-115649122D03*
X150282962Y-115649122D03*
X151082962Y-115649122D03*
X151882962Y-115649122D03*
X152682962Y-115649122D03*
X153482962Y-115649122D03*
X154282962Y-115649122D03*
D29*
X155182962Y-114549122D03*
X155182962Y-113749122D03*
X155182962Y-112949122D03*
X155182962Y-112149122D03*
X155182962Y-111349122D03*
X155182962Y-110549122D03*
X155182962Y-109749122D03*
X155182962Y-108949122D03*
X155182962Y-108149122D03*
X155182962Y-107349122D03*
X155182962Y-106549122D03*
X155182962Y-105749122D03*
X155182962Y-104949122D03*
D30*
X152257962Y-107774122D03*
D31*
X150282962Y-107774122D03*
X148307962Y-107774122D03*
X152257962Y-109749122D03*
X150282962Y-109749122D03*
X148307962Y-109749122D03*
X152257962Y-111724122D03*
X150282962Y-111724122D03*
X148307962Y-111724122D03*
D32*
X155232962Y-115699122D03*
X145332962Y-115699122D03*
X145332962Y-103799122D03*
X155232962Y-103799122D03*
%TD*%
D33*
%TO.C,R2*%
X130653448Y-103278427D03*
X129003448Y-103278427D03*
%TD*%
D34*
%TO.C,C4*%
X132167663Y-106325687D03*
X132167663Y-107875687D03*
%TD*%
D35*
%TO.C,Q2*%
X142738353Y-93991231D03*
X144638353Y-93991231D03*
X143688353Y-92116231D03*
%TD*%
D10*
%TO.C,FID3*%
X160500000Y-118000000D03*
%TD*%
D36*
%TO.C,U1*%
X130405126Y-106946096D03*
X130405126Y-105996096D03*
X130405126Y-105046096D03*
X128130126Y-105046096D03*
X128130126Y-105996096D03*
X128130126Y-106946096D03*
%TD*%
D10*
%TO.C,FID1*%
X121500000Y-65500000D03*
%TD*%
D22*
%TO.C,J2*%
X159138353Y-87503731D03*
D23*
X153138353Y-97853731D03*
D22*
X159138353Y-101003731D03*
D24*
X153138353Y-90653731D03*
%TD*%
D12*
%TO.C,C6*%
X136088353Y-106528731D03*
X136088353Y-104978731D03*
%TD*%
D37*
%TO.C,L1*%
X128117663Y-111100687D03*
X131817663Y-111100687D03*
%TD*%
D12*
%TO.C,C2*%
X124567663Y-105175687D03*
X124567663Y-103625687D03*
%TD*%
D10*
%TO.C,FID4*%
X122500000Y-117500000D03*
%TD*%
D38*
%TO.C,TP1*%
X137800000Y-118600000D03*
%TD*%
%TO.C,TP2*%
X135000000Y-118600000D03*
%TD*%
D18*
%TO.C,R4*%
X142021646Y-105871537D03*
X143671646Y-105871537D03*
%TD*%
D22*
%TO.C,J4*%
X121950000Y-100950000D03*
D23*
X127950000Y-97800000D03*
D22*
X121950000Y-87450000D03*
D24*
X127950000Y-90600000D03*
%TD*%
D25*
%TO.C,Q1*%
X136200213Y-84950405D03*
X136690481Y-85361789D03*
X137196071Y-85786029D03*
X137686339Y-86197413D03*
D26*
X138116363Y-84175878D03*
%TD*%
D22*
%TO.C,J3*%
X159062574Y-68479017D03*
D23*
X153062574Y-78829017D03*
D22*
X159062574Y-81979017D03*
D24*
X153062574Y-71629017D03*
%TD*%
M02*
