%TF.GenerationSoftware,KiCad,Pcbnew,8.0.0*%
%TF.CreationDate,2024-05-13T20:24:03+10:00*%
%TF.ProjectId,JonoBro,4a6f6e6f-4272-46f2-9e6b-696361645f70,0.2*%
%TF.SameCoordinates,Original*%
%TF.FileFunction,Copper,L1,Top*%
%TF.FilePolarity,Positive*%
%FSLAX46Y46*%
G04 Gerber Fmt 4.6, Leading zero omitted, Abs format (unit mm)*
G04 Created by KiCad (PCBNEW 8.0.0) date 2024-05-13 20:24:03*
%MOMM*%
%LPD*%
G01*
G04 APERTURE LIST*
G04 Aperture macros list*
%AMRoundRect*
0 Rectangle with rounded corners*
0 $1 Rounding radius*
0 $2 $3 $4 $5 $6 $7 $8 $9 X,Y pos of 4 corners*
0 Add a 4 corners polygon primitive as box body*
4,1,4,$2,$3,$4,$5,$6,$7,$8,$9,$2,$3,0*
0 Add four circle primitives for the rounded corners*
1,1,$1+$1,$2,$3*
1,1,$1+$1,$4,$5*
1,1,$1+$1,$6,$7*
1,1,$1+$1,$8,$9*
0 Add four rect primitives between the rounded corners*
20,1,$1+$1,$2,$3,$4,$5,0*
20,1,$1+$1,$4,$5,$6,$7,0*
20,1,$1+$1,$6,$7,$8,$9,0*
20,1,$1+$1,$8,$9,$2,$3,0*%
%AMRotRect*
0 Rectangle, with rotation*
0 The origin of the aperture is its center*
0 $1 length*
0 $2 width*
0 $3 Rotation angle, in degrees counterclockwise*
0 Add horizontal line*
21,1,$1,$2,0,0,$3*%
%AMFreePoly0*
4,1,17,1.371000,0.719999,0.950000,0.719999,0.950000,0.579999,1.370000,0.580000,1.370000,0.080000,0.950000,0.080000,0.950000,-0.080000,1.370000,-0.080000,1.370000,-0.580000,0.950000,-0.579999,0.950000,-0.719999,1.370000,-0.720000,1.370000,-1.225000,-0.950000,-1.225000,-0.950000,1.225000,1.371000,1.225000,1.371000,0.719999,1.371000,0.719999,$1*%
%AMFreePoly1*
4,1,6,0.725000,-0.725000,-0.725000,-0.725000,-0.725000,0.125000,-0.125000,0.725000,0.725000,0.725000,0.725000,-0.725000,0.725000,-0.725000,$1*%
G04 Aperture macros list end*
%TA.AperFunction,SMDPad,CuDef*%
%ADD10RoundRect,0.200000X0.200000X0.275000X-0.200000X0.275000X-0.200000X-0.275000X0.200000X-0.275000X0*%
%TD*%
%TA.AperFunction,SMDPad,CuDef*%
%ADD11RoundRect,0.200000X0.275000X-0.200000X0.275000X0.200000X-0.275000X0.200000X-0.275000X-0.200000X0*%
%TD*%
%TA.AperFunction,SMDPad,CuDef*%
%ADD12RoundRect,0.225000X-0.225000X-0.250000X0.225000X-0.250000X0.225000X0.250000X-0.225000X0.250000X0*%
%TD*%
%TA.AperFunction,SMDPad,CuDef*%
%ADD13RoundRect,0.225000X0.250000X-0.225000X0.250000X0.225000X-0.250000X0.225000X-0.250000X-0.225000X0*%
%TD*%
%TA.AperFunction,SMDPad,CuDef*%
%ADD14RotRect,0.630000X0.500000X45.000000*%
%TD*%
%TA.AperFunction,SMDPad,CuDef*%
%ADD15FreePoly0,45.000000*%
%TD*%
%TA.AperFunction,ComponentPad*%
%ADD16C,0.900000*%
%TD*%
%TA.AperFunction,ComponentPad*%
%ADD17C,8.600000*%
%TD*%
%TA.AperFunction,SMDPad,CuDef*%
%ADD18RoundRect,0.225000X-0.250000X0.225000X-0.250000X-0.225000X0.250000X-0.225000X0.250000X0.225000X0*%
%TD*%
%TA.AperFunction,SMDPad,CuDef*%
%ADD19C,1.000000*%
%TD*%
%TA.AperFunction,SMDPad,CuDef*%
%ADD20RoundRect,0.200000X-0.200000X-0.275000X0.200000X-0.275000X0.200000X0.275000X-0.200000X0.275000X0*%
%TD*%
%TA.AperFunction,SMDPad,CuDef*%
%ADD21R,0.700000X0.700000*%
%TD*%
%TA.AperFunction,SMDPad,CuDef*%
%ADD22RoundRect,0.200000X-0.275000X0.200000X-0.275000X-0.200000X0.275000X-0.200000X0.275000X0.200000X0*%
%TD*%
%TA.AperFunction,SMDPad,CuDef*%
%ADD23R,1.450000X0.600000*%
%TD*%
%TA.AperFunction,SMDPad,CuDef*%
%ADD24R,1.450000X0.300000*%
%TD*%
%TA.AperFunction,ComponentPad*%
%ADD25O,2.100000X1.000000*%
%TD*%
%TA.AperFunction,ComponentPad*%
%ADD26O,1.600000X1.000000*%
%TD*%
%TA.AperFunction,SMDPad,CuDef*%
%ADD27R,0.630000X0.500000*%
%TD*%
%TA.AperFunction,SMDPad,CuDef*%
%ADD28FreePoly0,0.000000*%
%TD*%
%TA.AperFunction,SMDPad,CuDef*%
%ADD29RoundRect,0.250000X0.550000X-1.500000X0.550000X1.500000X-0.550000X1.500000X-0.550000X-1.500000X0*%
%TD*%
%TA.AperFunction,ComponentPad*%
%ADD30C,3.200000*%
%TD*%
%TA.AperFunction,SMDPad,CuDef*%
%ADD31R,1.200000X1.200000*%
%TD*%
%TA.AperFunction,SMDPad,CuDef*%
%ADD32RotRect,0.630000X0.500000X315.000000*%
%TD*%
%TA.AperFunction,SMDPad,CuDef*%
%ADD33FreePoly0,315.000000*%
%TD*%
%TA.AperFunction,ComponentPad*%
%ADD34R,2.000000X0.900000*%
%TD*%
%TA.AperFunction,ComponentPad*%
%ADD35R,4.100000X4.100000*%
%TD*%
%TA.AperFunction,ComponentPad*%
%ADD36C,4.100000*%
%TD*%
%TA.AperFunction,SMDPad,CuDef*%
%ADD37RoundRect,0.150000X-0.150000X0.587500X-0.150000X-0.587500X0.150000X-0.587500X0.150000X0.587500X0*%
%TD*%
%TA.AperFunction,SMDPad,CuDef*%
%ADD38RoundRect,0.112500X-0.212132X0.053033X0.053033X-0.212132X0.212132X-0.053033X-0.053033X0.212132X0*%
%TD*%
%TA.AperFunction,SMDPad,CuDef*%
%ADD39R,0.800000X0.400000*%
%TD*%
%TA.AperFunction,SMDPad,CuDef*%
%ADD40R,0.400000X0.800000*%
%TD*%
%TA.AperFunction,SMDPad,CuDef*%
%ADD41FreePoly1,0.000000*%
%TD*%
%TA.AperFunction,SMDPad,CuDef*%
%ADD42R,1.450000X1.450000*%
%TD*%
%TA.AperFunction,SMDPad,CuDef*%
%ADD43RoundRect,0.150000X-0.512500X-0.150000X0.512500X-0.150000X0.512500X0.150000X-0.512500X0.150000X0*%
%TD*%
%TA.AperFunction,SMDPad,CuDef*%
%ADD44RoundRect,0.112500X-0.187500X-0.112500X0.187500X-0.112500X0.187500X0.112500X-0.187500X0.112500X0*%
%TD*%
%TA.AperFunction,SMDPad,CuDef*%
%ADD45RoundRect,0.112500X0.187500X0.112500X-0.187500X0.112500X-0.187500X-0.112500X0.187500X-0.112500X0*%
%TD*%
%TA.AperFunction,SMDPad,CuDef*%
%ADD46R,1.500000X2.500000*%
%TD*%
%TA.AperFunction,ViaPad*%
%ADD47C,0.600000*%
%TD*%
%TA.AperFunction,ViaPad*%
%ADD48C,0.800000*%
%TD*%
%TA.AperFunction,Conductor*%
%ADD49C,0.600000*%
%TD*%
%TA.AperFunction,Conductor*%
%ADD50C,0.200000*%
%TD*%
%TA.AperFunction,Conductor*%
%ADD51C,0.400000*%
%TD*%
%TA.AperFunction,Conductor*%
%ADD52C,0.500000*%
%TD*%
%TA.AperFunction,Conductor*%
%ADD53C,0.800000*%
%TD*%
G04 APERTURE END LIST*
D10*
%TO.P,R13,1*%
%TO.N,GND*%
X11226472Y37400000D03*
%TO.P,R13,2*%
%TO.N,Net-(J6-CC1)*%
X9576472Y37400000D03*
%TD*%
D11*
%TO.P,R19,1*%
%TO.N,+12V*%
X11741404Y44030268D03*
%TO.P,R19,2*%
%TO.N,SWITCH*%
X11741404Y45680268D03*
%TD*%
D12*
%TO.P,C11,1*%
%TO.N,PXL_PWR*%
X16825000Y56450000D03*
%TO.P,C11,2*%
%TO.N,GND*%
X18375000Y56450000D03*
%TD*%
D13*
%TO.P,C9,1*%
%TO.N,+12V*%
X13296697Y44079327D03*
%TO.P,C9,2*%
%TO.N,SWITCH*%
X13296697Y45629327D03*
%TD*%
D14*
%TO.P,Q10,1,S*%
%TO.N,GND*%
X24765301Y48361765D03*
%TO.P,Q10,2,S*%
X25217849Y47909216D03*
%TO.P,Q10,3,S*%
X25684539Y47442526D03*
%TO.P,Q10,4,G*%
%TO.N,Net-(Q1-G)*%
X26137088Y46989978D03*
D15*
%TO.P,Q10,5,D*%
%TO.N,Net-(D4-A)*%
X26741664Y48966341D03*
%TD*%
D11*
%TO.P,R8,1*%
%TO.N,MOSFET_WS*%
X18000000Y61425000D03*
%TO.P,R8,2*%
%TO.N,Net-(Q2-B)*%
X18000000Y63075000D03*
%TD*%
D16*
%TO.P,H4,1*%
%TO.N,N/C*%
X19150000Y-5150000D03*
X20094581Y-2869581D03*
X20094581Y-7430419D03*
X22375000Y-1925000D03*
D17*
X22375000Y-5150000D03*
D16*
X22375000Y-8375000D03*
X24655419Y-2869581D03*
X24655419Y-7430419D03*
X25600000Y-5150000D03*
%TD*%
D18*
%TO.P,C7,1*%
%TO.N,+3.3V*%
X4956798Y2833571D03*
%TO.P,C7,2*%
%TO.N,GND*%
X4956798Y1283571D03*
%TD*%
D19*
%TO.P,TP8,1,1*%
%TO.N,+12V*%
X19100000Y45100000D03*
%TD*%
D20*
%TO.P,R15,1*%
%TO.N,MOSFET_RMR*%
X19975000Y53475000D03*
%TO.P,R15,2*%
%TO.N,Net-(Q4-B)*%
X21625000Y53475000D03*
%TD*%
D21*
%TO.P,D2,1,DO*%
%TO.N,unconnected-(D2-DO-Pad1)*%
X18415000Y58085000D03*
%TO.P,D2,2,GND*%
%TO.N,GND*%
X18415000Y59185000D03*
%TO.P,D2,3,DI*%
%TO.N,PXL*%
X16585000Y59185000D03*
%TO.P,D2,4,VDD*%
%TO.N,PXL_PWR*%
X16585000Y58085000D03*
%TD*%
D22*
%TO.P,R1,1*%
%TO.N,+3.3V*%
X8229310Y2882093D03*
%TO.P,R1,2*%
%TO.N,Net-(U1-FB)*%
X8229310Y1232093D03*
%TD*%
D23*
%TO.P,J6,A1,GND*%
%TO.N,GND*%
X7446472Y39400000D03*
%TO.P,J6,A4,VBUS*%
%TO.N,USB_VBUS*%
X7446472Y38600000D03*
D24*
%TO.P,J6,A5,CC1*%
%TO.N,Net-(J6-CC1)*%
X7446472Y37400000D03*
%TO.P,J6,A6,D+*%
%TO.N,USBD+*%
X7446472Y36400000D03*
%TO.P,J6,A7,D-*%
%TO.N,USBD-*%
X7446472Y35900000D03*
%TO.P,J6,A8,SBU1*%
%TO.N,unconnected-(J6-SBU1-PadA8)*%
X7446472Y34900000D03*
D23*
%TO.P,J6,A9,VBUS*%
%TO.N,USB_VBUS*%
X7446472Y33700000D03*
%TO.P,J6,A12,GND*%
%TO.N,GND*%
X7446472Y32900000D03*
%TO.P,J6,B1,GND*%
X7446472Y32900000D03*
%TO.P,J6,B4,VBUS*%
%TO.N,USB_VBUS*%
X7446472Y33700000D03*
D24*
%TO.P,J6,B5,CC2*%
%TO.N,Net-(J6-CC2)*%
X7446472Y34400000D03*
%TO.P,J6,B6,D+*%
%TO.N,USBD+*%
X7446472Y35400000D03*
%TO.P,J6,B7,D-*%
%TO.N,USBD-*%
X7446472Y36900000D03*
%TO.P,J6,B8,SBU2*%
%TO.N,unconnected-(J6-SBU2-PadB8)*%
X7446472Y37900000D03*
D23*
%TO.P,J6,B9,VBUS*%
%TO.N,USB_VBUS*%
X7446472Y38600000D03*
%TO.P,J6,B12,GND*%
%TO.N,GND*%
X7446472Y39400000D03*
D25*
%TO.P,J6,S1,SHIELD*%
X6531472Y40470000D03*
D26*
X2351472Y40470000D03*
D25*
X6531472Y31830000D03*
D26*
X2351472Y31830000D03*
%TD*%
D11*
%TO.P,R9,1*%
%TO.N,+12V*%
X16400000Y61425000D03*
%TO.P,R9,2*%
%TO.N,Net-(Q1-G)*%
X16400000Y63075000D03*
%TD*%
D27*
%TO.P,Q6,1,S*%
%TO.N,GND*%
X27450000Y6860000D03*
%TO.P,Q6,2,S*%
X27450000Y6220000D03*
%TO.P,Q6,3,S*%
X27450000Y5560000D03*
%TO.P,Q6,4,G*%
%TO.N,Net-(Q4-C)*%
X27450000Y4920000D03*
D28*
%TO.P,Q6,5,D*%
%TO.N,Net-(D6-A)*%
X29275000Y5890000D03*
%TD*%
D11*
%TO.P,R7,1*%
%TO.N,+12V*%
X10166093Y44025000D03*
%TO.P,R7,2*%
%TO.N,VIn*%
X10166093Y45675000D03*
%TD*%
D29*
%TO.P,C5,1*%
%TO.N,+3.3V*%
X4000000Y5800000D03*
%TO.P,C5,2*%
%TO.N,GND*%
X4000000Y11400000D03*
%TD*%
%TO.P,C1,1*%
%TO.N,+12V*%
X17000000Y6100000D03*
%TO.P,C1,2*%
%TO.N,GND*%
X17000000Y11500000D03*
%TD*%
D16*
%TO.P,H3,1*%
%TO.N,N/C*%
X19155419Y69819581D03*
X20100000Y72100000D03*
X20100000Y67539162D03*
X22380419Y73044581D03*
D17*
X22380419Y69819581D03*
D16*
X22380419Y66594581D03*
X24660838Y72100000D03*
X24660838Y67539162D03*
X25605419Y69819581D03*
%TD*%
D20*
%TO.P,R12,1*%
%TO.N,+3.3V*%
X11591093Y42455364D03*
%TO.P,R12,2*%
%TO.N,Net-(U2-GPIO9)*%
X13241093Y42455364D03*
%TD*%
D30*
%TO.P,TP3,1,1*%
%TO.N,SWITCH*%
X3850000Y44052432D03*
%TD*%
D13*
%TO.P,C8,1*%
%TO.N,+3.3V*%
X896494Y55825000D03*
%TO.P,C8,2*%
%TO.N,GND*%
X896494Y57375000D03*
%TD*%
D20*
%TO.P,R17,1*%
%TO.N,MOSFET_LMR*%
X16775000Y52800000D03*
%TO.P,R17,2*%
%TO.N,Net-(Q7-B)*%
X18425000Y52800000D03*
%TD*%
D31*
%TO.P,D1,1,K*%
%TO.N,Net-(D1-K)*%
X11800000Y12800000D03*
%TO.P,D1,2,A*%
%TO.N,GND*%
X9000000Y12800000D03*
%TD*%
D14*
%TO.P,Q9,1,S*%
%TO.N,GND*%
X26665301Y23561765D03*
%TO.P,Q9,2,S*%
X27117849Y23109216D03*
%TO.P,Q9,3,S*%
X27584539Y22642526D03*
%TO.P,Q9,4,G*%
%TO.N,Net-(Q7-C)*%
X28037088Y22189978D03*
D15*
%TO.P,Q9,5,D*%
%TO.N,Net-(D7-A)*%
X28641664Y24166341D03*
%TD*%
D14*
%TO.P,Q3,1,S*%
%TO.N,GND*%
X30777396Y42275585D03*
%TO.P,Q3,2,S*%
X31229944Y41823036D03*
%TO.P,Q3,3,S*%
X31696634Y41356346D03*
%TO.P,Q3,4,G*%
%TO.N,Net-(Q1-G)*%
X32149183Y40903798D03*
D15*
%TO.P,Q3,5,D*%
%TO.N,Net-(D4-A)*%
X32753759Y42880161D03*
%TD*%
D32*
%TO.P,Q8,1,S*%
%TO.N,GND*%
X27371787Y33171786D03*
%TO.P,Q8,2,S*%
X26919238Y32719238D03*
%TO.P,Q8,3,S*%
X26452548Y32252548D03*
%TO.P,Q8,4,G*%
%TO.N,Net-(Q7-C)*%
X26000000Y31799999D03*
D33*
%TO.P,Q8,5,D*%
%TO.N,Net-(D7-A)*%
X27976363Y31195423D03*
%TD*%
D18*
%TO.P,C3,1*%
%TO.N,+12V*%
X14100000Y3125000D03*
%TO.P,C3,2*%
%TO.N,GND*%
X14100000Y1575000D03*
%TD*%
D22*
%TO.P,R5,1*%
%TO.N,+3.3V*%
X897661Y51175000D03*
%TO.P,R5,2*%
%TO.N,Net-(U2-EN{slash}CHIP_PU)*%
X897661Y49525000D03*
%TD*%
D10*
%TO.P,R11,1*%
%TO.N,+3.3V*%
X8741093Y42455364D03*
%TO.P,R11,2*%
%TO.N,Net-(U2-GPIO8)*%
X7091093Y42455364D03*
%TD*%
D34*
%TO.P,J1,*%
%TO.N,*%
X41850000Y38750000D03*
X41850000Y25250000D03*
D35*
%TO.P,J1,1,Pin_1*%
%TO.N,Net-(D7-A)*%
X35850000Y28400000D03*
D36*
%TO.P,J1,2,Pin_2*%
%TO.N,+12V*%
X35850000Y35600000D03*
%TD*%
D37*
%TO.P,Q4,1,B*%
%TO.N,Net-(Q4-B)*%
X18350000Y50537500D03*
%TO.P,Q4,2,E*%
%TO.N,GND*%
X16450000Y50537500D03*
%TO.P,Q4,3,C*%
%TO.N,Net-(Q4-C)*%
X17400000Y48662500D03*
%TD*%
D34*
%TO.P,J3,*%
%TO.N,*%
X41800000Y59350000D03*
X41800000Y45850000D03*
D35*
%TO.P,J3,1,Pin_1*%
%TO.N,Net-(D4-A)*%
X35800000Y49000000D03*
D36*
%TO.P,J3,2,Pin_2*%
%TO.N,+12V*%
X35800000Y56200000D03*
%TD*%
D38*
%TO.P,D4,1,K*%
%TO.N,+12V*%
X28607538Y53222462D03*
%TO.P,D4,2,A*%
%TO.N,Net-(D4-A)*%
X30092462Y51737538D03*
%TD*%
D39*
%TO.P,U2,1,GND*%
%TO.N,GND*%
X2725000Y56600000D03*
%TO.P,U2,2,GND*%
X2725000Y55800000D03*
%TO.P,U2,3,3V3*%
%TO.N,+3.3V*%
X2725000Y55000000D03*
%TO.P,U2,4,NC*%
%TO.N,unconnected-(U2-NC-Pad4)*%
X2725000Y54200000D03*
%TO.P,U2,5,GPIO2/ADC1_CH2*%
%TO.N,Net-(U2-GPIO2{slash}ADC1_CH2)*%
X2725000Y53400000D03*
%TO.P,U2,6,GPIO3/ADC1_CH3*%
%TO.N,PXL_PWR*%
X2725000Y52600000D03*
%TO.P,U2,7,NC*%
%TO.N,unconnected-(U2-NC-Pad7)*%
X2725000Y51800000D03*
%TO.P,U2,8,EN/CHIP_PU*%
%TO.N,Net-(U2-EN{slash}CHIP_PU)*%
X2725000Y51000000D03*
%TO.P,U2,9,NC*%
%TO.N,unconnected-(U2-NC-Pad9)*%
X2725000Y50200000D03*
%TO.P,U2,10,NC*%
%TO.N,unconnected-(U2-NC-Pad10)*%
X2725000Y49400000D03*
%TO.P,U2,11,GND*%
%TO.N,GND*%
X2725000Y48600000D03*
D40*
%TO.P,U2,12,GPIO0/ADC1_CH0/XTAL_32K_P*%
%TO.N,unconnected-(U2-GPIO0{slash}ADC1_CH0{slash}XTAL_32K_P-Pad12)*%
X3825000Y47700000D03*
%TO.P,U2,13,GPIO1/ADC1_CH1/XTAL_32K_N*%
%TO.N,VIn*%
X4625000Y47700000D03*
%TO.P,U2,14,GND*%
%TO.N,GND*%
X5425000Y47700000D03*
%TO.P,U2,15,NC*%
%TO.N,unconnected-(U2-NC-Pad15)*%
X6225000Y47700000D03*
%TO.P,U2,16,GPIO10*%
%TO.N,MOSFET_WS*%
X7025000Y47700000D03*
%TO.P,U2,17,NC*%
%TO.N,unconnected-(U2-NC-Pad17)*%
X7825000Y47700000D03*
%TO.P,U2,18,GPIO4/ADC1_CH4*%
%TO.N,PXL*%
X8625000Y47700000D03*
%TO.P,U2,19,GPIO5/ADC2_CH0*%
%TO.N,SWITCH*%
X9425000Y47700000D03*
%TO.P,U2,20,GPIO6*%
%TO.N,MOSFET_LMR*%
X10225000Y47700000D03*
%TO.P,U2,21,GPIO7*%
%TO.N,MOSFET_RMR*%
X11025000Y47700000D03*
%TO.P,U2,22,GPIO8*%
%TO.N,Net-(U2-GPIO8)*%
X11825000Y47700000D03*
%TO.P,U2,23,GPIO9*%
%TO.N,Net-(U2-GPIO9)*%
X12625000Y47700000D03*
%TO.P,U2,24,NC*%
%TO.N,unconnected-(U2-NC-Pad24)*%
X13425000Y47700000D03*
D39*
%TO.P,U2,25,NC*%
%TO.N,unconnected-(U2-NC-Pad25)*%
X14525000Y48600000D03*
%TO.P,U2,26,GPIO18/USB_D-*%
%TO.N,USBD-*%
X14525000Y49400000D03*
%TO.P,U2,27,GPIO19/USB_D+*%
%TO.N,USBD+*%
X14525000Y50200000D03*
%TO.P,U2,28,NC*%
%TO.N,unconnected-(U2-NC-Pad28)*%
X14525000Y51000000D03*
%TO.P,U2,29,NC*%
%TO.N,unconnected-(U2-NC-Pad29)*%
X14525000Y51800000D03*
%TO.P,U2,30,GPIO20/U0RXD*%
%TO.N,Net-(U2-GPIO20{slash}U0RXD)*%
X14525000Y52600000D03*
%TO.P,U2,31,GPIO21/U0TXD*%
%TO.N,Net-(U2-GPIO21{slash}U0TXD)*%
X14525000Y53400000D03*
%TO.P,U2,32,NC*%
%TO.N,unconnected-(U2-NC-Pad32)*%
X14525000Y54200000D03*
%TO.P,U2,33,NC*%
%TO.N,unconnected-(U2-NC-Pad33)*%
X14525000Y55000000D03*
%TO.P,U2,34,NC*%
%TO.N,unconnected-(U2-NC-Pad34)*%
X14525000Y55800000D03*
%TO.P,U2,35,NC*%
%TO.N,unconnected-(U2-NC-Pad35)*%
X14525000Y56600000D03*
D40*
%TO.P,U2,36,GND*%
%TO.N,GND*%
X13425000Y57500000D03*
%TO.P,U2,37,GND*%
X12625000Y57500000D03*
%TO.P,U2,38,GND*%
X11825000Y57500000D03*
%TO.P,U2,39,GND*%
X11025000Y57500000D03*
%TO.P,U2,40,GND*%
X10225000Y57500000D03*
%TO.P,U2,41,GND*%
X9425000Y57500000D03*
%TO.P,U2,42,GND*%
X8625000Y57500000D03*
%TO.P,U2,43,GND*%
X7825000Y57500000D03*
%TO.P,U2,44,GND*%
X7025000Y57500000D03*
%TO.P,U2,45,GND*%
X6225000Y57500000D03*
%TO.P,U2,46,GND*%
X5425000Y57500000D03*
%TO.P,U2,47,GND*%
X4625000Y57500000D03*
%TO.P,U2,48,GND*%
X3825000Y57500000D03*
D41*
%TO.P,U2,49,GND*%
X6650000Y54575000D03*
D42*
X6650000Y52600000D03*
X6650000Y50625000D03*
X8625000Y54575000D03*
X8625000Y52600000D03*
X8625000Y50625000D03*
X10600000Y54575000D03*
X10600000Y52600000D03*
X10600000Y50625000D03*
D21*
%TO.P,U2,50,GND*%
X14575000Y57550000D03*
%TO.P,U2,51,GND*%
X14575000Y47650000D03*
%TO.P,U2,52,GND*%
X2675000Y47650000D03*
%TO.P,U2,53,GND*%
X2675000Y57550000D03*
%TD*%
D20*
%TO.P,R2,1*%
%TO.N,Net-(U1-FB)*%
X9804309Y1303044D03*
%TO.P,R2,2*%
%TO.N,GND*%
X11454309Y1303044D03*
%TD*%
D18*
%TO.P,C10,1*%
%TO.N,VIn*%
X7091704Y45618967D03*
%TO.P,C10,2*%
%TO.N,GND*%
X7091704Y44068967D03*
%TD*%
D13*
%TO.P,C4,1*%
%TO.N,Net-(U1-BST)*%
X8229310Y4325000D03*
%TO.P,C4,2*%
%TO.N,Net-(D1-K)*%
X8229310Y5875000D03*
%TD*%
D34*
%TO.P,J2,*%
%TO.N,*%
X41850000Y18100000D03*
X41850000Y4600000D03*
D35*
%TO.P,J2,1,Pin_1*%
%TO.N,Net-(D6-A)*%
X35850000Y7750000D03*
D36*
%TO.P,J2,2,Pin_2*%
%TO.N,+12V*%
X35850000Y14950000D03*
%TD*%
D37*
%TO.P,Q2,1,B*%
%TO.N,Net-(Q2-B)*%
X21675000Y62712500D03*
%TO.P,Q2,2,E*%
%TO.N,GND*%
X19775000Y62712500D03*
%TO.P,Q2,3,C*%
%TO.N,Net-(Q1-G)*%
X20725000Y60837500D03*
%TD*%
D43*
%TO.P,U1,1,BST*%
%TO.N,Net-(U1-BST)*%
X10062539Y4945409D03*
%TO.P,U1,2,GND*%
%TO.N,GND*%
X10062539Y3995409D03*
%TO.P,U1,3,FB*%
%TO.N,Net-(U1-FB)*%
X10062539Y3045409D03*
%TO.P,U1,4,EN*%
%TO.N,+12V*%
X12337539Y3045409D03*
%TO.P,U1,5,VIN*%
X12337539Y3995409D03*
%TO.P,U1,6,LX*%
%TO.N,Net-(D1-K)*%
X12337539Y4945409D03*
%TD*%
D44*
%TO.P,D6,1,K*%
%TO.N,+12V*%
X27050000Y2350000D03*
%TO.P,D6,2,A*%
%TO.N,Net-(D6-A)*%
X29150000Y2350000D03*
%TD*%
D32*
%TO.P,Q5,1,S*%
%TO.N,GND*%
X29237088Y12410022D03*
%TO.P,Q5,2,S*%
X28784539Y11957474D03*
%TO.P,Q5,3,S*%
X28317849Y11490784D03*
%TO.P,Q5,4,G*%
%TO.N,Net-(Q4-C)*%
X27865301Y11038235D03*
D33*
%TO.P,Q5,5,D*%
%TO.N,Net-(D6-A)*%
X29841664Y10433659D03*
%TD*%
D18*
%TO.P,C6,1*%
%TO.N,+3.3V*%
X6604021Y2833571D03*
%TO.P,C6,2*%
%TO.N,GND*%
X6604021Y1283571D03*
%TD*%
D45*
%TO.P,D5,1,K*%
%TO.N,+12V*%
X11650000Y31850000D03*
%TO.P,D5,2,A*%
%TO.N,USB_VBUS*%
X9550000Y31850000D03*
%TD*%
D37*
%TO.P,Q7,1,B*%
%TO.N,Net-(Q7-B)*%
X21950000Y57162500D03*
%TO.P,Q7,2,E*%
%TO.N,GND*%
X20050000Y57162500D03*
%TO.P,Q7,3,C*%
%TO.N,Net-(Q7-C)*%
X21000000Y55287500D03*
%TD*%
D46*
%TO.P,L1,1,1*%
%TO.N,Net-(D1-K)*%
X12350000Y9100000D03*
%TO.P,L1,2,2*%
%TO.N,+3.3V*%
X8650000Y9100000D03*
%TD*%
D44*
%TO.P,D7,1,K*%
%TO.N,+12V*%
X25600000Y27600000D03*
%TO.P,D7,2,A*%
%TO.N,Net-(D7-A)*%
X27700000Y27600000D03*
%TD*%
D18*
%TO.P,C2,1*%
%TO.N,+12V*%
X15850000Y3125000D03*
%TO.P,C2,2*%
%TO.N,GND*%
X15850000Y1575000D03*
%TD*%
D19*
%TO.P,TP1,1,1*%
%TO.N,Net-(U2-GPIO9)*%
X15800000Y43100000D03*
%TD*%
%TO.P,TP2,1,1*%
%TO.N,GND*%
X15800000Y45100000D03*
%TD*%
D22*
%TO.P,R10,1*%
%TO.N,+3.3V*%
X902795Y54314761D03*
%TO.P,R10,2*%
%TO.N,Net-(U2-GPIO2{slash}ADC1_CH2)*%
X902795Y52664761D03*
%TD*%
D11*
%TO.P,R4,1*%
%TO.N,GND*%
X8613939Y44017315D03*
%TO.P,R4,2*%
%TO.N,VIn*%
X8613939Y45667315D03*
%TD*%
D10*
%TO.P,R14,1*%
%TO.N,GND*%
X11226472Y34400000D03*
%TO.P,R14,2*%
%TO.N,Net-(J6-CC2)*%
X9576472Y34400000D03*
%TD*%
%TO.P,R16,1*%
%TO.N,+12V*%
X18425000Y54800000D03*
%TO.P,R16,2*%
%TO.N,Net-(Q4-C)*%
X16775000Y54800000D03*
%TD*%
D20*
%TO.P,R18,1*%
%TO.N,+12V*%
X20200000Y59000000D03*
%TO.P,R18,2*%
%TO.N,Net-(Q7-C)*%
X21850000Y59000000D03*
%TD*%
D34*
%TO.P,J4,*%
%TO.N,*%
X2800000Y15250000D03*
X2800000Y28750000D03*
D35*
%TO.P,J4,1,Pin_1*%
%TO.N,GND*%
X8800000Y18400000D03*
D36*
%TO.P,J4,2,Pin_2*%
%TO.N,+12V*%
X8800000Y25600000D03*
%TD*%
D14*
%TO.P,Q1,1,S*%
%TO.N,GND*%
X27789978Y45337088D03*
%TO.P,Q1,2,S*%
X28242526Y44884539D03*
%TO.P,Q1,3,S*%
X28709216Y44417849D03*
%TO.P,Q1,4,G*%
%TO.N,Net-(Q1-G)*%
X29161765Y43965301D03*
D15*
%TO.P,Q1,5,D*%
%TO.N,Net-(D4-A)*%
X29766341Y45941664D03*
%TD*%
D47*
%TO.N,Net-(D4-A)*%
X26900000Y48100000D03*
X27550000Y48750000D03*
X26900000Y49350000D03*
X26300000Y48750000D03*
%TO.N,+3.3V*%
X6000000Y8800000D03*
X900000Y55025000D03*
X8100000Y42350000D03*
X6000000Y6600000D03*
X800000Y50600000D03*
X6000000Y7600000D03*
%TO.N,GND*%
X3100000Y22100000D03*
X6000000Y56000000D03*
X8678556Y54505269D03*
X6637885Y52531141D03*
X6637885Y50623557D03*
X15736041Y50600000D03*
X4600000Y51000000D03*
X3100000Y18100000D03*
X9600000Y55600000D03*
X8900000Y46650000D03*
X8589832Y52531141D03*
X12985899Y49238773D03*
X7850000Y44050000D03*
X4600000Y52600000D03*
X6704429Y54505269D03*
X4200000Y49100000D03*
X1950000Y46400000D03*
X8678556Y50623557D03*
X15736041Y51627556D03*
X4600000Y54200000D03*
X4600000Y56000000D03*
X10652684Y52553322D03*
X7600000Y56000000D03*
X3200000Y27600000D03*
X10608322Y54527450D03*
X6350000Y46650000D03*
%TO.N,PXL_PWR*%
X7750000Y49250000D03*
X16585000Y57300000D03*
D48*
%TO.N,+12V*%
X34874623Y33024286D03*
X34100000Y38100000D03*
X21600000Y48600000D03*
X33000000Y33200000D03*
X36100000Y59600000D03*
X28600000Y56600000D03*
X40100000Y37600000D03*
X31100000Y17600000D03*
X40100000Y14600000D03*
X38600000Y19100000D03*
X38600000Y37600000D03*
X35600000Y20600000D03*
X40600000Y53843715D03*
X32600000Y35100000D03*
X38600000Y34600000D03*
X33100000Y62600000D03*
D47*
X20850000Y58350000D03*
D48*
X43100000Y20600000D03*
X27000000Y53800000D03*
X37600000Y53843715D03*
X41600000Y33100000D03*
X40100000Y39600000D03*
X40600000Y56600000D03*
X31100000Y14600000D03*
X38600000Y39600000D03*
D47*
X15400000Y6600000D03*
D48*
X38600000Y20600000D03*
X25600000Y56600000D03*
X37100000Y20600000D03*
X40100000Y16100000D03*
X40600000Y55100000D03*
X31436702Y37400000D03*
X20400000Y49000000D03*
X39100000Y56600000D03*
X41600000Y39800000D03*
X37100000Y33100000D03*
X31600000Y55200000D03*
X39100000Y59600000D03*
X43100000Y34600000D03*
X42100000Y56600000D03*
X23400000Y52000000D03*
X31200000Y33200000D03*
X27000000Y55200000D03*
X39100000Y55100000D03*
D47*
X19200000Y54750000D03*
D48*
X42100000Y58100000D03*
X36100000Y61100000D03*
X31600000Y56600000D03*
D47*
X14400000Y5600000D03*
D48*
X35600000Y19100000D03*
X41600000Y20600000D03*
X38600000Y16100000D03*
X38600000Y33100000D03*
X34100000Y39600000D03*
X41600000Y13100000D03*
X37600000Y62600000D03*
X24200000Y50800000D03*
D47*
X15400000Y7600000D03*
D48*
X30100000Y55100000D03*
X39100000Y61100000D03*
X40100000Y19100000D03*
X41600000Y16100000D03*
X31500000Y53900000D03*
X25600000Y53800000D03*
X31600000Y62600000D03*
X43100000Y37600000D03*
X38600000Y13100000D03*
X25600000Y55200000D03*
X38600000Y14600000D03*
X26800000Y52400000D03*
D47*
X16400000Y62150000D03*
D48*
X40100000Y36100000D03*
X38600000Y17600000D03*
X31100000Y16100000D03*
X31100000Y19100000D03*
X30100000Y62600000D03*
X30230741Y34457650D03*
X40100000Y33100000D03*
D47*
X25594579Y26824519D03*
D48*
X42100000Y53843715D03*
X32600000Y36600000D03*
X30100000Y59600000D03*
X39100000Y53843715D03*
D47*
X14400000Y7600000D03*
D48*
X43100000Y16100000D03*
X30100000Y56600000D03*
X34100000Y20600000D03*
X37100000Y17600000D03*
D47*
X12520000Y44100000D03*
D48*
X35600000Y39600000D03*
X37100000Y38100000D03*
D47*
X14400000Y6600000D03*
D48*
X40100000Y13100000D03*
X40600000Y61100000D03*
X23200000Y49600000D03*
X33100000Y59600000D03*
X40100000Y17600000D03*
X41600000Y14600000D03*
X34600000Y53843715D03*
X25200000Y52000000D03*
X31100000Y13100000D03*
X37600000Y61100000D03*
X39100000Y58100000D03*
X40100000Y34600000D03*
D47*
X18150000Y46890000D03*
D48*
X32600000Y38100000D03*
X38600000Y36100000D03*
D47*
X26322338Y2257403D03*
D48*
X28600000Y58200000D03*
X34100000Y17600000D03*
X41600000Y37600000D03*
X28600000Y62600000D03*
X43100000Y13100000D03*
X30100000Y61100000D03*
X34600000Y62600000D03*
X34600000Y59600000D03*
X36100000Y62600000D03*
X37600000Y58100000D03*
X39100000Y62600000D03*
X42100000Y55100000D03*
X32600000Y20600000D03*
X29600000Y33200000D03*
D47*
X11657937Y32593770D03*
D48*
X31600000Y58100000D03*
X24089921Y53842746D03*
X40100000Y20600000D03*
D47*
X15400000Y5600000D03*
D48*
X31100000Y20600000D03*
X43100000Y14600000D03*
X31600000Y59600000D03*
D47*
X14400000Y4600000D03*
D48*
X33100000Y61100000D03*
X31600000Y61100000D03*
X40600000Y58100000D03*
X32600000Y17600000D03*
X43100000Y39800000D03*
X41600000Y36100000D03*
X24089921Y56642746D03*
D47*
X17000000Y3800000D03*
D48*
X34100000Y19100000D03*
X22000000Y50400000D03*
X27000000Y56600000D03*
X43100000Y36100000D03*
X32600000Y19100000D03*
X37100000Y39600000D03*
X32600000Y39600000D03*
X43100000Y33100000D03*
X37600000Y59600000D03*
D47*
X10185355Y43078481D03*
D48*
X30100000Y58100000D03*
X37100000Y19100000D03*
X34600000Y61100000D03*
X30800000Y35800000D03*
D47*
X19090000Y45120000D03*
D48*
X28600000Y55200000D03*
X35600000Y17600000D03*
X41600000Y34600000D03*
X24089921Y55242746D03*
D47*
%TO.N,Net-(U2-EN{slash}CHIP_PU)*%
X700000Y27900000D03*
%TO.N,Net-(Q1-G)*%
X22500000Y62855730D03*
X33386548Y40775621D03*
X27200000Y47000000D03*
X30200000Y43800000D03*
%TO.N,Net-(U2-GPIO9)*%
X900000Y16200000D03*
D48*
%TO.N,Net-(D4-A)*%
X34600000Y46100000D03*
X31563750Y44712746D03*
D47*
X29983460Y44978227D03*
D48*
X39100000Y52100000D03*
X37600000Y44600000D03*
X36100000Y46100000D03*
X37600000Y43100000D03*
X36100000Y44600000D03*
X42100000Y44600000D03*
X39100000Y43100000D03*
X28564318Y47796669D03*
D47*
X30119077Y46294401D03*
D48*
X39100000Y46100000D03*
X31600000Y52100000D03*
X42100000Y43100000D03*
X31600000Y50600000D03*
X36100000Y52100000D03*
X37600000Y46100000D03*
X39100000Y49100000D03*
D47*
X31800000Y43100000D03*
X30703401Y45715158D03*
X32400000Y42500000D03*
D48*
X40600000Y43100000D03*
X28600000Y50600000D03*
X40600000Y49100000D03*
X34600000Y52100000D03*
X37600000Y52100000D03*
X39100000Y50600000D03*
X31600000Y49100000D03*
D47*
X29489023Y46822833D03*
D48*
X38400000Y41800000D03*
D47*
X33050000Y43174195D03*
D48*
X42100000Y47600000D03*
X40600000Y50600000D03*
X36100000Y43100000D03*
X30112188Y49099034D03*
X33100000Y46200000D03*
X41400000Y41800000D03*
D47*
X28853528Y46168907D03*
D48*
X40600000Y44600000D03*
D47*
X32450000Y43750000D03*
D48*
X36900000Y41800000D03*
X42100000Y49100000D03*
X40600000Y52100000D03*
X35400000Y41800000D03*
X30100000Y50600000D03*
D47*
X33000000Y41950000D03*
D48*
X42100000Y52100000D03*
D47*
X33650000Y42600000D03*
D48*
X39100000Y44600000D03*
X31600000Y47600000D03*
X42100000Y50600000D03*
X39100000Y47600000D03*
D47*
X29407726Y45567807D03*
D48*
X39900000Y41800000D03*
X34600000Y44600000D03*
X40600000Y47600000D03*
D47*
%TO.N,USBD+*%
X17200000Y47200000D03*
X9600000Y35600497D03*
%TO.N,USBD-*%
X9600000Y36400000D03*
X17200000Y46200000D03*
%TO.N,Net-(U2-GPIO21{slash}U0TXD)*%
X12739328Y56000000D03*
%TO.N,Net-(U2-GPIO20{slash}U0RXD)*%
X12750000Y54350000D03*
D48*
%TO.N,Net-(D6-A)*%
X35600000Y4100000D03*
X41100000Y11600000D03*
D47*
X29584974Y9552449D03*
D48*
X30675475Y7891234D03*
X38600000Y2600000D03*
X32600000Y2600000D03*
X38100000Y8600000D03*
X35100000Y10100000D03*
D47*
X28778165Y6721353D03*
D48*
X34100000Y1100000D03*
X33600000Y11600000D03*
X32600000Y1100000D03*
X34100000Y2600000D03*
X37100000Y4100000D03*
X31100000Y2600000D03*
X42600000Y11600000D03*
X36600000Y10100000D03*
D47*
X30742654Y10749240D03*
D48*
X41100000Y7100000D03*
D47*
X29784826Y5869563D03*
D48*
X33600000Y7100000D03*
X33600000Y5600000D03*
D47*
X29459819Y10858750D03*
D48*
X40100000Y2600000D03*
X41459385Y3428111D03*
X42600000Y10100000D03*
X38100000Y11600000D03*
X38100000Y10100000D03*
X35600000Y1100000D03*
X31100000Y1100000D03*
X29600000Y4100000D03*
X29600000Y1100000D03*
X38100000Y5600000D03*
X42600000Y8600000D03*
X36600000Y11600000D03*
X32600000Y4100000D03*
X39600000Y7100000D03*
X34100000Y4100000D03*
X38600000Y4100000D03*
D47*
X29779295Y5056491D03*
D48*
X41100000Y8600000D03*
X35100000Y5600000D03*
X32100000Y5600000D03*
X36600000Y5600000D03*
D47*
X28805820Y5078616D03*
D48*
X41100000Y10100000D03*
X29091306Y7891234D03*
X35600000Y2600000D03*
X37100000Y2600000D03*
X42592211Y5713295D03*
X39600000Y8600000D03*
X38100000Y7100000D03*
D47*
X30054303Y11437590D03*
X29751639Y6721353D03*
D48*
X37100000Y1100000D03*
X31100000Y4100000D03*
X32100000Y7100000D03*
X33600000Y8600000D03*
X40100000Y4100000D03*
X35100000Y11600000D03*
D47*
X28767103Y5891687D03*
D48*
X32100000Y8600000D03*
D47*
X30163814Y10123467D03*
D48*
X39600000Y10100000D03*
X39600000Y11600000D03*
D47*
X28912268Y10256444D03*
D48*
X38600000Y1100000D03*
X42600000Y7100000D03*
X33600000Y10100000D03*
X41127350Y5732827D03*
X39600000Y5600000D03*
X32100000Y10100000D03*
%TO.N,Net-(D7-A)*%
X41100000Y22600000D03*
X38100000Y24100000D03*
X42600000Y30100000D03*
X27172516Y28638563D03*
D47*
X28888729Y31435841D03*
D48*
X32100000Y24100000D03*
X36600000Y24100000D03*
X33600000Y22600000D03*
X42600000Y22600000D03*
X29100000Y27100000D03*
X38100000Y30100000D03*
X39600000Y30100000D03*
X33600000Y28600000D03*
X41100000Y24100000D03*
X38100000Y22600000D03*
X39600000Y22600000D03*
D47*
X27085266Y31018856D03*
D48*
X35100000Y24100000D03*
X38100000Y31600000D03*
X32100000Y22600000D03*
X38100000Y25600000D03*
X30600000Y27100000D03*
X41100000Y31600000D03*
X36600000Y22600000D03*
X32100000Y25600000D03*
D47*
X28315917Y25042538D03*
D48*
X32100000Y28600000D03*
X39600000Y25600000D03*
X29100000Y28600000D03*
D47*
X28900000Y23250000D03*
D48*
X39600000Y24100000D03*
D47*
X28200000Y32050000D03*
D48*
X39600000Y27100000D03*
X42600000Y31600000D03*
X30600000Y25600000D03*
X33600000Y30100000D03*
X33600000Y24100000D03*
X39600000Y31600000D03*
X32100000Y27100000D03*
X35100000Y22600000D03*
D47*
X28000000Y31150000D03*
X27721169Y30309980D03*
D48*
X30600000Y28600000D03*
X41100000Y30100000D03*
X36600000Y25600000D03*
D47*
X27685662Y24450000D03*
D48*
X35100000Y25600000D03*
X33600000Y31600000D03*
X36600000Y31600000D03*
X41100000Y28600000D03*
X41100000Y27100000D03*
X30600000Y30100000D03*
X39600000Y28600000D03*
X27172516Y26400000D03*
X42600000Y28600000D03*
X42600000Y27100000D03*
X42600000Y24100000D03*
X33600000Y27100000D03*
X38100000Y27100000D03*
D47*
X28300000Y23900000D03*
D48*
X30600000Y22600000D03*
D47*
X29543915Y23917830D03*
D48*
X33600000Y25600000D03*
X35100000Y31600000D03*
D47*
X28958608Y24485922D03*
D48*
X38100000Y28600000D03*
X30600000Y31600000D03*
D47*
%TO.N,Net-(Q4-C)*%
X27426894Y10529118D03*
X20675000Y63100000D03*
X28100000Y3900000D03*
%TO.N,Net-(Q7-C)*%
X26000000Y30600000D03*
X21800000Y61000000D03*
X29400000Y21800000D03*
%TO.N,MOSFET_WS*%
X18788406Y60813064D03*
X7025000Y48600000D03*
%TO.N,MOSFET_LMR*%
X15424502Y53600000D03*
X10204332Y48645668D03*
%TO.N,MOSFET_RMR*%
X11079057Y48720943D03*
X15943022Y54216236D03*
%TO.N,PXL*%
X8600000Y49150000D03*
X17500000Y59200000D03*
%TD*%
D49*
%TO.N,Net-(U1-BST)*%
X8300000Y4324998D02*
X8574999Y4325000D01*
X8574999Y4325000D02*
X9195410Y4945409D01*
X9195410Y4945409D02*
X10062536Y4945409D01*
%TO.N,Net-(U1-FB)*%
X9750000Y1274999D02*
X9775000Y1299999D01*
X8299999Y1274999D02*
X9750000Y1274999D01*
X9775000Y1299999D02*
X9775000Y2724999D01*
X9775000Y2724999D02*
X10100001Y3050000D01*
%TO.N,+3.3V*%
X8229310Y2882093D02*
X8242602Y2882093D01*
D50*
X8741093Y42455364D02*
X8205364Y42455364D01*
D51*
X1000000Y55000000D02*
X2725000Y55000000D01*
D50*
X8100000Y42350000D02*
X8371519Y42078481D01*
D51*
X896494Y54321062D02*
X896494Y55825000D01*
D52*
X8270406Y2925001D02*
X8300000Y2924999D01*
D51*
X902795Y54314761D02*
X896494Y54321062D01*
D50*
X8371519Y42078481D02*
X11214210Y42078481D01*
X11214210Y42078481D02*
X11591093Y42455364D01*
D53*
X804794Y51074569D02*
X804794Y50597230D01*
D50*
X8205364Y42455364D02*
X8100000Y42350000D01*
D52*
%TO.N,GND*%
X11177466Y1547536D02*
X11425001Y1300001D01*
X11177465Y3525000D02*
X11177466Y1547536D01*
X10100000Y3999999D02*
X10702465Y3999999D01*
D50*
X8625000Y54575000D02*
X8625000Y54625000D01*
D52*
X10702465Y3999999D02*
X11177465Y3525000D01*
D50*
%TO.N,PXL_PWR*%
X2725000Y52600000D02*
X3325000Y52600000D01*
X5400000Y49250000D02*
X7750000Y49250000D01*
X16585000Y57300000D02*
X16585000Y56690000D01*
X3700000Y52225000D02*
X3700000Y50950000D01*
X3325000Y52600000D02*
X3700000Y52225000D01*
X16585000Y56690000D02*
X16825000Y56450000D01*
X16585000Y58085000D02*
X16585000Y57300000D01*
X3700000Y50950000D02*
X5400000Y49250000D01*
%TO.N,VIn*%
X4625000Y47300000D02*
X6250000Y45675000D01*
X4625000Y47700000D02*
X4625000Y47300000D01*
X4625000Y47700000D02*
X4625000Y47400000D01*
X6250000Y45675000D02*
X10166093Y45675000D01*
X9989667Y45858278D02*
X10156932Y45691013D01*
%TO.N,+12V*%
X13296697Y44079327D02*
X12540673Y44079327D01*
X11790463Y44079327D02*
X11741404Y44030268D01*
X19975000Y59099448D02*
X20074448Y59000000D01*
X18475000Y54750000D02*
X18425000Y54800000D01*
X25600000Y27600000D02*
X25600000Y26829940D01*
X25600000Y26829940D02*
X25594579Y26824519D01*
X11741404Y44030268D02*
X10171361Y44030268D01*
X10171361Y44030268D02*
X10166093Y44025000D01*
X26957402Y2257403D02*
X27049999Y2350000D01*
D51*
X11657937Y32593770D02*
X11650000Y32585833D01*
D50*
X12520000Y44100000D02*
X12499327Y44079327D01*
X12499327Y44079327D02*
X11790463Y44079327D01*
X19200000Y54750000D02*
X18475000Y54750000D01*
X16400000Y62150000D02*
X16400000Y61425000D01*
X20850000Y58350000D02*
X20200000Y59000000D01*
X26322338Y2257403D02*
X26957402Y2257403D01*
X13288863Y44071493D02*
X13296697Y44079327D01*
X12540673Y44079327D02*
X12520000Y44100000D01*
X10166093Y44025000D02*
X10166093Y43097743D01*
X20074448Y59000000D02*
X20200000Y59000000D01*
D51*
X11650000Y32585833D02*
X11650000Y31819958D01*
%TO.N,Net-(U2-EN{slash}CHIP_PU)*%
X1925000Y50800000D02*
X1925000Y49925000D01*
X1525000Y49525000D02*
X897661Y49525000D01*
X2725000Y51000000D02*
X2125000Y51000000D01*
X1925000Y49925000D02*
X1525000Y49525000D01*
D50*
X700000Y49327339D02*
X897661Y49525000D01*
X700000Y27900000D02*
X700000Y49327339D01*
D51*
X2125000Y51000000D02*
X1925000Y50800000D01*
%TO.N,Net-(U2-GPIO2{slash}ADC1_CH2)*%
X1638034Y53400000D02*
X902795Y52664761D01*
X2725000Y53400000D02*
X1638034Y53400000D01*
D50*
%TO.N,Net-(U2-GPIO8)*%
X14071697Y43636865D02*
X13656698Y43221866D01*
X10544574Y42478481D02*
X9936826Y42478481D01*
X9936826Y42478481D02*
X9585355Y42829952D01*
X10980364Y43230364D02*
X10850000Y43100000D01*
X13764159Y46379327D02*
X14071697Y46071789D01*
X13648200Y43230364D02*
X10980364Y43230364D01*
X9585355Y42829952D02*
X9585355Y43078927D01*
X11825000Y47300000D02*
X12745673Y46379327D01*
X7866093Y43230364D02*
X7091093Y42455364D01*
X9585355Y43078927D02*
X9433918Y43230364D01*
X9433918Y43230364D02*
X7866093Y43230364D01*
X14071697Y46071789D02*
X14071697Y43636865D01*
X12745673Y46379327D02*
X13764159Y46379327D01*
X10850000Y43100000D02*
X10850000Y42783907D01*
X10850000Y42783907D02*
X10544574Y42478481D01*
X11825000Y47700000D02*
X11825000Y47300000D01*
X13656698Y43221866D02*
X13648200Y43230364D01*
%TO.N,Net-(J6-CC1)*%
X7446472Y37399999D02*
X7496473Y37450000D01*
X9526472Y37450000D02*
X9576472Y37400000D01*
X7496473Y37450000D02*
X9526472Y37450000D01*
%TO.N,SWITCH*%
X13245756Y45680268D02*
X13296697Y45629327D01*
X9725000Y47000000D02*
X10200000Y47000000D01*
X9425000Y47700000D02*
X9425000Y47300000D01*
X13279189Y45646835D02*
X13296697Y45629327D01*
X11519732Y45680268D02*
X11741404Y45680268D01*
X10200000Y47000000D02*
X11519732Y45680268D01*
X4482628Y44868967D02*
X10930103Y44868967D01*
X11741404Y45680268D02*
X13245756Y45680268D01*
X10930103Y44868967D02*
X11741404Y45680268D01*
X9425000Y47300000D02*
X9725000Y47000000D01*
X3850000Y43749317D02*
X4916535Y44815852D01*
%TO.N,Net-(Q1-G)*%
X32277360Y40775621D02*
X32149183Y40903798D01*
X22011396Y61675000D02*
X21448896Y61675000D01*
X27189978Y46989978D02*
X27200000Y47000000D01*
X33386548Y40775621D02*
X32277360Y40775621D01*
X17100000Y62375000D02*
X16400000Y63075000D01*
X20462500Y61100000D02*
X19350000Y61100000D01*
X30200000Y43800000D02*
X29327066Y43800000D01*
X18275000Y62375000D02*
X17100000Y62375000D01*
X18775000Y61875000D02*
X18275000Y62375000D01*
X19350000Y61100000D02*
X18775000Y61675000D01*
X22500000Y62855730D02*
X22500000Y62163604D01*
X29327066Y43800000D02*
X29161765Y43965301D01*
X20725000Y60837500D02*
X20462500Y61100000D01*
X26137088Y46989978D02*
X27189978Y46989978D01*
X18775000Y61675000D02*
X18775000Y61875000D01*
X20725000Y60951104D02*
X20725000Y60837500D01*
X22500000Y62163604D02*
X22011396Y61675000D01*
X21448896Y61675000D02*
X20725000Y60951104D01*
X20750000Y60862500D02*
X20725000Y60837500D01*
%TO.N,Net-(Q2-B)*%
X21221948Y62712500D02*
X20125000Y61615552D01*
X19493896Y61615552D02*
X19175000Y61934448D01*
X19175000Y61934448D02*
X19175000Y62075000D01*
X21675000Y62712500D02*
X21221948Y62712500D01*
X18175000Y63075000D02*
X18000000Y63075000D01*
X21675000Y62712500D02*
X21675000Y63162500D01*
X21675000Y63162500D02*
X21500000Y63337500D01*
X20125000Y61615552D02*
X19493896Y61615552D01*
X19175000Y62075000D02*
X18175000Y63075000D01*
%TO.N,Net-(U2-GPIO9)*%
X14471697Y46237474D02*
X14471697Y45350000D01*
X1590000Y28010000D02*
X1251472Y28348528D01*
X12925000Y47000000D02*
X13709172Y47000000D01*
X12625000Y47300000D02*
X12925000Y47000000D01*
X14471697Y43471179D02*
X13455881Y42455364D01*
X1978481Y41678481D02*
X12464210Y41678481D01*
X13709172Y47000000D02*
X14471697Y46237474D01*
X12464210Y41678481D02*
X13241093Y42455364D01*
X15800000Y43100000D02*
X15400496Y43499504D01*
X12625000Y47700000D02*
X12625000Y47300000D01*
X1251472Y28348528D02*
X1251472Y40951472D01*
X1590000Y16890000D02*
X1590000Y28010000D01*
X14471697Y45350000D02*
X14471697Y43471179D01*
X15400496Y43499504D02*
X14500022Y43499504D01*
X13455881Y42455364D02*
X13241093Y42455364D01*
X14471697Y44728303D02*
X14471697Y45350000D01*
X1251472Y40951472D02*
X1978481Y41678481D01*
X14500022Y43499504D02*
X14471697Y43471179D01*
X900000Y16200000D02*
X1590000Y16890000D01*
%TO.N,USBD+*%
X7446472Y35400000D02*
X9399503Y35400000D01*
X8421472Y35400000D02*
X7446472Y35400000D01*
X17200000Y47200000D02*
X16765686Y47200000D01*
X8421472Y36400001D02*
X8471472Y36350000D01*
X7446472Y36400001D02*
X8421472Y36400001D01*
X15625000Y48340686D02*
X15625000Y49375000D01*
X16765686Y47200000D02*
X15625000Y48340686D01*
X8471472Y36350000D02*
X8471472Y35450000D01*
X14800000Y50200000D02*
X14525000Y50200000D01*
X15625000Y49375000D02*
X14800000Y50200000D01*
X8471472Y35450000D02*
X8421472Y35400000D01*
X9399503Y35400000D02*
X9600000Y35600497D01*
%TO.N,USBD-*%
X6471472Y36900000D02*
X6421472Y36850000D01*
X8700000Y36900000D02*
X9200000Y36400000D01*
X7446472Y36900000D02*
X6471472Y36900000D01*
X14925000Y49400000D02*
X14525000Y49400000D01*
X7446472Y36900000D02*
X8700000Y36900000D01*
X15225000Y49100000D02*
X14925000Y49400000D01*
X9200000Y36400000D02*
X9600000Y36400000D01*
X17200000Y46200000D02*
X15225000Y48175000D01*
X15225000Y48175000D02*
X15225000Y49100000D01*
X6471472Y35900000D02*
X7446472Y35900000D01*
X6421472Y36850000D02*
X6421472Y35950000D01*
X6421472Y35950000D02*
X6471472Y35900000D01*
%TO.N,Net-(J6-CC2)*%
X9586472Y34400001D02*
X7446472Y34400000D01*
D51*
%TO.N,USB_VBUS*%
X10376472Y37975000D02*
X9751472Y38600000D01*
X10000000Y33500000D02*
X10376472Y33876472D01*
X9600000Y33500000D02*
X10000000Y33500000D01*
X9451472Y38600000D02*
X7446472Y38600000D01*
X9550000Y33450000D02*
X9600000Y33500000D01*
X10376472Y33876472D02*
X10376472Y37975000D01*
X8952944Y33700000D02*
X9152944Y33500000D01*
X9751472Y38600000D02*
X9451472Y38600000D01*
X9152944Y33500000D02*
X9600000Y33500000D01*
X9550000Y31850000D02*
X9550000Y33450000D01*
X7446472Y33700000D02*
X8952944Y33700000D01*
D50*
%TO.N,Net-(U2-GPIO21{slash}U0TXD)*%
X12739328Y56000000D02*
X13350000Y55389328D01*
X13350000Y55389328D02*
X13350000Y53975000D01*
X13925000Y53400000D02*
X14525000Y53400000D01*
X13350000Y53975000D02*
X13925000Y53400000D01*
%TO.N,Net-(U2-GPIO20{slash}U0RXD)*%
X12750000Y54350000D02*
X12750000Y54009314D01*
X14159314Y52600000D02*
X14525000Y52600000D01*
X12750000Y54009314D02*
X14159314Y52600000D01*
%TO.N,Net-(Q4-B)*%
X21625000Y53475000D02*
X21625000Y53075000D01*
X21625000Y53075000D02*
X19087500Y50537500D01*
X18350000Y50537500D02*
X18537500Y50537500D01*
X19087500Y50537500D02*
X18350000Y50537500D01*
%TO.N,Net-(Q4-C)*%
X22675000Y63750000D02*
X21325000Y63750000D01*
X22600000Y59100000D02*
X22600000Y61697918D01*
X17475000Y53725000D02*
X17475000Y48737500D01*
X27426894Y10529118D02*
X27865300Y10967525D01*
X23099500Y62197418D02*
X23099500Y63325500D01*
X21325000Y63750000D02*
X20675000Y63100000D01*
X17994607Y48662500D02*
X23099500Y53767393D01*
X17000000Y54200000D02*
X17475000Y53725000D01*
X16775000Y54800000D02*
X17000000Y54575000D01*
X23099500Y53767393D02*
X23099500Y58600500D01*
X28100000Y3900000D02*
X27450000Y4550000D01*
X27865300Y10967525D02*
X27865300Y11038235D01*
X23099500Y63325500D02*
X22675000Y63750000D01*
X17400000Y48662500D02*
X17994607Y48662500D01*
X27450000Y4550000D02*
X27450000Y4920000D01*
X17475000Y48737500D02*
X17400000Y48662500D01*
X23099500Y58600500D02*
X22600000Y59100000D01*
X17000000Y54575000D02*
X17000000Y54200000D01*
X22600000Y61697918D02*
X23099500Y62197418D01*
%TO.N,Net-(Q7-B)*%
X18425000Y52800000D02*
X18525000Y52700000D01*
X20382107Y52700000D02*
X20675000Y52992893D01*
X21423896Y57162500D02*
X21950000Y57162500D01*
X18525000Y52700000D02*
X20382107Y52700000D01*
X20400000Y56138604D02*
X21423896Y57162500D01*
X20675000Y54238604D02*
X20400000Y54513604D01*
X20675000Y52992893D02*
X20675000Y54238604D01*
X20400000Y54513604D02*
X20400000Y56138604D01*
%TO.N,Net-(Q7-C)*%
X21850000Y60950000D02*
X21850000Y59000000D01*
X21487500Y55287500D02*
X21000000Y55287500D01*
X21850000Y59000000D02*
X22600000Y58250000D01*
X22600000Y56400000D02*
X21487500Y55287500D01*
X26000000Y30600000D02*
X26000000Y31799999D01*
X28037088Y22189978D02*
X29010022Y22189978D01*
X22600000Y58250000D02*
X22600000Y56400000D01*
X29010022Y22189978D02*
X29400000Y21800000D01*
X21800000Y61000000D02*
X21850000Y60950000D01*
%TO.N,MOSFET_WS*%
X18788406Y60813064D02*
X18611936Y60813064D01*
X7025000Y48600000D02*
X7025000Y47700000D01*
X18611936Y60813064D02*
X18000000Y61425000D01*
%TO.N,MOSFET_LMR*%
X15975000Y53600000D02*
X16775000Y52800000D01*
X10225000Y48625000D02*
X10225000Y47700000D01*
X10204332Y48645668D02*
X10225000Y48625000D01*
X15424502Y53600000D02*
X15975000Y53600000D01*
%TO.N,MOSFET_RMR*%
X11079057Y48720943D02*
X11025000Y48666886D01*
X11025000Y48666886D02*
X11025000Y47700000D01*
X17602465Y54400000D02*
X18427465Y53575000D01*
X17602465Y55160183D02*
X17602465Y54400000D01*
X19875000Y53575000D02*
X19975000Y53475000D01*
X15943022Y55155670D02*
X16362352Y55575000D01*
X15943022Y54216236D02*
X15943022Y55155670D01*
X17187648Y55575000D02*
X17602465Y55160183D01*
X16362352Y55575000D02*
X17187648Y55575000D01*
X18427465Y53575000D02*
X19875000Y53575000D01*
%TO.N,PXL*%
X17500000Y59200000D02*
X16600000Y59200000D01*
X8625000Y48300000D02*
X8625000Y47700000D01*
X16600000Y59200000D02*
X16585000Y59185000D01*
X8600000Y48325000D02*
X8625000Y48300000D01*
X8600000Y49150000D02*
X8600000Y48325000D01*
%TD*%
%TA.AperFunction,Conductor*%
%TO.N,+12V*%
G36*
X27716932Y64824216D02*
G01*
X27717335Y64825006D01*
X27720800Y64823241D01*
X27720801Y64823240D01*
X27889168Y64737453D01*
X28068882Y64679060D01*
X28068883Y64679060D01*
X28068886Y64679059D01*
X28255516Y64649500D01*
X28349561Y64649500D01*
X39638184Y64645787D01*
X39638349Y64645769D01*
X39648473Y64645769D01*
X39686191Y64645769D01*
X39690508Y64645675D01*
X40102359Y64627697D01*
X40110935Y64626947D01*
X40517499Y64573425D01*
X40526005Y64571925D01*
X40926340Y64483176D01*
X40934681Y64480942D01*
X41325773Y64357633D01*
X41333875Y64354684D01*
X41712740Y64197755D01*
X41720538Y64194119D01*
X42084283Y64004768D01*
X42091760Y64000451D01*
X42287908Y63875492D01*
X42437603Y63780127D01*
X42444678Y63775173D01*
X42769997Y63525548D01*
X42776613Y63519997D01*
X43078951Y63242958D01*
X43085045Y63236864D01*
X43362091Y62934520D01*
X43367632Y62927917D01*
X43617259Y62602597D01*
X43622213Y62595522D01*
X43842544Y62249670D01*
X43846862Y62242191D01*
X43925182Y62091740D01*
X44015356Y61918517D01*
X44036205Y61878468D01*
X44039852Y61870645D01*
X44114624Y61690131D01*
X44196774Y61491801D01*
X44199728Y61483686D01*
X44323037Y61092595D01*
X44325272Y61084252D01*
X44414021Y60683922D01*
X44415521Y60675417D01*
X44469043Y60268865D01*
X44469796Y60260261D01*
X44487757Y59848817D01*
X44487851Y59844430D01*
X44483218Y53189895D01*
X44464270Y53131718D01*
X44414745Y53095788D01*
X44384871Y53090966D01*
X30599999Y53000000D01*
X30599998Y53000000D01*
X27290064Y50760927D01*
X27231271Y50743983D01*
X27173748Y50764832D01*
X27164590Y50772923D01*
X26990213Y50947299D01*
X26954235Y50975992D01*
X26954234Y50975993D01*
X26867914Y51006198D01*
X26867911Y51006198D01*
X26777030Y50995958D01*
X26777029Y50995958D01*
X26699595Y50947303D01*
X25058394Y49306102D01*
X25029704Y49270128D01*
X25029703Y49270127D01*
X25022985Y49250927D01*
X24985918Y49202248D01*
X24985013Y49201628D01*
X23810460Y48407077D01*
X23788096Y48395777D01*
X17813627Y46275804D01*
X17752463Y46274163D01*
X17702017Y46308786D01*
X17688160Y46336041D01*
X17688107Y46336016D01*
X17687526Y46337288D01*
X17685530Y46341214D01*
X17685164Y46342460D01*
X17625378Y46473372D01*
X17625377Y46473373D01*
X17624179Y46474756D01*
X17623584Y46476163D01*
X17621549Y46479330D01*
X17622097Y46479683D01*
X17600363Y46531116D01*
X17600000Y46539585D01*
X17600000Y46860415D01*
X17618907Y46918606D01*
X17624184Y46925250D01*
X17624355Y46925448D01*
X17625377Y46926627D01*
X17685165Y47057543D01*
X17705647Y47200000D01*
X17692638Y47290478D01*
X17685165Y47342457D01*
X17635226Y47451806D01*
X17628251Y47512592D01*
X17629225Y47516903D01*
X17676918Y47707675D01*
X17709373Y47759540D01*
X17729478Y47772601D01*
X17756483Y47785802D01*
X17839198Y47868517D01*
X17890573Y47973607D01*
X17900500Y48041740D01*
X17900500Y48259492D01*
X17919407Y48317683D01*
X17929496Y48329496D01*
X17933004Y48333004D01*
X17987521Y48360781D01*
X18003008Y48362000D01*
X18034170Y48362000D01*
X18034170Y48362001D01*
X18110596Y48382479D01*
X18179118Y48422040D01*
X18235067Y48477989D01*
X22384082Y52627005D01*
X22403142Y52641886D01*
X23000000Y53000000D01*
X23000000Y53201915D01*
X23018907Y53260106D01*
X23028990Y53271913D01*
X23339960Y53582882D01*
X23342370Y53587057D01*
X23344643Y53590992D01*
X23358890Y53615671D01*
X23379521Y53651404D01*
X23400000Y53727831D01*
X23400000Y58640062D01*
X23386499Y58690448D01*
X23386499Y58690450D01*
X23379524Y58716483D01*
X23379523Y58716485D01*
X23379522Y58716486D01*
X23379522Y58716488D01*
X23339960Y58785011D01*
X23244717Y58880254D01*
X40599500Y58880254D01*
X40599501Y58880242D01*
X40611132Y58821773D01*
X40611134Y58821767D01*
X40635694Y58785011D01*
X40655448Y58755448D01*
X40721769Y58711133D01*
X40766231Y58702289D01*
X40780241Y58699502D01*
X40780246Y58699502D01*
X40780252Y58699500D01*
X40780253Y58699500D01*
X42819747Y58699500D01*
X42819748Y58699500D01*
X42878231Y58711133D01*
X42944552Y58755448D01*
X42988867Y58821769D01*
X43000500Y58880252D01*
X43000500Y59819748D01*
X42988867Y59878231D01*
X42944552Y59944552D01*
X42920233Y59960802D01*
X42878233Y59988866D01*
X42878231Y59988867D01*
X42878228Y59988868D01*
X42878227Y59988868D01*
X42819758Y60000499D01*
X42819748Y60000500D01*
X40780252Y60000500D01*
X40780251Y60000500D01*
X40780241Y60000499D01*
X40721772Y59988868D01*
X40721766Y59988866D01*
X40655451Y59944555D01*
X40655445Y59944549D01*
X40611134Y59878234D01*
X40611132Y59878228D01*
X40599501Y59819759D01*
X40599500Y59819747D01*
X40599500Y58880254D01*
X23244717Y58880254D01*
X23204992Y58919979D01*
X23028996Y59095976D01*
X23001219Y59150492D01*
X23000000Y59165979D01*
X23000000Y60506590D01*
X24495500Y60506590D01*
X24532544Y60272700D01*
X24605725Y60047473D01*
X24708243Y59846268D01*
X24713236Y59836470D01*
X24852432Y59644884D01*
X25019884Y59477432D01*
X25211470Y59338236D01*
X25422473Y59230725D01*
X25647695Y59157546D01*
X25647696Y59157546D01*
X25647699Y59157545D01*
X25881590Y59120500D01*
X25881593Y59120500D01*
X26118410Y59120500D01*
X26352300Y59157545D01*
X26352301Y59157546D01*
X26352305Y59157546D01*
X26577527Y59230725D01*
X26788530Y59338236D01*
X26980116Y59477432D01*
X27147568Y59644884D01*
X27286764Y59836470D01*
X27394275Y60047473D01*
X27467454Y60272695D01*
X27492515Y60430921D01*
X27504500Y60506590D01*
X27504500Y60743411D01*
X27467455Y60977301D01*
X27446188Y61042754D01*
X27394275Y61202527D01*
X27286764Y61413530D01*
X27147568Y61605116D01*
X26980116Y61772568D01*
X26788530Y61911764D01*
X26788529Y61911765D01*
X26788527Y61911766D01*
X26577527Y62019275D01*
X26352300Y62092456D01*
X26118410Y62129500D01*
X26118407Y62129500D01*
X25881593Y62129500D01*
X25881590Y62129500D01*
X25647699Y62092456D01*
X25422472Y62019275D01*
X25211472Y61911766D01*
X25019885Y61772569D01*
X24852431Y61605115D01*
X24713234Y61413528D01*
X24605725Y61202528D01*
X24532544Y60977301D01*
X24495500Y60743411D01*
X24495500Y60506590D01*
X23000000Y60506590D01*
X23000000Y61631940D01*
X23018907Y61690131D01*
X23028990Y61701938D01*
X23339960Y62012907D01*
X23379522Y62081430D01*
X23400000Y62157856D01*
X23400000Y62236980D01*
X23400000Y63365062D01*
X23389845Y63402960D01*
X23379522Y63441488D01*
X23339960Y63510011D01*
X23189325Y63660646D01*
X23028996Y63820976D01*
X23001219Y63875492D01*
X23000000Y63890979D01*
X23000000Y64701795D01*
X23018907Y64759986D01*
X23068407Y64795950D01*
X23098201Y64800792D01*
X27668565Y64837650D01*
X27716932Y64824216D01*
G37*
%TD.AperFunction*%
%TD*%
%TA.AperFunction,Conductor*%
%TO.N,Net-(D7-A)*%
G36*
X28243334Y32740820D02*
G01*
X28287681Y32712319D01*
X28800000Y32200000D01*
X28996519Y32200000D01*
X29015914Y32198475D01*
X29041008Y32194500D01*
X29041009Y32194500D01*
X44344518Y32194500D01*
X44411557Y32174815D01*
X44457312Y32122011D01*
X44468517Y32070417D01*
X44467298Y30318130D01*
X44461599Y22132116D01*
X44441868Y22065090D01*
X44389032Y22019372D01*
X44337187Y22008203D01*
X30686576Y22053554D01*
X30200005Y22055170D01*
X30200004Y22055170D01*
X30200003Y22055170D01*
X30200002Y22055170D01*
X30167516Y22052695D01*
X30136547Y22047843D01*
X30131716Y22047026D01*
X30131705Y22047022D01*
X30047623Y22011084D01*
X30047615Y22011080D01*
X30024787Y21994494D01*
X29958980Y21971016D01*
X29890926Y21986843D01*
X29842233Y22036950D01*
X29839110Y22043303D01*
X29825379Y22073370D01*
X29825376Y22073374D01*
X29731128Y22182143D01*
X29610053Y22259953D01*
X29610051Y22259954D01*
X29610049Y22259955D01*
X29610050Y22259955D01*
X29471963Y22300500D01*
X29471961Y22300500D01*
X29375833Y22300500D01*
X29308794Y22320185D01*
X29288152Y22336819D01*
X29194534Y22430437D01*
X29194526Y22430443D01*
X29126017Y22469996D01*
X29126012Y22469999D01*
X29100535Y22476826D01*
X29049584Y22490478D01*
X29049582Y22490478D01*
X28912526Y22490478D01*
X28845487Y22510163D01*
X28827717Y22524015D01*
X26439191Y24763259D01*
X26429190Y24780248D01*
X40649500Y24780248D01*
X40661131Y24721771D01*
X40661132Y24721770D01*
X40705447Y24655448D01*
X40771769Y24611133D01*
X40771770Y24611132D01*
X40830247Y24599501D01*
X40830250Y24599500D01*
X40830252Y24599500D01*
X42869750Y24599500D01*
X42869751Y24599501D01*
X42884568Y24602448D01*
X42928229Y24611132D01*
X42928229Y24611133D01*
X42928231Y24611133D01*
X42994552Y24655448D01*
X43038867Y24721769D01*
X43038867Y24721771D01*
X43038868Y24721771D01*
X43050499Y24780248D01*
X43050500Y24780250D01*
X43050500Y25719751D01*
X43050499Y25719753D01*
X43038868Y25778230D01*
X43038867Y25778231D01*
X42994552Y25844553D01*
X42928230Y25888868D01*
X42928229Y25888869D01*
X42869752Y25900500D01*
X42869748Y25900500D01*
X40830252Y25900500D01*
X40830247Y25900500D01*
X40771770Y25888869D01*
X40771769Y25888868D01*
X40705447Y25844553D01*
X40661132Y25778231D01*
X40661131Y25778230D01*
X40649500Y25719753D01*
X40649500Y24780248D01*
X26429190Y24780248D01*
X26403747Y24823471D01*
X26400000Y24853722D01*
X26400000Y30251091D01*
X26419685Y30318130D01*
X26421313Y30320306D01*
X26425368Y30326618D01*
X26425377Y30326627D01*
X26485165Y30457543D01*
X26505647Y30600000D01*
X26485165Y30742457D01*
X26425377Y30873373D01*
X26425374Y30873376D01*
X26420582Y30880834D01*
X26423504Y30882713D01*
X26401398Y30931043D01*
X26411299Y31000207D01*
X26436441Y31036442D01*
X28112319Y32712319D01*
X28173642Y32745804D01*
X28243334Y32740820D01*
G37*
%TD.AperFunction*%
%TD*%
%TA.AperFunction,Conductor*%
%TO.N,+12V*%
G36*
X44362635Y21802617D02*
G01*
X44420757Y21783518D01*
X44456557Y21733899D01*
X44461301Y21703550D01*
X44454824Y12398931D01*
X44435876Y12340754D01*
X44386351Y12304824D01*
X44355824Y12300000D01*
X30199000Y12300000D01*
X30140809Y12318907D01*
X30104845Y12368407D01*
X30100000Y12399000D01*
X30100000Y17630254D01*
X40649500Y17630254D01*
X40649501Y17630242D01*
X40661132Y17571773D01*
X40661133Y17571769D01*
X40705448Y17505448D01*
X40771769Y17461133D01*
X40816231Y17452289D01*
X40830241Y17449502D01*
X40830246Y17449502D01*
X40830252Y17449500D01*
X40830253Y17449500D01*
X42869747Y17449500D01*
X42869748Y17449500D01*
X42928231Y17461133D01*
X42994552Y17505448D01*
X43038867Y17571769D01*
X43050500Y17630252D01*
X43050500Y18569748D01*
X43038867Y18628231D01*
X42994552Y18694552D01*
X42994548Y18694555D01*
X42928233Y18738866D01*
X42928231Y18738867D01*
X42928228Y18738868D01*
X42928227Y18738868D01*
X42869758Y18750499D01*
X42869748Y18750500D01*
X40830252Y18750500D01*
X40830251Y18750500D01*
X40830241Y18750499D01*
X40771772Y18738868D01*
X40771766Y18738866D01*
X40705451Y18694555D01*
X40705445Y18694549D01*
X40661134Y18628234D01*
X40661132Y18628228D01*
X40649501Y18569759D01*
X40649500Y18569747D01*
X40649500Y17630254D01*
X30100000Y17630254D01*
X30100000Y21750672D01*
X30118907Y21808863D01*
X30168407Y21844827D01*
X30199322Y21849671D01*
X44362635Y21802617D01*
G37*
%TD.AperFunction*%
%TD*%
%TA.AperFunction,Conductor*%
%TO.N,+12V*%
G36*
X33020982Y40397150D02*
G01*
X33074159Y40381435D01*
X33176495Y40315668D01*
X33267346Y40288992D01*
X33314583Y40275122D01*
X33314584Y40275122D01*
X33314587Y40275121D01*
X33314589Y40275121D01*
X33458507Y40275121D01*
X33458509Y40275121D01*
X33596601Y40315668D01*
X33695006Y40378910D01*
X33748866Y40394623D01*
X44375564Y40357724D01*
X44433685Y40338616D01*
X44469477Y40288992D01*
X44474217Y40258657D01*
X44468816Y32498931D01*
X44449868Y32440754D01*
X44400343Y32404824D01*
X44369816Y32400000D01*
X32000000Y32400000D01*
X29041008Y32400000D01*
X28982817Y32418907D01*
X28971004Y32428996D01*
X28451029Y32948971D01*
X28423252Y33003488D01*
X28432822Y33063918D01*
X31111481Y38280254D01*
X40649500Y38280254D01*
X40649501Y38280242D01*
X40661132Y38221773D01*
X40661133Y38221769D01*
X40705448Y38155448D01*
X40771769Y38111133D01*
X40816231Y38102289D01*
X40830241Y38099502D01*
X40830246Y38099502D01*
X40830252Y38099500D01*
X40830253Y38099500D01*
X42869747Y38099500D01*
X42869748Y38099500D01*
X42928231Y38111133D01*
X42994552Y38155448D01*
X43038867Y38221769D01*
X43050500Y38280252D01*
X43050500Y39219748D01*
X43038867Y39278231D01*
X42994552Y39344552D01*
X42994548Y39344555D01*
X42928233Y39388866D01*
X42928231Y39388867D01*
X42928228Y39388868D01*
X42928227Y39388868D01*
X42869758Y39400499D01*
X42869748Y39400500D01*
X40830252Y39400500D01*
X40830251Y39400500D01*
X40830241Y39400499D01*
X40771772Y39388868D01*
X40771766Y39388866D01*
X40705451Y39344555D01*
X40705445Y39344549D01*
X40661134Y39278234D01*
X40661132Y39278228D01*
X40649501Y39219759D01*
X40649500Y39219747D01*
X40649500Y38280254D01*
X31111481Y38280254D01*
X32133240Y40269995D01*
X32173406Y40309907D01*
X32173345Y40309998D01*
X32173812Y40310311D01*
X32176638Y40313118D01*
X32181034Y40315137D01*
X32181450Y40315416D01*
X32181453Y40315416D01*
X32231032Y40348544D01*
X32253064Y40370577D01*
X32307578Y40398354D01*
X32323404Y40399572D01*
X33020982Y40397150D01*
G37*
%TD.AperFunction*%
%TD*%
%TA.AperFunction,Conductor*%
%TO.N,+3.3V*%
G36*
X9822348Y10733360D02*
G01*
X9868103Y10680556D01*
X9879309Y10629045D01*
X9879309Y7685013D01*
X9859624Y7617974D01*
X9806820Y7572219D01*
X9800014Y7569352D01*
X7429310Y6653044D01*
X7429310Y3503044D01*
X8605313Y3503044D01*
X8672349Y3483359D01*
X8718104Y3430555D01*
X8729310Y3379044D01*
X8729310Y2376484D01*
X8709625Y2309445D01*
X8656821Y2263690D01*
X8605873Y2252485D01*
X4405168Y2233410D01*
X4338040Y2252790D01*
X4312876Y2273972D01*
X4280609Y2309445D01*
X2911229Y3814908D01*
X2880681Y3877745D01*
X2878961Y3897436D01*
X2850498Y7782012D01*
X2869691Y7849194D01*
X2907053Y7886977D01*
X7298539Y10733104D01*
X7365500Y10753044D01*
X7365531Y10753045D01*
X7879310Y10753045D01*
X9755312Y10753045D01*
X9822348Y10733360D01*
G37*
%TD.AperFunction*%
%TD*%
%TA.AperFunction,Conductor*%
%TO.N,Net-(D4-A)*%
G36*
X44425900Y52780315D02*
G01*
X44471655Y52727511D01*
X44482861Y52675914D01*
X44474584Y40786614D01*
X44454853Y40719588D01*
X44402017Y40673870D01*
X44349029Y40662710D01*
X33995656Y40792532D01*
X33928869Y40813055D01*
X33883780Y40866429D01*
X33874474Y40898872D01*
X33871713Y40918078D01*
X33858815Y40946319D01*
X33811927Y41048991D01*
X33811924Y41048995D01*
X33717676Y41157764D01*
X33596601Y41235574D01*
X33596599Y41235575D01*
X33596597Y41235576D01*
X33596598Y41235576D01*
X33458511Y41276121D01*
X33458509Y41276121D01*
X33314587Y41276121D01*
X33314584Y41276121D01*
X33176497Y41235576D01*
X33137656Y41210614D01*
X33070616Y41190930D01*
X33003577Y41210615D01*
X32981890Y41228308D01*
X30718287Y43547121D01*
X30685543Y43608844D01*
X30684280Y43651387D01*
X30686034Y43663593D01*
X30705647Y43800000D01*
X30685165Y43942457D01*
X30625377Y44073373D01*
X30531128Y44182143D01*
X30410053Y44259953D01*
X30410051Y44259954D01*
X30410049Y44259955D01*
X30410050Y44259955D01*
X30271963Y44300500D01*
X30271961Y44300500D01*
X30128039Y44300500D01*
X30128037Y44300500D01*
X30086755Y44288379D01*
X30016885Y44288379D01*
X29963090Y44320737D01*
X28985890Y45321771D01*
X28928805Y45380248D01*
X40599500Y45380248D01*
X40611131Y45321771D01*
X40611132Y45321770D01*
X40655447Y45255448D01*
X40721769Y45211133D01*
X40721770Y45211132D01*
X40780247Y45199501D01*
X40780250Y45199500D01*
X40780252Y45199500D01*
X42819750Y45199500D01*
X42819751Y45199501D01*
X42834568Y45202448D01*
X42878229Y45211132D01*
X42878229Y45211133D01*
X42878231Y45211133D01*
X42944552Y45255448D01*
X42988867Y45321769D01*
X42988867Y45321771D01*
X42988868Y45321771D01*
X43000499Y45380248D01*
X43000500Y45380250D01*
X43000500Y46319751D01*
X43000499Y46319753D01*
X42988868Y46378230D01*
X42988867Y46378231D01*
X42944552Y46444553D01*
X42878230Y46488868D01*
X42878229Y46488869D01*
X42819752Y46500500D01*
X42819748Y46500500D01*
X40780252Y46500500D01*
X40780247Y46500500D01*
X40721770Y46488869D01*
X40721769Y46488868D01*
X40655447Y46444553D01*
X40611132Y46378231D01*
X40611131Y46378230D01*
X40599500Y46319753D01*
X40599500Y45380248D01*
X28928805Y45380248D01*
X27681274Y46658207D01*
X27648531Y46719929D01*
X27654355Y46789555D01*
X27657196Y46796302D01*
X27685165Y46857543D01*
X27705647Y47000000D01*
X27685165Y47142457D01*
X27625377Y47273373D01*
X27531128Y47382143D01*
X27410053Y47459953D01*
X27410051Y47459954D01*
X27410049Y47459955D01*
X27410050Y47459955D01*
X27271963Y47500500D01*
X27271961Y47500500D01*
X27128039Y47500500D01*
X27128035Y47500500D01*
X26990528Y47460125D01*
X26920658Y47460125D01*
X26866863Y47492483D01*
X25306778Y49090618D01*
X25274034Y49152341D01*
X25279858Y49221967D01*
X25307826Y49264916D01*
X26757221Y50714311D01*
X26818542Y50747794D01*
X26888234Y50742810D01*
X26932582Y50714310D01*
X27019280Y50627612D01*
X27028528Y50618918D01*
X27037686Y50610827D01*
X27103723Y50571631D01*
X27161246Y50550782D01*
X27196868Y50541383D01*
X27288179Y50546520D01*
X27346972Y50563464D01*
X27405208Y50590715D01*
X30632484Y52773874D01*
X30699041Y52795132D01*
X30701121Y52795163D01*
X31433713Y52799998D01*
X31434530Y52800000D01*
X44358861Y52800000D01*
X44425900Y52780315D01*
G37*
%TD.AperFunction*%
%TD*%
%TA.AperFunction,Conductor*%
%TO.N,GND*%
G36*
X22695694Y64802543D02*
G01*
X22753847Y64783522D01*
X22789714Y64733952D01*
X22794500Y64703543D01*
X22794500Y64149500D01*
X22775593Y64091309D01*
X22726093Y64055345D01*
X22695500Y64050500D01*
X21285435Y64050500D01*
X21209012Y64030022D01*
X21161835Y64002784D01*
X21161834Y64002785D01*
X21140489Y63990461D01*
X20779524Y63629496D01*
X20725008Y63601719D01*
X20709521Y63600500D01*
X20603035Y63600500D01*
X20464949Y63559954D01*
X20464942Y63559951D01*
X20343873Y63482145D01*
X20249622Y63373372D01*
X20189834Y63242457D01*
X20169353Y63100003D01*
X20169353Y63099998D01*
X20189834Y62957544D01*
X20231879Y62865480D01*
X20249623Y62826627D01*
X20343872Y62717857D01*
X20343873Y62717856D01*
X20464942Y62640050D01*
X20464947Y62640047D01*
X20505507Y62628138D01*
X20556014Y62593603D01*
X20576576Y62535976D01*
X20559338Y62477269D01*
X20547620Y62463144D01*
X20029525Y61945048D01*
X19975008Y61917271D01*
X19959521Y61916052D01*
X19659375Y61916052D01*
X19601184Y61934959D01*
X19589371Y61945048D01*
X19504496Y62029923D01*
X19476719Y62084440D01*
X19475500Y62099927D01*
X19475500Y62114561D01*
X19475500Y62114562D01*
X19468928Y62139089D01*
X19468928Y62139090D01*
X19468928Y62139091D01*
X19455021Y62190990D01*
X19455020Y62190992D01*
X19415463Y62259507D01*
X19415462Y62259508D01*
X19415461Y62259509D01*
X19415460Y62259511D01*
X18704495Y62970476D01*
X18676718Y63024993D01*
X18675499Y63040480D01*
X18675499Y63306522D01*
X18675498Y63306524D01*
X18660647Y63400300D01*
X18660646Y63400302D01*
X18660646Y63400304D01*
X18603050Y63513342D01*
X18513342Y63603050D01*
X18400304Y63660646D01*
X18400305Y63660646D01*
X18306522Y63675500D01*
X17693479Y63675500D01*
X17693476Y63675499D01*
X17599700Y63660648D01*
X17599695Y63660646D01*
X17486659Y63603051D01*
X17396949Y63513341D01*
X17339354Y63400305D01*
X17324500Y63306523D01*
X17324500Y62843483D01*
X17327274Y62825971D01*
X17317700Y62765539D01*
X17274434Y62722276D01*
X17214002Y62712706D01*
X17159488Y62740483D01*
X17104495Y62795476D01*
X17076718Y62849993D01*
X17075499Y62865468D01*
X17075499Y63306518D01*
X17075498Y63306522D01*
X17075498Y63306524D01*
X17060647Y63400300D01*
X17060646Y63400302D01*
X17060646Y63400304D01*
X17003050Y63513342D01*
X16913342Y63603050D01*
X16800304Y63660646D01*
X16800305Y63660646D01*
X16706522Y63675500D01*
X16093479Y63675500D01*
X16093476Y63675499D01*
X15999700Y63660648D01*
X15999695Y63660646D01*
X15886659Y63603051D01*
X15796949Y63513341D01*
X15739354Y63400305D01*
X15724500Y63306523D01*
X15724500Y62843480D01*
X15724501Y62843477D01*
X15739352Y62749701D01*
X15739354Y62749696D01*
X15796950Y62636658D01*
X15886658Y62546950D01*
X15919291Y62530323D01*
X15962555Y62487060D01*
X15972127Y62426628D01*
X15964399Y62400988D01*
X15914834Y62292459D01*
X15914834Y62292457D01*
X15894353Y62150003D01*
X15894353Y62149998D01*
X15911090Y62033587D01*
X15900657Y61973298D01*
X15883102Y61949495D01*
X15796951Y61863344D01*
X15796950Y61863342D01*
X15739354Y61750305D01*
X15724500Y61656523D01*
X15724500Y61193480D01*
X15724501Y61193477D01*
X15739352Y61099701D01*
X15739354Y61099696D01*
X15796950Y60986658D01*
X15886658Y60896950D01*
X15999696Y60839354D01*
X16093481Y60824500D01*
X16706518Y60824501D01*
X16706520Y60824501D01*
X16706521Y60824502D01*
X16753411Y60831928D01*
X16800299Y60839353D01*
X16800299Y60839354D01*
X16800304Y60839354D01*
X16913342Y60896950D01*
X17003050Y60986658D01*
X17060646Y61099696D01*
X17075500Y61193481D01*
X17075499Y61656518D01*
X17073722Y61667737D01*
X17060647Y61750300D01*
X17060646Y61750302D01*
X17060646Y61750304D01*
X17003050Y61863342D01*
X16954851Y61911541D01*
X16927076Y61966055D01*
X16936647Y62026487D01*
X16979912Y62069752D01*
X17040344Y62079323D01*
X17050473Y62077170D01*
X17060438Y62074500D01*
X17369101Y62074500D01*
X17427292Y62055593D01*
X17463256Y62006093D01*
X17463256Y61944907D01*
X17439106Y61905499D01*
X17396952Y61863344D01*
X17396949Y61863341D01*
X17339354Y61750305D01*
X17324500Y61656523D01*
X17324500Y61193480D01*
X17324501Y61193477D01*
X17339352Y61099701D01*
X17339354Y61099696D01*
X17396950Y60986658D01*
X17486658Y60896950D01*
X17599696Y60839354D01*
X17693481Y60824500D01*
X18134520Y60824501D01*
X18192711Y60805594D01*
X18204524Y60795505D01*
X18275546Y60724483D01*
X18299759Y60676960D01*
X18301248Y60677396D01*
X18303242Y60670604D01*
X18350995Y60566041D01*
X18363029Y60539691D01*
X18457278Y60430921D01*
X18457279Y60430920D01*
X18578348Y60353114D01*
X18578353Y60353111D01*
X18684809Y60321853D01*
X18716441Y60312565D01*
X18716442Y60312565D01*
X18716445Y60312564D01*
X18716447Y60312564D01*
X18860365Y60312564D01*
X18860367Y60312564D01*
X18998459Y60353111D01*
X19119534Y60430921D01*
X19213783Y60539691D01*
X19273571Y60670607D01*
X19276573Y60691486D01*
X19279895Y60714589D01*
X19306891Y60769496D01*
X19361005Y60798050D01*
X19377887Y60799500D01*
X19389562Y60799500D01*
X20125500Y60799500D01*
X20183691Y60780593D01*
X20219655Y60731093D01*
X20224500Y60700500D01*
X20224500Y60216740D01*
X20231118Y60171318D01*
X20234427Y60148605D01*
X20285801Y60043519D01*
X20285802Y60043517D01*
X20368517Y59960802D01*
X20422285Y59934517D01*
X20473604Y59909428D01*
X20473605Y59909428D01*
X20473607Y59909427D01*
X20541740Y59899500D01*
X20541743Y59899500D01*
X20908257Y59899500D01*
X20908260Y59899500D01*
X20976393Y59909427D01*
X21081483Y59960802D01*
X21164198Y60043517D01*
X21215573Y60148607D01*
X21225500Y60216740D01*
X21225500Y60633295D01*
X21244407Y60691486D01*
X21293907Y60727450D01*
X21355093Y60727450D01*
X21399317Y60698128D01*
X21468872Y60617857D01*
X21504024Y60595266D01*
X21542754Y60547902D01*
X21549500Y60511983D01*
X21549500Y59733952D01*
X21530593Y59675761D01*
X21495446Y59645743D01*
X21411659Y59603051D01*
X21321949Y59513341D01*
X21264354Y59400305D01*
X21249500Y59306522D01*
X21249500Y58869508D01*
X21230593Y58811317D01*
X21181093Y58775353D01*
X21119907Y58775353D01*
X21096977Y58786224D01*
X21060057Y58809951D01*
X21060054Y58809953D01*
X21060053Y58809953D01*
X21055408Y58811317D01*
X20921964Y58850500D01*
X20921961Y58850500D01*
X20899500Y58850500D01*
X20841309Y58869407D01*
X20805345Y58918907D01*
X20800500Y58949500D01*
X20800499Y59306521D01*
X20800498Y59306524D01*
X20785647Y59400300D01*
X20785646Y59400302D01*
X20785646Y59400304D01*
X20728050Y59513342D01*
X20638342Y59603050D01*
X20525304Y59660646D01*
X20525305Y59660646D01*
X20431522Y59675500D01*
X19968479Y59675500D01*
X19968476Y59675499D01*
X19874700Y59660648D01*
X19874695Y59660646D01*
X19761659Y59603051D01*
X19671949Y59513341D01*
X19614354Y59400305D01*
X19599500Y59306523D01*
X19599500Y58693480D01*
X19599501Y58693477D01*
X19614352Y58599701D01*
X19614354Y58599696D01*
X19671950Y58486658D01*
X19761658Y58396950D01*
X19874696Y58339354D01*
X19968481Y58324500D01*
X20262234Y58324501D01*
X20320424Y58305594D01*
X20356388Y58256094D01*
X20360226Y58239592D01*
X20364834Y58207544D01*
X20381036Y58172068D01*
X20424623Y58076627D01*
X20518872Y57967857D01*
X20518873Y57967856D01*
X20639942Y57890050D01*
X20639947Y57890047D01*
X20746403Y57858789D01*
X20778035Y57849501D01*
X20778036Y57849501D01*
X20778039Y57849500D01*
X20778041Y57849500D01*
X20921959Y57849500D01*
X20921961Y57849500D01*
X21060053Y57890047D01*
X21181128Y57967857D01*
X21275377Y58076627D01*
X21335165Y58207543D01*
X21335164Y58207543D01*
X21335166Y58207545D01*
X21346074Y58283415D01*
X21373069Y58338323D01*
X21427184Y58366877D01*
X21487746Y58358170D01*
X21489010Y58357537D01*
X21524696Y58339354D01*
X21618481Y58324500D01*
X22059520Y58324501D01*
X22117711Y58305594D01*
X22129524Y58295505D01*
X22155525Y58269504D01*
X22183302Y58214987D01*
X22173731Y58154555D01*
X22130466Y58111290D01*
X22085521Y58100500D01*
X21766740Y58100500D01*
X21732673Y58095537D01*
X21698604Y58090573D01*
X21593518Y58039199D01*
X21510801Y57956482D01*
X21459427Y57851396D01*
X21449500Y57783257D01*
X21449500Y57556427D01*
X21430593Y57498236D01*
X21381093Y57462272D01*
X21376123Y57460800D01*
X21307903Y57442521D01*
X21239389Y57402964D01*
X20215489Y56379064D01*
X20215488Y56379065D01*
X20159539Y56323115D01*
X20119980Y56254597D01*
X20119978Y56254593D01*
X20099500Y56178169D01*
X20099500Y54474040D01*
X20119977Y54397619D01*
X20119979Y54397615D01*
X20156395Y54334540D01*
X20159540Y54329093D01*
X20169131Y54319502D01*
X20196907Y54264987D01*
X20187336Y54204555D01*
X20144071Y54161290D01*
X20099126Y54150500D01*
X19743479Y54150500D01*
X19743476Y54150499D01*
X19649700Y54135648D01*
X19649695Y54135646D01*
X19536659Y54078051D01*
X19446948Y53988340D01*
X19416996Y53929555D01*
X19373732Y53886290D01*
X19328787Y53875500D01*
X18592944Y53875500D01*
X18534753Y53894407D01*
X18522940Y53904496D01*
X18471939Y53955497D01*
X18444162Y54010014D01*
X18453733Y54070446D01*
X18496998Y54113711D01*
X18541943Y54124501D01*
X18656521Y54124501D01*
X18656522Y54124502D01*
X18726891Y54135646D01*
X18750299Y54139353D01*
X18750299Y54139354D01*
X18750304Y54139354D01*
X18863342Y54196950D01*
X18922511Y54256120D01*
X18977025Y54283896D01*
X19020399Y54281106D01*
X19128039Y54249500D01*
X19128041Y54249500D01*
X19271959Y54249500D01*
X19271961Y54249500D01*
X19410053Y54290047D01*
X19531128Y54367857D01*
X19625377Y54476627D01*
X19685165Y54607543D01*
X19705647Y54750000D01*
X19701297Y54780252D01*
X19685165Y54892457D01*
X19674441Y54915938D01*
X19625377Y55023373D01*
X19531128Y55132143D01*
X19531127Y55132144D01*
X19531126Y55132145D01*
X19410057Y55209951D01*
X19410054Y55209953D01*
X19410053Y55209953D01*
X19410050Y55209954D01*
X19271964Y55250500D01*
X19271961Y55250500D01*
X19128039Y55250500D01*
X19128037Y55250500D01*
X19128033Y55250499D01*
X19082484Y55237125D01*
X19021324Y55238873D01*
X18972872Y55276236D01*
X18966389Y55287162D01*
X18953050Y55313342D01*
X18863342Y55403050D01*
X18750304Y55460646D01*
X18750305Y55460646D01*
X18656522Y55475500D01*
X18193479Y55475500D01*
X18193476Y55475499D01*
X18099700Y55460648D01*
X18099695Y55460646D01*
X17986659Y55403051D01*
X17955616Y55372008D01*
X17901099Y55344232D01*
X17840667Y55353804D01*
X17815608Y55372011D01*
X17786977Y55400643D01*
X17389687Y55797932D01*
X17361909Y55852449D01*
X17371480Y55912881D01*
X17389686Y55937939D01*
X17398528Y55946780D01*
X17459719Y56066874D01*
X17475500Y56166512D01*
X17475500Y56733488D01*
X17459719Y56833126D01*
X17459716Y56833131D01*
X17459716Y56833133D01*
X17398529Y56953218D01*
X17398528Y56953220D01*
X17303220Y57048528D01*
X17303217Y57048530D01*
X17183132Y57109717D01*
X17183126Y57109719D01*
X17162348Y57113010D01*
X17107833Y57140789D01*
X17080056Y57195307D01*
X17079846Y57224877D01*
X17090647Y57300000D01*
X17070165Y57442457D01*
X17055266Y57475081D01*
X17048291Y57535867D01*
X17075315Y57586212D01*
X17079545Y57590444D01*
X17079552Y57590448D01*
X17123867Y57656769D01*
X17135500Y57715252D01*
X17135500Y57715254D01*
X17864500Y57715254D01*
X17864501Y57715242D01*
X17876132Y57656773D01*
X17876133Y57656769D01*
X17920448Y57590448D01*
X17986769Y57546133D01*
X18031231Y57537289D01*
X18045241Y57534502D01*
X18045246Y57534502D01*
X18045252Y57534500D01*
X18045253Y57534500D01*
X18784747Y57534500D01*
X18784748Y57534500D01*
X18843231Y57546133D01*
X18909552Y57590448D01*
X18953867Y57656769D01*
X18965500Y57715252D01*
X18965500Y58454748D01*
X18953867Y58513231D01*
X18909552Y58579552D01*
X18909548Y58579555D01*
X18843233Y58623866D01*
X18843231Y58623867D01*
X18843228Y58623868D01*
X18843227Y58623868D01*
X18784758Y58635499D01*
X18784748Y58635500D01*
X18045252Y58635500D01*
X18045251Y58635500D01*
X18045241Y58635499D01*
X17986772Y58623868D01*
X17986766Y58623866D01*
X17920451Y58579555D01*
X17920445Y58579549D01*
X17876134Y58513234D01*
X17876132Y58513228D01*
X17864501Y58454759D01*
X17864500Y58454747D01*
X17864500Y57715254D01*
X17135500Y57715254D01*
X17135500Y58454748D01*
X17123867Y58513231D01*
X17079552Y58579552D01*
X17079548Y58579555D01*
X17079253Y58579997D01*
X17062644Y58638885D01*
X17079253Y58690002D01*
X17079550Y58690447D01*
X17079552Y58690448D01*
X17111916Y58738884D01*
X17159964Y58776761D01*
X17221102Y58779163D01*
X17247749Y58767166D01*
X17289947Y58740047D01*
X17396403Y58708789D01*
X17428035Y58699501D01*
X17428036Y58699501D01*
X17428039Y58699500D01*
X17428041Y58699500D01*
X17571959Y58699500D01*
X17571961Y58699500D01*
X17710053Y58740047D01*
X17831128Y58817857D01*
X17925377Y58926627D01*
X17985165Y59057543D01*
X18005647Y59200000D01*
X17990331Y59306523D01*
X17985165Y59342457D01*
X17925377Y59473373D01*
X17831128Y59582143D01*
X17831127Y59582144D01*
X17831126Y59582145D01*
X17710057Y59659951D01*
X17710054Y59659953D01*
X17710053Y59659953D01*
X17694312Y59664575D01*
X17571964Y59700500D01*
X17571961Y59700500D01*
X17428039Y59700500D01*
X17428035Y59700500D01*
X17289949Y59659954D01*
X17289943Y59659952D01*
X17233727Y59623824D01*
X17174552Y59608271D01*
X17117536Y59630470D01*
X17097892Y59652105D01*
X17079552Y59679552D01*
X17048202Y59700500D01*
X17013233Y59723866D01*
X17013231Y59723867D01*
X17013228Y59723868D01*
X17013227Y59723868D01*
X16954758Y59735499D01*
X16954748Y59735500D01*
X16215252Y59735500D01*
X16215251Y59735500D01*
X16215241Y59735499D01*
X16156772Y59723868D01*
X16156766Y59723866D01*
X16090451Y59679555D01*
X16090445Y59679549D01*
X16046134Y59613234D01*
X16046132Y59613228D01*
X16034501Y59554759D01*
X16034500Y59554747D01*
X16034500Y58815254D01*
X16034501Y58815242D01*
X16046132Y58756773D01*
X16046134Y58756767D01*
X16090746Y58690002D01*
X16107355Y58631114D01*
X16090746Y58579998D01*
X16046134Y58513234D01*
X16046132Y58513228D01*
X16034501Y58454759D01*
X16034500Y58454747D01*
X16034500Y57715254D01*
X16034501Y57715242D01*
X16046132Y57656773D01*
X16046133Y57656769D01*
X16090448Y57590448D01*
X16090451Y57590446D01*
X16094685Y57586212D01*
X16122462Y57531695D01*
X16114734Y57475082D01*
X16099835Y57442461D01*
X16099833Y57442453D01*
X16079353Y57300003D01*
X16079353Y57299998D01*
X16099834Y57157544D01*
X16159623Y57026627D01*
X16197359Y56983077D01*
X16221177Y56926718D01*
X16210751Y56873303D01*
X16190282Y56833129D01*
X16190281Y56833126D01*
X16174500Y56733490D01*
X16174500Y56166511D01*
X16190281Y56066875D01*
X16190283Y56066868D01*
X16243785Y55961866D01*
X16253357Y55901434D01*
X16225580Y55846918D01*
X16205079Y55831187D01*
X16177891Y55815489D01*
X16177841Y55815460D01*
X16177838Y55815458D01*
X15702561Y55340181D01*
X15663002Y55271663D01*
X15663000Y55271659D01*
X15642522Y55195235D01*
X15642522Y54670131D01*
X15623615Y54611940D01*
X15616280Y54603947D01*
X15616531Y54603730D01*
X15611894Y54598380D01*
X15611894Y54598379D01*
X15565639Y54544997D01*
X15517644Y54489608D01*
X15457856Y54358693D01*
X15437375Y54216239D01*
X15437375Y54216233D01*
X15437871Y54212781D01*
X15437375Y54209916D01*
X15437375Y54209156D01*
X15437243Y54209156D01*
X15427434Y54152493D01*
X15383554Y54109853D01*
X15353971Y54100706D01*
X15352542Y54100501D01*
X15252391Y54071094D01*
X15191231Y54072842D01*
X15142778Y54110205D01*
X15125500Y54166084D01*
X15125500Y54419747D01*
X15125498Y54419759D01*
X15122711Y54433769D01*
X15113867Y54478231D01*
X15069552Y54544552D01*
X15069549Y54544554D01*
X15069253Y54544997D01*
X15052644Y54603885D01*
X15069253Y54655003D01*
X15069549Y54655447D01*
X15069552Y54655448D01*
X15113867Y54721769D01*
X15125500Y54780252D01*
X15125500Y55219748D01*
X15113867Y55278231D01*
X15069552Y55344552D01*
X15069548Y55344555D01*
X15069253Y55344997D01*
X15052644Y55403885D01*
X15069253Y55455003D01*
X15069549Y55455447D01*
X15069552Y55455448D01*
X15113867Y55521769D01*
X15125500Y55580252D01*
X15125500Y56019748D01*
X15113867Y56078231D01*
X15069552Y56144552D01*
X15069549Y56144554D01*
X15069253Y56144997D01*
X15052644Y56203885D01*
X15069253Y56255003D01*
X15069549Y56255447D01*
X15069552Y56255448D01*
X15113867Y56321769D01*
X15125500Y56380252D01*
X15125500Y56819748D01*
X15113867Y56878231D01*
X15069552Y56944552D01*
X15056580Y56953220D01*
X15003233Y56988866D01*
X15003231Y56988867D01*
X15003228Y56988868D01*
X15003227Y56988868D01*
X14944758Y57000499D01*
X14944748Y57000500D01*
X14105252Y57000500D01*
X14105251Y57000500D01*
X14105241Y57000499D01*
X14046772Y56988868D01*
X14046766Y56988866D01*
X13980451Y56944555D01*
X13980445Y56944549D01*
X13936134Y56878234D01*
X13936132Y56878228D01*
X13924501Y56819759D01*
X13924500Y56819747D01*
X13924500Y56380254D01*
X13924501Y56380242D01*
X13936132Y56321773D01*
X13936134Y56321767D01*
X13980746Y56255002D01*
X13997355Y56196114D01*
X13980746Y56144998D01*
X13936134Y56078234D01*
X13936132Y56078228D01*
X13924501Y56019759D01*
X13924500Y56019747D01*
X13924500Y55580254D01*
X13924501Y55580242D01*
X13936132Y55521773D01*
X13936134Y55521767D01*
X13980746Y55455002D01*
X13997355Y55396114D01*
X13980746Y55344998D01*
X13936134Y55278234D01*
X13936132Y55278228D01*
X13924501Y55219759D01*
X13924500Y55219747D01*
X13924500Y54780254D01*
X13924501Y54780242D01*
X13936132Y54721773D01*
X13936134Y54721767D01*
X13980746Y54655002D01*
X13997355Y54596114D01*
X13980746Y54544998D01*
X13936134Y54478234D01*
X13936132Y54478228D01*
X13924501Y54419759D01*
X13924500Y54419747D01*
X13924500Y54064479D01*
X13905593Y54006288D01*
X13856093Y53970324D01*
X13794907Y53970324D01*
X13755496Y53994475D01*
X13679496Y54070475D01*
X13651719Y54124992D01*
X13650500Y54140479D01*
X13650500Y55428889D01*
X13650500Y55428890D01*
X13639350Y55470504D01*
X13638011Y55475501D01*
X13638011Y55475502D01*
X13631580Y55499500D01*
X13630022Y55505316D01*
X13620523Y55521769D01*
X13590463Y55573835D01*
X13590459Y55573840D01*
X13269874Y55894426D01*
X13242097Y55948942D01*
X13241886Y55978518D01*
X13244975Y56000000D01*
X13232971Y56083488D01*
X13224493Y56142457D01*
X13199988Y56196114D01*
X13164705Y56273373D01*
X13070456Y56382143D01*
X13070455Y56382144D01*
X13070454Y56382145D01*
X12949385Y56459951D01*
X12949382Y56459953D01*
X12949381Y56459953D01*
X12949378Y56459954D01*
X12811292Y56500500D01*
X12811289Y56500500D01*
X12667367Y56500500D01*
X12667363Y56500500D01*
X12529277Y56459954D01*
X12529270Y56459951D01*
X12408201Y56382145D01*
X12313950Y56273372D01*
X12254162Y56142457D01*
X12233681Y56000003D01*
X12233681Y55999998D01*
X12254162Y55857544D01*
X12313950Y55726629D01*
X12313951Y55726627D01*
X12314953Y55725471D01*
X12408201Y55617856D01*
X12488096Y55566511D01*
X12529275Y55540047D01*
X12635731Y55508789D01*
X12667363Y55499501D01*
X12667364Y55499501D01*
X12667367Y55499500D01*
X12667369Y55499500D01*
X12773849Y55499500D01*
X12832040Y55480593D01*
X12843853Y55470504D01*
X13020504Y55293853D01*
X13048281Y55239336D01*
X13049500Y55223849D01*
X13049500Y54915938D01*
X13030593Y54857747D01*
X12981093Y54821783D01*
X12922609Y54820948D01*
X12821964Y54850500D01*
X12821961Y54850500D01*
X12678039Y54850500D01*
X12678035Y54850500D01*
X12539949Y54809954D01*
X12539942Y54809951D01*
X12418873Y54732145D01*
X12324622Y54623372D01*
X12264834Y54492457D01*
X12244353Y54350003D01*
X12244353Y54349998D01*
X12264834Y54207544D01*
X12321602Y54083242D01*
X12324623Y54076627D01*
X12416734Y53970324D01*
X12418873Y53967856D01*
X12424288Y53964376D01*
X12463018Y53917009D01*
X12466388Y53906721D01*
X12469977Y53893329D01*
X12469977Y53893328D01*
X12508423Y53826738D01*
X12508422Y53826738D01*
X12509534Y53824811D01*
X12509538Y53824806D01*
X12509540Y53824803D01*
X13208088Y53126255D01*
X13896219Y52438124D01*
X13923299Y52384974D01*
X13923550Y52385023D01*
X13923726Y52384137D01*
X13923996Y52383607D01*
X13924295Y52381274D01*
X13936132Y52321773D01*
X13936134Y52321767D01*
X13980746Y52255002D01*
X13997355Y52196114D01*
X13980746Y52144998D01*
X13936134Y52078234D01*
X13936132Y52078228D01*
X13924501Y52019759D01*
X13924500Y52019747D01*
X13924500Y51580254D01*
X13924501Y51580242D01*
X13936132Y51521773D01*
X13936134Y51521767D01*
X13980746Y51455002D01*
X13997355Y51396114D01*
X13980746Y51344998D01*
X13936134Y51278234D01*
X13936132Y51278228D01*
X13924501Y51219759D01*
X13924500Y51219747D01*
X13924500Y50780254D01*
X13924501Y50780242D01*
X13936132Y50721773D01*
X13936134Y50721767D01*
X13980746Y50655002D01*
X13997355Y50596114D01*
X13980746Y50544998D01*
X13936134Y50478234D01*
X13936132Y50478228D01*
X13924501Y50419759D01*
X13924500Y50419747D01*
X13924500Y49980254D01*
X13924501Y49980242D01*
X13936132Y49921773D01*
X13936134Y49921767D01*
X13980746Y49855002D01*
X13997355Y49796114D01*
X13980746Y49744998D01*
X13936134Y49678234D01*
X13936132Y49678228D01*
X13924501Y49619759D01*
X13924500Y49619747D01*
X13924500Y49180254D01*
X13924501Y49180242D01*
X13936132Y49121773D01*
X13936134Y49121767D01*
X13980746Y49055002D01*
X13997355Y48996114D01*
X13980746Y48944998D01*
X13936134Y48878234D01*
X13936132Y48878228D01*
X13924501Y48819759D01*
X13924500Y48819747D01*
X13924500Y48380250D01*
X13932999Y48337524D01*
X13926178Y48279900D01*
X13971193Y48259148D01*
X13972341Y48260865D01*
X13980448Y48255448D01*
X14046769Y48211133D01*
X14091231Y48202289D01*
X14105241Y48199502D01*
X14105246Y48199502D01*
X14105252Y48199500D01*
X14831369Y48199500D01*
X14889560Y48180593D01*
X14925524Y48131093D01*
X14926995Y48126124D01*
X14944978Y48059012D01*
X14944979Y48059011D01*
X14964904Y48024500D01*
X14984540Y47990489D01*
X15859647Y47115382D01*
X16669453Y46305576D01*
X16697230Y46251059D01*
X16697442Y46221485D01*
X16694353Y46199998D01*
X16714834Y46057544D01*
X16752303Y45975500D01*
X16774623Y45926627D01*
X16838480Y45852932D01*
X16868873Y45817856D01*
X16959226Y45759790D01*
X16989947Y45740047D01*
X17095259Y45709125D01*
X17128035Y45699501D01*
X17128036Y45699501D01*
X17128039Y45699500D01*
X17128041Y45699500D01*
X17271959Y45699500D01*
X17271961Y45699500D01*
X17410053Y45740047D01*
X17531128Y45817857D01*
X17625377Y45926627D01*
X17663841Y46010852D01*
X17705213Y46055928D01*
X17752478Y46066213D01*
X17752415Y46068587D01*
X17810082Y46070136D01*
X17819138Y46070378D01*
X17882348Y46082135D01*
X23856817Y48202108D01*
X23880772Y48212361D01*
X23903136Y48223661D01*
X23903139Y48223663D01*
X23903142Y48223664D01*
X23912307Y48229051D01*
X23925604Y48236865D01*
X24998057Y48962351D01*
X25056847Y48979293D01*
X25114370Y48958444D01*
X25123529Y48950353D01*
X26322912Y47750970D01*
X26350689Y47696453D01*
X26341118Y47636021D01*
X26297853Y47592756D01*
X26237421Y47583185D01*
X26233596Y47583868D01*
X26183052Y47593921D01*
X26183051Y47593921D01*
X26183050Y47593921D01*
X26170071Y47591340D01*
X26104818Y47578361D01*
X26104817Y47578361D01*
X26055239Y47545233D01*
X25581833Y47071827D01*
X25548705Y47022249D01*
X25548705Y47022248D01*
X25533145Y46944016D01*
X25548705Y46865786D01*
X25548706Y46865785D01*
X25581834Y46816205D01*
X25963315Y46434724D01*
X26012895Y46401596D01*
X26091126Y46386035D01*
X26169358Y46401596D01*
X26218937Y46434724D01*
X26444695Y46660482D01*
X26499212Y46688259D01*
X26514699Y46689478D01*
X26761600Y46689478D01*
X26819791Y46670571D01*
X26836419Y46655309D01*
X26868870Y46617859D01*
X26868872Y46617857D01*
X26989947Y46540047D01*
X27076398Y46514663D01*
X27128035Y46499501D01*
X27128036Y46499501D01*
X27128039Y46499500D01*
X27128041Y46499500D01*
X27271959Y46499500D01*
X27271961Y46499500D01*
X27410053Y46540047D01*
X27410055Y46540049D01*
X27415872Y46542705D01*
X27476658Y46549683D01*
X27529937Y46519599D01*
X27532595Y46516582D01*
X27534218Y46514663D01*
X27691575Y46353468D01*
X27748651Y46295000D01*
X28781754Y45236699D01*
X28781755Y45236699D01*
X29269167Y44737399D01*
X29296286Y44682552D01*
X29285987Y44622240D01*
X29242204Y44579499D01*
X29216809Y44573564D01*
X29217290Y44571146D01*
X29129495Y44553684D01*
X29129494Y44553684D01*
X29079916Y44520556D01*
X28606510Y44047150D01*
X28573382Y43997572D01*
X28573382Y43997571D01*
X28557822Y43919339D01*
X28573382Y43841109D01*
X28606508Y43791532D01*
X28606511Y43791528D01*
X28987992Y43410047D01*
X29037572Y43376919D01*
X29115803Y43361358D01*
X29194035Y43376919D01*
X29243614Y43410047D01*
X29304071Y43470504D01*
X29358588Y43498281D01*
X29374075Y43499500D01*
X29752917Y43499500D01*
X29811108Y43480593D01*
X29827733Y43465333D01*
X29868872Y43417857D01*
X29989947Y43340047D01*
X30096403Y43308789D01*
X30128035Y43299501D01*
X30128036Y43299501D01*
X30128039Y43299500D01*
X30128041Y43299500D01*
X30271959Y43299500D01*
X30271961Y43299500D01*
X30410053Y43340047D01*
X30479259Y43384524D01*
X30538433Y43400078D01*
X30595450Y43377879D01*
X30603624Y43370394D01*
X32257776Y41675896D01*
X32284895Y41621049D01*
X32274596Y41560736D01*
X32230813Y41517996D01*
X32204279Y41511795D01*
X32204708Y41509643D01*
X32116913Y41492181D01*
X32116912Y41492181D01*
X32067334Y41459053D01*
X31593928Y40985647D01*
X31560800Y40936069D01*
X31560800Y40936068D01*
X31545240Y40857836D01*
X31560800Y40779606D01*
X31593928Y40730026D01*
X31902678Y40421275D01*
X31930455Y40366759D01*
X31920884Y40306327D01*
X31920741Y40306048D01*
X31350204Y39195000D01*
X30928675Y38374127D01*
X28250016Y33157793D01*
X28229850Y33096060D01*
X28229849Y33096055D01*
X28220283Y33035648D01*
X28220279Y33035615D01*
X28220269Y33035459D01*
X28220259Y33035435D01*
X28220034Y33033433D01*
X28219934Y33033445D01*
X28219933Y33033436D01*
X28219750Y33033465D01*
X28219480Y33033496D01*
X28197479Y32978677D01*
X28148417Y32946870D01*
X28075157Y32926168D01*
X28075155Y32926167D01*
X28050566Y32912740D01*
X28013833Y32892682D01*
X28013829Y32892679D01*
X27967007Y32857628D01*
X26770286Y31660908D01*
X26715769Y31633131D01*
X26655337Y31642702D01*
X26612072Y31685967D01*
X26602501Y31746399D01*
X26603176Y31750185D01*
X26603943Y31754037D01*
X26588382Y31832269D01*
X26588382Y31832270D01*
X26555254Y31881848D01*
X26081848Y32355254D01*
X26032270Y32388382D01*
X25967016Y32401361D01*
X25954038Y32403942D01*
X25954037Y32403942D01*
X25875807Y32388382D01*
X25826230Y32355256D01*
X25444743Y31973769D01*
X25411617Y31924192D01*
X25396057Y31845962D01*
X25411617Y31767730D01*
X25411617Y31767729D01*
X25444745Y31718151D01*
X25670504Y31492392D01*
X25698281Y31437875D01*
X25699500Y31422388D01*
X25699500Y31053895D01*
X25680593Y30995704D01*
X25673258Y30987711D01*
X25673509Y30987494D01*
X25574622Y30873372D01*
X25514834Y30742457D01*
X25494353Y30600003D01*
X25494353Y30599998D01*
X25514834Y30457544D01*
X25574622Y30326629D01*
X25574623Y30326627D01*
X25668872Y30217857D01*
X25668873Y30217856D01*
X25789942Y30140050D01*
X25789947Y30140047D01*
X25896403Y30108789D01*
X25928035Y30099501D01*
X25928036Y30099501D01*
X25928039Y30099500D01*
X25928041Y30099500D01*
X26071960Y30099500D01*
X26071961Y30099500D01*
X26071961Y30099501D01*
X26078972Y30100508D01*
X26079349Y30097885D01*
X26128760Y30096478D01*
X26177216Y30059120D01*
X26194500Y30003232D01*
X26194500Y27987156D01*
X26175593Y27928965D01*
X26126093Y27893001D01*
X26064907Y27893001D01*
X26025498Y27917151D01*
X25969799Y27972850D01*
X25869760Y28019499D01*
X25824179Y28025500D01*
X25824177Y28025500D01*
X25375826Y28025500D01*
X25375814Y28025499D01*
X25330240Y28019500D01*
X25330238Y28019500D01*
X25230203Y27972852D01*
X25152150Y27894799D01*
X25105501Y27794760D01*
X25105501Y27794759D01*
X25099500Y27749178D01*
X25099500Y27450827D01*
X25099501Y27450815D01*
X25105500Y27405241D01*
X25105500Y27405239D01*
X25152148Y27305204D01*
X25152149Y27305203D01*
X25152150Y27305201D01*
X25192352Y27264999D01*
X25220128Y27210484D01*
X25210557Y27150052D01*
X25197167Y27130167D01*
X25169202Y27097893D01*
X25109413Y26966976D01*
X25088932Y26824522D01*
X25088932Y26824517D01*
X25109413Y26682063D01*
X25154390Y26583579D01*
X25169202Y26551146D01*
X25263451Y26442376D01*
X25263452Y26442375D01*
X25384521Y26364569D01*
X25384526Y26364566D01*
X25490982Y26333308D01*
X25522614Y26324020D01*
X25522615Y26324020D01*
X25522618Y26324019D01*
X25522620Y26324019D01*
X25666538Y26324019D01*
X25666540Y26324019D01*
X25804632Y26364566D01*
X25925707Y26442376D01*
X26019956Y26551146D01*
X26019957Y26551150D01*
X26020680Y26551983D01*
X26073076Y26583579D01*
X26134037Y26578344D01*
X26180278Y26538276D01*
X26194500Y26487152D01*
X26194500Y24853723D01*
X26196058Y24828464D01*
X26196061Y24828440D01*
X26199805Y24798215D01*
X26199806Y24798209D01*
X26226648Y24719231D01*
X26226652Y24719222D01*
X26255261Y24670620D01*
X26255282Y24670587D01*
X26262098Y24659008D01*
X26298642Y24613337D01*
X28071467Y22951313D01*
X28100988Y22897721D01*
X28093370Y22837011D01*
X28051523Y22792374D01*
X28023071Y22781991D01*
X28004817Y22778361D01*
X27955239Y22745233D01*
X27481833Y22271827D01*
X27448705Y22222249D01*
X27448705Y22222248D01*
X27433145Y22144016D01*
X27448705Y22065786D01*
X27448706Y22065785D01*
X27481834Y22016205D01*
X27863315Y21634724D01*
X27912895Y21601596D01*
X27991126Y21586035D01*
X28069358Y21601596D01*
X28118937Y21634724D01*
X28344695Y21860482D01*
X28399212Y21888259D01*
X28414699Y21889478D01*
X28795704Y21889478D01*
X28853895Y21870571D01*
X28889859Y21821071D01*
X28893696Y21804567D01*
X28914834Y21657544D01*
X28947492Y21586035D01*
X28974623Y21526627D01*
X29048579Y21441277D01*
X29068873Y21417856D01*
X29185912Y21342640D01*
X29189947Y21340047D01*
X29296403Y21308789D01*
X29328035Y21299501D01*
X29328036Y21299501D01*
X29328039Y21299500D01*
X29328041Y21299500D01*
X29471959Y21299500D01*
X29471961Y21299500D01*
X29610053Y21340047D01*
X29682579Y21386657D01*
X29737085Y21421685D01*
X29737850Y21420495D01*
X29787027Y21441277D01*
X29846623Y21427419D01*
X29886691Y21381178D01*
X29894500Y21342640D01*
X29894500Y18545000D01*
X29894500Y12399000D01*
X29894517Y12398788D01*
X29897030Y12366857D01*
X29901881Y12336223D01*
X29902646Y12331719D01*
X29902647Y12331716D01*
X29902648Y12331713D01*
X29903693Y12329268D01*
X29903836Y12327673D01*
X29904295Y12326115D01*
X29903985Y12326024D01*
X29909178Y12268331D01*
X29877797Y12215806D01*
X29875523Y12213941D01*
X29874467Y12213002D01*
X29874461Y12212997D01*
X29874461Y12212996D01*
X29740854Y12075873D01*
X28637128Y10943102D01*
X28582976Y10914619D01*
X28522425Y10923405D01*
X28478602Y10966104D01*
X28469123Y10992879D01*
X28468121Y10997915D01*
X28453683Y11070505D01*
X28453683Y11070506D01*
X28420555Y11120084D01*
X27947149Y11593490D01*
X27897571Y11626618D01*
X27832317Y11639597D01*
X27819339Y11642178D01*
X27819338Y11642178D01*
X27741108Y11626618D01*
X27691531Y11593492D01*
X27310044Y11212005D01*
X27276918Y11162428D01*
X27261358Y11084198D01*
X27261358Y11074447D01*
X27257934Y11074447D01*
X27252731Y11030577D01*
X27216359Y10988762D01*
X27095766Y10911261D01*
X27001516Y10802490D01*
X26941728Y10671575D01*
X26921247Y10529121D01*
X26921247Y10529116D01*
X26941728Y10386662D01*
X26992843Y10274738D01*
X27001517Y10255745D01*
X27090229Y10153365D01*
X27095767Y10146974D01*
X27216836Y10069168D01*
X27216841Y10069165D01*
X27323297Y10037907D01*
X27354929Y10028619D01*
X27354930Y10028619D01*
X27354933Y10028618D01*
X27354935Y10028618D01*
X27498853Y10028618D01*
X27498855Y10028618D01*
X27636947Y10069165D01*
X27758022Y10146975D01*
X27820715Y10219328D01*
X27873108Y10250923D01*
X27934069Y10245688D01*
X27980311Y10205621D01*
X27992851Y10153365D01*
X27994458Y10153363D01*
X27990310Y5445721D01*
X27971351Y5387547D01*
X27921820Y5351626D01*
X27860634Y5351680D01*
X27852456Y5355651D01*
X27852242Y5355134D01*
X27843233Y5358866D01*
X27843231Y5358867D01*
X27843227Y5358868D01*
X27784758Y5370499D01*
X27784748Y5370500D01*
X27115252Y5370500D01*
X27115251Y5370500D01*
X27115241Y5370499D01*
X27056772Y5358868D01*
X27056766Y5358866D01*
X26990451Y5314555D01*
X26990445Y5314549D01*
X26946134Y5248234D01*
X26946132Y5248228D01*
X26934501Y5189759D01*
X26934500Y5189747D01*
X26934500Y4650254D01*
X26934501Y4650242D01*
X26946132Y4591773D01*
X26946134Y4591767D01*
X26962380Y4567454D01*
X26990448Y4525448D01*
X27056769Y4481133D01*
X27109939Y4470557D01*
X27163321Y4440661D01*
X27176358Y4422962D01*
X27194873Y4390893D01*
X27194874Y4390891D01*
X27194873Y4390891D01*
X27209539Y4365490D01*
X27569453Y4005575D01*
X27597230Y3951059D01*
X27597442Y3921485D01*
X27594353Y3899998D01*
X27614834Y3757544D01*
X27667155Y3642980D01*
X27674623Y3626627D01*
X27744565Y3545909D01*
X27768873Y3517856D01*
X27820610Y3484607D01*
X27889947Y3440047D01*
X27889949Y3440047D01*
X27889950Y3440046D01*
X27919608Y3431338D01*
X27970116Y3396803D01*
X27990678Y3339176D01*
X27989698Y3322174D01*
X27988431Y3313422D01*
X27985768Y289945D01*
X27985593Y91206D01*
X27989297Y56538D01*
X27990272Y47421D01*
X27991613Y41243D01*
X27985477Y-19634D01*
X27944731Y-65278D01*
X27895738Y-78750D01*
X17059851Y-174360D01*
X17001496Y-155967D01*
X17000788Y-155457D01*
X16947786Y-116949D01*
X16779414Y-31162D01*
X16779409Y-31160D01*
X16599696Y27229D01*
X16599693Y27230D01*
X16413060Y56787D01*
X16367978Y56787D01*
X16365538Y57021D01*
X16357464Y56981D01*
X16321377Y56802D01*
X16318246Y56786D01*
X16317757Y56785D01*
X16270638Y56785D01*
X16268193Y56538D01*
X5002358Y515D01*
X4997548Y608D01*
X4586011Y18576D01*
X4577407Y19329D01*
X4170859Y72852D01*
X4162354Y74352D01*
X3762021Y163103D01*
X3753678Y165338D01*
X3362596Y288646D01*
X3354480Y291600D01*
X2975635Y448523D01*
X2967808Y452173D01*
X2604089Y641513D01*
X2596609Y645831D01*
X2250759Y866162D01*
X2243685Y871116D01*
X1918373Y1120737D01*
X1911757Y1126288D01*
X1609428Y1403321D01*
X1603320Y1409429D01*
X1326287Y1711758D01*
X1320736Y1718374D01*
X1071115Y2043686D01*
X1066161Y2050760D01*
X845830Y2396610D01*
X841512Y2404090D01*
X807369Y2469679D01*
X652168Y2767816D01*
X648522Y2775636D01*
X640909Y2794015D01*
X491599Y3154481D01*
X488645Y3162597D01*
X471047Y3218411D01*
X365332Y3553695D01*
X363105Y3562010D01*
X288175Y3900000D01*
X274351Y3962355D01*
X272851Y3970860D01*
X219326Y4377420D01*
X218576Y4386000D01*
X200594Y4797848D01*
X200500Y4802166D01*
X200500Y7780129D01*
X2595004Y7780129D01*
X2623467Y3895585D01*
X2623468Y3895564D01*
X2624430Y3875203D01*
X2625163Y3866813D01*
X2626149Y3855515D01*
X2626150Y3855509D01*
X2650894Y3766040D01*
X2650896Y3766036D01*
X2681444Y3703199D01*
X2722223Y3642987D01*
X2722227Y3642982D01*
X2722229Y3642980D01*
X4112140Y2114946D01*
X4123870Y2102051D01*
X4148339Y2078504D01*
X4173503Y2057322D01*
X4178626Y2053121D01*
X4267171Y2007315D01*
X4308893Y1995270D01*
X4334288Y1987938D01*
X4334289Y1987938D01*
X4334299Y1987935D01*
X4406328Y1977913D01*
X7760444Y1993144D01*
X7818720Y1974501D01*
X7854909Y1925165D01*
X7855187Y1863980D01*
X7819448Y1814317D01*
X7805840Y1805936D01*
X7715969Y1760144D01*
X7626259Y1670434D01*
X7568664Y1557398D01*
X7553810Y1463616D01*
X7553810Y1000573D01*
X7553811Y1000570D01*
X7568662Y906794D01*
X7568664Y906789D01*
X7626260Y793751D01*
X7715968Y704043D01*
X7829006Y646447D01*
X7922791Y631593D01*
X8535828Y631594D01*
X8535830Y631594D01*
X8535831Y631595D01*
X8582721Y639021D01*
X8629609Y646446D01*
X8629609Y646447D01*
X8629614Y646447D01*
X8742652Y704043D01*
X8763383Y724774D01*
X8784113Y745503D01*
X8838630Y773280D01*
X8854116Y774499D01*
X9250454Y774499D01*
X9308645Y755592D01*
X9320457Y745503D01*
X9361916Y704045D01*
X9365967Y699994D01*
X9479005Y642398D01*
X9572790Y627544D01*
X10035827Y627545D01*
X10035829Y627545D01*
X10035830Y627546D01*
X10082720Y634972D01*
X10129608Y642397D01*
X10129608Y642398D01*
X10129613Y642398D01*
X10242651Y699994D01*
X10332359Y789702D01*
X10389955Y902740D01*
X10404809Y996525D01*
X10404808Y1609562D01*
X10395168Y1670434D01*
X10389956Y1703344D01*
X10389955Y1703346D01*
X10389955Y1703348D01*
X10332359Y1816386D01*
X10304495Y1844250D01*
X10276719Y1898767D01*
X10275500Y1914253D01*
X10275500Y2445909D01*
X10294407Y2504100D01*
X10343907Y2540064D01*
X10374500Y2544909D01*
X10608296Y2544909D01*
X10608299Y2544909D01*
X10676432Y2554836D01*
X10781522Y2606211D01*
X10864237Y2688926D01*
X10915612Y2794016D01*
X10925539Y2862149D01*
X10925539Y3228669D01*
X10915612Y3296802D01*
X10903208Y3322174D01*
X10890522Y3348124D01*
X10864237Y3401892D01*
X10781522Y3484607D01*
X10780941Y3484891D01*
X10676434Y3535982D01*
X10649178Y3539953D01*
X10608299Y3545909D01*
X10608296Y3545909D01*
X10196062Y3545909D01*
X10170442Y3549282D01*
X10165898Y3550500D01*
X10165894Y3550500D01*
X10034109Y3550500D01*
X10034104Y3550500D01*
X10029561Y3549282D01*
X10003941Y3545909D01*
X9516779Y3545909D01*
X9482712Y3540946D01*
X9448643Y3535982D01*
X9343557Y3484608D01*
X9260840Y3401891D01*
X9209466Y3296805D01*
X9209466Y3296802D01*
X9199539Y3228669D01*
X9199539Y2862149D01*
X9207480Y2807643D01*
X9209466Y2794015D01*
X9222278Y2767809D01*
X9260841Y2688926D01*
X9260842Y2688925D01*
X9264441Y2681564D01*
X9274500Y2638083D01*
X9274500Y1874499D01*
X9255593Y1816308D01*
X9206093Y1780344D01*
X9175500Y1775499D01*
X8736281Y1775499D01*
X8691336Y1786290D01*
X8652779Y1805936D01*
X8631185Y1816939D01*
X8587921Y1860204D01*
X8578350Y1920636D01*
X8606128Y1975153D01*
X8658291Y2001935D01*
X8658192Y2002385D01*
X8659899Y2002761D01*
X8660037Y2002831D01*
X8660735Y2002947D01*
X8660754Y2002949D01*
X8711702Y2014154D01*
X8737508Y2021265D01*
X8824138Y2070596D01*
X8876942Y2116351D01*
X8908567Y2149125D01*
X8954775Y2237460D01*
X8974460Y2304499D01*
X8980670Y2347690D01*
X8984810Y2376480D01*
X8984810Y3379041D01*
X8984810Y3379044D01*
X8978971Y3433357D01*
X8967765Y3484868D01*
X8960529Y3511242D01*
X8960528Y3511244D01*
X8960527Y3511247D01*
X8911202Y3597866D01*
X8911199Y3597869D01*
X8911198Y3597872D01*
X8903306Y3606980D01*
X8865457Y3650661D01*
X8865448Y3650671D01*
X8832672Y3682298D01*
X8828654Y3685195D01*
X8792514Y3734567D01*
X8792296Y3795752D01*
X8816556Y3835499D01*
X8827838Y3846780D01*
X8847925Y3886205D01*
X8878672Y3918585D01*
X8877165Y3920549D01*
X8882314Y3924501D01*
X8882313Y3924501D01*
X8882316Y3924502D01*
X8949790Y3991977D01*
X9373727Y4415913D01*
X9428243Y4443690D01*
X9443730Y4444909D01*
X10608296Y4444909D01*
X10608299Y4444909D01*
X10676432Y4454836D01*
X10781522Y4506211D01*
X10864237Y4588926D01*
X10892249Y4646227D01*
X10934790Y4690200D01*
X10995056Y4700770D01*
X11047063Y4676649D01*
X11350812Y4405901D01*
X11381670Y4353067D01*
X11375804Y4294429D01*
X11376357Y4294205D01*
X11375592Y4292312D01*
X11375580Y4292186D01*
X11375340Y4291687D01*
X11374534Y4289692D01*
X11354853Y4222666D01*
X11354849Y4222648D01*
X11344500Y4150673D01*
X11344500Y3827373D01*
X11353204Y3761252D01*
X11353205Y3761246D01*
X11369817Y3699249D01*
X11378815Y3677527D01*
X11395342Y3637627D01*
X11399252Y3630855D01*
X11409141Y3606980D01*
X11419091Y3569849D01*
X11422465Y3544224D01*
X11422465Y2523968D01*
X11428300Y2469679D01*
X11439501Y2418175D01*
X11439507Y2418150D01*
X11446725Y2391829D01*
X11496042Y2305191D01*
X11496652Y2304487D01*
X11541791Y2252378D01*
X11574560Y2220748D01*
X11574564Y2220746D01*
X11662888Y2174527D01*
X11675293Y2170883D01*
X11729925Y2154832D01*
X11801907Y2144471D01*
X16060343Y2143820D01*
X16066394Y2143891D01*
X16072257Y2144029D01*
X16072263Y2144030D01*
X16072264Y2144030D01*
X16132260Y2154832D01*
X16149701Y2157972D01*
X16215738Y2180794D01*
X16280392Y2214089D01*
X17359228Y2981590D01*
X20345500Y2981590D01*
X20382544Y2747700D01*
X20455725Y2522473D01*
X20508863Y2418182D01*
X20563236Y2311470D01*
X20702432Y2119884D01*
X20869884Y1952432D01*
X21061470Y1813236D01*
X21272473Y1705725D01*
X21497695Y1632546D01*
X21497696Y1632546D01*
X21497699Y1632545D01*
X21731590Y1595500D01*
X21731593Y1595500D01*
X21968410Y1595500D01*
X22202300Y1632545D01*
X22202301Y1632546D01*
X22202305Y1632546D01*
X22427527Y1705725D01*
X22638530Y1813236D01*
X22830116Y1952432D01*
X22997568Y2119884D01*
X23097480Y2257401D01*
X25816691Y2257401D01*
X25837172Y2114947D01*
X25888321Y2002949D01*
X25896961Y1984030D01*
X25983764Y1883853D01*
X25991211Y1875259D01*
X26081959Y1816939D01*
X26112285Y1797450D01*
X26218741Y1766192D01*
X26250373Y1756904D01*
X26250374Y1756904D01*
X26250377Y1756903D01*
X26250379Y1756903D01*
X26394297Y1756903D01*
X26394299Y1756903D01*
X26532391Y1797450D01*
X26653466Y1875260D01*
X26675669Y1900885D01*
X26728062Y1932480D01*
X26772699Y1931250D01*
X26772731Y1931490D01*
X26775049Y1931185D01*
X26778195Y1931098D01*
X26780236Y1930503D01*
X26780240Y1930501D01*
X26825821Y1924500D01*
X27274178Y1924501D01*
X27319760Y1930501D01*
X27319761Y1930501D01*
X27375961Y1956708D01*
X27419799Y1977150D01*
X27497850Y2055201D01*
X27544499Y2155240D01*
X27550500Y2200821D01*
X27550499Y2499178D01*
X27544499Y2544760D01*
X27544499Y2544762D01*
X27497851Y2644797D01*
X27497850Y2644798D01*
X27497850Y2644799D01*
X27419799Y2722850D01*
X27319760Y2769499D01*
X27274179Y2775500D01*
X27274177Y2775500D01*
X26825826Y2775500D01*
X26825814Y2775499D01*
X26780240Y2769500D01*
X26780238Y2769500D01*
X26680203Y2722852D01*
X26680199Y2722849D01*
X26675437Y2718087D01*
X26620920Y2690312D01*
X26560488Y2699886D01*
X26551919Y2704806D01*
X26532391Y2717356D01*
X26532388Y2717357D01*
X26394302Y2757903D01*
X26394299Y2757903D01*
X26250377Y2757903D01*
X26250373Y2757903D01*
X26112287Y2717357D01*
X26112280Y2717354D01*
X25991211Y2639548D01*
X25896960Y2530775D01*
X25837172Y2399860D01*
X25816691Y2257406D01*
X25816691Y2257401D01*
X23097480Y2257401D01*
X23136764Y2311470D01*
X23244275Y2522473D01*
X23317454Y2747695D01*
X23320640Y2767809D01*
X23354500Y2981590D01*
X23354500Y3218411D01*
X23317455Y3452301D01*
X23317454Y3452305D01*
X23244275Y3677527D01*
X23136764Y3888530D01*
X22997568Y4080116D01*
X22830116Y4247568D01*
X22638530Y4386764D01*
X22638529Y4386765D01*
X22638527Y4386766D01*
X22427527Y4494275D01*
X22202300Y4567456D01*
X21968410Y4604500D01*
X21968407Y4604500D01*
X21731593Y4604500D01*
X21731590Y4604500D01*
X21497699Y4567456D01*
X21272472Y4494275D01*
X21061472Y4386766D01*
X20869885Y4247569D01*
X20702431Y4080115D01*
X20563234Y3888528D01*
X20455725Y3677528D01*
X20382544Y3452301D01*
X20345500Y3218411D01*
X20345500Y2981590D01*
X17359228Y2981590D01*
X18445991Y3754731D01*
X18482757Y3786567D01*
X18515191Y3820568D01*
X18529257Y3836603D01*
X18575465Y3924938D01*
X18595150Y3991977D01*
X18601360Y4035168D01*
X18605500Y4063958D01*
X18605500Y7975997D01*
X18602054Y8008052D01*
X18599661Y8030313D01*
X18588455Y8081824D01*
X18581219Y8108198D01*
X18581218Y8108200D01*
X18581217Y8108203D01*
X18531892Y8194822D01*
X18531889Y8194825D01*
X18531888Y8194828D01*
X18531882Y8194835D01*
X18486147Y8247617D01*
X18486138Y8247627D01*
X18453358Y8279258D01*
X18453355Y8279260D01*
X18365025Y8325465D01*
X18365020Y8325467D01*
X18297997Y8345147D01*
X18297989Y8345149D01*
X18297985Y8345150D01*
X18297980Y8345151D01*
X18297979Y8345151D01*
X18226004Y8355500D01*
X18226000Y8355500D01*
X13794167Y8355500D01*
X13794158Y8355500D01*
X13774948Y8353383D01*
X13715036Y8365803D01*
X13673867Y8411066D01*
X13665111Y8450733D01*
X13606819Y13927401D01*
X13600095Y13982971D01*
X13587775Y14035550D01*
X13579667Y14063086D01*
X13528504Y14148647D01*
X13528500Y14148652D01*
X13481641Y14200461D01*
X13481638Y14200464D01*
X13479644Y14202308D01*
X13448197Y14231387D01*
X13397619Y14256489D01*
X13358899Y14275706D01*
X13342037Y14280270D01*
X13291457Y14293960D01*
X13219269Y14302776D01*
X13219266Y14302776D01*
X11086221Y14257393D01*
X11069495Y14256489D01*
X11053339Y14255082D01*
X11053333Y14255081D01*
X10967159Y14231939D01*
X10903872Y14202306D01*
X10864516Y14179398D01*
X10864512Y14179395D01*
X10795975Y14107004D01*
X10795974Y14107003D01*
X10758764Y14047877D01*
X10729184Y13981441D01*
X10729183Y13981439D01*
X9908866Y11086208D01*
X9907612Y11080236D01*
X9877142Y11027177D01*
X9821305Y11002162D01*
X9796639Y11002603D01*
X9768106Y11006706D01*
X9755312Y11008545D01*
X9755311Y11008545D01*
X7365499Y11008545D01*
X7365498Y11008544D01*
X7292582Y10997918D01*
X7292569Y10997915D01*
X7225631Y10977981D01*
X7225619Y10977977D01*
X7159579Y10947511D01*
X2768091Y8101383D01*
X2725381Y8066632D01*
X2688022Y8028853D01*
X2669579Y8008052D01*
X2669577Y8008050D01*
X2624020Y7919382D01*
X2604827Y7852199D01*
X2595005Y7780142D01*
X2595004Y7780129D01*
X200500Y7780129D01*
X200500Y14780254D01*
X1599500Y14780254D01*
X1599501Y14780242D01*
X1611132Y14721773D01*
X1611133Y14721769D01*
X1655448Y14655448D01*
X1721769Y14611133D01*
X1766231Y14602289D01*
X1780241Y14599502D01*
X1780246Y14599502D01*
X1780252Y14599500D01*
X1780253Y14599500D01*
X3819747Y14599500D01*
X3819748Y14599500D01*
X3878231Y14611133D01*
X3944552Y14655448D01*
X3988867Y14721769D01*
X4000500Y14780252D01*
X4000500Y15719748D01*
X3988867Y15778231D01*
X3944552Y15844552D01*
X3944548Y15844555D01*
X3878233Y15888866D01*
X3878231Y15888867D01*
X3878228Y15888868D01*
X3878227Y15888868D01*
X3819758Y15900499D01*
X3819748Y15900500D01*
X1780252Y15900500D01*
X1780251Y15900500D01*
X1780241Y15900499D01*
X1721772Y15888868D01*
X1721766Y15888866D01*
X1655451Y15844555D01*
X1655445Y15844549D01*
X1611134Y15778234D01*
X1611132Y15778228D01*
X1599501Y15719759D01*
X1599500Y15719747D01*
X1599500Y14780254D01*
X200500Y14780254D01*
X200500Y16164076D01*
X210597Y16195153D01*
X200500Y16235925D01*
X200500Y18481424D01*
X219407Y18539615D01*
X268907Y18575579D01*
X330093Y18575579D01*
X354502Y18563739D01*
X419978Y18519989D01*
X539089Y18470652D01*
X665537Y18445500D01*
X665538Y18445500D01*
X794462Y18445500D01*
X794463Y18445500D01*
X920911Y18470652D01*
X1040022Y18519989D01*
X1135499Y18583786D01*
X1194386Y18600394D01*
X1251790Y18579217D01*
X1285783Y18528343D01*
X1289500Y18501470D01*
X1289500Y17055479D01*
X1270593Y16997288D01*
X1260504Y16985476D01*
X1004523Y16729496D01*
X950008Y16701719D01*
X934521Y16700500D01*
X828035Y16700500D01*
X689949Y16659954D01*
X689942Y16659951D01*
X568873Y16582145D01*
X474622Y16473372D01*
X414834Y16342457D01*
X397492Y16221836D01*
X387782Y16202089D01*
X397492Y16178165D01*
X414834Y16057544D01*
X474622Y15926629D01*
X474623Y15926627D01*
X568872Y15817857D01*
X568873Y15817856D01*
X630531Y15778231D01*
X689947Y15740047D01*
X796403Y15708789D01*
X828035Y15699501D01*
X828036Y15699501D01*
X828039Y15699500D01*
X828041Y15699500D01*
X971959Y15699500D01*
X971961Y15699500D01*
X1110053Y15740047D01*
X1231128Y15817857D01*
X1325377Y15926627D01*
X1385165Y16057543D01*
X1405647Y16200000D01*
X1402558Y16221484D01*
X1412991Y16281773D01*
X1430543Y16305574D01*
X1830460Y16705489D01*
X1830571Y16705682D01*
X1830572Y16705684D01*
X1830574Y16705683D01*
X1830626Y16705778D01*
X1870021Y16774011D01*
X1890500Y16850438D01*
X1890500Y18599889D01*
X1909407Y18658080D01*
X1958907Y18694044D01*
X2020093Y18694044D01*
X2059504Y18669893D01*
X2137780Y18591617D01*
X2244978Y18519989D01*
X2364089Y18470652D01*
X2490537Y18445500D01*
X2490538Y18445500D01*
X2619462Y18445500D01*
X2619463Y18445500D01*
X2745911Y18470652D01*
X2865022Y18519989D01*
X2972220Y18591617D01*
X3063383Y18682780D01*
X3135011Y18789978D01*
X3184348Y18909089D01*
X3209500Y19035537D01*
X3209500Y19164463D01*
X3184348Y19290911D01*
X3135012Y19410020D01*
X3135012Y19410021D01*
X3063383Y19517220D01*
X2972219Y19608384D01*
X2865019Y19680013D01*
X2745911Y19729348D01*
X2619465Y19754500D01*
X2619463Y19754500D01*
X2490537Y19754500D01*
X2490534Y19754500D01*
X2364089Y19729348D01*
X2364087Y19729348D01*
X2244980Y19680013D01*
X2244979Y19680013D01*
X2137780Y19608384D01*
X2059504Y19530107D01*
X2004987Y19502330D01*
X1944555Y19511901D01*
X1901290Y19555166D01*
X1890500Y19600111D01*
X1890500Y24394889D01*
X1909407Y24453080D01*
X1958907Y24489044D01*
X2020093Y24489044D01*
X2059504Y24464893D01*
X2132780Y24391617D01*
X2239978Y24319989D01*
X2359089Y24270652D01*
X2485537Y24245500D01*
X2485538Y24245500D01*
X2614462Y24245500D01*
X2614463Y24245500D01*
X2740911Y24270652D01*
X2860022Y24319989D01*
X2967220Y24391617D01*
X3058383Y24482780D01*
X3130011Y24589978D01*
X3179348Y24709089D01*
X3204500Y24835537D01*
X3204500Y24964463D01*
X3179348Y25090911D01*
X3130012Y25210020D01*
X3130012Y25210021D01*
X3058383Y25317220D01*
X2967219Y25408384D01*
X2860019Y25480013D01*
X2740911Y25529348D01*
X2614465Y25554500D01*
X2614463Y25554500D01*
X2485537Y25554500D01*
X2485534Y25554500D01*
X2359089Y25529348D01*
X2359087Y25529348D01*
X2239980Y25480013D01*
X2239979Y25480013D01*
X2132780Y25408384D01*
X2059504Y25335107D01*
X2004987Y25307330D01*
X1944555Y25316901D01*
X1901290Y25360166D01*
X1890500Y25405111D01*
X1890500Y25600000D01*
X6544671Y25600000D01*
X6563965Y25305623D01*
X6563966Y25305620D01*
X6621519Y25016278D01*
X6621520Y25016274D01*
X6621521Y25016271D01*
X6716347Y24736925D01*
X6716352Y24736914D01*
X6846828Y24472335D01*
X6998393Y24245501D01*
X7010727Y24227043D01*
X7205242Y24005242D01*
X7427043Y23810727D01*
X7672335Y23646828D01*
X7936923Y23516348D01*
X8216278Y23421519D01*
X8505620Y23363966D01*
X8800000Y23344671D01*
X9094380Y23363966D01*
X9383722Y23421519D01*
X9663077Y23516348D01*
X9927665Y23646828D01*
X10172957Y23810727D01*
X10394758Y24005242D01*
X10589273Y24227043D01*
X10753172Y24472335D01*
X10883652Y24736923D01*
X10978481Y25016278D01*
X11036034Y25305620D01*
X11055329Y25600000D01*
X11036034Y25894380D01*
X10978481Y26183722D01*
X10883652Y26463077D01*
X10753172Y26727664D01*
X10589273Y26972957D01*
X10394758Y27194758D01*
X10381242Y27206611D01*
X10172965Y27389266D01*
X10172955Y27389274D01*
X10157651Y27399500D01*
X9927665Y27553172D01*
X9663086Y27683648D01*
X9663075Y27683653D01*
X9383729Y27778479D01*
X9383726Y27778480D01*
X9383722Y27778481D01*
X9209805Y27813075D01*
X9094377Y27836035D01*
X8800000Y27855329D01*
X8505622Y27836035D01*
X8333258Y27801750D01*
X8216278Y27778481D01*
X8216275Y27778481D01*
X8216270Y27778479D01*
X7936924Y27683653D01*
X7936913Y27683648D01*
X7672336Y27553173D01*
X7427043Y27389274D01*
X7427034Y27389266D01*
X7205251Y27194767D01*
X7205233Y27194749D01*
X7010734Y26972966D01*
X7010726Y26972957D01*
X6846827Y26727664D01*
X6716352Y26463087D01*
X6716347Y26463076D01*
X6621521Y26183730D01*
X6563965Y25894378D01*
X6544671Y25600001D01*
X6544671Y25600000D01*
X1890500Y25600000D01*
X1890500Y28000500D01*
X1909407Y28058691D01*
X1958907Y28094655D01*
X1989500Y28099500D01*
X3819747Y28099500D01*
X3819748Y28099500D01*
X3878231Y28111133D01*
X3944552Y28155448D01*
X3988867Y28221769D01*
X4000500Y28280252D01*
X4000500Y29219748D01*
X3988867Y29278231D01*
X3944552Y29344552D01*
X3887190Y29382881D01*
X3878233Y29388866D01*
X3878231Y29388867D01*
X3878228Y29388868D01*
X3878227Y29388868D01*
X3819758Y29400499D01*
X3819748Y29400500D01*
X1780252Y29400500D01*
X1780251Y29400500D01*
X1780241Y29400499D01*
X1721772Y29388868D01*
X1721766Y29388866D01*
X1705974Y29378313D01*
X1647086Y29361704D01*
X1589682Y29382881D01*
X1555689Y29433755D01*
X1551972Y29460628D01*
X1551972Y33183707D01*
X5421972Y33183707D01*
X5445834Y33094655D01*
X5461465Y33036318D01*
X5537753Y32904184D01*
X5537755Y32904182D01*
X5537757Y32904179D01*
X5645651Y32796285D01*
X5645653Y32796284D01*
X5645655Y32796282D01*
X5777790Y32719994D01*
X5777791Y32719994D01*
X5777794Y32719992D01*
X5925179Y32680500D01*
X5925180Y32680500D01*
X6077764Y32680500D01*
X6077765Y32680500D01*
X6225150Y32719992D01*
X6225152Y32719994D01*
X6225154Y32719994D01*
X6357288Y32796282D01*
X6357288Y32796283D01*
X6357293Y32796285D01*
X6465187Y32904179D01*
X6477882Y32926167D01*
X6541478Y33036318D01*
X6541478Y33036320D01*
X6541480Y33036322D01*
X6567102Y33131945D01*
X6600424Y33183255D01*
X6657545Y33205182D01*
X6682040Y33203416D01*
X6701724Y33199500D01*
X6701725Y33199500D01*
X8191219Y33199500D01*
X8191220Y33199500D01*
X8249703Y33211133D01*
X8316024Y33255448D01*
X8316059Y33255502D01*
X8316139Y33255565D01*
X8322918Y33262343D01*
X8323720Y33261541D01*
X8364109Y33293381D01*
X8398375Y33299500D01*
X8746044Y33299500D01*
X8804235Y33280593D01*
X8816048Y33270504D01*
X8832463Y33254089D01*
X8832464Y33254087D01*
X8907031Y33179520D01*
X8944667Y33157791D01*
X8998357Y33126793D01*
X9076125Y33105955D01*
X9127438Y33072632D01*
X9149364Y33015510D01*
X9149500Y33010329D01*
X9149500Y32233157D01*
X9130593Y32174966D01*
X9120505Y32163155D01*
X9102151Y32144801D01*
X9055501Y32044760D01*
X9055501Y32044759D01*
X9049500Y31999178D01*
X9049500Y31700827D01*
X9049501Y31700815D01*
X9055500Y31655241D01*
X9055500Y31655239D01*
X9102148Y31555204D01*
X9102149Y31555203D01*
X9102150Y31555201D01*
X9180201Y31477150D01*
X9280240Y31430501D01*
X9325821Y31424500D01*
X9774178Y31424501D01*
X9819760Y31430501D01*
X9819761Y31430501D01*
X9890303Y31463396D01*
X9919799Y31477150D01*
X9997850Y31555201D01*
X10044499Y31655240D01*
X10050500Y31700821D01*
X10050500Y31700827D01*
X11149500Y31700827D01*
X11149501Y31700815D01*
X11155500Y31655241D01*
X11155500Y31655239D01*
X11202148Y31555204D01*
X11202149Y31555203D01*
X11202150Y31555201D01*
X11280201Y31477150D01*
X11380240Y31430501D01*
X11425821Y31424500D01*
X11565418Y31424501D01*
X11591044Y31421128D01*
X11597273Y31419458D01*
X11702727Y31419458D01*
X11708955Y31421128D01*
X11734581Y31424501D01*
X11874175Y31424501D01*
X11874178Y31424501D01*
X11919760Y31430501D01*
X11919761Y31430501D01*
X11990303Y31463396D01*
X12019799Y31477150D01*
X12097850Y31555201D01*
X12144499Y31655240D01*
X12150500Y31700821D01*
X12150499Y31999178D01*
X12144499Y32044760D01*
X12144499Y32044762D01*
X12097851Y32144797D01*
X12097849Y32144800D01*
X12079495Y32163155D01*
X12051719Y32217672D01*
X12050500Y32233157D01*
X12050500Y32245603D01*
X12069407Y32303794D01*
X12074682Y32310435D01*
X12076165Y32312148D01*
X12083314Y32320397D01*
X12143102Y32451313D01*
X12163584Y32593770D01*
X12143102Y32736227D01*
X12083314Y32867143D01*
X11989065Y32975913D01*
X11989064Y32975914D01*
X11989063Y32975915D01*
X11867994Y33053721D01*
X11867991Y33053723D01*
X11867990Y33053723D01*
X11867987Y33053724D01*
X11729901Y33094270D01*
X11729898Y33094270D01*
X11585976Y33094270D01*
X11585972Y33094270D01*
X11447886Y33053724D01*
X11447879Y33053721D01*
X11326810Y32975915D01*
X11232559Y32867142D01*
X11172771Y32736227D01*
X11152290Y32593773D01*
X11152290Y32593768D01*
X11172771Y32451314D01*
X11172771Y32451312D01*
X11232555Y32320405D01*
X11233781Y32318498D01*
X11234419Y32316323D01*
X11235501Y32313955D01*
X11235160Y32313800D01*
X11249500Y32264969D01*
X11249500Y32233157D01*
X11230593Y32174966D01*
X11220505Y32163155D01*
X11202151Y32144801D01*
X11155501Y32044760D01*
X11155501Y32044759D01*
X11149500Y31999178D01*
X11149500Y31700827D01*
X10050500Y31700827D01*
X10050499Y31999178D01*
X10044499Y32044760D01*
X10044499Y32044762D01*
X9997851Y32144797D01*
X9997849Y32144800D01*
X9979495Y32163155D01*
X9951719Y32217672D01*
X9950500Y32233157D01*
X9950500Y33000500D01*
X9969407Y33058691D01*
X10018907Y33094655D01*
X10049500Y33099500D01*
X10052725Y33099500D01*
X10052727Y33099500D01*
X10154588Y33126793D01*
X10154590Y33126795D01*
X10154592Y33126795D01*
X10245908Y33179517D01*
X10245908Y33179518D01*
X10245913Y33179520D01*
X10696952Y33630559D01*
X10739768Y33704717D01*
X10749677Y33721880D01*
X10749677Y33721882D01*
X10749679Y33721884D01*
X10776972Y33823745D01*
X10776972Y33929199D01*
X10776972Y38027727D01*
X10749679Y38129587D01*
X10745330Y38137119D01*
X10696952Y38220913D01*
X10622385Y38295481D01*
X10622385Y38295480D01*
X9997385Y38920480D01*
X9997382Y38920482D01*
X9997381Y38920483D01*
X9997380Y38920484D01*
X9906063Y38973206D01*
X9906065Y38973206D01*
X9866542Y38983796D01*
X9804199Y39000500D01*
X9804197Y39000500D01*
X8398375Y39000500D01*
X8340184Y39019407D01*
X8316059Y39044499D01*
X8316024Y39044552D01*
X8316020Y39044555D01*
X8249705Y39088866D01*
X8249703Y39088867D01*
X8249700Y39088868D01*
X8249699Y39088868D01*
X8191230Y39100499D01*
X8191220Y39100500D01*
X6701724Y39100500D01*
X6701721Y39100500D01*
X6682041Y39096585D01*
X6621280Y39103777D01*
X6576350Y39145310D01*
X6567102Y39168054D01*
X6541480Y39263678D01*
X6541478Y39263681D01*
X6541478Y39263683D01*
X6465190Y39395817D01*
X6465188Y39395819D01*
X6465187Y39395821D01*
X6357293Y39503715D01*
X6357290Y39503717D01*
X6357288Y39503719D01*
X6225153Y39580007D01*
X6225154Y39580007D01*
X6194004Y39588354D01*
X6077765Y39619500D01*
X5925179Y39619500D01*
X5860192Y39602087D01*
X5777789Y39580007D01*
X5645655Y39503719D01*
X5537753Y39395817D01*
X5461465Y39263683D01*
X5421972Y39116293D01*
X5421972Y38963708D01*
X5461465Y38816318D01*
X5537753Y38684184D01*
X5537755Y38684182D01*
X5537757Y38684179D01*
X5645651Y38576285D01*
X5645653Y38576284D01*
X5645655Y38576282D01*
X5777790Y38499994D01*
X5777791Y38499994D01*
X5777794Y38499992D01*
X5925179Y38460500D01*
X5925180Y38460500D01*
X6077764Y38460500D01*
X6077765Y38460500D01*
X6225150Y38499992D01*
X6225152Y38499994D01*
X6225154Y38499994D01*
X6284370Y38534183D01*
X6357293Y38576285D01*
X6357302Y38576295D01*
X6361699Y38579667D01*
X6419373Y38600095D01*
X6478040Y38582722D01*
X6515291Y38534183D01*
X6520972Y38501129D01*
X6520972Y38280254D01*
X6520973Y38280242D01*
X6532604Y38221770D01*
X6536286Y38212881D01*
X6541083Y38151884D01*
X6536286Y38137119D01*
X6532604Y38128231D01*
X6520973Y38069759D01*
X6520972Y38069747D01*
X6520972Y37730249D01*
X6533093Y37669314D01*
X6533093Y37630686D01*
X6520972Y37569752D01*
X6520972Y37299046D01*
X6502065Y37240855D01*
X6452565Y37204891D01*
X6434896Y37200893D01*
X6431912Y37200501D01*
X6355479Y37180021D01*
X6286965Y37140464D01*
X6286959Y37140460D01*
X6236960Y37090460D01*
X6181011Y37034511D01*
X6141452Y36965993D01*
X6141450Y36965989D01*
X6120972Y36889565D01*
X6120972Y35910436D01*
X6141450Y35834012D01*
X6141452Y35834008D01*
X6181010Y35765492D01*
X6181012Y35765489D01*
X6286961Y35659540D01*
X6286963Y35659539D01*
X6286965Y35659537D01*
X6355480Y35619980D01*
X6355478Y35619980D01*
X6355482Y35619979D01*
X6355484Y35619978D01*
X6431910Y35599500D01*
X6431917Y35599500D01*
X6434886Y35599109D01*
X6436828Y35598183D01*
X6438178Y35597821D01*
X6438111Y35597572D01*
X6490113Y35572773D01*
X6519313Y35519004D01*
X6520972Y35500955D01*
X6520972Y35230249D01*
X6533093Y35169314D01*
X6533093Y35130686D01*
X6520972Y35069752D01*
X6520972Y34730249D01*
X6533093Y34669314D01*
X6533093Y34630686D01*
X6520972Y34569752D01*
X6520972Y34230254D01*
X6520973Y34230242D01*
X6532604Y34171770D01*
X6536286Y34162881D01*
X6541083Y34101884D01*
X6536286Y34087119D01*
X6532604Y34078231D01*
X6520973Y34019759D01*
X6520972Y34019747D01*
X6520972Y33798872D01*
X6502065Y33740681D01*
X6452565Y33704717D01*
X6391379Y33704717D01*
X6361704Y33720331D01*
X6357293Y33723716D01*
X6225153Y33800007D01*
X6225154Y33800007D01*
X6136563Y33823745D01*
X6077765Y33839500D01*
X5925179Y33839500D01*
X5866381Y33823745D01*
X5777789Y33800007D01*
X5645655Y33723719D01*
X5537753Y33615817D01*
X5461465Y33483683D01*
X5461464Y33483678D01*
X5421972Y33336293D01*
X5421972Y33183707D01*
X1551972Y33183707D01*
X1551972Y40785993D01*
X1570879Y40844184D01*
X1580968Y40855997D01*
X2073956Y41348985D01*
X2128473Y41376762D01*
X2143960Y41377981D01*
X12503773Y41377981D01*
X12503773Y41377982D01*
X12580199Y41398460D01*
X12648721Y41438021D01*
X12676695Y41465996D01*
X12704671Y41493970D01*
X12886595Y41675896D01*
X12961568Y41750870D01*
X13016082Y41778646D01*
X13031557Y41779865D01*
X13472611Y41779865D01*
X13472614Y41779865D01*
X13472615Y41779866D01*
X13519504Y41787292D01*
X13566392Y41794717D01*
X13566392Y41794718D01*
X13566397Y41794718D01*
X13679435Y41852314D01*
X13769143Y41942022D01*
X13826739Y42055060D01*
X13841593Y42148845D01*
X13841592Y42375100D01*
X13860499Y42433289D01*
X13870582Y42445096D01*
X14595497Y43170008D01*
X14650013Y43197785D01*
X14665500Y43199004D01*
X14995355Y43199004D01*
X15053546Y43180097D01*
X15089510Y43130597D01*
X15093418Y43105918D01*
X15093633Y43105944D01*
X15094351Y43100024D01*
X15094355Y43100004D01*
X15094355Y43099998D01*
X15102207Y43035330D01*
X15114860Y42931128D01*
X15175182Y42772070D01*
X15271817Y42632071D01*
X15399148Y42519266D01*
X15549775Y42440210D01*
X15714944Y42399500D01*
X15714947Y42399500D01*
X15885053Y42399500D01*
X15885056Y42399500D01*
X16050225Y42440210D01*
X16200852Y42519266D01*
X16328183Y42632071D01*
X16424818Y42772070D01*
X16485140Y42931128D01*
X16505645Y43100000D01*
X16505642Y43100024D01*
X16495919Y43180097D01*
X16485140Y43268872D01*
X16424818Y43427930D01*
X16328183Y43567929D01*
X16261690Y43626836D01*
X16200853Y43680733D01*
X16200852Y43680734D01*
X16050225Y43759790D01*
X16050224Y43759791D01*
X16050223Y43759791D01*
X15885058Y43800500D01*
X15885056Y43800500D01*
X15714944Y43800500D01*
X15589082Y43769480D01*
X15528059Y43773912D01*
X15517169Y43779242D01*
X15516481Y43779527D01*
X15440060Y43800004D01*
X15440058Y43800004D01*
X14871197Y43800004D01*
X14813006Y43818911D01*
X14777042Y43868411D01*
X14772197Y43899004D01*
X14772197Y45099999D01*
X18394355Y45099999D01*
X18398053Y45069543D01*
X18414860Y44931128D01*
X18475182Y44772070D01*
X18571816Y44632073D01*
X18571818Y44632070D01*
X18598787Y44608178D01*
X18699148Y44519266D01*
X18849775Y44440210D01*
X19014944Y44399500D01*
X19014947Y44399500D01*
X19185053Y44399500D01*
X19185056Y44399500D01*
X19350225Y44440210D01*
X19500852Y44519266D01*
X19628183Y44632071D01*
X19724818Y44772070D01*
X19785140Y44931128D01*
X19805645Y45100000D01*
X19785140Y45268872D01*
X19724818Y45427930D01*
X19628183Y45567929D01*
X19500852Y45680734D01*
X19350225Y45759790D01*
X19350224Y45759791D01*
X19350223Y45759791D01*
X19185058Y45800500D01*
X19185056Y45800500D01*
X19014944Y45800500D01*
X19014941Y45800500D01*
X18849776Y45759791D01*
X18699146Y45680733D01*
X18571818Y45567931D01*
X18571817Y45567929D01*
X18475182Y45427930D01*
X18414860Y45268872D01*
X18410015Y45228973D01*
X18394355Y45100002D01*
X18394355Y45099999D01*
X14772197Y45099999D01*
X14772197Y46277037D01*
X14767544Y46294401D01*
X14751719Y46353462D01*
X14732913Y46386035D01*
X14712160Y46421981D01*
X14712159Y46421982D01*
X14712158Y46421983D01*
X14712157Y46421985D01*
X13893683Y47240460D01*
X13874999Y47251247D01*
X13834059Y47296717D01*
X13825500Y47336983D01*
X13825500Y48119747D01*
X13825499Y48119757D01*
X13817001Y48162475D01*
X13823819Y48220102D01*
X13778806Y48240853D01*
X13777659Y48239135D01*
X13703233Y48288866D01*
X13703231Y48288867D01*
X13703228Y48288868D01*
X13703227Y48288868D01*
X13644758Y48300499D01*
X13644748Y48300500D01*
X13205252Y48300500D01*
X13205251Y48300500D01*
X13205241Y48300499D01*
X13146772Y48288868D01*
X13146766Y48288866D01*
X13080002Y48244254D01*
X13021114Y48227645D01*
X12969998Y48244254D01*
X12903233Y48288866D01*
X12903231Y48288867D01*
X12903228Y48288868D01*
X12903227Y48288868D01*
X12844758Y48300499D01*
X12844748Y48300500D01*
X12405252Y48300500D01*
X12405251Y48300500D01*
X12405241Y48300499D01*
X12346772Y48288868D01*
X12346766Y48288866D01*
X12280002Y48244254D01*
X12221114Y48227645D01*
X12169998Y48244254D01*
X12103233Y48288866D01*
X12103231Y48288867D01*
X12103228Y48288868D01*
X12103227Y48288868D01*
X12044758Y48300499D01*
X12044748Y48300500D01*
X11605252Y48300500D01*
X11605251Y48300500D01*
X11600408Y48300023D01*
X11600164Y48302496D01*
X11548783Y48308788D01*
X11504022Y48350503D01*
X11492329Y48410561D01*
X11503110Y48440392D01*
X11501493Y48441130D01*
X11564222Y48578487D01*
X11584704Y48720941D01*
X11584704Y48720946D01*
X11564222Y48863400D01*
X11535219Y48926906D01*
X11504434Y48994316D01*
X11410185Y49103086D01*
X11410184Y49103087D01*
X11410183Y49103088D01*
X11289114Y49180894D01*
X11289111Y49180896D01*
X11289110Y49180896D01*
X11289107Y49180897D01*
X11151021Y49221443D01*
X11151018Y49221443D01*
X11007096Y49221443D01*
X11007092Y49221443D01*
X10869006Y49180897D01*
X10868999Y49180894D01*
X10747929Y49103087D01*
X10683900Y49029193D01*
X10631504Y48997598D01*
X10570543Y49002834D01*
X10541484Y49023948D01*
X10540813Y49023173D01*
X10535459Y49027812D01*
X10414389Y49105619D01*
X10414386Y49105621D01*
X10414385Y49105621D01*
X10414382Y49105622D01*
X10276296Y49146168D01*
X10276293Y49146168D01*
X10132371Y49146168D01*
X10132367Y49146168D01*
X9994281Y49105622D01*
X9994274Y49105619D01*
X9873205Y49027813D01*
X9778954Y48919040D01*
X9719166Y48788125D01*
X9698685Y48645671D01*
X9698685Y48645666D01*
X9719165Y48503214D01*
X9748129Y48439793D01*
X9755103Y48379006D01*
X9725016Y48325730D01*
X9669360Y48300312D01*
X9648377Y48300143D01*
X9644750Y48300500D01*
X9644748Y48300500D01*
X9205252Y48300500D01*
X9205251Y48300500D01*
X9205241Y48300499D01*
X9146772Y48288868D01*
X9146766Y48288866D01*
X9080001Y48244254D01*
X9021112Y48227645D01*
X8969932Y48244298D01*
X8969433Y48244632D01*
X8931592Y48292712D01*
X8925500Y48326903D01*
X8925500Y48339563D01*
X8925499Y48339565D01*
X8920284Y48359026D01*
X8914931Y48379006D01*
X8903874Y48420271D01*
X8900500Y48445895D01*
X8900500Y48696107D01*
X8919407Y48754298D01*
X8926741Y48762289D01*
X8926491Y48762506D01*
X8948690Y48788125D01*
X9025377Y48876627D01*
X9085165Y49007543D01*
X9099266Y49105621D01*
X9105647Y49149998D01*
X9105647Y49150003D01*
X9085165Y49292457D01*
X9072997Y49319100D01*
X9025377Y49423373D01*
X8931128Y49532143D01*
X8931127Y49532144D01*
X8931126Y49532145D01*
X8810057Y49609951D01*
X8810054Y49609953D01*
X8810053Y49609953D01*
X8791298Y49615460D01*
X8671964Y49650500D01*
X8671961Y49650500D01*
X8528039Y49650500D01*
X8528035Y49650500D01*
X8389949Y49609954D01*
X8389942Y49609951D01*
X8276103Y49536791D01*
X8216928Y49521236D01*
X8159911Y49543435D01*
X8147765Y49555239D01*
X8081128Y49632143D01*
X8081127Y49632144D01*
X8081126Y49632145D01*
X7960057Y49709951D01*
X7960054Y49709953D01*
X7960053Y49709953D01*
X7960050Y49709954D01*
X7821964Y49750500D01*
X7821961Y49750500D01*
X7678039Y49750500D01*
X7678035Y49750500D01*
X7539949Y49709954D01*
X7539942Y49709951D01*
X7418876Y49632146D01*
X7418875Y49632145D01*
X7418872Y49632143D01*
X7382852Y49590573D01*
X7377736Y49584669D01*
X7325340Y49553073D01*
X7302917Y49550500D01*
X5565479Y49550500D01*
X5507288Y49569407D01*
X5495475Y49579496D01*
X4029496Y51045475D01*
X4001719Y51099992D01*
X4000500Y51115479D01*
X4000500Y52264563D01*
X4000499Y52264565D01*
X3980021Y52340989D01*
X3980019Y52340993D01*
X3940460Y52409511D01*
X3884512Y52465460D01*
X3509511Y52840460D01*
X3472054Y52862086D01*
X3472053Y52862086D01*
X3440988Y52880022D01*
X3364564Y52900500D01*
X3364562Y52900500D01*
X3351903Y52900500D01*
X3293712Y52919407D01*
X3269657Y52944395D01*
X3269322Y52944895D01*
X3252640Y53003762D01*
X3269253Y53055003D01*
X3269549Y53055447D01*
X3269552Y53055448D01*
X3313867Y53121769D01*
X3325500Y53180252D01*
X3325500Y53619748D01*
X3313867Y53678231D01*
X3269552Y53744552D01*
X3269549Y53744554D01*
X3269253Y53744997D01*
X3252644Y53803885D01*
X3269253Y53855003D01*
X3269549Y53855447D01*
X3269552Y53855448D01*
X3313867Y53921769D01*
X3325500Y53980252D01*
X3325500Y54419748D01*
X3313867Y54478231D01*
X3269552Y54544552D01*
X3269549Y54544554D01*
X3269253Y54544997D01*
X3252644Y54603885D01*
X3269253Y54655003D01*
X3269549Y54655447D01*
X3269552Y54655448D01*
X3313867Y54721769D01*
X3325500Y54780252D01*
X3325500Y55219748D01*
X3313867Y55278231D01*
X3269552Y55344552D01*
X3269548Y55344555D01*
X3203233Y55388866D01*
X3203231Y55388867D01*
X3203228Y55388868D01*
X3203227Y55388868D01*
X3144758Y55400499D01*
X3144748Y55400500D01*
X3144747Y55400500D01*
X1661614Y55400500D01*
X1603423Y55419407D01*
X1567459Y55468907D01*
X1563833Y55514988D01*
X1564908Y55521770D01*
X1571994Y55566512D01*
X1571994Y56083488D01*
X1556213Y56183126D01*
X1556210Y56183131D01*
X1556210Y56183133D01*
X1495023Y56303218D01*
X1495022Y56303220D01*
X1399714Y56398528D01*
X1399711Y56398530D01*
X1279626Y56459717D01*
X1279621Y56459719D01*
X1279620Y56459719D01*
X1246407Y56464980D01*
X1179984Y56475500D01*
X1179982Y56475500D01*
X613006Y56475500D01*
X613004Y56475500D01*
X513368Y56459719D01*
X513361Y56459717D01*
X393276Y56398530D01*
X393274Y56398529D01*
X393274Y56398528D01*
X369501Y56374756D01*
X314987Y56346980D01*
X254555Y56356551D01*
X211290Y56399816D01*
X200500Y56444761D01*
X200500Y58113877D01*
X219407Y58172068D01*
X268907Y58208032D01*
X299500Y58212877D01*
X15229608Y58212877D01*
X15229609Y58212877D01*
X15229609Y64550165D01*
X15248516Y64608356D01*
X15298016Y64644320D01*
X15328573Y64649165D01*
X16349735Y64649500D01*
X16350400Y64649500D01*
X16444484Y64649500D01*
X16631113Y64679059D01*
X16631114Y64679060D01*
X16631118Y64679060D01*
X16810832Y64737453D01*
X16939255Y64802888D01*
X16984381Y64813676D01*
X22695694Y64802543D01*
G37*
%TD.AperFunction*%
%TA.AperFunction,Conductor*%
G36*
X3468383Y50756212D02*
G01*
X3474092Y50750937D01*
X5159540Y49065489D01*
X5159539Y49065489D01*
X5215489Y49009540D01*
X5284007Y48969981D01*
X5284011Y48969979D01*
X5360435Y48949501D01*
X5360437Y48949500D01*
X5360438Y48949500D01*
X5439562Y48949500D01*
X6480342Y48949500D01*
X6538533Y48930593D01*
X6574497Y48881093D01*
X6574497Y48819907D01*
X6570395Y48809373D01*
X6539834Y48742457D01*
X6519353Y48600003D01*
X6519353Y48599998D01*
X6539833Y48457546D01*
X6547932Y48439813D01*
X6554906Y48379026D01*
X6524819Y48325749D01*
X6469163Y48300332D01*
X6448188Y48300162D01*
X6444751Y48300500D01*
X6444748Y48300500D01*
X6005252Y48300500D01*
X6005251Y48300500D01*
X6005241Y48300499D01*
X5946772Y48288868D01*
X5946766Y48288866D01*
X5880451Y48244555D01*
X5880445Y48244549D01*
X5836134Y48178234D01*
X5836132Y48178228D01*
X5824501Y48119759D01*
X5824500Y48119747D01*
X5824500Y47280254D01*
X5824501Y47280242D01*
X5832415Y47240460D01*
X5836133Y47221769D01*
X5880448Y47155448D01*
X5946769Y47111133D01*
X5991231Y47102289D01*
X6005241Y47099502D01*
X6005246Y47099502D01*
X6005252Y47099500D01*
X6005253Y47099500D01*
X6444747Y47099500D01*
X6444748Y47099500D01*
X6503231Y47111133D01*
X6569552Y47155448D01*
X6569553Y47155451D01*
X6569997Y47155747D01*
X6628885Y47172356D01*
X6680003Y47155747D01*
X6680446Y47155451D01*
X6680448Y47155448D01*
X6746769Y47111133D01*
X6791231Y47102289D01*
X6805241Y47099502D01*
X6805246Y47099502D01*
X6805252Y47099500D01*
X6805253Y47099500D01*
X7244747Y47099500D01*
X7244748Y47099500D01*
X7303231Y47111133D01*
X7369552Y47155448D01*
X7369553Y47155451D01*
X7369997Y47155747D01*
X7428885Y47172356D01*
X7480003Y47155747D01*
X7480446Y47155451D01*
X7480448Y47155448D01*
X7546769Y47111133D01*
X7591231Y47102289D01*
X7605241Y47099502D01*
X7605246Y47099502D01*
X7605252Y47099500D01*
X7605253Y47099500D01*
X8044747Y47099500D01*
X8044748Y47099500D01*
X8103231Y47111133D01*
X8169552Y47155448D01*
X8169553Y47155451D01*
X8169997Y47155747D01*
X8228885Y47172356D01*
X8280003Y47155747D01*
X8280446Y47155451D01*
X8280448Y47155448D01*
X8346769Y47111133D01*
X8391231Y47102289D01*
X8405241Y47099502D01*
X8405246Y47099502D01*
X8405252Y47099500D01*
X8405253Y47099500D01*
X8844747Y47099500D01*
X8844748Y47099500D01*
X8903231Y47111133D01*
X8969552Y47155448D01*
X8969553Y47155451D01*
X8969997Y47155747D01*
X9028885Y47172356D01*
X9080003Y47155747D01*
X9080446Y47155451D01*
X9080448Y47155448D01*
X9146769Y47111133D01*
X9167407Y47107028D01*
X9169900Y47106532D01*
X9220591Y47079438D01*
X9484540Y46815489D01*
X9484539Y46815489D01*
X9540489Y46759540D01*
X9609007Y46719981D01*
X9609011Y46719979D01*
X9685435Y46699501D01*
X9685437Y46699500D01*
X9685438Y46699500D01*
X9764562Y46699500D01*
X10034521Y46699500D01*
X10092712Y46680593D01*
X10104525Y46670504D01*
X10330525Y46444504D01*
X10358302Y46389987D01*
X10348731Y46329555D01*
X10305466Y46286290D01*
X10260521Y46275500D01*
X9859572Y46275500D01*
X9859569Y46275499D01*
X9765793Y46260648D01*
X9765788Y46260646D01*
X9652752Y46203051D01*
X9652751Y46203050D01*
X9563043Y46113342D01*
X9520350Y46029554D01*
X9477087Y45986290D01*
X9432142Y45975500D01*
X9343974Y45975500D01*
X9285783Y45994407D01*
X9255766Y46029552D01*
X9216989Y46105657D01*
X9127281Y46195365D01*
X9014243Y46252961D01*
X9014244Y46252961D01*
X8920461Y46267815D01*
X8307418Y46267815D01*
X8307415Y46267814D01*
X8213639Y46252963D01*
X8213634Y46252961D01*
X8100598Y46195366D01*
X8100597Y46195365D01*
X8010889Y46105657D01*
X7972111Y46029553D01*
X7928849Y45986290D01*
X7883904Y45975500D01*
X7812902Y45975500D01*
X7754711Y45994407D01*
X7724693Y46029554D01*
X7713760Y46051010D01*
X7690232Y46097187D01*
X7594924Y46192495D01*
X7594921Y46192497D01*
X7474836Y46253684D01*
X7474831Y46253686D01*
X7474830Y46253686D01*
X7430886Y46260646D01*
X7375194Y46269467D01*
X7375192Y46269467D01*
X6808216Y46269467D01*
X6808214Y46269467D01*
X6708578Y46253686D01*
X6708571Y46253684D01*
X6588486Y46192497D01*
X6493176Y46097187D01*
X6473895Y46059346D01*
X6430630Y46016083D01*
X6370197Y46006512D01*
X6315682Y46034289D01*
X5054496Y47295475D01*
X5026719Y47349992D01*
X5025500Y47365479D01*
X5025500Y48119747D01*
X5025498Y48119759D01*
X5017001Y48162475D01*
X5013867Y48178231D01*
X4969552Y48244552D01*
X4969548Y48244555D01*
X4903233Y48288866D01*
X4903231Y48288867D01*
X4903228Y48288868D01*
X4903227Y48288868D01*
X4844758Y48300499D01*
X4844748Y48300500D01*
X4405252Y48300500D01*
X4405251Y48300500D01*
X4405241Y48300499D01*
X4346772Y48288868D01*
X4346766Y48288866D01*
X4280002Y48244254D01*
X4221114Y48227645D01*
X4169998Y48244254D01*
X4103233Y48288866D01*
X4103231Y48288867D01*
X4103228Y48288868D01*
X4103227Y48288868D01*
X4044758Y48300499D01*
X4044748Y48300500D01*
X3605252Y48300500D01*
X3605251Y48300500D01*
X3605241Y48300499D01*
X3546772Y48288868D01*
X3546766Y48288866D01*
X3480451Y48244555D01*
X3480445Y48244549D01*
X3436134Y48178234D01*
X3436132Y48178228D01*
X3424501Y48119759D01*
X3424500Y48119747D01*
X3424500Y47280254D01*
X3424501Y47280242D01*
X3432415Y47240460D01*
X3436133Y47221769D01*
X3480448Y47155448D01*
X3546769Y47111133D01*
X3591231Y47102289D01*
X3605241Y47099502D01*
X3605246Y47099502D01*
X3605252Y47099500D01*
X3605253Y47099500D01*
X4044747Y47099500D01*
X4044748Y47099500D01*
X4103231Y47111133D01*
X4169552Y47155448D01*
X4169553Y47155451D01*
X4169997Y47155747D01*
X4228885Y47172356D01*
X4280003Y47155747D01*
X4280446Y47155451D01*
X4280448Y47155448D01*
X4346769Y47111133D01*
X4367407Y47107028D01*
X4369900Y47106532D01*
X4420591Y47079438D01*
X6009540Y45490489D01*
X6009539Y45490489D01*
X6065489Y45434540D01*
X6134007Y45394981D01*
X6134011Y45394979D01*
X6210435Y45374501D01*
X6210437Y45374500D01*
X6210438Y45374500D01*
X6329429Y45374500D01*
X6387620Y45355593D01*
X6423584Y45306093D01*
X6427210Y45290988D01*
X6428324Y45283955D01*
X6418753Y45223523D01*
X6375489Y45180258D01*
X6330543Y45169467D01*
X5309797Y45169467D01*
X5251606Y45188374D01*
X5232396Y45206741D01*
X5173565Y45280513D01*
X5173559Y45280519D01*
X4975747Y45464062D01*
X4975744Y45464064D01*
X4975741Y45464067D01*
X4752775Y45616083D01*
X4752767Y45616087D01*
X4509643Y45733170D01*
X4251776Y45812711D01*
X4251773Y45812712D01*
X4251772Y45812712D01*
X4251767Y45812713D01*
X4251766Y45812713D01*
X3984932Y45852932D01*
X3984929Y45852932D01*
X3715071Y45852932D01*
X3715067Y45852932D01*
X3448233Y45812713D01*
X3448223Y45812711D01*
X3190358Y45733170D01*
X2947233Y45616087D01*
X2947229Y45616085D01*
X2947226Y45616083D01*
X2724259Y45464067D01*
X2724252Y45464062D01*
X2526440Y45280520D01*
X2526434Y45280514D01*
X2358191Y45069543D01*
X2358187Y45069538D01*
X2358185Y45069534D01*
X2314927Y44994608D01*
X2223258Y44835833D01*
X2223254Y44835824D01*
X2124666Y44584630D01*
X2064618Y44321540D01*
X2064616Y44321531D01*
X2044451Y44052435D01*
X2044451Y44052430D01*
X2064616Y43783334D01*
X2064618Y43783325D01*
X2124666Y43520235D01*
X2223254Y43269041D01*
X2223258Y43269032D01*
X2223351Y43268871D01*
X2358185Y43035330D01*
X2358189Y43035324D01*
X2358191Y43035322D01*
X2526434Y42824351D01*
X2526440Y42824345D01*
X2724252Y42640803D01*
X2724254Y42640802D01*
X2724259Y42640797D01*
X2947226Y42488781D01*
X3190359Y42371694D01*
X3448228Y42292152D01*
X3715071Y42251932D01*
X3715076Y42251932D01*
X3984924Y42251932D01*
X3984929Y42251932D01*
X4251772Y42292152D01*
X4509641Y42371694D01*
X4752775Y42488781D01*
X4975741Y42640797D01*
X5173561Y42824347D01*
X5173565Y42824351D01*
X5288684Y42968706D01*
X5341815Y43035330D01*
X5476743Y43269034D01*
X5575334Y43520237D01*
X5635383Y43783329D01*
X5655549Y44052432D01*
X5635383Y44321535D01*
X5606646Y44447439D01*
X5612131Y44508376D01*
X5652387Y44554453D01*
X5703164Y44568467D01*
X9455054Y44568467D01*
X9513245Y44549560D01*
X9549209Y44500060D01*
X9549209Y44438874D01*
X9543263Y44424521D01*
X9505447Y44350305D01*
X9490593Y44256523D01*
X9490593Y43793480D01*
X9490594Y43793477D01*
X9505445Y43699701D01*
X9505447Y43699696D01*
X9518127Y43674810D01*
X9527699Y43614378D01*
X9499922Y43559861D01*
X9445406Y43532083D01*
X9429918Y43530864D01*
X7905655Y43530864D01*
X7826531Y43530864D01*
X7779754Y43518331D01*
X7750100Y43510385D01*
X7681586Y43470828D01*
X7681581Y43470824D01*
X7370617Y43159860D01*
X7316101Y43132083D01*
X7300614Y43130864D01*
X6859572Y43130864D01*
X6859569Y43130863D01*
X6765793Y43116012D01*
X6765788Y43116010D01*
X6652752Y43058415D01*
X6563042Y42968705D01*
X6505447Y42855669D01*
X6490593Y42761887D01*
X6490593Y42148844D01*
X6490594Y42148843D01*
X6499364Y42093467D01*
X6489792Y42033035D01*
X6446527Y41989771D01*
X6401583Y41978981D01*
X1938916Y41978981D01*
X1862493Y41958503D01*
X1833948Y41942022D01*
X1833947Y41942023D01*
X1793971Y41918942D01*
X1169504Y41294475D01*
X1114987Y41266698D01*
X1054555Y41276269D01*
X1011290Y41319534D01*
X1000500Y41364479D01*
X1000500Y48825501D01*
X1019407Y48883692D01*
X1068907Y48919656D01*
X1099500Y48924501D01*
X1204182Y48924501D01*
X1204183Y48924502D01*
X1251072Y48931928D01*
X1297960Y48939353D01*
X1297960Y48939354D01*
X1297965Y48939354D01*
X1411003Y48996950D01*
X1500711Y49086658D01*
X1500712Y49086661D01*
X1506220Y49092168D01*
X1507903Y49090485D01*
X1548060Y49119656D01*
X1571333Y49123342D01*
X1571293Y49123653D01*
X1577724Y49124500D01*
X1577727Y49124500D01*
X1679588Y49151793D01*
X1679590Y49151795D01*
X1679592Y49151795D01*
X1770908Y49204517D01*
X1770908Y49204518D01*
X1770913Y49204520D01*
X1955498Y49389106D01*
X2010013Y49416881D01*
X2070445Y49407310D01*
X2113710Y49364045D01*
X2124500Y49319100D01*
X2124500Y49180254D01*
X2124501Y49180242D01*
X2136132Y49121773D01*
X2136134Y49121767D01*
X2180445Y49055452D01*
X2180448Y49055448D01*
X2246769Y49011133D01*
X2288491Y49002834D01*
X2305241Y48999502D01*
X2305246Y48999502D01*
X2305252Y48999500D01*
X2305253Y48999500D01*
X3144747Y48999500D01*
X3144748Y48999500D01*
X3203231Y49011133D01*
X3269552Y49055448D01*
X3313867Y49121769D01*
X3325500Y49180252D01*
X3325500Y49619748D01*
X3323034Y49632143D01*
X3319383Y49650500D01*
X3313867Y49678231D01*
X3269552Y49744552D01*
X3269549Y49744554D01*
X3269253Y49744997D01*
X3252644Y49803885D01*
X3269253Y49855003D01*
X3269549Y49855447D01*
X3269552Y49855448D01*
X3313867Y49921769D01*
X3325500Y49980252D01*
X3325500Y50419748D01*
X3313867Y50478231D01*
X3269552Y50544552D01*
X3269549Y50544554D01*
X3269253Y50544997D01*
X3252644Y50603885D01*
X3269253Y50655003D01*
X3269549Y50655447D01*
X3269552Y50655448D01*
X3313867Y50721769D01*
X3313867Y50721771D01*
X3319284Y50729877D01*
X3321075Y50728680D01*
X3352359Y50765322D01*
X3411851Y50779616D01*
X3468383Y50756212D01*
G37*
%TD.AperFunction*%
%TA.AperFunction,Conductor*%
G36*
X15881307Y53258441D02*
G01*
X15912776Y53237253D01*
X16145504Y53004525D01*
X16173281Y52950008D01*
X16174500Y52934521D01*
X16174500Y52493480D01*
X16174501Y52493477D01*
X16189352Y52399701D01*
X16189354Y52399696D01*
X16246950Y52286658D01*
X16336658Y52196950D01*
X16449696Y52139354D01*
X16543481Y52124500D01*
X17006518Y52124501D01*
X17006520Y52124501D01*
X17006520Y52124502D01*
X17043966Y52130432D01*
X17060014Y52132973D01*
X17120446Y52123401D01*
X17163710Y52080136D01*
X17174500Y52035192D01*
X17174500Y49665030D01*
X17155593Y49606839D01*
X17118980Y49576090D01*
X17105311Y49569407D01*
X17043518Y49539199D01*
X16960801Y49456482D01*
X16909427Y49351396D01*
X16909427Y49351393D01*
X16899500Y49283260D01*
X16899500Y48041740D01*
X16902012Y48024502D01*
X16909427Y47973605D01*
X16960801Y47868519D01*
X16960802Y47868517D01*
X17012304Y47817015D01*
X17040080Y47762500D01*
X17030509Y47702068D01*
X16995822Y47663728D01*
X16989948Y47659954D01*
X16989947Y47659953D01*
X16952708Y47636021D01*
X16899242Y47601661D01*
X16840066Y47586108D01*
X16783050Y47608307D01*
X16775715Y47614942D01*
X15954496Y48436161D01*
X15926719Y48490678D01*
X15925500Y48506165D01*
X15925500Y49414563D01*
X15925499Y49414565D01*
X15924878Y49416881D01*
X15905021Y49490989D01*
X15904907Y49491186D01*
X15865460Y49559511D01*
X15809511Y49615461D01*
X15809511Y49615460D01*
X15154496Y50270475D01*
X15126719Y50324992D01*
X15125500Y50340479D01*
X15125500Y50419747D01*
X15125498Y50419759D01*
X15122711Y50433769D01*
X15113867Y50478231D01*
X15069552Y50544552D01*
X15069549Y50544554D01*
X15069253Y50544997D01*
X15052644Y50603885D01*
X15069253Y50655003D01*
X15069549Y50655447D01*
X15069552Y50655448D01*
X15113867Y50721769D01*
X15125500Y50780252D01*
X15125500Y51219748D01*
X15125388Y51220309D01*
X15122711Y51233769D01*
X15113867Y51278231D01*
X15069552Y51344552D01*
X15069549Y51344554D01*
X15069253Y51344997D01*
X15052644Y51403885D01*
X15069253Y51455003D01*
X15069549Y51455447D01*
X15069552Y51455448D01*
X15113867Y51521769D01*
X15125500Y51580252D01*
X15125500Y52019748D01*
X15113867Y52078231D01*
X15069552Y52144552D01*
X15069549Y52144554D01*
X15069253Y52144997D01*
X15052644Y52203885D01*
X15069253Y52255003D01*
X15069549Y52255447D01*
X15069552Y52255448D01*
X15113867Y52321769D01*
X15125500Y52380252D01*
X15125500Y52819748D01*
X15113867Y52878231D01*
X15069552Y52944552D01*
X15069549Y52944554D01*
X15069253Y52944997D01*
X15052644Y53003885D01*
X15069253Y53055002D01*
X15069550Y53055447D01*
X15069552Y53055448D01*
X15100162Y53101260D01*
X15148211Y53139137D01*
X15209350Y53141539D01*
X15210368Y53141246D01*
X15214446Y53140049D01*
X15214449Y53140047D01*
X15352541Y53099500D01*
X15352543Y53099500D01*
X15496461Y53099500D01*
X15496463Y53099500D01*
X15634555Y53140047D01*
X15755630Y53217857D01*
X15767954Y53232080D01*
X15820346Y53263676D01*
X15881307Y53258441D01*
G37*
%TD.AperFunction*%
%TD*%
%TA.AperFunction,Conductor*%
%TO.N,+12V*%
G36*
X18293039Y8080315D02*
G01*
X18338794Y8027511D01*
X18350000Y7976000D01*
X18350000Y4063962D01*
X18330315Y3996923D01*
X18297881Y3962922D01*
X16132282Y2422280D01*
X16066245Y2399458D01*
X16060382Y2399320D01*
X11801946Y2399971D01*
X11734910Y2419666D01*
X11689163Y2472477D01*
X11677965Y2523969D01*
X11677965Y3590892D01*
X11643857Y3718186D01*
X11616612Y3765376D01*
X11600000Y3827375D01*
X11600000Y4150668D01*
X11619685Y4217707D01*
X11672489Y4263462D01*
X11704602Y4273141D01*
X11803986Y4288882D01*
X11823384Y4290409D01*
X12851695Y4290409D01*
X12871069Y4288887D01*
X12875989Y4288108D01*
X12912901Y4276117D01*
X12932162Y4266302D01*
X12988515Y4245512D01*
X13044810Y4231997D01*
X13104454Y4224938D01*
X13104457Y4224938D01*
X13326526Y4224938D01*
X13326530Y4224938D01*
X13382167Y4231069D01*
X13434876Y4242829D01*
X13462503Y4250646D01*
X13548603Y4300897D01*
X13600917Y4347212D01*
X13632191Y4380321D01*
X13677456Y4469143D01*
X13696426Y4536388D01*
X13706009Y4608477D01*
X13670179Y7974682D01*
X13689149Y8041925D01*
X13741463Y8088240D01*
X13794167Y8100000D01*
X18226000Y8100000D01*
X18293039Y8080315D01*
G37*
%TD.AperFunction*%
%TD*%
%TA.AperFunction,Conductor*%
%TO.N,Net-(D6-A)*%
G36*
X30198996Y12094500D02*
G01*
X44330526Y12094500D01*
X44397565Y12074815D01*
X44443320Y12022011D01*
X44454525Y11970417D01*
X44453423Y10386661D01*
X44449535Y4801978D01*
X44449500Y4801624D01*
X44449500Y4752712D01*
X44449382Y4747304D01*
X44431465Y4337112D01*
X44430522Y4326335D01*
X44377275Y3921946D01*
X44375396Y3911294D01*
X44287112Y3513096D01*
X44284312Y3502647D01*
X44161660Y3113663D01*
X44157961Y3103498D01*
X44001867Y2726663D01*
X43997295Y2716860D01*
X43808958Y2355073D01*
X43803549Y2345704D01*
X43584401Y2001716D01*
X43578197Y1992855D01*
X43329889Y1669255D01*
X43322935Y1660969D01*
X43047387Y1360262D01*
X43039738Y1352613D01*
X42739031Y1077065D01*
X42730745Y1070111D01*
X42407145Y821803D01*
X42398284Y815599D01*
X42054296Y596451D01*
X42044927Y591042D01*
X41683140Y402705D01*
X41673337Y398133D01*
X41296502Y242039D01*
X41286337Y238340D01*
X40897353Y115688D01*
X40886904Y112888D01*
X40488706Y24604D01*
X40478054Y22725D01*
X40073665Y-30522D01*
X40062888Y-31465D01*
X39652792Y-49376D01*
X39647202Y-49494D01*
X28376304Y-33198D01*
X28375533Y-33122D01*
X28375379Y-33122D01*
X28375301Y-33099D01*
X28375045Y-33074D01*
X28315096Y-33076D01*
X28248056Y-13394D01*
X28202299Y39409D01*
X28191093Y91025D01*
X28193932Y3313241D01*
X28213675Y3380257D01*
X28266519Y3425966D01*
X28282990Y3432101D01*
X28310053Y3440047D01*
X28431128Y3517857D01*
X28525377Y3626627D01*
X28585165Y3757543D01*
X28605647Y3900000D01*
X28585165Y4042457D01*
X28545072Y4130248D01*
X40649500Y4130248D01*
X40661131Y4071771D01*
X40661132Y4071770D01*
X40705447Y4005448D01*
X40771769Y3961133D01*
X40771770Y3961132D01*
X40830247Y3949501D01*
X40830250Y3949500D01*
X40830252Y3949500D01*
X42869750Y3949500D01*
X42869751Y3949501D01*
X42884568Y3952448D01*
X42928229Y3961132D01*
X42928229Y3961133D01*
X42928231Y3961133D01*
X42994552Y4005448D01*
X43038867Y4071769D01*
X43038867Y4071771D01*
X43038868Y4071771D01*
X43050499Y4130248D01*
X43050500Y4130250D01*
X43050500Y5069751D01*
X43050499Y5069753D01*
X43038868Y5128230D01*
X43038867Y5128231D01*
X42994552Y5194553D01*
X42928230Y5238868D01*
X42928229Y5238869D01*
X42869752Y5250500D01*
X42869748Y5250500D01*
X40830252Y5250500D01*
X40830247Y5250500D01*
X40771770Y5238869D01*
X40771769Y5238868D01*
X40705447Y5194553D01*
X40661132Y5128231D01*
X40661131Y5128230D01*
X40649500Y5069753D01*
X40649500Y4130248D01*
X28545072Y4130248D01*
X28525377Y4173373D01*
X28431128Y4282143D01*
X28310053Y4359953D01*
X28284028Y4367595D01*
X28225251Y4405369D01*
X28196227Y4468926D01*
X28194966Y4486660D01*
X28199955Y10149646D01*
X28219699Y10216665D01*
X28235137Y10236063D01*
X30021646Y12069585D01*
X30082525Y12103861D01*
X30130421Y12103645D01*
X30130687Y12105319D01*
X30198996Y12094500D01*
G37*
%TD.AperFunction*%
%TD*%
%TA.AperFunction,Conductor*%
%TO.N,Net-(D1-K)*%
G36*
X13292145Y14029080D02*
G01*
X13339013Y13977261D01*
X13351333Y13924682D01*
X13450523Y4605758D01*
X13431553Y4538513D01*
X13379239Y4492198D01*
X13326530Y4480438D01*
X13104454Y4480438D01*
X13048159Y4493953D01*
X12975340Y4531057D01*
X12881563Y4545909D01*
X11793521Y4545909D01*
X11724886Y4535039D01*
X11699735Y4531055D01*
X11699733Y4531055D01*
X11699731Y4531054D01*
X11690452Y4528039D01*
X11689243Y4531760D01*
X11639112Y4522534D01*
X11574467Y4549046D01*
X11569426Y4553304D01*
X11510578Y4605758D01*
X11016482Y5046173D01*
X10979537Y5105474D01*
X10976586Y5122161D01*
X10976300Y5122115D01*
X10968766Y5169685D01*
X10960685Y5220713D01*
X10903089Y5333751D01*
X10903085Y5333755D01*
X10903084Y5333757D01*
X10813386Y5423455D01*
X10813382Y5423458D01*
X10813381Y5423459D01*
X10754664Y5453377D01*
X10700340Y5481057D01*
X10606563Y5495909D01*
X10606558Y5495909D01*
X10135012Y5495909D01*
X10135011Y5495909D01*
X9122935Y5495909D01*
X8982925Y5458393D01*
X8922418Y5423459D01*
X8903099Y5412306D01*
X8857396Y5385920D01*
X8657795Y5186319D01*
X8596472Y5152834D01*
X8570114Y5150000D01*
X7808810Y5150000D01*
X7741771Y5169685D01*
X7696016Y5222489D01*
X7684810Y5274000D01*
X7684810Y6392866D01*
X7704495Y6459905D01*
X7757299Y6505660D01*
X7764091Y6508522D01*
X9790633Y7291806D01*
X9799640Y7294893D01*
X10149998Y7400000D01*
X10149998Y10982772D01*
X10154694Y11016575D01*
X10975005Y13911785D01*
X11012218Y13970916D01*
X11075496Y14000544D01*
X11091660Y14001951D01*
X13224704Y14047334D01*
X13292145Y14029080D01*
G37*
%TD.AperFunction*%
%TD*%
M02*
