%TF.GenerationSoftware,KiCad,Pcbnew,8.0.0*%
%TF.CreationDate,2024-05-13T20:24:03+10:00*%
%TF.ProjectId,JonoBro,4a6f6e6f-4272-46f2-9e6b-696361645f70,0.2*%
%TF.SameCoordinates,Original*%
%TF.FileFunction,Legend,Top*%
%TF.FilePolarity,Positive*%
%FSLAX46Y46*%
G04 Gerber Fmt 4.6, Leading zero omitted, Abs format (unit mm)*
G04 Created by KiCad (PCBNEW 8.0.0) date 2024-05-13 20:24:03*
%MOMM*%
%LPD*%
G01*
G04 APERTURE LIST*
G04 Aperture macros list*
%AMRoundRect*
0 Rectangle with rounded corners*
0 $1 Rounding radius*
0 $2 $3 $4 $5 $6 $7 $8 $9 X,Y pos of 4 corners*
0 Add a 4 corners polygon primitive as box body*
4,1,4,$2,$3,$4,$5,$6,$7,$8,$9,$2,$3,0*
0 Add four circle primitives for the rounded corners*
1,1,$1+$1,$2,$3*
1,1,$1+$1,$4,$5*
1,1,$1+$1,$6,$7*
1,1,$1+$1,$8,$9*
0 Add four rect primitives between the rounded corners*
20,1,$1+$1,$2,$3,$4,$5,0*
20,1,$1+$1,$4,$5,$6,$7,0*
20,1,$1+$1,$6,$7,$8,$9,0*
20,1,$1+$1,$8,$9,$2,$3,0*%
%AMRotRect*
0 Rectangle, with rotation*
0 The origin of the aperture is its center*
0 $1 length*
0 $2 width*
0 $3 Rotation angle, in degrees counterclockwise*
0 Add horizontal line*
21,1,$1,$2,0,0,$3*%
%AMFreePoly0*
4,1,17,1.371000,0.719999,0.950000,0.719999,0.950000,0.579999,1.370000,0.580000,1.370000,0.080000,0.950000,0.080000,0.950000,-0.080000,1.370000,-0.080000,1.370000,-0.580000,0.950000,-0.579999,0.950000,-0.719999,1.370000,-0.720000,1.370000,-1.225000,-0.950000,-1.225000,-0.950000,1.225000,1.371000,1.225000,1.371000,0.719999,1.371000,0.719999,$1*%
%AMFreePoly1*
4,1,6,0.725000,-0.725000,-0.725000,-0.725000,-0.725000,0.125000,-0.125000,0.725000,0.725000,0.725000,0.725000,-0.725000,0.725000,-0.725000,$1*%
G04 Aperture macros list end*
%ADD10C,0.250000*%
%ADD11C,0.150000*%
%ADD12C,0.200000*%
%ADD13C,0.550000*%
%ADD14C,0.600000*%
%ADD15C,0.165000*%
%ADD16C,0.300000*%
%ADD17C,0.120000*%
%ADD18C,0.000000*%
%ADD19RoundRect,0.200000X0.200000X0.275000X-0.200000X0.275000X-0.200000X-0.275000X0.200000X-0.275000X0*%
%ADD20RoundRect,0.200000X0.275000X-0.200000X0.275000X0.200000X-0.275000X0.200000X-0.275000X-0.200000X0*%
%ADD21RoundRect,0.225000X-0.225000X-0.250000X0.225000X-0.250000X0.225000X0.250000X-0.225000X0.250000X0*%
%ADD22RoundRect,0.225000X0.250000X-0.225000X0.250000X0.225000X-0.250000X0.225000X-0.250000X-0.225000X0*%
%ADD23RotRect,0.630000X0.500000X45.000000*%
%ADD24FreePoly0,45.000000*%
%ADD25C,0.900000*%
%ADD26C,8.600000*%
%ADD27RoundRect,0.225000X-0.250000X0.225000X-0.250000X-0.225000X0.250000X-0.225000X0.250000X0.225000X0*%
%ADD28C,2.500000*%
%ADD29C,1.000000*%
%ADD30RoundRect,0.200000X-0.200000X-0.275000X0.200000X-0.275000X0.200000X0.275000X-0.200000X0.275000X0*%
%ADD31R,0.700000X0.700000*%
%ADD32RoundRect,0.200000X-0.275000X0.200000X-0.275000X-0.200000X0.275000X-0.200000X0.275000X0.200000X0*%
%ADD33C,0.650000*%
%ADD34R,1.450000X0.600000*%
%ADD35R,1.450000X0.300000*%
%ADD36O,2.100000X1.000000*%
%ADD37O,1.600000X1.000000*%
%ADD38R,0.630000X0.500000*%
%ADD39FreePoly0,0.000000*%
%ADD40RoundRect,0.250000X0.550000X-1.500000X0.550000X1.500000X-0.550000X1.500000X-0.550000X-1.500000X0*%
%ADD41C,3.200000*%
%ADD42R,1.200000X1.200000*%
%ADD43RotRect,0.630000X0.500000X315.000000*%
%ADD44FreePoly0,315.000000*%
%ADD45R,2.000000X0.900000*%
%ADD46R,4.100000X4.100000*%
%ADD47C,4.100000*%
%ADD48RoundRect,0.150000X-0.150000X0.587500X-0.150000X-0.587500X0.150000X-0.587500X0.150000X0.587500X0*%
%ADD49RoundRect,0.112500X-0.212132X0.053033X0.053033X-0.212132X0.212132X-0.053033X-0.053033X0.212132X0*%
%ADD50R,0.800000X0.400000*%
%ADD51R,0.400000X0.800000*%
%ADD52FreePoly1,0.000000*%
%ADD53R,1.450000X1.450000*%
%ADD54RoundRect,0.150000X-0.512500X-0.150000X0.512500X-0.150000X0.512500X0.150000X-0.512500X0.150000X0*%
%ADD55RoundRect,0.112500X-0.187500X-0.112500X0.187500X-0.112500X0.187500X0.112500X-0.187500X0.112500X0*%
%ADD56RoundRect,0.112500X0.187500X0.112500X-0.187500X0.112500X-0.187500X-0.112500X0.187500X-0.112500X0*%
%ADD57R,1.500000X2.500000*%
%ADD58C,0.750000*%
G04 APERTURE END LIST*
D10*
X33329857Y58454099D02*
X32129857Y58168385D01*
X32129857Y58168385D02*
X32987000Y57939813D01*
X32987000Y57939813D02*
X32129857Y57711242D01*
X32129857Y57711242D02*
X33329857Y57425527D01*
X32129857Y56968384D02*
X33329857Y56968384D01*
X32129857Y56396955D02*
X33329857Y56396955D01*
X33329857Y56396955D02*
X32129857Y55711241D01*
X32129857Y55711241D02*
X33329857Y55711241D01*
X32129857Y55139812D02*
X33329857Y55139812D01*
X33329857Y55139812D02*
X33329857Y54854098D01*
X33329857Y54854098D02*
X33272714Y54682669D01*
X33272714Y54682669D02*
X33158428Y54568384D01*
X33158428Y54568384D02*
X33044142Y54511241D01*
X33044142Y54511241D02*
X32815571Y54454098D01*
X32815571Y54454098D02*
X32644142Y54454098D01*
X32644142Y54454098D02*
X32415571Y54511241D01*
X32415571Y54511241D02*
X32301285Y54568384D01*
X32301285Y54568384D02*
X32187000Y54682669D01*
X32187000Y54682669D02*
X32129857Y54854098D01*
X32129857Y54854098D02*
X32129857Y55139812D01*
X32187000Y53996955D02*
X32129857Y53825526D01*
X32129857Y53825526D02*
X32129857Y53539812D01*
X32129857Y53539812D02*
X32187000Y53425526D01*
X32187000Y53425526D02*
X32244142Y53368384D01*
X32244142Y53368384D02*
X32358428Y53311241D01*
X32358428Y53311241D02*
X32472714Y53311241D01*
X32472714Y53311241D02*
X32587000Y53368384D01*
X32587000Y53368384D02*
X32644142Y53425526D01*
X32644142Y53425526D02*
X32701285Y53539812D01*
X32701285Y53539812D02*
X32758428Y53768384D01*
X32758428Y53768384D02*
X32815571Y53882669D01*
X32815571Y53882669D02*
X32872714Y53939812D01*
X32872714Y53939812D02*
X32987000Y53996955D01*
X32987000Y53996955D02*
X33101285Y53996955D01*
X33101285Y53996955D02*
X33215571Y53939812D01*
X33215571Y53939812D02*
X33272714Y53882669D01*
X33272714Y53882669D02*
X33329857Y53768384D01*
X33329857Y53768384D02*
X33329857Y53482669D01*
X33329857Y53482669D02*
X33272714Y53311241D01*
X32244142Y52111241D02*
X32187000Y52168384D01*
X32187000Y52168384D02*
X32129857Y52339812D01*
X32129857Y52339812D02*
X32129857Y52454098D01*
X32129857Y52454098D02*
X32187000Y52625527D01*
X32187000Y52625527D02*
X32301285Y52739812D01*
X32301285Y52739812D02*
X32415571Y52796955D01*
X32415571Y52796955D02*
X32644142Y52854098D01*
X32644142Y52854098D02*
X32815571Y52854098D01*
X32815571Y52854098D02*
X33044142Y52796955D01*
X33044142Y52796955D02*
X33158428Y52739812D01*
X33158428Y52739812D02*
X33272714Y52625527D01*
X33272714Y52625527D02*
X33329857Y52454098D01*
X33329857Y52454098D02*
X33329857Y52339812D01*
X33329857Y52339812D02*
X33272714Y52168384D01*
X33272714Y52168384D02*
X33215571Y52111241D01*
X32129857Y50911241D02*
X32701285Y51311241D01*
X32129857Y51596955D02*
X33329857Y51596955D01*
X33329857Y51596955D02*
X33329857Y51139812D01*
X33329857Y51139812D02*
X33272714Y51025527D01*
X33272714Y51025527D02*
X33215571Y50968384D01*
X33215571Y50968384D02*
X33101285Y50911241D01*
X33101285Y50911241D02*
X32929857Y50911241D01*
X32929857Y50911241D02*
X32815571Y50968384D01*
X32815571Y50968384D02*
X32758428Y51025527D01*
X32758428Y51025527D02*
X32701285Y51139812D01*
X32701285Y51139812D02*
X32701285Y51596955D01*
X32758428Y50396955D02*
X32758428Y49996955D01*
X32129857Y49825527D02*
X32129857Y50396955D01*
X32129857Y50396955D02*
X33329857Y50396955D01*
X33329857Y50396955D02*
X33329857Y49825527D01*
X32758428Y49311241D02*
X32758428Y48911241D01*
X32129857Y48739813D02*
X32129857Y49311241D01*
X32129857Y49311241D02*
X33329857Y49311241D01*
X33329857Y49311241D02*
X33329857Y48739813D01*
X32129857Y48225527D02*
X33329857Y48225527D01*
X33329857Y48225527D02*
X32129857Y47539813D01*
X32129857Y47539813D02*
X33329857Y47539813D01*
D11*
X42255704Y35582269D02*
X41684276Y35582269D01*
X41684276Y35582269D02*
X41569990Y35620364D01*
X41569990Y35620364D02*
X41493800Y35696555D01*
X41493800Y35696555D02*
X41455704Y35810840D01*
X41455704Y35810840D02*
X41455704Y35887031D01*
X41455704Y34820364D02*
X41455704Y35201316D01*
X41455704Y35201316D02*
X42255704Y35201316D01*
X41531895Y34096554D02*
X41493800Y34134650D01*
X41493800Y34134650D02*
X41455704Y34248935D01*
X41455704Y34248935D02*
X41455704Y34325126D01*
X41455704Y34325126D02*
X41493800Y34439412D01*
X41493800Y34439412D02*
X41569990Y34515602D01*
X41569990Y34515602D02*
X41646180Y34553697D01*
X41646180Y34553697D02*
X41798561Y34591793D01*
X41798561Y34591793D02*
X41912847Y34591793D01*
X41912847Y34591793D02*
X42065228Y34553697D01*
X42065228Y34553697D02*
X42141419Y34515602D01*
X42141419Y34515602D02*
X42217609Y34439412D01*
X42217609Y34439412D02*
X42255704Y34325126D01*
X42255704Y34325126D02*
X42255704Y34248935D01*
X42255704Y34248935D02*
X42217609Y34134650D01*
X42217609Y34134650D02*
X42179514Y34096554D01*
X42255704Y33525126D02*
X41684276Y33525126D01*
X41684276Y33525126D02*
X41569990Y33563221D01*
X41569990Y33563221D02*
X41493800Y33639412D01*
X41493800Y33639412D02*
X41455704Y33753697D01*
X41455704Y33753697D02*
X41455704Y33829888D01*
X41455704Y32763221D02*
X41455704Y33144173D01*
X41455704Y33144173D02*
X42255704Y33144173D01*
X41531895Y32039411D02*
X41493800Y32077507D01*
X41493800Y32077507D02*
X41455704Y32191792D01*
X41455704Y32191792D02*
X41455704Y32267983D01*
X41455704Y32267983D02*
X41493800Y32382269D01*
X41493800Y32382269D02*
X41569990Y32458459D01*
X41569990Y32458459D02*
X41646180Y32496554D01*
X41646180Y32496554D02*
X41798561Y32534650D01*
X41798561Y32534650D02*
X41912847Y32534650D01*
X41912847Y32534650D02*
X42065228Y32496554D01*
X42065228Y32496554D02*
X42141419Y32458459D01*
X42141419Y32458459D02*
X42217609Y32382269D01*
X42217609Y32382269D02*
X42255704Y32267983D01*
X42255704Y32267983D02*
X42255704Y32191792D01*
X42255704Y32191792D02*
X42217609Y32077507D01*
X42217609Y32077507D02*
X42179514Y32039411D01*
X42255704Y31467983D02*
X41684276Y31467983D01*
X41684276Y31467983D02*
X41569990Y31506078D01*
X41569990Y31506078D02*
X41493800Y31582269D01*
X41493800Y31582269D02*
X41455704Y31696554D01*
X41455704Y31696554D02*
X41455704Y31772745D01*
X41455704Y30706078D02*
X41455704Y31087030D01*
X41455704Y31087030D02*
X42255704Y31087030D01*
X41531895Y29982268D02*
X41493800Y30020364D01*
X41493800Y30020364D02*
X41455704Y30134649D01*
X41455704Y30134649D02*
X41455704Y30210840D01*
X41455704Y30210840D02*
X41493800Y30325126D01*
X41493800Y30325126D02*
X41569990Y30401316D01*
X41569990Y30401316D02*
X41646180Y30439411D01*
X41646180Y30439411D02*
X41798561Y30477507D01*
X41798561Y30477507D02*
X41912847Y30477507D01*
X41912847Y30477507D02*
X42065228Y30439411D01*
X42065228Y30439411D02*
X42141419Y30401316D01*
X42141419Y30401316D02*
X42217609Y30325126D01*
X42217609Y30325126D02*
X42255704Y30210840D01*
X42255704Y30210840D02*
X42255704Y30134649D01*
X42255704Y30134649D02*
X42217609Y30020364D01*
X42217609Y30020364D02*
X42179514Y29982268D01*
X42255704Y29410840D02*
X41684276Y29410840D01*
X41684276Y29410840D02*
X41569990Y29448935D01*
X41569990Y29448935D02*
X41493800Y29525126D01*
X41493800Y29525126D02*
X41455704Y29639411D01*
X41455704Y29639411D02*
X41455704Y29715602D01*
X41455704Y28648935D02*
X41455704Y29029887D01*
X41455704Y29029887D02*
X42255704Y29029887D01*
X41531895Y27925125D02*
X41493800Y27963221D01*
X41493800Y27963221D02*
X41455704Y28077506D01*
X41455704Y28077506D02*
X41455704Y28153697D01*
X41455704Y28153697D02*
X41493800Y28267983D01*
X41493800Y28267983D02*
X41569990Y28344173D01*
X41569990Y28344173D02*
X41646180Y28382268D01*
X41646180Y28382268D02*
X41798561Y28420364D01*
X41798561Y28420364D02*
X41912847Y28420364D01*
X41912847Y28420364D02*
X42065228Y28382268D01*
X42065228Y28382268D02*
X42141419Y28344173D01*
X42141419Y28344173D02*
X42217609Y28267983D01*
X42217609Y28267983D02*
X42255704Y28153697D01*
X42255704Y28153697D02*
X42255704Y28077506D01*
X42255704Y28077506D02*
X42217609Y27963221D01*
X42217609Y27963221D02*
X42179514Y27925125D01*
D12*
X13545387Y36182781D02*
X13545387Y35468496D01*
X13545387Y35468496D02*
X13497768Y35325639D01*
X13497768Y35325639D02*
X13402530Y35230400D01*
X13402530Y35230400D02*
X13259673Y35182781D01*
X13259673Y35182781D02*
X13164435Y35182781D01*
X14164435Y35182781D02*
X14069197Y35230400D01*
X14069197Y35230400D02*
X14021578Y35278020D01*
X14021578Y35278020D02*
X13973959Y35373258D01*
X13973959Y35373258D02*
X13973959Y35658972D01*
X13973959Y35658972D02*
X14021578Y35754210D01*
X14021578Y35754210D02*
X14069197Y35801829D01*
X14069197Y35801829D02*
X14164435Y35849448D01*
X14164435Y35849448D02*
X14307292Y35849448D01*
X14307292Y35849448D02*
X14402530Y35801829D01*
X14402530Y35801829D02*
X14450149Y35754210D01*
X14450149Y35754210D02*
X14497768Y35658972D01*
X14497768Y35658972D02*
X14497768Y35373258D01*
X14497768Y35373258D02*
X14450149Y35278020D01*
X14450149Y35278020D02*
X14402530Y35230400D01*
X14402530Y35230400D02*
X14307292Y35182781D01*
X14307292Y35182781D02*
X14164435Y35182781D01*
X14926340Y35849448D02*
X14926340Y35182781D01*
X14926340Y35754210D02*
X14973959Y35801829D01*
X14973959Y35801829D02*
X15069197Y35849448D01*
X15069197Y35849448D02*
X15212054Y35849448D01*
X15212054Y35849448D02*
X15307292Y35801829D01*
X15307292Y35801829D02*
X15354911Y35706591D01*
X15354911Y35706591D02*
X15354911Y35182781D01*
X15973959Y35182781D02*
X15878721Y35230400D01*
X15878721Y35230400D02*
X15831102Y35278020D01*
X15831102Y35278020D02*
X15783483Y35373258D01*
X15783483Y35373258D02*
X15783483Y35658972D01*
X15783483Y35658972D02*
X15831102Y35754210D01*
X15831102Y35754210D02*
X15878721Y35801829D01*
X15878721Y35801829D02*
X15973959Y35849448D01*
X15973959Y35849448D02*
X16116816Y35849448D01*
X16116816Y35849448D02*
X16212054Y35801829D01*
X16212054Y35801829D02*
X16259673Y35754210D01*
X16259673Y35754210D02*
X16307292Y35658972D01*
X16307292Y35658972D02*
X16307292Y35373258D01*
X16307292Y35373258D02*
X16259673Y35278020D01*
X16259673Y35278020D02*
X16212054Y35230400D01*
X16212054Y35230400D02*
X16116816Y35182781D01*
X16116816Y35182781D02*
X15973959Y35182781D01*
X16593007Y36182781D02*
X17164435Y36182781D01*
X16878721Y35182781D02*
X16878721Y36182781D01*
X17497769Y35182781D02*
X17497769Y35849448D01*
X17497769Y35658972D02*
X17545388Y35754210D01*
X17545388Y35754210D02*
X17593007Y35801829D01*
X17593007Y35801829D02*
X17688245Y35849448D01*
X17688245Y35849448D02*
X17783483Y35849448D01*
X18259674Y35182781D02*
X18164436Y35230400D01*
X18164436Y35230400D02*
X18116817Y35278020D01*
X18116817Y35278020D02*
X18069198Y35373258D01*
X18069198Y35373258D02*
X18069198Y35658972D01*
X18069198Y35658972D02*
X18116817Y35754210D01*
X18116817Y35754210D02*
X18164436Y35801829D01*
X18164436Y35801829D02*
X18259674Y35849448D01*
X18259674Y35849448D02*
X18402531Y35849448D01*
X18402531Y35849448D02*
X18497769Y35801829D01*
X18497769Y35801829D02*
X18545388Y35754210D01*
X18545388Y35754210D02*
X18593007Y35658972D01*
X18593007Y35658972D02*
X18593007Y35373258D01*
X18593007Y35373258D02*
X18545388Y35278020D01*
X18545388Y35278020D02*
X18497769Y35230400D01*
X18497769Y35230400D02*
X18402531Y35182781D01*
X18402531Y35182781D02*
X18259674Y35182781D01*
X19021579Y35849448D02*
X19021579Y35182781D01*
X19021579Y35754210D02*
X19069198Y35801829D01*
X19069198Y35801829D02*
X19164436Y35849448D01*
X19164436Y35849448D02*
X19307293Y35849448D01*
X19307293Y35849448D02*
X19402531Y35801829D01*
X19402531Y35801829D02*
X19450150Y35706591D01*
X19450150Y35706591D02*
X19450150Y35182781D01*
X19926341Y35563734D02*
X20688246Y35563734D01*
X21069198Y36182781D02*
X21688245Y36182781D01*
X21688245Y36182781D02*
X21354912Y35801829D01*
X21354912Y35801829D02*
X21497769Y35801829D01*
X21497769Y35801829D02*
X21593007Y35754210D01*
X21593007Y35754210D02*
X21640626Y35706591D01*
X21640626Y35706591D02*
X21688245Y35611353D01*
X21688245Y35611353D02*
X21688245Y35373258D01*
X21688245Y35373258D02*
X21640626Y35278020D01*
X21640626Y35278020D02*
X21593007Y35230400D01*
X21593007Y35230400D02*
X21497769Y35182781D01*
X21497769Y35182781D02*
X21212055Y35182781D01*
X21212055Y35182781D02*
X21116817Y35230400D01*
X21116817Y35230400D02*
X21069198Y35278020D01*
X22307293Y36182781D02*
X22402531Y36182781D01*
X22402531Y36182781D02*
X22497769Y36135162D01*
X22497769Y36135162D02*
X22545388Y36087543D01*
X22545388Y36087543D02*
X22593007Y35992305D01*
X22593007Y35992305D02*
X22640626Y35801829D01*
X22640626Y35801829D02*
X22640626Y35563734D01*
X22640626Y35563734D02*
X22593007Y35373258D01*
X22593007Y35373258D02*
X22545388Y35278020D01*
X22545388Y35278020D02*
X22497769Y35230400D01*
X22497769Y35230400D02*
X22402531Y35182781D01*
X22402531Y35182781D02*
X22307293Y35182781D01*
X22307293Y35182781D02*
X22212055Y35230400D01*
X22212055Y35230400D02*
X22164436Y35278020D01*
X22164436Y35278020D02*
X22116817Y35373258D01*
X22116817Y35373258D02*
X22069198Y35563734D01*
X22069198Y35563734D02*
X22069198Y35801829D01*
X22069198Y35801829D02*
X22116817Y35992305D01*
X22116817Y35992305D02*
X22164436Y36087543D01*
X22164436Y36087543D02*
X22212055Y36135162D01*
X22212055Y36135162D02*
X22307293Y36182781D01*
X23259674Y36182781D02*
X23354912Y36182781D01*
X23354912Y36182781D02*
X23450150Y36135162D01*
X23450150Y36135162D02*
X23497769Y36087543D01*
X23497769Y36087543D02*
X23545388Y35992305D01*
X23545388Y35992305D02*
X23593007Y35801829D01*
X23593007Y35801829D02*
X23593007Y35563734D01*
X23593007Y35563734D02*
X23545388Y35373258D01*
X23545388Y35373258D02*
X23497769Y35278020D01*
X23497769Y35278020D02*
X23450150Y35230400D01*
X23450150Y35230400D02*
X23354912Y35182781D01*
X23354912Y35182781D02*
X23259674Y35182781D01*
X23259674Y35182781D02*
X23164436Y35230400D01*
X23164436Y35230400D02*
X23116817Y35278020D01*
X23116817Y35278020D02*
X23069198Y35373258D01*
X23069198Y35373258D02*
X23021579Y35563734D01*
X23021579Y35563734D02*
X23021579Y35801829D01*
X23021579Y35801829D02*
X23069198Y35992305D01*
X23069198Y35992305D02*
X23116817Y36087543D01*
X23116817Y36087543D02*
X23164436Y36135162D01*
X23164436Y36135162D02*
X23259674Y36182781D01*
X24212055Y36182781D02*
X24307293Y36182781D01*
X24307293Y36182781D02*
X24402531Y36135162D01*
X24402531Y36135162D02*
X24450150Y36087543D01*
X24450150Y36087543D02*
X24497769Y35992305D01*
X24497769Y35992305D02*
X24545388Y35801829D01*
X24545388Y35801829D02*
X24545388Y35563734D01*
X24545388Y35563734D02*
X24497769Y35373258D01*
X24497769Y35373258D02*
X24450150Y35278020D01*
X24450150Y35278020D02*
X24402531Y35230400D01*
X24402531Y35230400D02*
X24307293Y35182781D01*
X24307293Y35182781D02*
X24212055Y35182781D01*
X24212055Y35182781D02*
X24116817Y35230400D01*
X24116817Y35230400D02*
X24069198Y35278020D01*
X24069198Y35278020D02*
X24021579Y35373258D01*
X24021579Y35373258D02*
X23973960Y35563734D01*
X23973960Y35563734D02*
X23973960Y35801829D01*
X23973960Y35801829D02*
X24021579Y35992305D01*
X24021579Y35992305D02*
X24069198Y36087543D01*
X24069198Y36087543D02*
X24116817Y36135162D01*
X24116817Y36135162D02*
X24212055Y36182781D01*
X25640627Y35849448D02*
X25878722Y35182781D01*
X25878722Y35182781D02*
X26116817Y35849448D01*
X26688246Y36182781D02*
X26783484Y36182781D01*
X26783484Y36182781D02*
X26878722Y36135162D01*
X26878722Y36135162D02*
X26926341Y36087543D01*
X26926341Y36087543D02*
X26973960Y35992305D01*
X26973960Y35992305D02*
X27021579Y35801829D01*
X27021579Y35801829D02*
X27021579Y35563734D01*
X27021579Y35563734D02*
X26973960Y35373258D01*
X26973960Y35373258D02*
X26926341Y35278020D01*
X26926341Y35278020D02*
X26878722Y35230400D01*
X26878722Y35230400D02*
X26783484Y35182781D01*
X26783484Y35182781D02*
X26688246Y35182781D01*
X26688246Y35182781D02*
X26593008Y35230400D01*
X26593008Y35230400D02*
X26545389Y35278020D01*
X26545389Y35278020D02*
X26497770Y35373258D01*
X26497770Y35373258D02*
X26450151Y35563734D01*
X26450151Y35563734D02*
X26450151Y35801829D01*
X26450151Y35801829D02*
X26497770Y35992305D01*
X26497770Y35992305D02*
X26545389Y36087543D01*
X26545389Y36087543D02*
X26593008Y36135162D01*
X26593008Y36135162D02*
X26688246Y36182781D01*
X27450151Y35278020D02*
X27497770Y35230400D01*
X27497770Y35230400D02*
X27450151Y35182781D01*
X27450151Y35182781D02*
X27402532Y35230400D01*
X27402532Y35230400D02*
X27450151Y35278020D01*
X27450151Y35278020D02*
X27450151Y35182781D01*
X27878722Y36087543D02*
X27926341Y36135162D01*
X27926341Y36135162D02*
X28021579Y36182781D01*
X28021579Y36182781D02*
X28259674Y36182781D01*
X28259674Y36182781D02*
X28354912Y36135162D01*
X28354912Y36135162D02*
X28402531Y36087543D01*
X28402531Y36087543D02*
X28450150Y35992305D01*
X28450150Y35992305D02*
X28450150Y35897067D01*
X28450150Y35897067D02*
X28402531Y35754210D01*
X28402531Y35754210D02*
X27831103Y35182781D01*
X27831103Y35182781D02*
X28450150Y35182781D01*
D11*
X20884398Y44685441D02*
X20370112Y44685441D01*
X20627255Y44685441D02*
X20627255Y45585441D01*
X20627255Y45585441D02*
X20541541Y45456870D01*
X20541541Y45456870D02*
X20455826Y45371156D01*
X20455826Y45371156D02*
X20370112Y45328298D01*
X21227255Y45499727D02*
X21270112Y45542584D01*
X21270112Y45542584D02*
X21355827Y45585441D01*
X21355827Y45585441D02*
X21570112Y45585441D01*
X21570112Y45585441D02*
X21655827Y45542584D01*
X21655827Y45542584D02*
X21698684Y45499727D01*
X21698684Y45499727D02*
X21741541Y45414013D01*
X21741541Y45414013D02*
X21741541Y45328298D01*
X21741541Y45328298D02*
X21698684Y45199727D01*
X21698684Y45199727D02*
X21184398Y44685441D01*
X21184398Y44685441D02*
X21741541Y44685441D01*
X21998684Y45585441D02*
X22298684Y44685441D01*
X22298684Y44685441D02*
X22598684Y45585441D01*
X16491064Y60013800D02*
X16605350Y59975705D01*
X16605350Y59975705D02*
X16795826Y59975705D01*
X16795826Y59975705D02*
X16872017Y60013800D01*
X16872017Y60013800D02*
X16910112Y60051896D01*
X16910112Y60051896D02*
X16948207Y60128086D01*
X16948207Y60128086D02*
X16948207Y60204277D01*
X16948207Y60204277D02*
X16910112Y60280467D01*
X16910112Y60280467D02*
X16872017Y60318562D01*
X16872017Y60318562D02*
X16795826Y60356658D01*
X16795826Y60356658D02*
X16643445Y60394753D01*
X16643445Y60394753D02*
X16567255Y60432848D01*
X16567255Y60432848D02*
X16529160Y60470943D01*
X16529160Y60470943D02*
X16491064Y60547134D01*
X16491064Y60547134D02*
X16491064Y60623324D01*
X16491064Y60623324D02*
X16529160Y60699515D01*
X16529160Y60699515D02*
X16567255Y60737610D01*
X16567255Y60737610D02*
X16643445Y60775705D01*
X16643445Y60775705D02*
X16833922Y60775705D01*
X16833922Y60775705D02*
X16948207Y60737610D01*
X17443446Y60356658D02*
X17443446Y59975705D01*
X17176779Y60775705D02*
X17443446Y60356658D01*
X17443446Y60356658D02*
X17710112Y60775705D01*
X17938683Y60013800D02*
X18052969Y59975705D01*
X18052969Y59975705D02*
X18243445Y59975705D01*
X18243445Y59975705D02*
X18319636Y60013800D01*
X18319636Y60013800D02*
X18357731Y60051896D01*
X18357731Y60051896D02*
X18395826Y60128086D01*
X18395826Y60128086D02*
X18395826Y60204277D01*
X18395826Y60204277D02*
X18357731Y60280467D01*
X18357731Y60280467D02*
X18319636Y60318562D01*
X18319636Y60318562D02*
X18243445Y60356658D01*
X18243445Y60356658D02*
X18091064Y60394753D01*
X18091064Y60394753D02*
X18014874Y60432848D01*
X18014874Y60432848D02*
X17976779Y60470943D01*
X17976779Y60470943D02*
X17938683Y60547134D01*
X17938683Y60547134D02*
X17938683Y60623324D01*
X17938683Y60623324D02*
X17976779Y60699515D01*
X17976779Y60699515D02*
X18014874Y60737610D01*
X18014874Y60737610D02*
X18091064Y60775705D01*
X18091064Y60775705D02*
X18281541Y60775705D01*
X18281541Y60775705D02*
X18395826Y60737610D01*
X17312105Y43109215D02*
X17440677Y43066358D01*
X17440677Y43066358D02*
X17483534Y43023501D01*
X17483534Y43023501D02*
X17526391Y42937786D01*
X17526391Y42937786D02*
X17526391Y42809215D01*
X17526391Y42809215D02*
X17483534Y42723501D01*
X17483534Y42723501D02*
X17440677Y42680643D01*
X17440677Y42680643D02*
X17354962Y42637786D01*
X17354962Y42637786D02*
X17012105Y42637786D01*
X17012105Y42637786D02*
X17012105Y43537786D01*
X17012105Y43537786D02*
X17312105Y43537786D01*
X17312105Y43537786D02*
X17397820Y43494929D01*
X17397820Y43494929D02*
X17440677Y43452072D01*
X17440677Y43452072D02*
X17483534Y43366358D01*
X17483534Y43366358D02*
X17483534Y43280643D01*
X17483534Y43280643D02*
X17440677Y43194929D01*
X17440677Y43194929D02*
X17397820Y43152072D01*
X17397820Y43152072D02*
X17312105Y43109215D01*
X17312105Y43109215D02*
X17012105Y43109215D01*
D10*
X31759857Y33578385D02*
X31759857Y34149813D01*
X31759857Y34149813D02*
X32959857Y34149813D01*
X32217000Y33178384D02*
X32217000Y32264098D01*
X31759857Y31692670D02*
X32959857Y31692670D01*
X32959857Y31692670D02*
X32102714Y31292670D01*
X32102714Y31292670D02*
X32959857Y30892670D01*
X32959857Y30892670D02*
X31759857Y30892670D01*
X31759857Y29635527D02*
X32331285Y30035527D01*
X31759857Y30321241D02*
X32959857Y30321241D01*
X32959857Y30321241D02*
X32959857Y29864098D01*
X32959857Y29864098D02*
X32902714Y29749813D01*
X32902714Y29749813D02*
X32845571Y29692670D01*
X32845571Y29692670D02*
X32731285Y29635527D01*
X32731285Y29635527D02*
X32559857Y29635527D01*
X32559857Y29635527D02*
X32445571Y29692670D01*
X32445571Y29692670D02*
X32388428Y29749813D01*
X32388428Y29749813D02*
X32331285Y29864098D01*
X32331285Y29864098D02*
X32331285Y30321241D01*
D13*
X15832391Y19458985D02*
X15718105Y19573271D01*
X15718105Y19573271D02*
X15603819Y19801842D01*
X15603819Y19801842D02*
X15603819Y20373271D01*
X15603819Y20373271D02*
X15718105Y20601842D01*
X15718105Y20601842D02*
X15832391Y20716128D01*
X15832391Y20716128D02*
X16060962Y20830414D01*
X16060962Y20830414D02*
X16289534Y20830414D01*
X16289534Y20830414D02*
X16632391Y20716128D01*
X16632391Y20716128D02*
X18003819Y19344700D01*
X18003819Y19344700D02*
X18003819Y20830414D01*
X15603819Y22316128D02*
X15603819Y22544699D01*
X15603819Y22544699D02*
X15718105Y22773271D01*
X15718105Y22773271D02*
X15832391Y22887556D01*
X15832391Y22887556D02*
X16060962Y23001842D01*
X16060962Y23001842D02*
X16518105Y23116128D01*
X16518105Y23116128D02*
X17089534Y23116128D01*
X17089534Y23116128D02*
X17546676Y23001842D01*
X17546676Y23001842D02*
X17775248Y22887556D01*
X17775248Y22887556D02*
X17889534Y22773271D01*
X17889534Y22773271D02*
X18003819Y22544699D01*
X18003819Y22544699D02*
X18003819Y22316128D01*
X18003819Y22316128D02*
X17889534Y22087556D01*
X17889534Y22087556D02*
X17775248Y21973271D01*
X17775248Y21973271D02*
X17546676Y21858985D01*
X17546676Y21858985D02*
X17089534Y21744699D01*
X17089534Y21744699D02*
X16518105Y21744699D01*
X16518105Y21744699D02*
X16060962Y21858985D01*
X16060962Y21858985D02*
X15832391Y21973271D01*
X15832391Y21973271D02*
X15718105Y22087556D01*
X15718105Y22087556D02*
X15603819Y22316128D01*
X15603819Y23801842D02*
X18003819Y24601842D01*
X18003819Y24601842D02*
X15603819Y25401842D01*
X21867685Y19573271D02*
X19467685Y19573271D01*
X19467685Y19573271D02*
X21181971Y20373271D01*
X21181971Y20373271D02*
X19467685Y21173271D01*
X19467685Y21173271D02*
X21867685Y21173271D01*
X21181971Y22201842D02*
X21181971Y23344699D01*
X21867685Y21973271D02*
X19467685Y22773271D01*
X19467685Y22773271D02*
X21867685Y23573271D01*
X19467685Y24144700D02*
X21867685Y25744700D01*
X19467685Y25744700D02*
X21867685Y24144700D01*
D14*
X12103657Y16473308D02*
X11760800Y16930451D01*
X11760800Y16930451D02*
X12103657Y17387594D01*
X14275085Y18187594D02*
X11875085Y18187594D01*
X14275085Y19330451D02*
X11875085Y19330451D01*
X11875085Y19330451D02*
X14275085Y20701880D01*
X14275085Y20701880D02*
X11875085Y20701880D01*
X14275085Y21844737D02*
X11875085Y21844737D01*
X11875085Y21844737D02*
X11875085Y22759023D01*
X11875085Y22759023D02*
X11989371Y22987594D01*
X11989371Y22987594D02*
X12103657Y23101880D01*
X12103657Y23101880D02*
X12332228Y23216166D01*
X12332228Y23216166D02*
X12675085Y23216166D01*
X12675085Y23216166D02*
X12903657Y23101880D01*
X12903657Y23101880D02*
X13017942Y22987594D01*
X13017942Y22987594D02*
X13132228Y22759023D01*
X13132228Y22759023D02*
X13132228Y21844737D01*
X11875085Y24244737D02*
X13817942Y24244737D01*
X13817942Y24244737D02*
X14046514Y24359023D01*
X14046514Y24359023D02*
X14160800Y24473308D01*
X14160800Y24473308D02*
X14275085Y24701880D01*
X14275085Y24701880D02*
X14275085Y25159023D01*
X14275085Y25159023D02*
X14160800Y25387594D01*
X14160800Y25387594D02*
X14046514Y25501880D01*
X14046514Y25501880D02*
X13817942Y25616166D01*
X13817942Y25616166D02*
X11875085Y25616166D01*
X11875085Y26416166D02*
X11875085Y27787594D01*
X14275085Y27101880D02*
X11875085Y27101880D01*
D15*
X242802Y41693122D02*
X242802Y42321694D01*
X1342802Y42007408D02*
X242802Y42007408D01*
X1342802Y43316932D02*
X818993Y42950265D01*
X1342802Y42688360D02*
X242802Y42688360D01*
X242802Y42688360D02*
X242802Y43107408D01*
X242802Y43107408D02*
X295183Y43212170D01*
X295183Y43212170D02*
X347564Y43264551D01*
X347564Y43264551D02*
X452326Y43316932D01*
X452326Y43316932D02*
X609469Y43316932D01*
X609469Y43316932D02*
X714231Y43264551D01*
X714231Y43264551D02*
X766612Y43212170D01*
X766612Y43212170D02*
X818993Y43107408D01*
X818993Y43107408D02*
X818993Y42688360D01*
X1342802Y43788360D02*
X242802Y43788360D01*
X295183Y44888361D02*
X242802Y44783599D01*
X242802Y44783599D02*
X242802Y44626456D01*
X242802Y44626456D02*
X295183Y44469313D01*
X295183Y44469313D02*
X399945Y44364551D01*
X399945Y44364551D02*
X504707Y44312170D01*
X504707Y44312170D02*
X714231Y44259789D01*
X714231Y44259789D02*
X871374Y44259789D01*
X871374Y44259789D02*
X1080898Y44312170D01*
X1080898Y44312170D02*
X1185660Y44364551D01*
X1185660Y44364551D02*
X1290422Y44469313D01*
X1290422Y44469313D02*
X1342802Y44626456D01*
X1342802Y44626456D02*
X1342802Y44731218D01*
X1342802Y44731218D02*
X1290422Y44888361D01*
X1290422Y44888361D02*
X1238041Y44940742D01*
X1238041Y44940742D02*
X871374Y44940742D01*
X871374Y44940742D02*
X871374Y44731218D01*
X295183Y45988361D02*
X242802Y45883599D01*
X242802Y45883599D02*
X242802Y45726456D01*
X242802Y45726456D02*
X295183Y45569313D01*
X295183Y45569313D02*
X399945Y45464551D01*
X399945Y45464551D02*
X504707Y45412170D01*
X504707Y45412170D02*
X714231Y45359789D01*
X714231Y45359789D02*
X871374Y45359789D01*
X871374Y45359789D02*
X1080898Y45412170D01*
X1080898Y45412170D02*
X1185660Y45464551D01*
X1185660Y45464551D02*
X1290422Y45569313D01*
X1290422Y45569313D02*
X1342802Y45726456D01*
X1342802Y45726456D02*
X1342802Y45831218D01*
X1342802Y45831218D02*
X1290422Y45988361D01*
X1290422Y45988361D02*
X1238041Y46040742D01*
X1238041Y46040742D02*
X871374Y46040742D01*
X871374Y46040742D02*
X871374Y45831218D01*
X766612Y46512170D02*
X766612Y46878837D01*
X1342802Y47035980D02*
X1342802Y46512170D01*
X1342802Y46512170D02*
X242802Y46512170D01*
X242802Y46512170D02*
X242802Y47035980D01*
X1342802Y48135980D02*
X818993Y47769313D01*
X1342802Y47507408D02*
X242802Y47507408D01*
X242802Y47507408D02*
X242802Y47926456D01*
X242802Y47926456D02*
X295183Y48031218D01*
X295183Y48031218D02*
X347564Y48083599D01*
X347564Y48083599D02*
X452326Y48135980D01*
X452326Y48135980D02*
X609469Y48135980D01*
X609469Y48135980D02*
X714231Y48083599D01*
X714231Y48083599D02*
X766612Y48031218D01*
X766612Y48031218D02*
X818993Y47926456D01*
X818993Y47926456D02*
X818993Y47507408D01*
D10*
X31769857Y15474099D02*
X32341285Y15874099D01*
X31769857Y16159813D02*
X32969857Y16159813D01*
X32969857Y16159813D02*
X32969857Y15702670D01*
X32969857Y15702670D02*
X32912714Y15588385D01*
X32912714Y15588385D02*
X32855571Y15531242D01*
X32855571Y15531242D02*
X32741285Y15474099D01*
X32741285Y15474099D02*
X32569857Y15474099D01*
X32569857Y15474099D02*
X32455571Y15531242D01*
X32455571Y15531242D02*
X32398428Y15588385D01*
X32398428Y15588385D02*
X32341285Y15702670D01*
X32341285Y15702670D02*
X32341285Y16159813D01*
X32227000Y14959813D02*
X32227000Y14045527D01*
X31769857Y13474099D02*
X32969857Y13474099D01*
X32969857Y13474099D02*
X32112714Y13074099D01*
X32112714Y13074099D02*
X32969857Y12674099D01*
X32969857Y12674099D02*
X31769857Y12674099D01*
X31769857Y11416956D02*
X32341285Y11816956D01*
X31769857Y12102670D02*
X32969857Y12102670D01*
X32969857Y12102670D02*
X32969857Y11645527D01*
X32969857Y11645527D02*
X32912714Y11531242D01*
X32912714Y11531242D02*
X32855571Y11474099D01*
X32855571Y11474099D02*
X32741285Y11416956D01*
X32741285Y11416956D02*
X32569857Y11416956D01*
X32569857Y11416956D02*
X32455571Y11474099D01*
X32455571Y11474099D02*
X32398428Y11531242D01*
X32398428Y11531242D02*
X32341285Y11645527D01*
X32341285Y11645527D02*
X32341285Y12102670D01*
D11*
X17494368Y45542584D02*
X17408654Y45585441D01*
X17408654Y45585441D02*
X17280082Y45585441D01*
X17280082Y45585441D02*
X17151511Y45542584D01*
X17151511Y45542584D02*
X17065796Y45456870D01*
X17065796Y45456870D02*
X17022939Y45371156D01*
X17022939Y45371156D02*
X16980082Y45199727D01*
X16980082Y45199727D02*
X16980082Y45071156D01*
X16980082Y45071156D02*
X17022939Y44899727D01*
X17022939Y44899727D02*
X17065796Y44814013D01*
X17065796Y44814013D02*
X17151511Y44728298D01*
X17151511Y44728298D02*
X17280082Y44685441D01*
X17280082Y44685441D02*
X17365796Y44685441D01*
X17365796Y44685441D02*
X17494368Y44728298D01*
X17494368Y44728298D02*
X17537225Y44771156D01*
X17537225Y44771156D02*
X17537225Y45071156D01*
X17537225Y45071156D02*
X17365796Y45071156D01*
X33193866Y36899049D02*
X33193866Y37660953D01*
X33574819Y37280001D02*
X32812914Y37280001D01*
X32893866Y26039049D02*
X32893866Y26800953D01*
X32333866Y46119049D02*
X32333866Y46880953D01*
X32403866Y58679049D02*
X32403866Y59440953D01*
X32784819Y59060001D02*
X32022914Y59060001D01*
X3863094Y60980896D02*
X4339284Y60980896D01*
X3767856Y60695181D02*
X4101189Y61695181D01*
X4101189Y61695181D02*
X4434522Y60695181D01*
X4767856Y61361848D02*
X4767856Y60695181D01*
X4767856Y61266610D02*
X4815475Y61314229D01*
X4815475Y61314229D02*
X4910713Y61361848D01*
X4910713Y61361848D02*
X5053570Y61361848D01*
X5053570Y61361848D02*
X5148808Y61314229D01*
X5148808Y61314229D02*
X5196427Y61218991D01*
X5196427Y61218991D02*
X5196427Y60695181D01*
X5529761Y61361848D02*
X5910713Y61361848D01*
X5672618Y61695181D02*
X5672618Y60838039D01*
X5672618Y60838039D02*
X5720237Y60742800D01*
X5720237Y60742800D02*
X5815475Y60695181D01*
X5815475Y60695181D02*
X5910713Y60695181D01*
X6624999Y60742800D02*
X6529761Y60695181D01*
X6529761Y60695181D02*
X6339285Y60695181D01*
X6339285Y60695181D02*
X6244047Y60742800D01*
X6244047Y60742800D02*
X6196428Y60838039D01*
X6196428Y60838039D02*
X6196428Y61218991D01*
X6196428Y61218991D02*
X6244047Y61314229D01*
X6244047Y61314229D02*
X6339285Y61361848D01*
X6339285Y61361848D02*
X6529761Y61361848D01*
X6529761Y61361848D02*
X6624999Y61314229D01*
X6624999Y61314229D02*
X6672618Y61218991D01*
X6672618Y61218991D02*
X6672618Y61123753D01*
X6672618Y61123753D02*
X6196428Y61028515D01*
X7101190Y61361848D02*
X7101190Y60695181D01*
X7101190Y61266610D02*
X7148809Y61314229D01*
X7148809Y61314229D02*
X7244047Y61361848D01*
X7244047Y61361848D02*
X7386904Y61361848D01*
X7386904Y61361848D02*
X7482142Y61314229D01*
X7482142Y61314229D02*
X7529761Y61218991D01*
X7529761Y61218991D02*
X7529761Y60695181D01*
X8005952Y61361848D02*
X8005952Y60695181D01*
X8005952Y61266610D02*
X8053571Y61314229D01*
X8053571Y61314229D02*
X8148809Y61361848D01*
X8148809Y61361848D02*
X8291666Y61361848D01*
X8291666Y61361848D02*
X8386904Y61314229D01*
X8386904Y61314229D02*
X8434523Y61218991D01*
X8434523Y61218991D02*
X8434523Y60695181D01*
X9339285Y60695181D02*
X9339285Y61218991D01*
X9339285Y61218991D02*
X9291666Y61314229D01*
X9291666Y61314229D02*
X9196428Y61361848D01*
X9196428Y61361848D02*
X9005952Y61361848D01*
X9005952Y61361848D02*
X8910714Y61314229D01*
X9339285Y60742800D02*
X9244047Y60695181D01*
X9244047Y60695181D02*
X9005952Y60695181D01*
X9005952Y60695181D02*
X8910714Y60742800D01*
X8910714Y60742800D02*
X8863095Y60838039D01*
X8863095Y60838039D02*
X8863095Y60933277D01*
X8863095Y60933277D02*
X8910714Y61028515D01*
X8910714Y61028515D02*
X9005952Y61076134D01*
X9005952Y61076134D02*
X9244047Y61076134D01*
X9244047Y61076134D02*
X9339285Y61123753D01*
X10529762Y60980896D02*
X11005952Y60980896D01*
X10434524Y60695181D02*
X10767857Y61695181D01*
X10767857Y61695181D02*
X11101190Y60695181D01*
X11434524Y60695181D02*
X11434524Y61361848D01*
X11434524Y61171372D02*
X11482143Y61266610D01*
X11482143Y61266610D02*
X11529762Y61314229D01*
X11529762Y61314229D02*
X11625000Y61361848D01*
X11625000Y61361848D02*
X11720238Y61361848D01*
X12434524Y60742800D02*
X12339286Y60695181D01*
X12339286Y60695181D02*
X12148810Y60695181D01*
X12148810Y60695181D02*
X12053572Y60742800D01*
X12053572Y60742800D02*
X12005953Y60838039D01*
X12005953Y60838039D02*
X12005953Y61218991D01*
X12005953Y61218991D02*
X12053572Y61314229D01*
X12053572Y61314229D02*
X12148810Y61361848D01*
X12148810Y61361848D02*
X12339286Y61361848D01*
X12339286Y61361848D02*
X12434524Y61314229D01*
X12434524Y61314229D02*
X12482143Y61218991D01*
X12482143Y61218991D02*
X12482143Y61123753D01*
X12482143Y61123753D02*
X12005953Y61028515D01*
X13339286Y60695181D02*
X13339286Y61218991D01*
X13339286Y61218991D02*
X13291667Y61314229D01*
X13291667Y61314229D02*
X13196429Y61361848D01*
X13196429Y61361848D02*
X13005953Y61361848D01*
X13005953Y61361848D02*
X12910715Y61314229D01*
X13339286Y60742800D02*
X13244048Y60695181D01*
X13244048Y60695181D02*
X13005953Y60695181D01*
X13005953Y60695181D02*
X12910715Y60742800D01*
X12910715Y60742800D02*
X12863096Y60838039D01*
X12863096Y60838039D02*
X12863096Y60933277D01*
X12863096Y60933277D02*
X12910715Y61028515D01*
X12910715Y61028515D02*
X13005953Y61076134D01*
X13005953Y61076134D02*
X13244048Y61076134D01*
X13244048Y61076134D02*
X13339286Y61123753D01*
X32903866Y5929049D02*
X32903866Y6690953D01*
X33453866Y16089049D02*
X33453866Y16850953D01*
X33834819Y16470001D02*
X33072914Y16470001D01*
D16*
X10997733Y14338096D02*
X10997733Y15861905D01*
X10997733Y28338096D02*
X10997733Y29861905D01*
X11759638Y29100001D02*
X10235828Y29100001D01*
D17*
%TO.C,R13*%
X10638730Y37922500D02*
X10164214Y37922500D01*
X10638730Y36877500D02*
X10164214Y36877500D01*
%TO.C,R19*%
X11218904Y44618010D02*
X11218904Y45092526D01*
X12263904Y44618010D02*
X12263904Y45092526D01*
%TO.C,C11*%
X17459420Y56960000D02*
X17740580Y56960000D01*
X17459420Y55940000D02*
X17740580Y55940000D01*
%TO.C,C9*%
X12786697Y44713747D02*
X12786697Y44994907D01*
X13806697Y44713747D02*
X13806697Y44994907D01*
%TO.C,Q10*%
X23853133Y48623394D02*
X26066377Y50836639D01*
X26872479Y46551571D02*
X28611962Y48291054D01*
%TO.C,R8*%
X17477500Y62012742D02*
X17477500Y62487258D01*
X18522500Y62012742D02*
X18522500Y62487258D01*
%TO.C,C7*%
X4446798Y2199151D02*
X4446798Y1917991D01*
X5466798Y2199151D02*
X5466798Y1917991D01*
%TO.C,TP8*%
X19800000Y45100000D02*
G75*
G02*
X18400000Y45100000I-700000J0D01*
G01*
X18400000Y45100000D02*
G75*
G02*
X19800000Y45100000I700000J0D01*
G01*
%TO.C,R15*%
X20562742Y53997500D02*
X21037258Y53997500D01*
X20562742Y52952500D02*
X21037258Y52952500D01*
%TO.C,D2*%
X18920000Y59785000D02*
X16080000Y59785000D01*
X18920000Y57485000D02*
X16080000Y57485000D01*
X18920000Y57485000D02*
X18920000Y58135000D01*
%TO.C,R1*%
X7706810Y2294351D02*
X7706810Y1819835D01*
X8751810Y2294351D02*
X8751810Y1819835D01*
%TO.C,J6*%
X-498528Y40850000D02*
X-498528Y31450000D01*
X1401472Y40850000D02*
X-498528Y40850000D01*
X1401472Y31450000D02*
X-498528Y31450000D01*
X5301472Y40850000D02*
X3301472Y40850000D01*
X5301472Y31450000D02*
X3301472Y31450000D01*
%TO.C,R9*%
X15877500Y62012742D02*
X15877500Y62487258D01*
X16922500Y62012742D02*
X16922500Y62487258D01*
%TO.C,Q6*%
X26990000Y7690000D02*
X30120000Y7690000D01*
X27660000Y4090000D02*
X30120000Y4090000D01*
%TO.C,R7*%
X9643593Y44612742D02*
X9643593Y45087258D01*
X10688593Y44612742D02*
X10688593Y45087258D01*
%TO.C,C5*%
X590000Y12010000D02*
X2940000Y12010000D01*
X590000Y6254437D02*
X590000Y12010000D01*
X1654437Y5190000D02*
X590000Y6254437D01*
X1654437Y5190000D02*
X2940000Y5190000D01*
X1758750Y4556250D02*
X2546250Y4556250D01*
X2152500Y4162500D02*
X2152500Y4950000D01*
X6345563Y5190000D02*
X5060000Y5190000D01*
X6345563Y5190000D02*
X7410000Y6254437D01*
X7410000Y12010000D02*
X5060000Y12010000D01*
X7410000Y6254437D02*
X7410000Y12010000D01*
%TO.C,C1*%
X13590000Y12210000D02*
X15940000Y12210000D01*
X13590000Y6454437D02*
X13590000Y12210000D01*
X14654437Y5390000D02*
X13590000Y6454437D01*
X14654437Y5390000D02*
X15940000Y5390000D01*
X14758750Y4756250D02*
X15546250Y4756250D01*
X15152500Y4362500D02*
X15152500Y5150000D01*
X19345563Y5390000D02*
X18060000Y5390000D01*
X19345563Y5390000D02*
X20410000Y6454437D01*
X20410000Y12210000D02*
X18060000Y12210000D01*
X20410000Y6454437D02*
X20410000Y12210000D01*
%TO.C,R12*%
X12178835Y42977864D02*
X12653351Y42977864D01*
X12178835Y41932864D02*
X12653351Y41932864D01*
%TO.C,TP3*%
X6150000Y44052432D02*
G75*
G02*
X1550000Y44052432I-2300000J0D01*
G01*
X1550000Y44052432D02*
G75*
G02*
X6150000Y44052432I2300000J0D01*
G01*
%TO.C,C8*%
X386494Y56459420D02*
X386494Y56740580D01*
X1406494Y56459420D02*
X1406494Y56740580D01*
%TO.C,R17*%
X17362742Y53322500D02*
X17837258Y53322500D01*
X17362742Y52277500D02*
X17837258Y52277500D01*
%TO.C,D1*%
X12660000Y13750000D02*
X9000000Y13750000D01*
X12660000Y11850000D02*
X9000000Y11850000D01*
X12660000Y11850000D02*
X12660000Y13750000D01*
%TO.C,Q9*%
X25753133Y23823394D02*
X27966377Y26036639D01*
X28772479Y21751571D02*
X30511962Y23491054D01*
%TO.C,Q3*%
X29865228Y42537214D02*
X32078472Y44750459D01*
X32884574Y40465391D02*
X34624057Y42204874D01*
%TO.C,Q8*%
X25561593Y31064608D02*
X27301076Y29325125D01*
X27633416Y34083954D02*
X29846661Y31870710D01*
%TO.C,C3*%
X13590000Y2490580D02*
X13590000Y2209420D01*
X14610000Y2490580D02*
X14610000Y2209420D01*
%TO.C,R5*%
X375161Y50587258D02*
X375161Y50112742D01*
X1420161Y50587258D02*
X1420161Y50112742D01*
%TO.C,R11*%
X8153351Y42977864D02*
X7678835Y42977864D01*
X8153351Y41932864D02*
X7678835Y41932864D01*
%TO.C,J1*%
X33890000Y34450000D02*
X33890000Y30710000D01*
X43610000Y39860000D02*
X38000000Y39860000D01*
X43610000Y39860000D02*
X43610000Y39010000D01*
X43610000Y24990000D02*
X43610000Y24140000D01*
X43610000Y24140000D02*
X38000000Y24140000D01*
X51310000Y39010000D02*
X43610000Y39010000D01*
X51310000Y39010000D02*
X51310000Y24990000D01*
X51310000Y24990000D02*
X43610000Y24990000D01*
X34041282Y36989900D02*
G75*
G02*
X38000000Y39859999I3918716J-1239898D01*
G01*
X38000000Y24140000D02*
G75*
G02*
X34477042Y26133194I0J4110000D01*
G01*
%TO.C,Q4*%
X15840000Y49600000D02*
X15840000Y50250000D01*
X15840000Y49600000D02*
X15840000Y48950000D01*
X18960000Y49600000D02*
X18960000Y51275000D01*
X18960000Y49600000D02*
X18960000Y48950000D01*
%TO.C,J3*%
X33840000Y55050000D02*
X33840000Y51310000D01*
X43560000Y60460000D02*
X37950000Y60460000D01*
X43560000Y60460000D02*
X43560000Y59610000D01*
X43560000Y45590000D02*
X43560000Y44740000D01*
X43560000Y44740000D02*
X37950000Y44740000D01*
X51260000Y59610000D02*
X43560000Y59610000D01*
X51260000Y59610000D02*
X51260000Y45590000D01*
X51260000Y45590000D02*
X43560000Y45590000D01*
X33991282Y57589900D02*
G75*
G02*
X37950000Y60459999I3918716J-1239898D01*
G01*
X37950000Y44740000D02*
G75*
G02*
X34427042Y46733194I0J4110000D01*
G01*
%TO.C,D4*%
X27610517Y53017401D02*
X29491421Y51136497D01*
X28812599Y54219483D02*
X27610517Y53017401D01*
X28812599Y54219483D02*
X30693503Y52338579D01*
%TO.C,U2*%
X1825000Y47600000D02*
X1825000Y46800000D01*
X1825000Y46800000D02*
X2625000Y46800000D01*
X2025000Y63600000D02*
X15225000Y63600000D01*
X2025000Y58200000D02*
X15225000Y58200000D01*
X2025000Y47000000D02*
X2025000Y63600000D01*
X2700000Y63800000D02*
X1850000Y63800000D01*
X14675000Y63800000D02*
X15425000Y63800000D01*
X15225000Y63600000D02*
X15225000Y47000000D01*
X15225000Y47000000D02*
X2025000Y47000000D01*
X15425000Y63800000D02*
X15425000Y63200000D01*
X15425000Y47600000D02*
X15425000Y46800000D01*
X15425000Y46800000D02*
X14625000Y46800000D01*
%TO.C,R2*%
X10392051Y1825544D02*
X10866567Y1825544D01*
X10392051Y780544D02*
X10866567Y780544D01*
%TO.C,C10*%
X6581704Y44984547D02*
X6581704Y44703387D01*
X7601704Y44984547D02*
X7601704Y44703387D01*
%TO.C,C4*%
X7719310Y4959420D02*
X7719310Y5240580D01*
X8739310Y4959420D02*
X8739310Y5240580D01*
%TO.C,J2*%
X33890000Y13800000D02*
X33890000Y10060000D01*
X43610000Y19210000D02*
X38000000Y19210000D01*
X43610000Y19210000D02*
X43610000Y18360000D01*
X43610000Y4340000D02*
X43610000Y3490000D01*
X43610000Y3490000D02*
X38000000Y3490000D01*
X51310000Y18360000D02*
X43610000Y18360000D01*
X51310000Y18360000D02*
X51310000Y4340000D01*
X51310000Y4340000D02*
X43610000Y4340000D01*
X34041282Y16339900D02*
G75*
G02*
X38000000Y19209999I3918716J-1239898D01*
G01*
X38000000Y3490000D02*
G75*
G02*
X34477042Y5483194I0J4110000D01*
G01*
%TO.C,Q2*%
X19165000Y61775000D02*
X19165000Y62425000D01*
X19165000Y61775000D02*
X19165000Y61125000D01*
X22285000Y61775000D02*
X22285000Y63450000D01*
X22285000Y61775000D02*
X22285000Y61125000D01*
%TO.C,U1*%
X11200039Y5555409D02*
X9400039Y5555409D01*
X11200039Y5555409D02*
X12000039Y5555409D01*
X11200039Y2435409D02*
X10400039Y2435409D01*
X11200039Y2435409D02*
X12000039Y2435409D01*
%TO.C,D6*%
X26490000Y3200000D02*
X26490000Y1500000D01*
X26490000Y3200000D02*
X29150000Y3200000D01*
X26490000Y1500000D02*
X29150000Y1500000D01*
%TO.C,Q5*%
X27426894Y10302844D02*
X29166377Y8563361D01*
X29498717Y13322190D02*
X31711962Y11108946D01*
%TO.C,C6*%
X6094021Y2199151D02*
X6094021Y1917991D01*
X7114021Y2199151D02*
X7114021Y1917991D01*
D18*
%TO.C,G\u002A\u002A\u002A*%
G36*
X20304080Y40463995D02*
G01*
X20720986Y40461175D01*
X20720986Y39545180D01*
X20303401Y39542360D01*
X19885815Y39539539D01*
X19885304Y39849487D01*
X19884952Y39935573D01*
X19884222Y40020374D01*
X19883177Y40099829D01*
X19881879Y40169877D01*
X19880394Y40226455D01*
X19878799Y40265221D01*
X19876891Y40317154D01*
X19876845Y40366789D01*
X19878601Y40406319D01*
X19879989Y40418911D01*
X19887173Y40466815D01*
X20304080Y40463995D01*
G37*
G36*
X20723796Y37451988D02*
G01*
X20720986Y36991171D01*
X20310438Y36988079D01*
X20200968Y36987397D01*
X20111284Y36987185D01*
X20039623Y36987490D01*
X19984221Y36988357D01*
X19943315Y36989830D01*
X19915143Y36991955D01*
X19897941Y36994778D01*
X19889947Y36998342D01*
X19889497Y36998856D01*
X19886928Y37013025D01*
X19884701Y37047261D01*
X19882846Y37100080D01*
X19881395Y37169998D01*
X19880379Y37255532D01*
X19879829Y37355197D01*
X19879765Y37459945D01*
X19880426Y37907166D01*
X20726606Y37912804D01*
X20723796Y37451988D01*
G37*
G36*
X19573299Y39539792D02*
G01*
X19370503Y39539792D01*
X19281127Y39538998D01*
X19210163Y39536236D01*
X19154518Y39530942D01*
X19111097Y39522548D01*
X19076806Y39510489D01*
X19048549Y39494197D01*
X19027386Y39476985D01*
X18991118Y39437477D01*
X18965870Y39393325D01*
X18949847Y39339704D01*
X18941255Y39271789D01*
X18939548Y39240809D01*
X18935051Y39130413D01*
X19828019Y39127657D01*
X20720986Y39124900D01*
X20720986Y38327446D01*
X19831933Y38322058D01*
X18942879Y38316669D01*
X18943050Y38208905D01*
X18943699Y38157456D01*
X18946238Y38121214D01*
X18951845Y38093845D01*
X18961699Y38069014D01*
X18973133Y38047259D01*
X19017101Y37988729D01*
X19073976Y37946998D01*
X19141952Y37923387D01*
X19142920Y37923202D01*
X19172669Y37919628D01*
X19218977Y37916565D01*
X19276853Y37914231D01*
X19341305Y37912844D01*
X19386182Y37912554D01*
X19573299Y37912554D01*
X19573299Y37455193D01*
X19573115Y37358100D01*
X19572588Y37267879D01*
X19571758Y37186764D01*
X19570665Y37116994D01*
X19569347Y37060806D01*
X19567844Y37020437D01*
X19566195Y36998124D01*
X19565216Y36994346D01*
X19552239Y36993570D01*
X19521493Y36993646D01*
X19476744Y36994507D01*
X19421757Y36996089D01*
X19379323Y36997585D01*
X19206799Y37011126D01*
X19048817Y37038835D01*
X18902757Y37081839D01*
X18766004Y37141262D01*
X18635939Y37218232D01*
X18509946Y37313873D01*
X18392808Y37421883D01*
X18317743Y37500454D01*
X18257093Y37572735D01*
X18207033Y37643920D01*
X18163740Y37719204D01*
X18142638Y37761684D01*
X18117445Y37817047D01*
X18097310Y37867731D01*
X18080469Y37919484D01*
X18065158Y37978051D01*
X18049614Y38049182D01*
X18040688Y38093892D01*
X18035113Y38123196D01*
X18030451Y38150574D01*
X18026620Y38178225D01*
X18023538Y38208346D01*
X18021124Y38243137D01*
X18019297Y38284796D01*
X18017976Y38335520D01*
X18017079Y38397508D01*
X18016526Y38472959D01*
X18016233Y38564071D01*
X18016122Y38673041D01*
X18016107Y38758502D01*
X18016107Y39297323D01*
X18046801Y39430991D01*
X18082762Y39562738D01*
X18127749Y39679465D01*
X18184645Y39786810D01*
X18256333Y39890412D01*
X18322480Y39970112D01*
X18440527Y40090647D01*
X18566246Y40193254D01*
X18700995Y40278538D01*
X18846129Y40347102D01*
X19003007Y40399551D01*
X19172985Y40436489D01*
X19357421Y40458519D01*
X19429970Y40463031D01*
X19573299Y40469905D01*
X19573299Y39539792D01*
G37*
G36*
X19602110Y42232644D02*
G01*
X19760830Y42232284D01*
X19938634Y42231768D01*
X20136717Y42231131D01*
X20150258Y42231086D01*
X21432230Y42226856D01*
X21556158Y42199422D01*
X21687202Y42164417D01*
X21803458Y42119769D01*
X21910518Y42062854D01*
X22013973Y41991044D01*
X22034697Y41974685D01*
X22147056Y41873404D01*
X22245033Y41762654D01*
X22326674Y41645132D01*
X22390022Y41523538D01*
X22421034Y41441829D01*
X22435093Y41396984D01*
X22445455Y41359596D01*
X22453484Y41323114D01*
X22460542Y41280990D01*
X22467992Y41226672D01*
X22471475Y41199359D01*
X22472713Y41178784D01*
X22473913Y41137582D01*
X22475069Y41076677D01*
X22476175Y40996996D01*
X22477225Y40899463D01*
X22478214Y40785004D01*
X22479136Y40654545D01*
X22479985Y40509010D01*
X22480755Y40349325D01*
X22481441Y40176415D01*
X22482037Y39991206D01*
X22482537Y39794622D01*
X22482935Y39587591D01*
X22483226Y39371035D01*
X22483293Y39302711D01*
X22483498Y39071008D01*
X22483671Y38859862D01*
X22483802Y38668277D01*
X22483880Y38495257D01*
X22483893Y38339807D01*
X22483832Y38200931D01*
X22483685Y38077632D01*
X22483441Y37968915D01*
X22483089Y37873785D01*
X22482619Y37791245D01*
X22482020Y37720300D01*
X22481279Y37659953D01*
X22480388Y37609209D01*
X22479335Y37567072D01*
X22478108Y37532547D01*
X22476698Y37504637D01*
X22475092Y37482347D01*
X22473281Y37464680D01*
X22471254Y37450641D01*
X22468998Y37439235D01*
X22466505Y37429464D01*
X22463762Y37420335D01*
X22462656Y37416839D01*
X22425414Y37326203D01*
X22374539Y37241345D01*
X22314338Y37169188D01*
X22300095Y37155546D01*
X22245221Y37108504D01*
X22194818Y37073648D01*
X22140443Y37045907D01*
X22076320Y37021140D01*
X21992603Y36991857D01*
X21539994Y36989988D01*
X21442205Y36989702D01*
X21350270Y36989660D01*
X21266612Y36989845D01*
X21193655Y36990242D01*
X21133826Y36990836D01*
X21089548Y36991612D01*
X21063245Y36992554D01*
X21057749Y36993055D01*
X21028114Y36997991D01*
X21028114Y37910067D01*
X21208619Y37914768D01*
X21284893Y37917323D01*
X21343455Y37921105D01*
X21388143Y37927043D01*
X21422795Y37936065D01*
X21451249Y37949099D01*
X21477345Y37967072D01*
X21498162Y37984788D01*
X21513435Y37998314D01*
X21526453Y38010526D01*
X21537405Y38023170D01*
X21546478Y38037996D01*
X21553862Y38056753D01*
X21559743Y38081188D01*
X21564311Y38113050D01*
X21567753Y38154088D01*
X21570258Y38206049D01*
X21572013Y38270684D01*
X21573207Y38349739D01*
X21574027Y38444963D01*
X21574663Y38558106D01*
X21575302Y38690914D01*
X21575358Y38702204D01*
X21575885Y38850694D01*
X21575912Y38981290D01*
X21575445Y39093433D01*
X21574492Y39186566D01*
X21573059Y39260130D01*
X21571153Y39313567D01*
X21568781Y39346317D01*
X21567298Y39355243D01*
X21539270Y39419981D01*
X21492890Y39473636D01*
X21454427Y39501739D01*
X21434576Y39513641D01*
X21416783Y39522338D01*
X21397156Y39528457D01*
X21371802Y39532622D01*
X21336829Y39535459D01*
X21288346Y39537592D01*
X21222459Y39539648D01*
X21217549Y39539792D01*
X21033502Y39545180D01*
X21033502Y40461175D01*
X21302913Y40466563D01*
X21572323Y40471952D01*
X21571022Y40655151D01*
X21570284Y40724164D01*
X21568840Y40776316D01*
X21566161Y40816295D01*
X21561716Y40848793D01*
X21554976Y40878498D01*
X21545410Y40910102D01*
X21540595Y40924561D01*
X21497630Y41020185D01*
X21437670Y41106739D01*
X21363689Y41181020D01*
X21278662Y41239831D01*
X21222665Y41266730D01*
X21162819Y41290959D01*
X18792009Y41301735D01*
X18723808Y41326382D01*
X18630607Y41368654D01*
X18554477Y41422788D01*
X18493507Y41490751D01*
X18445785Y41574511D01*
X18421033Y41638158D01*
X18402147Y41727261D01*
X18403103Y41817234D01*
X18422526Y41905169D01*
X18459039Y41988158D01*
X18511266Y42063293D01*
X18577830Y42127667D01*
X18657355Y42178371D01*
X18682186Y42189907D01*
X18698198Y42196594D01*
X18714160Y42202590D01*
X18731269Y42207927D01*
X18750720Y42212639D01*
X18773709Y42216759D01*
X18801432Y42220322D01*
X18835085Y42223360D01*
X18875864Y42225908D01*
X18924963Y42227998D01*
X18983581Y42229665D01*
X19052911Y42230941D01*
X19134150Y42231861D01*
X19228493Y42232457D01*
X19337137Y42232764D01*
X19461277Y42232815D01*
X19602110Y42232644D01*
G37*
D17*
%TO.C,D5*%
X12210000Y32700000D02*
X9550000Y32700000D01*
X12210000Y31000000D02*
X9550000Y31000000D01*
X12210000Y31000000D02*
X12210000Y32700000D01*
%TO.C,Q7*%
X19440000Y56225000D02*
X19440000Y56875000D01*
X19440000Y56225000D02*
X19440000Y55575000D01*
X22560000Y56225000D02*
X22560000Y57900000D01*
X22560000Y56225000D02*
X22560000Y55575000D01*
%TO.C,L1*%
X7940000Y11410000D02*
X7940000Y10610000D01*
X7940000Y6790000D02*
X7940000Y7590000D01*
X13060000Y11410000D02*
X7940000Y11410000D01*
X13060000Y11410000D02*
X13060000Y10610000D01*
X13060000Y6790000D02*
X7940000Y6790000D01*
X13060000Y6790000D02*
X13060000Y7590000D01*
%TO.C,D7*%
X25040000Y28450000D02*
X25040000Y26750000D01*
X25040000Y28450000D02*
X27700000Y28450000D01*
X25040000Y26750000D02*
X27700000Y26750000D01*
%TO.C,C2*%
X15340000Y2490580D02*
X15340000Y2209420D01*
X16360000Y2490580D02*
X16360000Y2209420D01*
%TO.C,TP1*%
X16500000Y43100000D02*
G75*
G02*
X15100000Y43100000I-700000J0D01*
G01*
X15100000Y43100000D02*
G75*
G02*
X16500000Y43100000I700000J0D01*
G01*
%TO.C,TP2*%
X16500000Y45100000D02*
G75*
G02*
X15100000Y45100000I-700000J0D01*
G01*
X15100000Y45100000D02*
G75*
G02*
X16500000Y45100000I700000J0D01*
G01*
%TO.C,R10*%
X380295Y53727019D02*
X380295Y53252503D01*
X1425295Y53727019D02*
X1425295Y53252503D01*
%TO.C,R4*%
X8091439Y44605057D02*
X8091439Y45079573D01*
X9136439Y44605057D02*
X9136439Y45079573D01*
%TO.C,R14*%
X10638730Y34922500D02*
X10164214Y34922500D01*
X10638730Y33877500D02*
X10164214Y33877500D01*
%TO.C,R16*%
X17837258Y55322500D02*
X17362742Y55322500D01*
X17837258Y54277500D02*
X17362742Y54277500D01*
%TO.C,R18*%
X20787742Y59522500D02*
X21262258Y59522500D01*
X20787742Y58477500D02*
X21262258Y58477500D01*
%TO.C,J4*%
X-7660000Y29860000D02*
X6650000Y29860000D01*
X-7660000Y14140000D02*
X-7660000Y29860000D01*
X-7660000Y14140000D02*
X6650000Y14140000D01*
X10760000Y20710000D02*
X10760000Y24450000D01*
X6650000Y29860000D02*
G75*
G02*
X10580413Y26951648I0J-4110000D01*
G01*
X10172957Y16133194D02*
G75*
G02*
X6650000Y14140001I-3522956J2116805D01*
G01*
%TO.C,Q1*%
X26877810Y45598717D02*
X29091054Y47811962D01*
X29897156Y43526894D02*
X31636639Y45266377D01*
%TD*%
%LPC*%
D19*
%TO.C,R13*%
X11226472Y37400000D03*
X9576472Y37400000D03*
%TD*%
D20*
%TO.C,R19*%
X11741404Y44030268D03*
X11741404Y45680268D03*
%TD*%
D21*
%TO.C,C11*%
X16825000Y56450000D03*
X18375000Y56450000D03*
%TD*%
D22*
%TO.C,C9*%
X13296697Y44079327D03*
X13296697Y45629327D03*
%TD*%
D23*
%TO.C,Q10*%
X24765301Y48361765D03*
X25217849Y47909216D03*
X25684539Y47442526D03*
X26137088Y46989978D03*
D24*
X26741664Y48966341D03*
%TD*%
D20*
%TO.C,R8*%
X18000000Y61425000D03*
X18000000Y63075000D03*
%TD*%
D25*
%TO.C,H4*%
X19150000Y-5150000D03*
X20094581Y-2869581D03*
X20094581Y-7430419D03*
X22375000Y-1925000D03*
D26*
X22375000Y-5150000D03*
D25*
X22375000Y-8375000D03*
X24655419Y-2869581D03*
X24655419Y-7430419D03*
X25600000Y-5150000D03*
%TD*%
D27*
%TO.C,C7*%
X4956798Y2833571D03*
X4956798Y1283571D03*
%TD*%
D28*
%TO.C,H1*%
X26000000Y60625000D03*
%TD*%
%TO.C,H2*%
X21850000Y3100000D03*
%TD*%
D29*
%TO.C,TP8*%
X19100000Y45100000D03*
%TD*%
D30*
%TO.C,R15*%
X19975000Y53475000D03*
X21625000Y53475000D03*
%TD*%
D31*
%TO.C,D2*%
X18415000Y58085000D03*
X18415000Y59185000D03*
X16585000Y59185000D03*
X16585000Y58085000D03*
%TD*%
D32*
%TO.C,R1*%
X8229310Y2882093D03*
X8229310Y1232093D03*
%TD*%
D33*
%TO.C,J6*%
X6001472Y39040000D03*
X6001472Y33260000D03*
D34*
X7446472Y39400000D03*
X7446472Y38600000D03*
D35*
X7446472Y37400000D03*
X7446472Y36400000D03*
X7446472Y35900000D03*
X7446472Y34900000D03*
D34*
X7446472Y33700000D03*
X7446472Y32900000D03*
X7446472Y32900000D03*
X7446472Y33700000D03*
D35*
X7446472Y34400000D03*
X7446472Y35400000D03*
X7446472Y36900000D03*
X7446472Y37900000D03*
D34*
X7446472Y38600000D03*
X7446472Y39400000D03*
D36*
X6531472Y40470000D03*
D37*
X2351472Y40470000D03*
D36*
X6531472Y31830000D03*
D37*
X2351472Y31830000D03*
%TD*%
D20*
%TO.C,R9*%
X16400000Y61425000D03*
X16400000Y63075000D03*
%TD*%
D38*
%TO.C,Q6*%
X27450000Y6860000D03*
X27450000Y6220000D03*
X27450000Y5560000D03*
X27450000Y4920000D03*
D39*
X29275000Y5890000D03*
%TD*%
D20*
%TO.C,R7*%
X10166093Y44025000D03*
X10166093Y45675000D03*
%TD*%
D40*
%TO.C,C5*%
X4000000Y5800000D03*
X4000000Y11400000D03*
%TD*%
%TO.C,C1*%
X17000000Y6100000D03*
X17000000Y11500000D03*
%TD*%
D25*
%TO.C,H3*%
X19155419Y69819581D03*
X20100000Y72100000D03*
X20100000Y67539162D03*
X22380419Y73044581D03*
D26*
X22380419Y69819581D03*
D25*
X22380419Y66594581D03*
X24660838Y72100000D03*
X24660838Y67539162D03*
X25605419Y69819581D03*
%TD*%
D30*
%TO.C,R12*%
X11591093Y42455364D03*
X13241093Y42455364D03*
%TD*%
D41*
%TO.C,TP3*%
X3850000Y44052432D03*
%TD*%
D22*
%TO.C,C8*%
X896494Y55825000D03*
X896494Y57375000D03*
%TD*%
D30*
%TO.C,R17*%
X16775000Y52800000D03*
X18425000Y52800000D03*
%TD*%
D42*
%TO.C,D1*%
X11800000Y12800000D03*
X9000000Y12800000D03*
%TD*%
D23*
%TO.C,Q9*%
X26665301Y23561765D03*
X27117849Y23109216D03*
X27584539Y22642526D03*
X28037088Y22189978D03*
D24*
X28641664Y24166341D03*
%TD*%
D23*
%TO.C,Q3*%
X30777396Y42275585D03*
X31229944Y41823036D03*
X31696634Y41356346D03*
X32149183Y40903798D03*
D24*
X32753759Y42880161D03*
%TD*%
D43*
%TO.C,Q8*%
X27371787Y33171786D03*
X26919238Y32719238D03*
X26452548Y32252548D03*
X26000000Y31799999D03*
D44*
X27976363Y31195423D03*
%TD*%
D27*
%TO.C,C3*%
X14100000Y3125000D03*
X14100000Y1575000D03*
%TD*%
D32*
%TO.C,R5*%
X897661Y51175000D03*
X897661Y49525000D03*
%TD*%
D19*
%TO.C,R11*%
X8741093Y42455364D03*
X7091093Y42455364D03*
%TD*%
D45*
%TO.C,J1*%
X41850000Y38750000D03*
X41850000Y25250000D03*
D46*
X35850000Y28400000D03*
D47*
X35850000Y35600000D03*
%TD*%
D48*
%TO.C,Q4*%
X18350000Y50537500D03*
X16450000Y50537500D03*
X17400000Y48662500D03*
%TD*%
D45*
%TO.C,J3*%
X41800000Y59350000D03*
X41800000Y45850000D03*
D46*
X35800000Y49000000D03*
D47*
X35800000Y56200000D03*
%TD*%
D49*
%TO.C,D4*%
X28607538Y53222462D03*
X30092462Y51737538D03*
%TD*%
D50*
%TO.C,U2*%
X2725000Y56600000D03*
X2725000Y55800000D03*
X2725000Y55000000D03*
X2725000Y54200000D03*
X2725000Y53400000D03*
X2725000Y52600000D03*
X2725000Y51800000D03*
X2725000Y51000000D03*
X2725000Y50200000D03*
X2725000Y49400000D03*
X2725000Y48600000D03*
D51*
X3825000Y47700000D03*
X4625000Y47700000D03*
X5425000Y47700000D03*
X6225000Y47700000D03*
X7025000Y47700000D03*
X7825000Y47700000D03*
X8625000Y47700000D03*
X9425000Y47700000D03*
X10225000Y47700000D03*
X11025000Y47700000D03*
X11825000Y47700000D03*
X12625000Y47700000D03*
X13425000Y47700000D03*
D50*
X14525000Y48600000D03*
X14525000Y49400000D03*
X14525000Y50200000D03*
X14525000Y51000000D03*
X14525000Y51800000D03*
X14525000Y52600000D03*
X14525000Y53400000D03*
X14525000Y54200000D03*
X14525000Y55000000D03*
X14525000Y55800000D03*
X14525000Y56600000D03*
D51*
X13425000Y57500000D03*
X12625000Y57500000D03*
X11825000Y57500000D03*
X11025000Y57500000D03*
X10225000Y57500000D03*
X9425000Y57500000D03*
X8625000Y57500000D03*
X7825000Y57500000D03*
X7025000Y57500000D03*
X6225000Y57500000D03*
X5425000Y57500000D03*
X4625000Y57500000D03*
X3825000Y57500000D03*
D52*
X6650000Y54575000D03*
D53*
X6650000Y52600000D03*
X6650000Y50625000D03*
X8625000Y54575000D03*
X8625000Y52600000D03*
X8625000Y50625000D03*
X10600000Y54575000D03*
X10600000Y52600000D03*
X10600000Y50625000D03*
D31*
X14575000Y57550000D03*
X14575000Y47650000D03*
X2675000Y47650000D03*
X2675000Y57550000D03*
%TD*%
D30*
%TO.C,R2*%
X9804309Y1303044D03*
X11454309Y1303044D03*
%TD*%
D27*
%TO.C,C10*%
X7091704Y45618967D03*
X7091704Y44068967D03*
%TD*%
D22*
%TO.C,C4*%
X8229310Y4325000D03*
X8229310Y5875000D03*
%TD*%
D45*
%TO.C,J2*%
X41850000Y18100000D03*
X41850000Y4600000D03*
D46*
X35850000Y7750000D03*
D47*
X35850000Y14950000D03*
%TD*%
D48*
%TO.C,Q2*%
X21675000Y62712500D03*
X19775000Y62712500D03*
X20725000Y60837500D03*
%TD*%
D54*
%TO.C,U1*%
X10062539Y4945409D03*
X10062539Y3995409D03*
X10062539Y3045409D03*
X12337539Y3045409D03*
X12337539Y3995409D03*
X12337539Y4945409D03*
%TD*%
D55*
%TO.C,D6*%
X27050000Y2350000D03*
X29150000Y2350000D03*
%TD*%
D43*
%TO.C,Q5*%
X29237088Y12410022D03*
X28784539Y11957474D03*
X28317849Y11490784D03*
X27865301Y11038235D03*
D44*
X29841664Y10433659D03*
%TD*%
D27*
%TO.C,C6*%
X6604021Y2833571D03*
X6604021Y1283571D03*
%TD*%
D56*
%TO.C,D5*%
X11650000Y31850000D03*
X9550000Y31850000D03*
%TD*%
D48*
%TO.C,Q7*%
X21950000Y57162500D03*
X20050000Y57162500D03*
X21000000Y55287500D03*
%TD*%
D57*
%TO.C,L1*%
X12350000Y9100000D03*
X8650000Y9100000D03*
%TD*%
D55*
%TO.C,D7*%
X25600000Y27600000D03*
X27700000Y27600000D03*
%TD*%
D27*
%TO.C,C2*%
X15850000Y3125000D03*
X15850000Y1575000D03*
%TD*%
D29*
%TO.C,TP1*%
X15800000Y43100000D03*
%TD*%
%TO.C,TP2*%
X15800000Y45100000D03*
%TD*%
D32*
%TO.C,R10*%
X902795Y54314761D03*
X902795Y52664761D03*
%TD*%
D20*
%TO.C,R4*%
X8613939Y44017315D03*
X8613939Y45667315D03*
%TD*%
D19*
%TO.C,R14*%
X11226472Y34400000D03*
X9576472Y34400000D03*
%TD*%
%TO.C,R16*%
X18425000Y54800000D03*
X16775000Y54800000D03*
%TD*%
D30*
%TO.C,R18*%
X20200000Y59000000D03*
X21850000Y59000000D03*
%TD*%
D45*
%TO.C,J4*%
X2800000Y15250000D03*
X2800000Y28750000D03*
D46*
X8800000Y18400000D03*
D47*
X8800000Y25600000D03*
%TD*%
D23*
%TO.C,Q1*%
X27789978Y45337088D03*
X28242526Y44884539D03*
X28709216Y44417849D03*
X29161765Y43965301D03*
D24*
X29766341Y45941664D03*
%TD*%
D58*
%TO.C,SW2*%
X2555000Y19100000D03*
X730000Y19100000D03*
%TD*%
%TO.C,SW1*%
X2550000Y24900000D03*
X725000Y24900000D03*
%TD*%
%LPD*%
M02*
