%TF.GenerationSoftware,KiCad,Pcbnew,8.0.0*%
%TF.CreationDate,2024-05-13T20:24:04+10:00*%
%TF.ProjectId,JonoBro,4a6f6e6f-4272-46f2-9e6b-696361645f70,0.2*%
%TF.SameCoordinates,Original*%
%TF.FileFunction,Profile,NP*%
%FSLAX46Y46*%
G04 Gerber Fmt 4.6, Leading zero omitted, Abs format (unit mm)*
G04 Created by KiCad (PCBNEW 8.0.0) date 2024-05-13 20:24:04*
%MOMM*%
%LPD*%
G01*
G04 APERTURE LIST*
%TA.AperFunction,Profile*%
%ADD10C,0.100000*%
%TD*%
G04 APERTURE END LIST*
D10*
X17346679Y69851043D02*
X17350000Y65850000D01*
X44650000Y4750000D02*
G75*
G02*
X39650000Y-250000I-5000100J100D01*
G01*
X39688353Y64846269D02*
X28350000Y64850000D01*
X0Y59846269D02*
G75*
G02*
X5000000Y64846300I5000000J31D01*
G01*
X17350000Y65850000D02*
G75*
G02*
X16350000Y64850000I-1000000J0D01*
G01*
X5000000Y64846269D02*
X16350000Y64850000D01*
X16318579Y-143715D02*
G75*
G02*
X17318585Y-1143715I21J-999985D01*
G01*
X27350410Y69848133D02*
X27350000Y65850000D01*
X0Y59846269D02*
X0Y4800000D01*
X44688353Y59846269D02*
X44650000Y4750000D01*
X28323976Y-233623D02*
X39650000Y-250000D01*
X17346680Y69851043D02*
G75*
G02*
X27350401Y69848133I5001860J-2913D01*
G01*
X17318767Y-5226864D02*
X17318579Y-1143715D01*
X27322499Y-5229774D02*
X27323976Y-1233623D01*
X28350000Y64850000D02*
G75*
G02*
X27350000Y65850000I0J1000000D01*
G01*
X5000000Y-200000D02*
G75*
G02*
X0Y4800000I0J5000000D01*
G01*
X27323976Y-1233623D02*
G75*
G02*
X28323976Y-233576I1000024J23D01*
G01*
X27322498Y-5229774D02*
G75*
G02*
X17318761Y-5226864I-5001868J2904D01*
G01*
X39688353Y64846269D02*
G75*
G02*
X44688369Y59846269I47J-4999969D01*
G01*
X5000000Y-200000D02*
X16318579Y-143715D01*
M02*
