%TF.GenerationSoftware,KiCad,Pcbnew,8.0.0*%
%TF.CreationDate,2024-05-13T20:24:04+10:00*%
%TF.ProjectId,JonoBro,4a6f6e6f-4272-46f2-9e6b-696361645f70,0.2*%
%TF.SameCoordinates,Original*%
%TF.FileFunction,Soldermask,Bot*%
%TF.FilePolarity,Negative*%
%FSLAX46Y46*%
G04 Gerber Fmt 4.6, Leading zero omitted, Abs format (unit mm)*
G04 Created by KiCad (PCBNEW 8.0.0) date 2024-05-13 20:24:04*
%MOMM*%
%LPD*%
G01*
G04 APERTURE LIST*
%ADD10C,0.900000*%
%ADD11C,8.600000*%
%ADD12C,2.500000*%
%ADD13C,0.650000*%
%ADD14O,2.100000X1.000000*%
%ADD15O,1.600000X1.000000*%
%ADD16C,3.200000*%
%ADD17R,2.000000X0.900000*%
%ADD18R,4.100000X4.100000*%
%ADD19C,4.100000*%
%ADD20C,1.000000*%
%ADD21C,0.750000*%
%ADD22R,0.900000X1.400000*%
G04 APERTURE END LIST*
D10*
%TO.C,H4*%
X19150000Y-5150000D03*
X20094581Y-2869581D03*
X20094581Y-7430419D03*
X22375000Y-1925000D03*
D11*
X22375000Y-5150000D03*
D10*
X22375000Y-8375000D03*
X24655419Y-2869581D03*
X24655419Y-7430419D03*
X25600000Y-5150000D03*
%TD*%
D12*
%TO.C,H1*%
X26000000Y60625000D03*
%TD*%
%TO.C,H2*%
X21850000Y3100000D03*
%TD*%
D13*
%TO.C,J6*%
X6001472Y39040000D03*
X6001472Y33260000D03*
D14*
X6531472Y40470000D03*
D15*
X2351472Y40470000D03*
D14*
X6531472Y31830000D03*
D15*
X2351472Y31830000D03*
%TD*%
D10*
%TO.C,H3*%
X19155419Y69819581D03*
X20100000Y72100000D03*
X20100000Y67539162D03*
X22380419Y73044581D03*
D11*
X22380419Y69819581D03*
D10*
X22380419Y66594581D03*
X24660838Y72100000D03*
X24660838Y67539162D03*
X25605419Y69819581D03*
%TD*%
D16*
%TO.C,TP3*%
X3850000Y44052432D03*
%TD*%
D17*
%TO.C,J1*%
X41850000Y38750000D03*
X41850000Y25250000D03*
D18*
X35850000Y28400000D03*
D19*
X35850000Y35600000D03*
%TD*%
D17*
%TO.C,J3*%
X41800000Y59350000D03*
X41800000Y45850000D03*
D18*
X35800000Y49000000D03*
D19*
X35800000Y56200000D03*
%TD*%
D17*
%TO.C,J2*%
X41850000Y18100000D03*
X41850000Y4600000D03*
D18*
X35850000Y7750000D03*
D19*
X35850000Y14950000D03*
%TD*%
D17*
%TO.C,J4*%
X2800000Y15250000D03*
X2800000Y28750000D03*
D18*
X8800000Y18400000D03*
D19*
X8800000Y25600000D03*
%TD*%
D20*
%TO.C,TP5*%
X12750000Y54350000D03*
%TD*%
%TO.C,TP4*%
X12739328Y56000000D03*
%TD*%
D21*
%TO.C,SW2*%
X2555000Y19100000D03*
X730000Y19100000D03*
D22*
X1005000Y20900000D03*
X1005000Y17300000D03*
X2305000Y20900000D03*
X2305000Y17300000D03*
%TD*%
D20*
%TO.C,TP6*%
X9600000Y55600000D03*
%TD*%
D21*
%TO.C,SW1*%
X2550000Y24900000D03*
X725000Y24900000D03*
D22*
X1000000Y26700000D03*
X1000000Y23100000D03*
X2300000Y26700000D03*
X2300000Y23100000D03*
%TD*%
M02*
