%TF.GenerationSoftware,KiCad,Pcbnew,7.0.7*%
%TF.CreationDate,2023-09-08T10:51:00+10:00*%
%TF.ProjectId,JonoBro,4a6f6e6f-4272-46f2-9e6b-696361645f70,rev?*%
%TF.SameCoordinates,Original*%
%TF.FileFunction,Copper,L2,Bot*%
%TF.FilePolarity,Positive*%
%FSLAX46Y46*%
G04 Gerber Fmt 4.6, Leading zero omitted, Abs format (unit mm)*
G04 Created by KiCad (PCBNEW 7.0.7) date 2023-09-08 10:51:00*
%MOMM*%
%LPD*%
G01*
G04 APERTURE LIST*
%TA.AperFunction,ComponentPad*%
%ADD10R,1.700000X1.700000*%
%TD*%
%TA.AperFunction,ComponentPad*%
%ADD11O,1.700000X1.700000*%
%TD*%
%TA.AperFunction,ComponentPad*%
%ADD12C,2.800000*%
%TD*%
%TA.AperFunction,ComponentPad*%
%ADD13R,2.000000X0.900000*%
%TD*%
%TA.AperFunction,ComponentPad*%
%ADD14R,4.100000X4.100000*%
%TD*%
%TA.AperFunction,ComponentPad*%
%ADD15C,4.100000*%
%TD*%
%TA.AperFunction,ViaPad*%
%ADD16C,0.800000*%
%TD*%
%TA.AperFunction,ViaPad*%
%ADD17C,0.600000*%
%TD*%
%TA.AperFunction,Conductor*%
%ADD18C,0.400000*%
%TD*%
%TA.AperFunction,Conductor*%
%ADD19C,0.200000*%
%TD*%
G04 APERTURE END LIST*
D10*
%TO.P,J5,1,Pin_1*%
%TO.N,GND*%
X144974320Y-118053731D03*
D11*
%TO.P,J5,2,Pin_2*%
%TO.N,unconnected-(J5-Pin_2-Pad2)*%
X147514320Y-118053731D03*
%TO.P,J5,3,Pin_3*%
%TO.N,Net-(J5-Pin_3)*%
X150054320Y-118053731D03*
%TO.P,J5,4,Pin_4*%
%TO.N,Net-(J5-Pin_4)*%
X152594320Y-118053731D03*
%TO.P,J5,5,Pin_5*%
%TO.N,unconnected-(J5-Pin_5-Pad5)*%
X155134320Y-118053731D03*
%TO.P,J5,6,Pin_6*%
%TO.N,+3.3V*%
X157674320Y-118053731D03*
%TD*%
D12*
%TO.P,TP3,1,1*%
%TO.N,SWITCH*%
X121600000Y-104600000D03*
%TD*%
D13*
%TO.P,J1,1,Pin_1*%
%TO.N,+12V*%
X121850000Y-81571987D03*
D14*
X127850000Y-71221987D03*
D13*
X121850000Y-68071987D03*
D15*
%TO.P,J1,2,Pin_2*%
%TO.N,Net-(D4-A)*%
X127850000Y-78421987D03*
%TD*%
D13*
%TO.P,J2,1,Pin_1*%
%TO.N,+12V*%
X159138353Y-87503731D03*
D14*
X153138353Y-97853731D03*
D13*
X159138353Y-101003731D03*
D15*
%TO.P,J2,2,Pin_2*%
%TO.N,Net-(D4-A)*%
X153138353Y-90653731D03*
%TD*%
D13*
%TO.P,J4,1,Pin_1*%
%TO.N,+12V*%
X121950000Y-100950000D03*
D14*
X127950000Y-97800000D03*
D13*
X121950000Y-87450000D03*
D15*
%TO.P,J4,2,Pin_2*%
%TO.N,GND*%
X127950000Y-90600000D03*
%TD*%
D13*
%TO.P,J3,1,Pin_1*%
%TO.N,+12V*%
X159062574Y-68479017D03*
D14*
X153062574Y-78829017D03*
D13*
X159062574Y-81979017D03*
D15*
%TO.P,J3,2,Pin_2*%
%TO.N,Net-(D4-A)*%
X153062574Y-71629017D03*
%TD*%
D16*
%TO.N,+3.3V*%
X139588353Y-110253731D03*
D17*
X154088353Y-114253731D03*
D16*
X140088353Y-102253731D03*
D17*
%TO.N,MOSFET*%
X150901103Y-102728231D03*
X140088353Y-100253731D03*
D16*
%TO.N,+12V*%
X124800000Y-100600000D03*
X160088353Y-78253731D03*
X120500000Y-92262294D03*
X157088353Y-92253731D03*
X127690313Y-101105036D03*
X120500000Y-94253731D03*
X119500000Y-73000000D03*
X160088353Y-80253731D03*
X134088353Y-68253731D03*
X122088353Y-99253731D03*
X124088353Y-70253731D03*
X142088353Y-68253731D03*
X150688353Y-64653731D03*
X130088353Y-68253731D03*
X159088353Y-93253731D03*
X150688353Y-67053731D03*
X122682711Y-71327774D03*
X161634014Y-83253731D03*
X141338353Y-103503731D03*
X125088353Y-64809858D03*
X130658071Y-97203387D03*
X154088353Y-76253731D03*
X119205743Y-91500000D03*
X156088353Y-82253731D03*
X161634014Y-91253731D03*
X148088353Y-68253731D03*
X161634014Y-79253731D03*
X158088353Y-70253731D03*
X161634014Y-89253731D03*
X124088353Y-72253731D03*
X124088353Y-74253731D03*
X119500000Y-77500000D03*
X124088353Y-92253731D03*
X160088353Y-72253731D03*
X124088353Y-78253731D03*
X126088353Y-74253731D03*
X152338861Y-94837473D03*
X122682711Y-73253731D03*
X160088353Y-76253731D03*
X124088353Y-80253731D03*
X161634014Y-95253731D03*
X161634014Y-85253731D03*
X119205743Y-93500000D03*
X124088353Y-96253731D03*
X161634014Y-69253731D03*
X157088353Y-100253731D03*
X119500000Y-71000000D03*
X119205743Y-89232981D03*
X158088353Y-72253731D03*
X121088353Y-78253731D03*
X161634014Y-73253731D03*
X132728347Y-70231587D03*
X157088353Y-85253731D03*
X156088353Y-80253731D03*
X121088353Y-70253731D03*
X130088353Y-101105036D03*
X120314198Y-100253731D03*
X161634014Y-81253731D03*
X155088353Y-85253731D03*
X122088353Y-89253731D03*
X140088353Y-70253731D03*
X132728347Y-72253731D03*
X160088353Y-70253731D03*
X157088353Y-90253731D03*
X158088353Y-74253731D03*
X144088353Y-68253731D03*
X140088353Y-68253731D03*
X159091508Y-83593187D03*
X159088353Y-99253731D03*
X160088353Y-74253731D03*
X122640753Y-109728039D03*
X156088353Y-78253731D03*
X124600000Y-110000000D03*
X128088353Y-68253731D03*
X156532932Y-68359835D03*
X119205743Y-95500000D03*
X132088353Y-68253731D03*
X142088353Y-70253731D03*
X161634014Y-75253731D03*
X161634014Y-99253731D03*
X121088353Y-76253731D03*
X161634014Y-97253731D03*
X128000000Y-83200000D03*
X157088353Y-83593187D03*
X157088353Y-96253731D03*
X157088353Y-94253731D03*
X122682711Y-75253731D03*
X122682711Y-79253731D03*
X124088353Y-66253731D03*
X123423513Y-64809858D03*
X124088353Y-90253731D03*
X119500000Y-69000000D03*
X120500000Y-98253731D03*
X122088353Y-95253731D03*
X130710024Y-99575907D03*
X146088353Y-68253731D03*
X124088353Y-86253731D03*
X121500000Y-80000000D03*
X125088353Y-84253731D03*
X120500000Y-90237532D03*
X126088353Y-82253731D03*
X123088353Y-84253731D03*
X128213878Y-74320162D03*
X158088353Y-80253731D03*
X159088353Y-97253731D03*
X159088353Y-85253731D03*
X161634014Y-71253731D03*
X122682711Y-77253731D03*
X120314198Y-86253731D03*
X122088353Y-86253731D03*
X121088353Y-74253731D03*
X159088353Y-95253731D03*
X159088353Y-89253731D03*
X158088353Y-76253731D03*
X161634014Y-93253731D03*
X121088353Y-72253731D03*
X122088353Y-97253731D03*
X130277082Y-95211856D03*
X158088353Y-78253731D03*
X120500000Y-96253731D03*
X124088353Y-76253731D03*
X119205743Y-99000000D03*
X126534264Y-84400000D03*
X124088353Y-98253731D03*
X121088353Y-84253731D03*
X119500000Y-80000000D03*
X161634014Y-67198203D03*
X159088353Y-91253731D03*
X154511553Y-94837473D03*
X126088353Y-68253731D03*
X156088353Y-76253731D03*
X157088353Y-98253731D03*
X161634014Y-87253731D03*
X161634014Y-77253731D03*
X154088353Y-82253731D03*
X122088353Y-93253731D03*
X124088353Y-94253731D03*
X119500000Y-75500000D03*
X122088353Y-91253731D03*
X140088353Y-64453731D03*
X140888353Y-66653731D03*
D17*
%TO.N,SYS_LED*%
X146283741Y-109771572D03*
X142600305Y-109496581D03*
%TO.N,Net-(U2-EN{slash}CHIP_PU)*%
X148350650Y-101179231D03*
X148488353Y-104653731D03*
%TO.N,SWITCH*%
X146414570Y-119653731D03*
D16*
X120500000Y-118500000D03*
D17*
X146288353Y-111053731D03*
D16*
%TO.N,Net-(Q1-G)*%
X142588353Y-90503731D03*
X138338353Y-87003731D03*
D17*
%TO.N,Net-(U2-GPIO9)*%
X146488353Y-114653731D03*
X148888353Y-119253731D03*
D16*
%TO.N,Net-(D4-A)*%
X144088353Y-75253731D03*
X132652798Y-76446708D03*
X138088353Y-80253731D03*
X136088353Y-74253731D03*
X155253767Y-88988708D03*
X151677328Y-86868310D03*
X153000000Y-93000000D03*
X131000000Y-77500000D03*
X148088353Y-87253731D03*
X140088353Y-78253731D03*
X134088353Y-75653731D03*
X142088353Y-81253731D03*
X152088353Y-88253731D03*
X129050764Y-75661633D03*
X138088353Y-76253731D03*
X146088353Y-87253731D03*
X146088353Y-85253731D03*
X144088353Y-81253731D03*
X144088353Y-79253731D03*
X142088353Y-83253731D03*
X146088353Y-89253731D03*
X148088353Y-91253731D03*
X142088353Y-73253731D03*
X136088353Y-82253731D03*
X148088353Y-89253731D03*
X148088353Y-81253731D03*
X136088353Y-78253731D03*
X146088353Y-81253731D03*
X150088353Y-83253731D03*
X150088353Y-85253731D03*
X155050227Y-73211949D03*
X136088353Y-80253731D03*
X132652798Y-80253731D03*
X142088353Y-75253731D03*
X146088353Y-75253731D03*
X134088353Y-77253731D03*
X148088353Y-83253731D03*
X138088353Y-74253731D03*
X146088353Y-79253731D03*
X153743529Y-69110370D03*
X134088353Y-79253731D03*
X148088353Y-85253731D03*
X125699970Y-76518114D03*
X146088353Y-83253731D03*
X146088353Y-77253731D03*
X144088353Y-73253731D03*
X134088353Y-81253731D03*
X148088353Y-73253731D03*
X140716973Y-82086847D03*
X144088353Y-85253731D03*
X142088353Y-77253731D03*
X148088353Y-79253731D03*
X140242265Y-85910886D03*
X141059818Y-84855978D03*
X144088353Y-77253731D03*
X151661197Y-74609941D03*
X132652798Y-78253731D03*
X139088353Y-82253731D03*
X155540239Y-70725594D03*
X150088353Y-89253731D03*
X130688353Y-81353731D03*
X136088353Y-76253731D03*
X142088353Y-79253731D03*
X150088353Y-87253731D03*
X140088353Y-80253731D03*
X146088353Y-71253731D03*
X148088353Y-75253731D03*
X146088353Y-73253731D03*
X138088353Y-78253731D03*
X148088353Y-77253731D03*
X131000000Y-79500000D03*
X150088353Y-71253731D03*
X140088353Y-76253731D03*
X148088353Y-71253731D03*
X153985616Y-87713223D03*
X140088353Y-74253731D03*
X155150383Y-91780071D03*
X144088353Y-83253731D03*
X125564736Y-80079272D03*
%TD*%
D18*
%TO.N,+3.3V*%
X140088353Y-102253731D02*
X140088353Y-109753731D01*
X157112996Y-118253731D02*
X157674320Y-118253731D01*
X140088353Y-109753731D02*
X139588353Y-110253731D01*
X154088353Y-114253731D02*
X154088353Y-115229088D01*
X154088353Y-115229088D02*
X157112996Y-118253731D01*
D19*
%TO.N,MOSFET*%
X140088353Y-100253731D02*
X141528515Y-101693893D01*
X148102121Y-100579231D02*
X148839353Y-100579231D01*
X146987459Y-101693893D02*
X148102121Y-100579231D01*
X148839353Y-100579231D02*
X151088353Y-102828231D01*
X141528515Y-101693893D02*
X146987459Y-101693893D01*
%TO.N,SYS_LED*%
X142600305Y-109496581D02*
X142581203Y-109496581D01*
X142857455Y-109753731D02*
X142600305Y-109496581D01*
X146265900Y-109753731D02*
X142857455Y-109753731D01*
X142581203Y-109496581D02*
X142588353Y-109503731D01*
X146283741Y-109771572D02*
X146265900Y-109753731D01*
%TO.N,Net-(U2-EN{slash}CHIP_PU)*%
X148350650Y-104516028D02*
X148350650Y-101179231D01*
X148488353Y-104653731D02*
X148350650Y-104516028D01*
%TO.N,SWITCH*%
X146414570Y-119653731D02*
X146364320Y-119603481D01*
X145888353Y-111453731D02*
X146288353Y-111053731D01*
X145888353Y-115053731D02*
X145888353Y-111453731D01*
X146364320Y-115529698D02*
X145888353Y-115053731D01*
X118638331Y-105361669D02*
X118638331Y-115638331D01*
X146364320Y-119603481D02*
X146364320Y-115529698D01*
X118638331Y-115638331D02*
X119500000Y-116500000D01*
X119500000Y-117500000D02*
X120500000Y-118500000D01*
X119500000Y-116500000D02*
X119500000Y-117500000D01*
X121600000Y-104600000D02*
X119400000Y-104600000D01*
X119400000Y-104600000D02*
X118638331Y-105361669D01*
%TO.N,Net-(Q1-G)*%
X138338353Y-87003731D02*
X139088353Y-87003731D01*
X139088353Y-87003731D02*
X142588353Y-90503731D01*
%TO.N,Net-(U2-GPIO9)*%
X148888353Y-119253731D02*
X148888353Y-117053731D01*
X148888353Y-117053731D02*
X146488353Y-114653731D01*
%TD*%
%TA.AperFunction,Conductor*%
%TO.N,Net-(D4-A)*%
G36*
X153990314Y-68273613D02*
G01*
X154039267Y-68302431D01*
X156240126Y-70407601D01*
X156274965Y-70468166D01*
X156276414Y-70519391D01*
X155700815Y-73685187D01*
X155669455Y-73747624D01*
X155623328Y-73778740D01*
X149838352Y-76003731D01*
X149588352Y-81003729D01*
X149588353Y-81003731D01*
X155859270Y-88717954D01*
X155886283Y-88782391D01*
X155886997Y-88799816D01*
X155790426Y-92083231D01*
X155768779Y-92149663D01*
X155726700Y-92187981D01*
X153133147Y-93628844D01*
X153064984Y-93644194D01*
X153039056Y-93639733D01*
X145015291Y-91361380D01*
X144967318Y-91335249D01*
X136338353Y-83753731D01*
X136338352Y-83753730D01*
X131292163Y-82754485D01*
X131284667Y-82752507D01*
X125027684Y-80675577D01*
X124970259Y-80635775D01*
X124943469Y-80571245D01*
X124948816Y-80519576D01*
X124974027Y-80441987D01*
X124993813Y-80253731D01*
X124974027Y-80065475D01*
X124915532Y-79885447D01*
X124820886Y-79721515D01*
X124820885Y-79721514D01*
X124817637Y-79715888D01*
X124819842Y-79714614D01*
X124800201Y-79659533D01*
X124800000Y-79652478D01*
X124800000Y-78854984D01*
X124818476Y-78792059D01*
X124817637Y-78791575D01*
X124819635Y-78788113D01*
X124819685Y-78787945D01*
X124819991Y-78787496D01*
X124820884Y-78785949D01*
X124820886Y-78785947D01*
X124915532Y-78622015D01*
X124974027Y-78441987D01*
X124993813Y-78253731D01*
X124974027Y-78065475D01*
X124915532Y-77885447D01*
X124820886Y-77721515D01*
X124820885Y-77721514D01*
X124817637Y-77715888D01*
X124819842Y-77714614D01*
X124800201Y-77659533D01*
X124800000Y-77652478D01*
X124800000Y-76854984D01*
X124818476Y-76792059D01*
X124817637Y-76791575D01*
X124819635Y-76788113D01*
X124819685Y-76787945D01*
X124819991Y-76787496D01*
X124820884Y-76785949D01*
X124820886Y-76785947D01*
X124915532Y-76622015D01*
X124974027Y-76441987D01*
X124993813Y-76253731D01*
X124974715Y-76072029D01*
X124987284Y-76003305D01*
X125035016Y-75952281D01*
X125070394Y-75938195D01*
X128019875Y-75264028D01*
X128195963Y-75223780D01*
X128223593Y-75220662D01*
X128308522Y-75220662D01*
X128308524Y-75220662D01*
X128493681Y-75181306D01*
X128600713Y-75133651D01*
X128623485Y-75126060D01*
X131500334Y-74468494D01*
X131800005Y-74399999D01*
X140522643Y-71983790D01*
X153920455Y-68272539D01*
X153990314Y-68273613D01*
G37*
%TD.AperFunction*%
%TD*%
%TA.AperFunction,Conductor*%
%TO.N,+12V*%
G36*
X158302444Y-63763083D02*
G01*
X158504492Y-63771911D01*
X158509407Y-63772324D01*
X158709704Y-63797290D01*
X158722675Y-63798907D01*
X158729934Y-63799862D01*
X158925885Y-63825658D01*
X158930428Y-63826432D01*
X159141243Y-63870634D01*
X159341096Y-63914939D01*
X159345336Y-63916038D01*
X159551946Y-63977547D01*
X159747254Y-64039127D01*
X159751114Y-64040487D01*
X159952084Y-64118904D01*
X160141360Y-64197304D01*
X160144865Y-64198885D01*
X160264682Y-64257459D01*
X160338794Y-64293690D01*
X160520618Y-64388340D01*
X160523727Y-64390074D01*
X160709290Y-64500645D01*
X160770016Y-64539331D01*
X160882298Y-64610862D01*
X160884957Y-64612656D01*
X161060914Y-64738286D01*
X161223722Y-64863213D01*
X161226050Y-64865090D01*
X161391109Y-65004886D01*
X161543537Y-65144560D01*
X161697531Y-65298553D01*
X161837194Y-65450968D01*
X161976996Y-65616034D01*
X161978872Y-65618361D01*
X162103798Y-65781165D01*
X162140128Y-65832048D01*
X162229420Y-65957109D01*
X162231241Y-65959808D01*
X162341442Y-66132789D01*
X162452022Y-66318368D01*
X162453756Y-66321477D01*
X162548412Y-66503310D01*
X162643207Y-66697217D01*
X162644788Y-66700722D01*
X162723195Y-66890014D01*
X162801597Y-67090943D01*
X162802969Y-67094838D01*
X162864557Y-67290171D01*
X162926046Y-67496713D01*
X162927154Y-67500986D01*
X162971484Y-67700945D01*
X163015655Y-67911609D01*
X163016445Y-67916242D01*
X163043189Y-68119395D01*
X163069769Y-68332655D01*
X163070186Y-68337621D01*
X163079156Y-68543076D01*
X163087853Y-68753361D01*
X163087853Y-102839181D01*
X163068168Y-102906220D01*
X163015364Y-102951975D01*
X162963853Y-102963181D01*
X155895840Y-102963181D01*
X155895840Y-116170819D01*
X155876155Y-116237858D01*
X155823351Y-116283613D01*
X155754193Y-116293557D01*
X155690637Y-116264532D01*
X155684159Y-116258500D01*
X154525172Y-115099513D01*
X154491687Y-115038190D01*
X154488853Y-115011832D01*
X154488853Y-114602063D01*
X154508538Y-114535024D01*
X154509254Y-114534067D01*
X154513721Y-114527113D01*
X154513730Y-114527104D01*
X154573518Y-114396188D01*
X154594000Y-114253731D01*
X154573518Y-114111274D01*
X154513730Y-113980358D01*
X154419481Y-113871588D01*
X154298406Y-113793778D01*
X154298404Y-113793777D01*
X154298402Y-113793776D01*
X154298403Y-113793776D01*
X154160316Y-113753231D01*
X154160314Y-113753231D01*
X154016392Y-113753231D01*
X154016389Y-113753231D01*
X153878302Y-113793776D01*
X153757226Y-113871587D01*
X153662976Y-113980357D01*
X153662975Y-113980359D01*
X153603187Y-114111274D01*
X153582706Y-114253730D01*
X153603187Y-114396187D01*
X153642476Y-114482216D01*
X153662976Y-114527104D01*
X153662980Y-114527109D01*
X153667771Y-114534564D01*
X153664717Y-114536526D01*
X153686588Y-114584394D01*
X153687853Y-114602063D01*
X153687853Y-115292517D01*
X153687854Y-115292527D01*
X153694699Y-115313595D01*
X153699240Y-115332506D01*
X153702707Y-115354392D01*
X153702708Y-115354395D01*
X153712765Y-115374133D01*
X153720210Y-115392106D01*
X153727057Y-115413178D01*
X153740079Y-115431102D01*
X153750243Y-115447688D01*
X153760303Y-115467430D01*
X153781217Y-115488344D01*
X153781246Y-115488375D01*
X155091583Y-116798711D01*
X155125068Y-116860034D01*
X155120084Y-116929726D01*
X155078212Y-116985659D01*
X155016058Y-117009795D01*
X154928387Y-117018430D01*
X154730363Y-117078500D01*
X154658813Y-117116745D01*
X154547870Y-117176046D01*
X154547868Y-117176047D01*
X154547867Y-117176048D01*
X154387909Y-117307320D01*
X154256637Y-117467278D01*
X154256635Y-117467281D01*
X154235440Y-117506934D01*
X154159089Y-117649774D01*
X154099019Y-117847798D01*
X154078737Y-118053730D01*
X154099019Y-118259663D01*
X154099020Y-118259665D01*
X154159088Y-118457685D01*
X154256635Y-118640181D01*
X154270241Y-118656760D01*
X154387909Y-118800141D01*
X154454726Y-118854975D01*
X154547870Y-118931416D01*
X154730366Y-119028963D01*
X154928386Y-119089031D01*
X154928385Y-119089031D01*
X154931462Y-119089334D01*
X155134320Y-119109314D01*
X155340254Y-119089031D01*
X155538274Y-119028963D01*
X155720770Y-118931416D01*
X155880730Y-118800141D01*
X156012005Y-118640181D01*
X156109552Y-118457685D01*
X156169620Y-118259665D01*
X156178255Y-118171992D01*
X156204416Y-118107206D01*
X156261450Y-118066847D01*
X156331250Y-118063730D01*
X156389337Y-118096465D01*
X156454735Y-118161862D01*
X156654712Y-118361839D01*
X156685691Y-118413523D01*
X156699088Y-118457684D01*
X156699088Y-118457685D01*
X156796635Y-118640181D01*
X156810241Y-118656760D01*
X156927909Y-118800141D01*
X156994726Y-118854975D01*
X157087870Y-118931416D01*
X157270366Y-119028963D01*
X157468386Y-119089031D01*
X157468385Y-119089031D01*
X157471462Y-119089334D01*
X157674320Y-119109314D01*
X157880254Y-119089031D01*
X158078274Y-119028963D01*
X158260770Y-118931416D01*
X158420730Y-118800141D01*
X158552005Y-118640181D01*
X158649552Y-118457685D01*
X158709620Y-118259665D01*
X158729903Y-118053731D01*
X158709620Y-117847797D01*
X158649552Y-117649777D01*
X158552005Y-117467281D01*
X158476707Y-117375529D01*
X158420730Y-117307320D01*
X158260772Y-117176048D01*
X158260773Y-117176048D01*
X158260770Y-117176046D01*
X158078274Y-117078499D01*
X157880254Y-117018431D01*
X157880252Y-117018430D01*
X157880254Y-117018430D01*
X157704637Y-117001134D01*
X157677160Y-116990039D01*
X157666784Y-116996708D01*
X157644003Y-117001134D01*
X157468387Y-117018430D01*
X157270363Y-117078500D01*
X157087866Y-117176048D01*
X156927909Y-117307321D01*
X156926829Y-117308638D01*
X156926089Y-117309141D01*
X156923603Y-117311628D01*
X156923131Y-117311156D01*
X156869079Y-117347967D01*
X156799234Y-117349831D01*
X156743302Y-117317645D01*
X156391069Y-116965412D01*
X156357584Y-116904089D01*
X156362568Y-116834397D01*
X156404440Y-116778464D01*
X156469904Y-116754047D01*
X156478750Y-116753731D01*
X157631849Y-116753731D01*
X157673838Y-116766060D01*
X157693686Y-116755903D01*
X157716791Y-116753731D01*
X162683586Y-116753731D01*
X162750625Y-116773416D01*
X162796380Y-116826220D01*
X162806324Y-116895378D01*
X162799103Y-116922806D01*
X162721519Y-117121637D01*
X162645415Y-117305362D01*
X162643834Y-117308866D01*
X162546740Y-117507473D01*
X162454556Y-117684551D01*
X162452822Y-117687660D01*
X162339795Y-117877342D01*
X162232245Y-118046157D01*
X162230413Y-118048872D01*
X162102192Y-118228454D01*
X161980096Y-118387571D01*
X161978219Y-118389899D01*
X161835614Y-118558271D01*
X161699018Y-118707337D01*
X161541976Y-118864377D01*
X161392919Y-119000960D01*
X161224538Y-119143568D01*
X161222211Y-119145445D01*
X161063099Y-119267534D01*
X160883507Y-119395757D01*
X160880792Y-119397588D01*
X160711967Y-119505141D01*
X160522301Y-119618155D01*
X160519192Y-119619889D01*
X160342100Y-119712076D01*
X160143491Y-119809167D01*
X160139987Y-119810748D01*
X159956284Y-119886839D01*
X159749794Y-119967408D01*
X159745900Y-119968780D01*
X159557510Y-120028179D01*
X159344087Y-120091715D01*
X159339815Y-120092823D01*
X159149194Y-120135082D01*
X158929240Y-120181198D01*
X158924608Y-120181988D01*
X158736236Y-120206786D01*
X158508272Y-120235199D01*
X158503306Y-120235616D01*
X158339517Y-120242767D01*
X158086464Y-120253231D01*
X146827311Y-120253231D01*
X146760272Y-120233546D01*
X146714517Y-120180742D01*
X146704573Y-120111584D01*
X146733598Y-120048028D01*
X146745336Y-120036290D01*
X146745694Y-120035876D01*
X146745698Y-120035874D01*
X146839947Y-119927104D01*
X146899735Y-119796188D01*
X146920217Y-119653731D01*
X146899735Y-119511274D01*
X146839947Y-119380358D01*
X146839945Y-119380356D01*
X146839944Y-119380353D01*
X146745703Y-119271593D01*
X146745697Y-119271587D01*
X146721778Y-119256215D01*
X146676025Y-119203410D01*
X146664820Y-119151901D01*
X146664820Y-118977713D01*
X146684505Y-118910674D01*
X146737309Y-118864919D01*
X146806467Y-118854975D01*
X146867485Y-118881860D01*
X146924050Y-118928281D01*
X146927870Y-118931416D01*
X147110366Y-119028963D01*
X147308386Y-119089031D01*
X147308385Y-119089031D01*
X147311462Y-119089334D01*
X147514320Y-119109314D01*
X147720254Y-119089031D01*
X147918274Y-119028963D01*
X148100770Y-118931416D01*
X148260730Y-118800141D01*
X148368000Y-118669431D01*
X148425745Y-118630097D01*
X148495589Y-118628226D01*
X148555358Y-118664413D01*
X148586074Y-118727169D01*
X148587853Y-118748096D01*
X148587853Y-118789991D01*
X148568168Y-118857030D01*
X148557566Y-118871193D01*
X148462978Y-118980353D01*
X148462975Y-118980359D01*
X148403187Y-119111274D01*
X148382706Y-119253731D01*
X148403187Y-119396187D01*
X148462975Y-119527102D01*
X148462976Y-119527104D01*
X148557225Y-119635874D01*
X148678300Y-119713684D01*
X148678303Y-119713685D01*
X148678302Y-119713685D01*
X148785460Y-119745148D01*
X148801713Y-119749921D01*
X148816389Y-119754230D01*
X148816391Y-119754231D01*
X148816392Y-119754231D01*
X148960315Y-119754231D01*
X148960315Y-119754230D01*
X149067474Y-119722766D01*
X149098403Y-119713685D01*
X149098403Y-119713684D01*
X149098406Y-119713684D01*
X149219481Y-119635874D01*
X149313730Y-119527104D01*
X149373518Y-119396188D01*
X149394000Y-119253731D01*
X149373518Y-119111274D01*
X149373517Y-119111272D01*
X149372515Y-119104302D01*
X149382459Y-119035144D01*
X149428213Y-118982340D01*
X149495253Y-118962655D01*
X149553706Y-118977296D01*
X149650366Y-119028963D01*
X149848386Y-119089031D01*
X149848385Y-119089031D01*
X149851462Y-119089334D01*
X150054320Y-119109314D01*
X150260254Y-119089031D01*
X150458274Y-119028963D01*
X150640770Y-118931416D01*
X150800730Y-118800141D01*
X150932005Y-118640181D01*
X151029552Y-118457685D01*
X151089620Y-118259665D01*
X151109903Y-118053731D01*
X151109903Y-118053730D01*
X151538737Y-118053730D01*
X151559019Y-118259663D01*
X151559020Y-118259665D01*
X151619088Y-118457685D01*
X151716635Y-118640181D01*
X151730241Y-118656760D01*
X151847909Y-118800141D01*
X151914726Y-118854975D01*
X152007870Y-118931416D01*
X152190366Y-119028963D01*
X152388386Y-119089031D01*
X152388385Y-119089031D01*
X152391462Y-119089334D01*
X152594320Y-119109314D01*
X152800254Y-119089031D01*
X152998274Y-119028963D01*
X153180770Y-118931416D01*
X153340730Y-118800141D01*
X153472005Y-118640181D01*
X153569552Y-118457685D01*
X153629620Y-118259665D01*
X153649903Y-118053731D01*
X153629620Y-117847797D01*
X153569552Y-117649777D01*
X153472005Y-117467281D01*
X153396707Y-117375529D01*
X153340730Y-117307320D01*
X153180772Y-117176048D01*
X153180773Y-117176048D01*
X153180770Y-117176046D01*
X152998274Y-117078499D01*
X152800254Y-117018431D01*
X152800252Y-117018430D01*
X152800254Y-117018430D01*
X152594320Y-116998148D01*
X152388387Y-117018430D01*
X152190363Y-117078500D01*
X152118813Y-117116745D01*
X152007870Y-117176046D01*
X152007868Y-117176047D01*
X152007867Y-117176048D01*
X151847909Y-117307320D01*
X151716637Y-117467278D01*
X151716635Y-117467281D01*
X151695440Y-117506934D01*
X151619089Y-117649774D01*
X151559019Y-117847798D01*
X151538737Y-118053730D01*
X151109903Y-118053730D01*
X151089620Y-117847797D01*
X151029552Y-117649777D01*
X150932005Y-117467281D01*
X150856707Y-117375529D01*
X150800730Y-117307320D01*
X150640772Y-117176048D01*
X150640773Y-117176048D01*
X150640770Y-117176046D01*
X150458274Y-117078499D01*
X150260254Y-117018431D01*
X150260252Y-117018430D01*
X150260254Y-117018430D01*
X150072783Y-116999966D01*
X150054320Y-116998148D01*
X150054319Y-116998148D01*
X149848387Y-117018430D01*
X149650363Y-117078500D01*
X149467866Y-117176048D01*
X149391517Y-117238706D01*
X149327207Y-117266018D01*
X149258339Y-117254226D01*
X149206780Y-117207074D01*
X149188853Y-117142852D01*
X149188853Y-117116577D01*
X149189448Y-117108001D01*
X149191125Y-117095971D01*
X149191127Y-117095967D01*
X149188919Y-117048199D01*
X149188853Y-117045337D01*
X149188853Y-117025890D01*
X149188853Y-117025887D01*
X149188362Y-117023263D01*
X149187371Y-117014726D01*
X149187101Y-117008878D01*
X149185939Y-116983740D01*
X149183140Y-116977403D01*
X149174684Y-116950098D01*
X149173414Y-116943298D01*
X149157089Y-116916933D01*
X149153083Y-116909331D01*
X149140560Y-116880968D01*
X149140559Y-116880967D01*
X149140559Y-116880966D01*
X149135662Y-116876069D01*
X149117916Y-116853665D01*
X149114271Y-116847778D01*
X149089525Y-116829091D01*
X149083047Y-116823454D01*
X147027748Y-114768155D01*
X146994263Y-114706832D01*
X146992692Y-114662825D01*
X146994000Y-114653731D01*
X146973518Y-114511274D01*
X146913730Y-114380358D01*
X146819481Y-114271588D01*
X146698406Y-114193778D01*
X146698404Y-114193777D01*
X146698402Y-114193776D01*
X146698403Y-114193776D01*
X146560316Y-114153231D01*
X146560314Y-114153231D01*
X146416392Y-114153231D01*
X146416388Y-114153231D01*
X146347787Y-114173374D01*
X146277917Y-114173374D01*
X146219139Y-114135599D01*
X146190115Y-114072043D01*
X146188853Y-114054397D01*
X146188853Y-111678231D01*
X146208538Y-111611192D01*
X146261342Y-111565437D01*
X146312853Y-111554231D01*
X146360315Y-111554231D01*
X146360315Y-111554230D01*
X146498406Y-111513684D01*
X146619481Y-111435874D01*
X146713730Y-111327104D01*
X146773518Y-111196188D01*
X146794000Y-111053731D01*
X146773518Y-110911274D01*
X146713730Y-110780358D01*
X146619481Y-110671588D01*
X146498406Y-110593778D01*
X146498404Y-110593777D01*
X146498402Y-110593776D01*
X146498403Y-110593776D01*
X146360316Y-110553231D01*
X146360314Y-110553231D01*
X146216392Y-110553231D01*
X146216389Y-110553231D01*
X146078302Y-110593776D01*
X145957226Y-110671587D01*
X145862976Y-110780357D01*
X145862975Y-110780359D01*
X145803187Y-110911274D01*
X145782706Y-111053731D01*
X145782706Y-111053732D01*
X145784014Y-111062834D01*
X145774066Y-111131992D01*
X145748956Y-111168155D01*
X145720301Y-111196811D01*
X145713817Y-111202453D01*
X145704121Y-111209775D01*
X145671912Y-111245105D01*
X145669938Y-111247173D01*
X145656180Y-111260931D01*
X145656175Y-111260937D01*
X145654659Y-111263151D01*
X145649329Y-111269879D01*
X145628436Y-111292797D01*
X145628436Y-111292798D01*
X145625931Y-111299264D01*
X145612612Y-111324533D01*
X145608698Y-111330246D01*
X145608696Y-111330252D01*
X145601597Y-111360430D01*
X145599055Y-111368638D01*
X145587853Y-111397557D01*
X145587853Y-111404482D01*
X145584559Y-111432872D01*
X145582974Y-111439608D01*
X145582974Y-111439612D01*
X145587258Y-111470321D01*
X145587853Y-111478897D01*
X145587853Y-114990889D01*
X145587258Y-114999463D01*
X145585580Y-115011494D01*
X145587787Y-115059240D01*
X145587853Y-115062103D01*
X145587853Y-115081576D01*
X145588346Y-115084213D01*
X145589335Y-115092746D01*
X145590768Y-115123722D01*
X145590769Y-115123728D01*
X145593567Y-115130065D01*
X145602017Y-115157351D01*
X145603290Y-115164160D01*
X145603290Y-115164161D01*
X145619613Y-115190524D01*
X145623616Y-115198117D01*
X145636147Y-115226496D01*
X145636148Y-115226497D01*
X145636149Y-115226499D01*
X145641042Y-115231392D01*
X145658788Y-115253796D01*
X145662430Y-115259679D01*
X145662433Y-115259682D01*
X145687179Y-115278370D01*
X145693664Y-115284013D01*
X146027501Y-115617850D01*
X146060986Y-115679173D01*
X146063820Y-115705531D01*
X146063820Y-116896084D01*
X146044135Y-116963123D01*
X145991331Y-117008878D01*
X145922173Y-117018822D01*
X145914628Y-117016752D01*
X145914530Y-117017246D01*
X145844072Y-117003231D01*
X145844068Y-117003231D01*
X144104572Y-117003231D01*
X144104567Y-117003231D01*
X144046090Y-117014862D01*
X144046089Y-117014863D01*
X143979767Y-117059178D01*
X143935452Y-117125500D01*
X143935451Y-117125501D01*
X143923820Y-117183978D01*
X143923820Y-118923483D01*
X143935451Y-118981960D01*
X143935452Y-118981961D01*
X143979767Y-119048283D01*
X144046089Y-119092598D01*
X144046090Y-119092599D01*
X144104567Y-119104230D01*
X144104570Y-119104231D01*
X144104572Y-119104231D01*
X145844070Y-119104231D01*
X145844071Y-119104230D01*
X145862649Y-119100535D01*
X145914530Y-119090216D01*
X145915352Y-119094352D01*
X145961763Y-119089334D01*
X146024261Y-119120571D01*
X146059950Y-119180638D01*
X146063820Y-119211377D01*
X146063820Y-119247984D01*
X146044135Y-119315023D01*
X146033536Y-119329182D01*
X146017020Y-119348243D01*
X145989193Y-119380357D01*
X145989192Y-119380359D01*
X145929404Y-119511274D01*
X145908923Y-119653731D01*
X145929404Y-119796187D01*
X145989192Y-119927102D01*
X145989193Y-119927104D01*
X146083442Y-120035874D01*
X146083443Y-120035874D01*
X146089250Y-120042576D01*
X146088168Y-120043512D01*
X146120806Y-120094296D01*
X146120806Y-120164165D01*
X146083032Y-120222944D01*
X146019477Y-120251969D01*
X146001829Y-120253231D01*
X123400000Y-120253231D01*
X123189066Y-120244506D01*
X122983716Y-120235525D01*
X122978754Y-120235108D01*
X122767751Y-120208807D01*
X122562327Y-120181762D01*
X122557695Y-120180973D01*
X122348495Y-120137109D01*
X122147052Y-120092450D01*
X122142779Y-120091342D01*
X121937378Y-120030192D01*
X121740894Y-119968241D01*
X121736999Y-119966869D01*
X121536953Y-119888810D01*
X121346802Y-119810048D01*
X121343297Y-119808467D01*
X121150082Y-119714011D01*
X120967521Y-119618976D01*
X120964412Y-119617242D01*
X120779507Y-119507064D01*
X120605840Y-119396425D01*
X120603126Y-119394593D01*
X120545129Y-119353185D01*
X120501440Y-119321992D01*
X120458320Y-119267019D01*
X120451765Y-119197457D01*
X120483859Y-119135395D01*
X120544411Y-119100535D01*
X120557310Y-119098137D01*
X120586060Y-119094352D01*
X120656762Y-119085044D01*
X120802841Y-119024536D01*
X120928282Y-118928282D01*
X121024536Y-118802841D01*
X121085044Y-118656762D01*
X121105682Y-118500000D01*
X121100111Y-118457687D01*
X121091113Y-118389334D01*
X121085044Y-118343238D01*
X121024536Y-118197159D01*
X120928282Y-118071718D01*
X120802841Y-117975464D01*
X120656762Y-117914956D01*
X120656760Y-117914955D01*
X120500001Y-117894318D01*
X120499999Y-117894318D01*
X120400938Y-117907359D01*
X120331902Y-117896593D01*
X120297072Y-117872101D01*
X119836819Y-117411848D01*
X119803334Y-117350525D01*
X119800500Y-117324167D01*
X119800500Y-116562838D01*
X119801095Y-116554262D01*
X119802771Y-116542239D01*
X119802773Y-116542235D01*
X119800566Y-116494490D01*
X119800500Y-116491627D01*
X119800500Y-116472159D01*
X119800499Y-116472153D01*
X119800130Y-116470182D01*
X119800008Y-116469527D01*
X119799016Y-116460980D01*
X119797585Y-116430008D01*
X119794788Y-116423675D01*
X119786332Y-116396368D01*
X119785061Y-116389567D01*
X119768736Y-116363202D01*
X119764735Y-116355612D01*
X119752206Y-116327235D01*
X119747309Y-116322338D01*
X119729563Y-116299934D01*
X119725918Y-116294047D01*
X119701172Y-116275360D01*
X119694694Y-116269723D01*
X118975150Y-115550179D01*
X118941665Y-115488856D01*
X118938831Y-115462498D01*
X118938831Y-110253732D01*
X138982671Y-110253732D01*
X139003308Y-110410491D01*
X139003309Y-110410493D01*
X139063817Y-110556572D01*
X139160071Y-110682013D01*
X139285512Y-110778267D01*
X139431591Y-110838775D01*
X139509971Y-110849094D01*
X139588352Y-110859413D01*
X139588353Y-110859413D01*
X139588354Y-110859413D01*
X139640607Y-110852533D01*
X139745115Y-110838775D01*
X139891194Y-110778267D01*
X140016635Y-110682013D01*
X140112889Y-110556572D01*
X140173397Y-110410493D01*
X140194035Y-110253731D01*
X140194034Y-110253728D01*
X140194497Y-110250216D01*
X140222763Y-110186320D01*
X140229729Y-110178746D01*
X140393837Y-110014640D01*
X140393838Y-110014637D01*
X140400905Y-110007571D01*
X140400908Y-110007567D01*
X140416403Y-109992073D01*
X140426462Y-109972329D01*
X140436622Y-109955749D01*
X140449649Y-109937820D01*
X140456495Y-109916748D01*
X140463941Y-109898774D01*
X140473998Y-109879036D01*
X140473999Y-109879035D01*
X140477465Y-109857147D01*
X140482004Y-109838241D01*
X140488853Y-109817164D01*
X140488853Y-109690298D01*
X140488853Y-109496581D01*
X142094658Y-109496581D01*
X142115139Y-109639037D01*
X142121342Y-109652619D01*
X142174928Y-109769954D01*
X142269177Y-109878724D01*
X142390252Y-109956534D01*
X142390255Y-109956535D01*
X142390254Y-109956535D01*
X142497412Y-109987998D01*
X142523739Y-109995729D01*
X142528341Y-109997080D01*
X142528343Y-109997081D01*
X142634486Y-109997081D01*
X142685043Y-110011465D01*
X142685807Y-110009496D01*
X142696521Y-110013646D01*
X142696522Y-110013647D01*
X142699085Y-110014640D01*
X142702981Y-110016149D01*
X142728266Y-110029477D01*
X142733974Y-110033387D01*
X142764157Y-110040485D01*
X142772358Y-110043025D01*
X142801282Y-110054231D01*
X142808206Y-110054231D01*
X142836596Y-110057524D01*
X142843336Y-110059110D01*
X142874045Y-110054826D01*
X142882621Y-110054231D01*
X145809781Y-110054231D01*
X145876820Y-110073916D01*
X145903492Y-110097026D01*
X145952613Y-110153715D01*
X146073688Y-110231525D01*
X146073691Y-110231526D01*
X146073690Y-110231526D01*
X146211777Y-110272071D01*
X146211779Y-110272072D01*
X146211780Y-110272072D01*
X146355703Y-110272072D01*
X146355703Y-110272071D01*
X146493794Y-110231525D01*
X146614869Y-110153715D01*
X146709118Y-110044945D01*
X146768906Y-109914029D01*
X146789388Y-109771572D01*
X146768906Y-109629115D01*
X146709118Y-109498199D01*
X146614869Y-109389429D01*
X146493794Y-109311619D01*
X146493792Y-109311618D01*
X146493790Y-109311617D01*
X146493791Y-109311617D01*
X146355704Y-109271072D01*
X146355702Y-109271072D01*
X146211780Y-109271072D01*
X146211777Y-109271072D01*
X146073690Y-109311617D01*
X145952611Y-109389430D01*
X145934415Y-109410431D01*
X145875638Y-109448207D01*
X145840700Y-109453231D01*
X143207166Y-109453231D01*
X143140127Y-109433546D01*
X143094372Y-109380742D01*
X143088971Y-109362344D01*
X143087970Y-109362639D01*
X143085470Y-109354129D01*
X143085470Y-109354124D01*
X143066058Y-109311619D01*
X143025684Y-109223211D01*
X143025681Y-109223207D01*
X142931433Y-109114438D01*
X142810358Y-109036628D01*
X142810356Y-109036627D01*
X142810354Y-109036626D01*
X142810355Y-109036626D01*
X142672268Y-108996081D01*
X142672266Y-108996081D01*
X142528344Y-108996081D01*
X142528341Y-108996081D01*
X142390254Y-109036626D01*
X142269178Y-109114437D01*
X142174928Y-109223207D01*
X142174927Y-109223209D01*
X142115139Y-109354124D01*
X142094658Y-109496581D01*
X140488853Y-109496581D01*
X140488853Y-102760310D01*
X140508538Y-102693272D01*
X140514477Y-102684824D01*
X140516632Y-102682014D01*
X140516635Y-102682013D01*
X140612889Y-102556572D01*
X140673397Y-102410493D01*
X140694035Y-102253731D01*
X140688020Y-102208046D01*
X140673397Y-102096970D01*
X140673397Y-102096969D01*
X140612889Y-101950890D01*
X140516635Y-101825449D01*
X140391194Y-101729195D01*
X140245115Y-101668687D01*
X140245113Y-101668686D01*
X140088354Y-101648049D01*
X140088352Y-101648049D01*
X139931592Y-101668686D01*
X139931590Y-101668687D01*
X139785513Y-101729194D01*
X139660071Y-101825449D01*
X139563816Y-101950891D01*
X139503309Y-102096968D01*
X139503308Y-102096970D01*
X139482671Y-102253729D01*
X139482671Y-102253732D01*
X139503308Y-102410491D01*
X139503309Y-102410493D01*
X139555926Y-102537523D01*
X139563817Y-102556572D01*
X139660071Y-102682013D01*
X139660073Y-102682014D01*
X139662229Y-102684824D01*
X139687423Y-102749994D01*
X139687853Y-102760311D01*
X139687853Y-109526204D01*
X139668168Y-109593243D01*
X139615364Y-109638998D01*
X139580039Y-109649143D01*
X139431591Y-109668687D01*
X139431590Y-109668687D01*
X139285513Y-109729194D01*
X139160071Y-109825449D01*
X139063816Y-109950891D01*
X139003309Y-110096968D01*
X139003308Y-110096970D01*
X138982671Y-110253729D01*
X138982671Y-110253732D01*
X118938831Y-110253732D01*
X118938831Y-105537502D01*
X118958516Y-105470463D01*
X118975150Y-105449821D01*
X119488153Y-104936819D01*
X119549476Y-104903334D01*
X119575834Y-104900500D01*
X119928411Y-104900500D01*
X119995450Y-104920185D01*
X120041205Y-104972989D01*
X120048985Y-104995553D01*
X120073126Y-105096111D01*
X120169533Y-105328859D01*
X120301160Y-105543653D01*
X120301161Y-105543656D01*
X120301164Y-105543659D01*
X120464776Y-105735224D01*
X120613066Y-105861875D01*
X120656343Y-105898838D01*
X120656346Y-105898839D01*
X120871140Y-106030466D01*
X121103888Y-106126872D01*
X121103889Y-106126873D01*
X121348852Y-106185683D01*
X121600000Y-106205449D01*
X121851148Y-106185683D01*
X122096111Y-106126873D01*
X122328859Y-106030466D01*
X122543659Y-105898836D01*
X122735224Y-105735224D01*
X122898836Y-105543659D01*
X123030466Y-105328859D01*
X123126873Y-105096111D01*
X123185683Y-104851148D01*
X123205449Y-104600000D01*
X123185683Y-104348852D01*
X123126873Y-104103889D01*
X123030466Y-103871141D01*
X123030466Y-103871140D01*
X122898839Y-103656346D01*
X122898838Y-103656343D01*
X122861875Y-103613066D01*
X122735224Y-103464776D01*
X122608571Y-103356604D01*
X122543656Y-103301161D01*
X122543653Y-103301160D01*
X122328859Y-103169533D01*
X122096110Y-103073126D01*
X121851151Y-103014317D01*
X121600000Y-102994551D01*
X121348848Y-103014317D01*
X121103889Y-103073126D01*
X120871140Y-103169533D01*
X120656346Y-103301160D01*
X120656343Y-103301161D01*
X120464776Y-103464776D01*
X120301161Y-103656343D01*
X120301160Y-103656346D01*
X120169533Y-103871140D01*
X120073126Y-104103888D01*
X120048985Y-104204447D01*
X120014194Y-104265039D01*
X119952168Y-104297203D01*
X119928411Y-104299500D01*
X119462842Y-104299500D01*
X119454268Y-104298905D01*
X119442239Y-104297227D01*
X119442236Y-104297227D01*
X119417220Y-104298383D01*
X119394491Y-104299434D01*
X119391628Y-104299500D01*
X119372156Y-104299500D01*
X119372151Y-104299500D01*
X119372149Y-104299501D01*
X119369515Y-104299993D01*
X119360985Y-104300982D01*
X119330008Y-104302415D01*
X119330006Y-104302415D01*
X119323665Y-104305215D01*
X119296379Y-104313664D01*
X119289572Y-104314936D01*
X119289566Y-104314939D01*
X119263202Y-104331261D01*
X119255603Y-104335266D01*
X119227237Y-104347792D01*
X119222336Y-104352693D01*
X119199942Y-104370431D01*
X119194048Y-104374080D01*
X119175359Y-104398827D01*
X119169718Y-104405310D01*
X118612180Y-104962847D01*
X118550857Y-104996332D01*
X118481165Y-104991348D01*
X118425232Y-104949476D01*
X118400815Y-104884012D01*
X118400499Y-104875193D01*
X118400499Y-100253730D01*
X139582706Y-100253730D01*
X139603187Y-100396187D01*
X139662975Y-100527102D01*
X139662976Y-100527104D01*
X139757225Y-100635874D01*
X139878300Y-100713684D01*
X139878303Y-100713685D01*
X139878302Y-100713685D01*
X139985460Y-100745148D01*
X140013633Y-100753421D01*
X140016389Y-100754230D01*
X140016391Y-100754231D01*
X140112519Y-100754231D01*
X140179558Y-100773916D01*
X140200200Y-100790550D01*
X141271596Y-101861946D01*
X141277238Y-101868430D01*
X141284554Y-101878117D01*
X141284555Y-101878118D01*
X141284557Y-101878121D01*
X141299376Y-101891630D01*
X141319879Y-101910322D01*
X141321927Y-101912277D01*
X141335718Y-101926068D01*
X141337178Y-101927068D01*
X141337934Y-101927586D01*
X141344673Y-101932924D01*
X141367578Y-101953806D01*
X141367579Y-101953807D01*
X141367582Y-101953809D01*
X141367585Y-101953810D01*
X141374036Y-101956309D01*
X141399321Y-101969636D01*
X141405035Y-101973550D01*
X141435218Y-101980649D01*
X141443426Y-101983191D01*
X141472340Y-101994393D01*
X141472342Y-101994393D01*
X141479267Y-101994393D01*
X141507655Y-101997686D01*
X141514396Y-101999272D01*
X141545106Y-101994987D01*
X141553681Y-101994393D01*
X146924618Y-101994393D01*
X146933192Y-101994988D01*
X146945220Y-101996665D01*
X146945220Y-101996664D01*
X146945224Y-101996666D01*
X146988379Y-101994671D01*
X146992969Y-101994459D01*
X146995832Y-101994393D01*
X147015302Y-101994393D01*
X147015303Y-101994393D01*
X147017927Y-101993902D01*
X147026480Y-101992909D01*
X147027704Y-101992852D01*
X147057451Y-101991478D01*
X147063781Y-101988682D01*
X147091088Y-101980225D01*
X147097892Y-101978954D01*
X147124256Y-101962629D01*
X147131851Y-101958626D01*
X147160224Y-101946099D01*
X147165120Y-101941202D01*
X147187528Y-101923454D01*
X147193411Y-101919812D01*
X147212108Y-101895051D01*
X147217725Y-101888596D01*
X147713854Y-101392467D01*
X147775175Y-101358984D01*
X147844867Y-101363968D01*
X147900800Y-101405840D01*
X147914326Y-101428636D01*
X147925271Y-101452600D01*
X147925273Y-101452604D01*
X148019522Y-101561374D01*
X148019525Y-101561375D01*
X148019863Y-101561766D01*
X148048888Y-101625322D01*
X148050150Y-101642969D01*
X148050150Y-104381467D01*
X148038944Y-104432979D01*
X148003188Y-104511270D01*
X148003187Y-104511274D01*
X147982706Y-104653731D01*
X148003187Y-104796187D01*
X148028289Y-104851151D01*
X148062976Y-104927104D01*
X148157225Y-105035874D01*
X148278300Y-105113684D01*
X148278303Y-105113685D01*
X148278302Y-105113685D01*
X148385460Y-105145148D01*
X148415915Y-105154091D01*
X148416389Y-105154230D01*
X148416391Y-105154231D01*
X148416392Y-105154231D01*
X148560315Y-105154231D01*
X148560315Y-105154230D01*
X148698406Y-105113684D01*
X148819481Y-105035874D01*
X148913730Y-104927104D01*
X148973518Y-104796188D01*
X148994000Y-104653731D01*
X148973518Y-104511274D01*
X148913730Y-104380358D01*
X148819481Y-104271588D01*
X148819478Y-104271586D01*
X148819476Y-104271584D01*
X148708111Y-104200014D01*
X148662356Y-104147210D01*
X148651150Y-104095699D01*
X148651150Y-101642969D01*
X148670835Y-101575930D01*
X148681437Y-101561766D01*
X148681774Y-101561375D01*
X148681778Y-101561374D01*
X148776027Y-101452604D01*
X148835815Y-101321688D01*
X148840914Y-101286217D01*
X148869937Y-101222663D01*
X148928714Y-101184887D01*
X148998584Y-101184885D01*
X149051333Y-101216182D01*
X150372674Y-102537523D01*
X150406159Y-102598846D01*
X150407731Y-102642850D01*
X150395456Y-102728230D01*
X150415937Y-102870687D01*
X150464484Y-102976988D01*
X150475726Y-103001604D01*
X150569975Y-103110374D01*
X150691050Y-103188184D01*
X150691053Y-103188185D01*
X150691052Y-103188185D01*
X150829139Y-103228730D01*
X150829141Y-103228731D01*
X150829142Y-103228731D01*
X150973065Y-103228731D01*
X150973065Y-103228730D01*
X151111156Y-103188184D01*
X151232231Y-103110374D01*
X151248601Y-103091480D01*
X151281980Y-103064350D01*
X151283651Y-103063420D01*
X151355423Y-102976988D01*
X151391126Y-102870466D01*
X151390494Y-102856806D01*
X151391624Y-102833429D01*
X151402137Y-102760311D01*
X151406750Y-102728231D01*
X151386268Y-102585774D01*
X151326480Y-102454858D01*
X151232231Y-102346088D01*
X151111156Y-102268278D01*
X151111154Y-102268277D01*
X151111152Y-102268276D01*
X151111153Y-102268276D01*
X150973066Y-102227731D01*
X150973064Y-102227731D01*
X150964186Y-102227731D01*
X150897147Y-102208046D01*
X150876505Y-102191412D01*
X149096275Y-100411182D01*
X149090631Y-100404696D01*
X149083309Y-100395001D01*
X149047977Y-100362791D01*
X149045926Y-100360833D01*
X149032150Y-100347057D01*
X149029939Y-100345542D01*
X149023206Y-100340209D01*
X149000286Y-100319315D01*
X148993823Y-100316811D01*
X148968545Y-100303487D01*
X148962834Y-100299575D01*
X148962831Y-100299574D01*
X148962832Y-100299574D01*
X148932655Y-100292475D01*
X148924447Y-100289934D01*
X148895526Y-100278731D01*
X148888602Y-100278731D01*
X148860211Y-100275437D01*
X148853472Y-100273852D01*
X148822762Y-100278136D01*
X148814187Y-100278731D01*
X148164962Y-100278731D01*
X148156388Y-100278136D01*
X148144359Y-100276458D01*
X148144356Y-100276458D01*
X148119340Y-100277614D01*
X148096611Y-100278665D01*
X148093748Y-100278731D01*
X148074276Y-100278731D01*
X148073328Y-100278908D01*
X148071636Y-100279224D01*
X148063108Y-100280213D01*
X148033918Y-100281563D01*
X148032129Y-100281646D01*
X148025784Y-100284446D01*
X147998501Y-100292896D01*
X147991689Y-100294169D01*
X147991688Y-100294170D01*
X147965327Y-100310491D01*
X147957728Y-100314496D01*
X147929356Y-100327024D01*
X147924457Y-100331924D01*
X147902063Y-100349662D01*
X147896169Y-100353311D01*
X147877480Y-100378058D01*
X147871839Y-100384541D01*
X146899307Y-101357074D01*
X146837984Y-101390559D01*
X146811626Y-101393393D01*
X141704348Y-101393393D01*
X141637309Y-101373708D01*
X141616667Y-101357074D01*
X140627748Y-100368155D01*
X140594263Y-100306832D01*
X140592692Y-100262825D01*
X140594000Y-100253731D01*
X140573518Y-100111274D01*
X140513730Y-99980358D01*
X140419481Y-99871588D01*
X140298406Y-99793778D01*
X140298404Y-99793777D01*
X140298402Y-99793776D01*
X140298403Y-99793776D01*
X140160316Y-99753231D01*
X140160314Y-99753231D01*
X140016392Y-99753231D01*
X140016389Y-99753231D01*
X139878302Y-99793776D01*
X139757226Y-99871587D01*
X139662976Y-99980357D01*
X139662975Y-99980359D01*
X139603187Y-100111274D01*
X139582706Y-100253730D01*
X118400499Y-100253730D01*
X118400499Y-98624334D01*
X142499500Y-98624334D01*
X142540429Y-98869616D01*
X142621169Y-99104802D01*
X142621172Y-99104811D01*
X142739524Y-99323506D01*
X142739526Y-99323509D01*
X142892262Y-99519744D01*
X143051744Y-99666557D01*
X143075217Y-99688166D01*
X143283393Y-99824173D01*
X143511118Y-99924063D01*
X143733418Y-99980357D01*
X143752179Y-99985108D01*
X143752181Y-99985108D01*
X143752186Y-99985109D01*
X143885376Y-99996145D01*
X143937933Y-100000500D01*
X143937935Y-100000500D01*
X144062065Y-100000500D01*
X144062067Y-100000500D01*
X144123284Y-99995427D01*
X144247813Y-99985109D01*
X144247816Y-99985108D01*
X144247821Y-99985108D01*
X144488881Y-99924063D01*
X144716607Y-99824173D01*
X144924785Y-99688164D01*
X145107738Y-99519744D01*
X145260474Y-99323509D01*
X145378828Y-99104810D01*
X145459571Y-98869614D01*
X145500500Y-98624335D01*
X145500500Y-98375665D01*
X145459571Y-98130386D01*
X145378828Y-97895190D01*
X145260474Y-97676491D01*
X145107738Y-97480256D01*
X144924785Y-97311836D01*
X144924782Y-97311833D01*
X144716606Y-97175826D01*
X144488881Y-97075936D01*
X144247824Y-97014892D01*
X144247813Y-97014890D01*
X144082548Y-97001197D01*
X144062067Y-96999500D01*
X143937933Y-96999500D01*
X143918521Y-97001108D01*
X143752186Y-97014890D01*
X143752175Y-97014892D01*
X143511118Y-97075936D01*
X143283393Y-97175826D01*
X143075217Y-97311833D01*
X142892261Y-97480257D01*
X142739524Y-97676493D01*
X142621172Y-97895188D01*
X142621169Y-97895197D01*
X142540429Y-98130383D01*
X142499500Y-98375665D01*
X142499500Y-98624334D01*
X118400499Y-98624334D01*
X118400499Y-90600007D01*
X125694671Y-90600007D01*
X125713964Y-90894363D01*
X125713965Y-90894373D01*
X125713966Y-90894380D01*
X125740597Y-91028267D01*
X125771518Y-91183716D01*
X125771521Y-91183730D01*
X125866349Y-91463080D01*
X125996825Y-91727660D01*
X125996829Y-91727667D01*
X126160725Y-91972955D01*
X126355241Y-92194758D01*
X126577044Y-92389274D01*
X126777805Y-92523418D01*
X126822335Y-92553172D01*
X127086923Y-92683652D01*
X127366278Y-92778481D01*
X127655620Y-92836034D01*
X127683888Y-92837886D01*
X127949993Y-92855329D01*
X127950000Y-92855329D01*
X127950007Y-92855329D01*
X128185675Y-92839881D01*
X128244380Y-92836034D01*
X128533722Y-92778481D01*
X128813077Y-92683652D01*
X129077665Y-92553172D01*
X129322957Y-92389273D01*
X129544758Y-92194758D01*
X129739273Y-91972957D01*
X129903172Y-91727665D01*
X130033652Y-91463077D01*
X130128481Y-91183722D01*
X130186034Y-90894380D01*
X130191789Y-90806572D01*
X130205329Y-90600007D01*
X130205329Y-90599992D01*
X130186035Y-90305636D01*
X130186034Y-90305620D01*
X130128481Y-90016278D01*
X130033652Y-89736923D01*
X129903172Y-89472336D01*
X129739273Y-89227043D01*
X129696655Y-89178447D01*
X129544758Y-89005241D01*
X129322955Y-88810725D01*
X129077667Y-88646829D01*
X129077660Y-88646825D01*
X128813080Y-88516349D01*
X128533730Y-88421521D01*
X128533724Y-88421519D01*
X128533722Y-88421519D01*
X128244380Y-88363966D01*
X128244373Y-88363965D01*
X128244363Y-88363964D01*
X127950007Y-88344671D01*
X127949993Y-88344671D01*
X127655636Y-88363964D01*
X127655624Y-88363965D01*
X127655620Y-88363966D01*
X127655612Y-88363967D01*
X127655609Y-88363968D01*
X127366283Y-88421518D01*
X127366269Y-88421521D01*
X127086919Y-88516349D01*
X126822334Y-88646828D01*
X126577041Y-88810728D01*
X126355241Y-89005241D01*
X126160728Y-89227041D01*
X125996828Y-89472334D01*
X125866349Y-89736919D01*
X125771521Y-90016269D01*
X125771518Y-90016283D01*
X125713968Y-90305609D01*
X125713964Y-90305636D01*
X125694671Y-90599992D01*
X125694671Y-90600007D01*
X118400499Y-90600007D01*
X118400499Y-79659677D01*
X124294500Y-79659677D01*
X124294906Y-79673929D01*
X124295520Y-79688295D01*
X124324066Y-79829315D01*
X124343707Y-79884396D01*
X124343707Y-79884395D01*
X124352649Y-79909471D01*
X124354923Y-79911500D01*
X124364770Y-79930943D01*
X124379859Y-79968634D01*
X124379860Y-79968637D01*
X124444674Y-80080897D01*
X124455218Y-80104579D01*
X124472821Y-80158756D01*
X124478211Y-80184114D01*
X124484165Y-80240771D01*
X124484165Y-80266690D01*
X124478212Y-80323341D01*
X124472823Y-80348697D01*
X124468061Y-80363353D01*
X124468057Y-80363365D01*
X124445999Y-80467550D01*
X124440654Y-80519199D01*
X124440909Y-80625689D01*
X124440909Y-80625691D01*
X124476601Y-80765058D01*
X124476605Y-80765072D01*
X124502539Y-80827538D01*
X124502924Y-80828570D01*
X124503398Y-80829606D01*
X124576911Y-80953276D01*
X124576913Y-80953279D01*
X124682297Y-81051237D01*
X124739722Y-81091039D01*
X124868434Y-81155337D01*
X131132913Y-83234755D01*
X131148055Y-83239262D01*
X131170827Y-83245270D01*
X131186222Y-83248822D01*
X136074108Y-84216719D01*
X136131862Y-84245202D01*
X138345033Y-86189722D01*
X138382402Y-86248758D01*
X138381922Y-86318626D01*
X138343745Y-86377143D01*
X138279991Y-86405730D01*
X138279374Y-86405813D01*
X138197226Y-86416628D01*
X138181591Y-86418687D01*
X138181590Y-86418687D01*
X138035513Y-86479194D01*
X137910071Y-86575449D01*
X137813816Y-86700891D01*
X137753309Y-86846968D01*
X137753308Y-86846970D01*
X137732671Y-87003729D01*
X137732671Y-87003732D01*
X137753308Y-87160491D01*
X137753309Y-87160493D01*
X137813817Y-87306572D01*
X137910071Y-87432013D01*
X138035512Y-87528267D01*
X138181591Y-87588775D01*
X138259972Y-87599094D01*
X138338352Y-87609413D01*
X138338353Y-87609413D01*
X138338354Y-87609413D01*
X138390606Y-87602533D01*
X138495115Y-87588775D01*
X138641194Y-87528267D01*
X138766635Y-87432013D01*
X138821681Y-87360275D01*
X138878103Y-87319075D01*
X138947849Y-87314920D01*
X139007734Y-87348083D01*
X141960454Y-90300803D01*
X141993939Y-90362126D01*
X141995712Y-90404669D01*
X141982671Y-90503729D01*
X141982671Y-90503732D01*
X142003308Y-90660491D01*
X142003309Y-90660493D01*
X142063817Y-90806572D01*
X142160071Y-90932013D01*
X142285512Y-91028267D01*
X142431591Y-91088775D01*
X142509971Y-91099094D01*
X142588352Y-91109413D01*
X142588353Y-91109413D01*
X142588354Y-91109413D01*
X142640607Y-91102533D01*
X142745115Y-91088775D01*
X142891194Y-91028267D01*
X143016635Y-90932013D01*
X143112889Y-90806572D01*
X143173397Y-90660493D01*
X143173397Y-90660491D01*
X143176507Y-90652984D01*
X143180513Y-90654643D01*
X143186753Y-90633395D01*
X143239557Y-90587640D01*
X143308715Y-90577696D01*
X143372271Y-90606721D01*
X143372913Y-90607281D01*
X143433477Y-90660493D01*
X144633668Y-91714996D01*
X144725516Y-91779166D01*
X144773489Y-91805297D01*
X144850620Y-91836796D01*
X144877205Y-91847653D01*
X144877208Y-91847654D01*
X144877213Y-91847656D01*
X144877219Y-91847657D01*
X144877226Y-91847660D01*
X146492363Y-92306279D01*
X152913901Y-94129679D01*
X152934878Y-94134447D01*
X152940106Y-94135636D01*
X152940108Y-94135636D01*
X152979266Y-94142374D01*
X152995081Y-94144236D01*
X153032604Y-94148656D01*
X153176039Y-94137344D01*
X153244202Y-94121994D01*
X153378640Y-94070730D01*
X155972193Y-92629867D01*
X156067049Y-92561736D01*
X156109128Y-92523418D01*
X156185814Y-92435341D01*
X156249406Y-92306276D01*
X156271053Y-92239844D01*
X156295708Y-92098092D01*
X156392540Y-88805789D01*
X156392437Y-88788005D01*
X156391359Y-88761695D01*
X156388652Y-88726214D01*
X156368028Y-88646825D01*
X156352479Y-88586969D01*
X156352476Y-88586962D01*
X156352475Y-88586956D01*
X156343470Y-88565476D01*
X156325466Y-88522527D01*
X156325463Y-88522523D01*
X156325462Y-88522519D01*
X156251518Y-88399094D01*
X156222962Y-88363966D01*
X150132905Y-80872229D01*
X150105892Y-80807792D01*
X150105279Y-80787820D01*
X150322767Y-76438043D01*
X150345773Y-76372074D01*
X150400796Y-76329013D01*
X150401987Y-76328547D01*
X155804792Y-74250546D01*
X155860788Y-74221371D01*
X155906011Y-74197810D01*
X155906013Y-74197808D01*
X155906018Y-74197806D01*
X155952145Y-74166690D01*
X156038959Y-74092584D01*
X156121178Y-73974509D01*
X156122469Y-73971937D01*
X156152532Y-73912085D01*
X156152535Y-73912077D01*
X156152538Y-73912072D01*
X156152539Y-73912069D01*
X156198161Y-73775614D01*
X156773760Y-70609818D01*
X156781712Y-70505098D01*
X156781711Y-70505085D01*
X156781712Y-70505077D01*
X156780263Y-70453887D01*
X156780263Y-70453873D01*
X156766405Y-70349771D01*
X156713142Y-70216112D01*
X156678303Y-70155547D01*
X156678301Y-70155544D01*
X156589539Y-70042306D01*
X154388680Y-67937136D01*
X154388672Y-67937130D01*
X154388668Y-67937126D01*
X154295719Y-67866813D01*
X154295701Y-67866801D01*
X154246767Y-67837995D01*
X154246762Y-67837992D01*
X154246759Y-67837991D01*
X154140169Y-67790836D01*
X154140167Y-67790835D01*
X154140166Y-67790835D01*
X153998086Y-67768172D01*
X153928228Y-67767099D01*
X153928226Y-67767099D01*
X153928225Y-67767099D01*
X153928224Y-67767099D01*
X153785511Y-67785384D01*
X153785510Y-67785384D01*
X131677508Y-73909395D01*
X131674780Y-73910083D01*
X128498888Y-74636002D01*
X128498884Y-74636002D01*
X128498880Y-74636004D01*
X128475266Y-74642622D01*
X128475267Y-74642621D01*
X128429221Y-74657970D01*
X128429207Y-74657976D01*
X128416555Y-74662887D01*
X128406322Y-74666860D01*
X128406323Y-74666860D01*
X128406318Y-74666862D01*
X128387720Y-74675142D01*
X128348516Y-74692597D01*
X128323864Y-74700607D01*
X128282309Y-74709440D01*
X128268141Y-74712452D01*
X128242360Y-74715162D01*
X128209388Y-74715162D01*
X128204130Y-74715457D01*
X128181032Y-74716756D01*
X128181027Y-74716756D01*
X128181023Y-74716757D01*
X128125167Y-74723061D01*
X128125165Y-74723061D01*
X128125159Y-74723062D01*
X128125158Y-74723062D01*
X128111168Y-74725443D01*
X128097178Y-74727823D01*
X124957754Y-75445404D01*
X124957755Y-75445404D01*
X124883413Y-75468548D01*
X124883411Y-75468549D01*
X124883408Y-75468549D01*
X124883402Y-75468552D01*
X124848024Y-75482638D01*
X124815060Y-75498807D01*
X124778112Y-75516930D01*
X124778109Y-75516932D01*
X124665864Y-75606944D01*
X124665857Y-75606951D01*
X124618130Y-75657970D01*
X124535795Y-75775953D01*
X124490034Y-75912353D01*
X124490032Y-75912362D01*
X124477462Y-75981085D01*
X124477460Y-75981108D01*
X124471983Y-76124867D01*
X124484165Y-76240771D01*
X124484165Y-76266692D01*
X124478211Y-76323346D01*
X124472821Y-76348704D01*
X124455217Y-76402883D01*
X124444673Y-76426566D01*
X124407490Y-76490968D01*
X124407468Y-76490988D01*
X124381957Y-76535193D01*
X124368466Y-76558559D01*
X124368445Y-76559449D01*
X124361888Y-76575832D01*
X124348276Y-76603872D01*
X124347364Y-76606413D01*
X124346406Y-76607724D01*
X124345378Y-76609844D01*
X124345167Y-76609742D01*
X124334848Y-76644885D01*
X124321041Y-76691278D01*
X124320739Y-76692940D01*
X124314975Y-76712570D01*
X124314973Y-76712578D01*
X124294500Y-76854983D01*
X124294500Y-76854984D01*
X124294500Y-77659677D01*
X124294906Y-77673929D01*
X124295520Y-77688295D01*
X124324066Y-77829315D01*
X124343707Y-77884396D01*
X124343707Y-77884395D01*
X124352649Y-77909471D01*
X124354923Y-77911500D01*
X124364770Y-77930943D01*
X124379859Y-77968634D01*
X124379860Y-77968637D01*
X124444674Y-78080897D01*
X124455218Y-78104579D01*
X124472821Y-78158756D01*
X124478211Y-78184114D01*
X124484165Y-78240770D01*
X124484165Y-78266690D01*
X124478211Y-78323346D01*
X124472821Y-78348704D01*
X124455217Y-78402883D01*
X124444673Y-78426566D01*
X124407490Y-78490968D01*
X124407468Y-78490988D01*
X124380729Y-78537319D01*
X124368466Y-78558559D01*
X124368445Y-78559449D01*
X124361888Y-78575832D01*
X124348276Y-78603872D01*
X124347364Y-78606413D01*
X124346406Y-78607724D01*
X124345378Y-78609844D01*
X124345167Y-78609742D01*
X124334848Y-78644885D01*
X124321041Y-78691278D01*
X124320739Y-78692940D01*
X124314975Y-78712570D01*
X124314973Y-78712578D01*
X124294500Y-78854983D01*
X124294500Y-78854984D01*
X124294500Y-79659677D01*
X118400499Y-79659677D01*
X118400499Y-70378065D01*
X135087853Y-70378065D01*
X135128782Y-70623347D01*
X135209522Y-70858533D01*
X135209525Y-70858542D01*
X135327877Y-71077237D01*
X135327879Y-71077240D01*
X135480615Y-71273475D01*
X135640097Y-71420288D01*
X135663570Y-71441897D01*
X135871746Y-71577904D01*
X136099471Y-71677794D01*
X136340528Y-71738838D01*
X136340532Y-71738839D01*
X136340534Y-71738839D01*
X136340539Y-71738840D01*
X136473729Y-71749876D01*
X136526286Y-71754231D01*
X136526288Y-71754231D01*
X136650418Y-71754231D01*
X136650420Y-71754231D01*
X136711637Y-71749158D01*
X136836166Y-71738840D01*
X136836169Y-71738839D01*
X136836174Y-71738839D01*
X137077234Y-71677794D01*
X137304960Y-71577904D01*
X137513138Y-71441895D01*
X137696091Y-71273475D01*
X137848827Y-71077240D01*
X137967181Y-70858541D01*
X138047924Y-70623345D01*
X138088853Y-70378066D01*
X138088853Y-70129396D01*
X138047924Y-69884117D01*
X137967181Y-69648921D01*
X137848827Y-69430222D01*
X137696091Y-69233987D01*
X137513138Y-69065567D01*
X137513135Y-69065564D01*
X137304959Y-68929557D01*
X137077234Y-68829667D01*
X136836177Y-68768623D01*
X136836166Y-68768621D01*
X136670901Y-68754928D01*
X136650420Y-68753231D01*
X136526286Y-68753231D01*
X136506874Y-68754839D01*
X136340539Y-68768621D01*
X136340528Y-68768623D01*
X136099471Y-68829667D01*
X135871746Y-68929557D01*
X135663570Y-69065564D01*
X135480614Y-69233988D01*
X135327877Y-69430224D01*
X135209525Y-69648919D01*
X135209522Y-69648928D01*
X135128782Y-69884114D01*
X135087853Y-70129396D01*
X135087853Y-70378065D01*
X118400499Y-70378065D01*
X118400499Y-68753730D01*
X118409220Y-68542832D01*
X118418204Y-68337402D01*
X118418615Y-68332507D01*
X118444925Y-68121426D01*
X118471971Y-67915991D01*
X118472743Y-67911468D01*
X118516629Y-67702159D01*
X118516899Y-67700945D01*
X118561280Y-67500748D01*
X118562361Y-67496579D01*
X118623550Y-67291043D01*
X118685479Y-67094626D01*
X118686848Y-67090743D01*
X118764919Y-66890660D01*
X118843703Y-66700459D01*
X118845246Y-66697038D01*
X118939716Y-66503794D01*
X119034769Y-66321197D01*
X119036445Y-66318192D01*
X119146679Y-66133193D01*
X119257315Y-65959530D01*
X119259075Y-65956921D01*
X119384318Y-65781507D01*
X119509740Y-65618053D01*
X119511499Y-65615872D01*
X119650943Y-65451229D01*
X119791053Y-65298326D01*
X119905258Y-65184120D01*
X119944592Y-65144787D01*
X120097529Y-65004644D01*
X120262118Y-64865243D01*
X120264344Y-64863448D01*
X120427794Y-64738028D01*
X120603165Y-64612814D01*
X120605793Y-64611040D01*
X120779479Y-64500388D01*
X120964459Y-64390163D01*
X120967451Y-64388495D01*
X121150088Y-64293419D01*
X121343348Y-64198940D01*
X121346730Y-64197416D01*
X121536894Y-64118645D01*
X121737048Y-64040545D01*
X121740893Y-64039190D01*
X121937273Y-63977271D01*
X122142826Y-63916075D01*
X122147054Y-63914979D01*
X122348397Y-63870342D01*
X122557723Y-63826451D01*
X122562285Y-63825673D01*
X122767798Y-63798617D01*
X122978748Y-63772322D01*
X122983675Y-63771908D01*
X123195973Y-63762638D01*
X123399237Y-63754231D01*
X123399901Y-63754231D01*
X123400000Y-63754231D01*
X123400500Y-63754231D01*
X158087853Y-63754231D01*
X158088353Y-63754231D01*
X158302444Y-63763083D01*
G37*
%TD.AperFunction*%
%TD*%
M02*
