M48
; DRILL file {KiCad 7.0.7} date 2023 September 08, Friday 10:51:00
; FORMAT={-:-/ absolute / inch / decimal}
; #@! TF.CreationDate,2023-09-08T10:51:00+10:00
; #@! TF.GenerationSoftware,Kicad,Pcbnew,7.0.7
; #@! TF.FileFunction,Plated,1,2,PTH
FMAT,2
INCH
; #@! TA.AperFunction,Plated,PTH,ViaDrill
T1C0.0118
; #@! TA.AperFunction,Plated,PTH,ViaDrill
T2C0.0157
; #@! TA.AperFunction,Plated,PTH,ComponentDrill
T3C0.0236
; #@! TA.AperFunction,Plated,PTH,ComponentDrill
T4C0.0394
; #@! TA.AperFunction,Plated,PTH,ComponentDrill
T5C0.0551
; #@! TA.AperFunction,Plated,PTH,ComponentDrill
T6C0.1142
%
G90
G05
T1
X5.5153Y-3.947
X5.6142Y-4.3109
X5.7592Y-4.3217
X5.7594Y-4.3722
X5.7644Y-4.7108
X5.7673Y-4.5139
X5.8406Y-3.9834
X5.846Y-4.1202
X5.8617Y-4.695
X5.941Y-4.0444
X6.0665Y-4.4982
T2
X4.6931Y-3.5131
X4.6931Y-3.6024
X4.6931Y-3.6811
X4.6931Y-3.7598
X4.6931Y-3.8976
X4.7047Y-2.7165
X4.7047Y-2.7953
X4.7047Y-2.874
X4.7047Y-2.9724
X4.7047Y-3.0512
X4.7047Y-3.1496
X4.7368Y-3.3958
X4.7368Y-3.947
X4.7441Y-3.5527
X4.7441Y-3.6324
X4.7441Y-3.7108
X4.7441Y-3.7895
X4.7441Y-3.8683
X4.7441Y-4.6654
X4.7673Y-2.7659
X4.7673Y-2.8446
X4.7673Y-2.9234
X4.7673Y-3.0021
X4.7673Y-3.0809
X4.7673Y-3.3171
X4.7835Y-3.1496
X4.8066Y-3.3958
X4.8066Y-3.5139
X4.8066Y-3.5927
X4.8066Y-3.6714
X4.8066Y-3.7501
X4.8066Y-3.8289
X4.8066Y-3.9076
X4.8284Y-4.32
X4.83Y-2.8082
X4.83Y-2.884
X4.83Y-2.9627
X4.83Y-3.0415
X4.83Y-3.1202
X4.846Y-3.3171
X4.8592Y-2.5516
X4.8854Y-2.6084
X4.8854Y-2.7659
X4.8854Y-2.8446
X4.8854Y-2.9234
X4.8854Y-3.0021
X4.8854Y-3.0809
X4.8854Y-3.1596
X4.8854Y-3.3958
X4.8854Y-3.5533
X4.8854Y-3.632
X4.8854Y-3.7108
X4.8854Y-3.7895
X4.8854Y-3.8683
X4.9055Y-4.3307
X4.9134Y-3.9606
X4.9247Y-2.5516
X4.9247Y-3.3171
X4.9435Y-3.1527
X4.9488Y-3.0125
X4.9641Y-2.6872
X4.9641Y-2.9234
X4.9641Y-3.2383
X4.9817Y-3.3228
X5.0272Y-3.9805
X5.0394Y-3.2756
X5.0428Y-2.6872
X5.0478Y-2.926
X5.0807Y-2.9788
X5.1216Y-2.6872
X5.1216Y-3.9805
X5.129Y-3.7485
X5.144Y-3.8269
X5.1452Y-3.2029
X5.1461Y-3.9203
X5.1575Y-3.0512
X5.1575Y-3.1299
X5.2003Y-2.6872
X5.2226Y-3.0097
X5.2226Y-3.0809
X5.2226Y-3.1596
X5.2255Y-2.765
X5.2255Y-2.8446
X5.2791Y-2.6872
X5.2791Y-2.9785
X5.2791Y-3.0415
X5.2791Y-3.1202
X5.2791Y-3.199
X5.3578Y-2.9234
X5.3578Y-3.0021
X5.3578Y-3.0809
X5.3578Y-3.1596
X5.3578Y-3.2383
X5.4365Y-2.9234
X5.4365Y-3.0021
X5.4365Y-3.0809
X5.4365Y-3.1596
X5.4464Y-3.4253
X5.4759Y-3.2383
X5.4956Y-4.3407
X5.5153Y-2.5375
X5.5153Y-2.6872
X5.5153Y-2.7659
X5.5153Y-2.9234
X5.5153Y-3.0021
X5.5153Y-3.0809
X5.5153Y-3.1596
X5.5153Y-4.0257
X5.5213Y-3.3823
X5.54Y-3.2318
X5.5468Y-2.6242
X5.5535Y-3.3408
X5.5645Y-4.075
X5.594Y-2.6872
X5.594Y-2.7659
X5.594Y-2.884
X5.594Y-2.9627
X5.594Y-3.0415
X5.594Y-3.1202
X5.594Y-3.199
X5.594Y-3.2777
X5.6137Y-3.5631
X5.6728Y-2.6872
X5.6728Y-2.884
X5.6728Y-2.9627
X5.6728Y-3.0415
X5.6728Y-3.1202
X5.6728Y-3.199
X5.6728Y-3.2777
X5.6728Y-3.3564
X5.7515Y-2.6872
X5.7515Y-2.8053
X5.7515Y-2.884
X5.7515Y-2.9627
X5.7515Y-3.0415
X5.7515Y-3.1202
X5.7515Y-3.199
X5.7515Y-3.2777
X5.7515Y-3.3564
X5.7515Y-3.4352
X5.7515Y-3.5139
X5.8303Y-2.6872
X5.8303Y-2.8053
X5.8303Y-2.884
X5.8303Y-2.9627
X5.8303Y-3.0415
X5.8303Y-3.1202
X5.8303Y-3.199
X5.8303Y-3.2777
X5.8303Y-3.3564
X5.8303Y-3.4352
X5.8303Y-3.5139
X5.8303Y-3.5927
X5.909Y-2.8053
X5.909Y-3.2777
X5.909Y-3.3564
X5.909Y-3.4352
X5.909Y-3.5139
X5.9326Y-2.5454
X5.9326Y-2.6399
X5.9709Y-2.9374
X5.9715Y-3.42
X5.9877Y-3.4746
X5.9976Y-3.7338
X6.0236Y-3.6614
X6.0529Y-2.7209
X6.0624Y-3.4533
X6.0665Y-3.0021
X6.0665Y-3.2383
X6.0831Y-3.7338
X6.1043Y-2.8824
X6.1058Y-3.3564
X6.1083Y-3.6134
X6.1124Y-3.5035
X6.1236Y-2.7845
X6.1452Y-3.0021
X6.1452Y-3.0809
X6.1452Y-3.1596
X6.1452Y-3.2383
X6.1627Y-2.6913
X6.1846Y-3.2911
X6.1846Y-3.3564
X6.1846Y-3.5533
X6.1846Y-3.632
X6.1846Y-3.7108
X6.1846Y-3.7895
X6.1846Y-3.8683
X6.1846Y-3.947
X6.224Y-2.7659
X6.224Y-2.8446
X6.224Y-2.9234
X6.224Y-3.0021
X6.224Y-3.0809
X6.224Y-3.1596
X6.2633Y-3.3564
X6.2633Y-3.5139
X6.2633Y-3.5927
X6.2633Y-3.6714
X6.2633Y-3.7501
X6.2633Y-3.8289
X6.2633Y-3.9076
X6.2634Y-3.2911
X6.3027Y-2.7659
X6.3027Y-2.8446
X6.3027Y-2.9234
X6.3027Y-3.0021
X6.3027Y-3.0809
X6.3027Y-3.1596
X6.3635Y-2.6456
X6.3635Y-2.7265
X6.3635Y-2.8053
X6.3635Y-2.884
X6.3635Y-2.9627
X6.3635Y-3.0415
X6.3635Y-3.1202
X6.3635Y-3.199
X6.3635Y-3.2777
X6.3635Y-3.3564
X6.3635Y-3.4352
X6.3635Y-3.5139
X6.3635Y-3.5927
X6.3635Y-3.6714
X6.3635Y-3.7501
X6.3635Y-3.8289
X6.3635Y-3.9076
T4
X5.7077Y-4.6478
X5.8077Y-4.6478
X5.9077Y-4.6478
X6.0077Y-4.6478
X6.1077Y-4.6478
X6.2077Y-4.6478
T5
X4.7874Y-4.1181
T6
X5.0335Y-2.804
X5.0335Y-3.0875
X5.0374Y-3.5669
X5.0374Y-3.8504
X6.0261Y-2.82
X6.0261Y-3.1035
X6.0291Y-3.569
X6.0291Y-3.8525
T3
G00X4.7756Y-2.68
M15
G01X4.8189Y-2.68
M16
G05
G00X4.7756Y-3.2115
M15
G01X4.8189Y-3.2115
M16
G05
G00X4.7795Y-3.4429
M15
G01X4.8228Y-3.4429
M16
G05
G00X4.7795Y-3.9744
M15
G01X4.8228Y-3.9744
M16
G05
G00X6.284Y-2.696
M15
G01X6.2407Y-2.696
M16
G05
G00X6.284Y-3.2275
M15
G01X6.2407Y-3.2275
M16
G05
G00X6.2869Y-3.445
M15
G01X6.2436Y-3.445
M16
G05
G00X6.2869Y-3.9765
M15
G01X6.2436Y-3.9765
M16
G05
T0
M30
