%TF.GenerationSoftware,KiCad,Pcbnew,7.0.7*%
%TF.CreationDate,2023-09-08T10:51:00+10:00*%
%TF.ProjectId,JonoBro,4a6f6e6f-4272-46f2-9e6b-696361645f70,rev?*%
%TF.SameCoordinates,Original*%
%TF.FileFunction,Paste,Top*%
%TF.FilePolarity,Positive*%
%FSLAX46Y46*%
G04 Gerber Fmt 4.6, Leading zero omitted, Abs format (unit mm)*
G04 Created by KiCad (PCBNEW 7.0.7) date 2023-09-08 10:51:00*
%MOMM*%
%LPD*%
G01*
G04 APERTURE LIST*
G04 Aperture macros list*
%AMRoundRect*
0 Rectangle with rounded corners*
0 $1 Rounding radius*
0 $2 $3 $4 $5 $6 $7 $8 $9 X,Y pos of 4 corners*
0 Add a 4 corners polygon primitive as box body*
4,1,4,$2,$3,$4,$5,$6,$7,$8,$9,$2,$3,0*
0 Add four circle primitives for the rounded corners*
1,1,$1+$1,$2,$3*
1,1,$1+$1,$4,$5*
1,1,$1+$1,$6,$7*
1,1,$1+$1,$8,$9*
0 Add four rect primitives between the rounded corners*
20,1,$1+$1,$2,$3,$4,$5,0*
20,1,$1+$1,$4,$5,$6,$7,0*
20,1,$1+$1,$6,$7,$8,$9,0*
20,1,$1+$1,$8,$9,$2,$3,0*%
%AMRotRect*
0 Rectangle, with rotation*
0 The origin of the aperture is its center*
0 $1 length*
0 $2 width*
0 $3 Rotation angle, in degrees counterclockwise*
0 Add horizontal line*
21,1,$1,$2,0,0,$3*%
%AMFreePoly0*
4,1,6,0.725000,-0.725000,-0.725000,-0.725000,-0.725000,0.125000,-0.125000,0.725000,0.725000,0.725000,0.725000,-0.725000,0.725000,-0.725000,$1*%
G04 Aperture macros list end*
%ADD10RoundRect,0.200000X0.275000X-0.200000X0.275000X0.200000X-0.275000X0.200000X-0.275000X-0.200000X0*%
%ADD11RoundRect,0.225000X0.250000X-0.225000X0.250000X0.225000X-0.250000X0.225000X-0.250000X-0.225000X0*%
%ADD12RoundRect,0.218750X0.256250X-0.218750X0.256250X0.218750X-0.256250X0.218750X-0.256250X-0.218750X0*%
%ADD13RoundRect,0.200000X-0.275000X0.200000X-0.275000X-0.200000X0.275000X-0.200000X0.275000X0.200000X0*%
%ADD14RoundRect,0.200000X-0.200000X-0.275000X0.200000X-0.275000X0.200000X0.275000X-0.200000X0.275000X0*%
%ADD15RoundRect,0.250000X-0.550000X1.500000X-0.550000X-1.500000X0.550000X-1.500000X0.550000X1.500000X0*%
%ADD16R,1.200000X1.200000*%
%ADD17RotRect,0.570000X0.738000X50.000000*%
%ADD18RotRect,0.630000X0.505000X50.000000*%
%ADD19RotRect,0.630000X0.500000X50.000000*%
%ADD20RoundRect,0.112500X0.053033X0.212132X-0.212132X-0.053033X-0.053033X-0.212132X0.212132X0.053033X0*%
%ADD21R,0.700000X0.700000*%
%ADD22R,1.450000X1.450000*%
%ADD23FreePoly0,270.000000*%
%ADD24R,0.800000X0.400000*%
%ADD25R,0.400000X0.800000*%
%ADD26RoundRect,0.200000X0.200000X0.275000X-0.200000X0.275000X-0.200000X-0.275000X0.200000X-0.275000X0*%
%ADD27RoundRect,0.225000X-0.250000X0.225000X-0.250000X-0.225000X0.250000X-0.225000X0.250000X0.225000X0*%
%ADD28RoundRect,0.150000X0.150000X-0.587500X0.150000X0.587500X-0.150000X0.587500X-0.150000X-0.587500X0*%
%ADD29RoundRect,0.150000X0.512500X0.150000X-0.512500X0.150000X-0.512500X-0.150000X0.512500X-0.150000X0*%
%ADD30R,1.500000X2.500000*%
G04 APERTURE END LIST*
D10*
%TO.C,R8*%
X141088353Y-93678731D03*
X141088353Y-92028731D03*
%TD*%
D11*
%TO.C,C7*%
X134289908Y-108024973D03*
X134289908Y-106474973D03*
%TD*%
D12*
%TO.C,D2*%
X140838353Y-115041231D03*
X140838353Y-113466231D03*
%TD*%
D10*
%TO.C,R1*%
X132162395Y-104882780D03*
X132162395Y-103232780D03*
%TD*%
%TO.C,R6*%
X142588353Y-111828731D03*
X142588353Y-110178731D03*
%TD*%
D13*
%TO.C,R9*%
X146288353Y-92828731D03*
X146288353Y-94478731D03*
%TD*%
D14*
%TO.C,R7*%
X143663353Y-104253731D03*
X142013353Y-104253731D03*
%TD*%
D15*
%TO.C,C5*%
X136467663Y-109600687D03*
X136467663Y-115200687D03*
%TD*%
%TO.C,C1*%
X123567663Y-108053731D03*
X123567663Y-113453731D03*
%TD*%
D12*
%TO.C,D3*%
X142588353Y-115041231D03*
X142588353Y-113466231D03*
%TD*%
D11*
%TO.C,C8*%
X150088353Y-100478731D03*
X150088353Y-102028731D03*
%TD*%
D16*
%TO.C,D1*%
X128640199Y-114928152D03*
X131440199Y-114928152D03*
%TD*%
D10*
%TO.C,R3*%
X140838353Y-111828731D03*
X140838353Y-110178731D03*
%TD*%
D17*
%TO.C,Q3*%
X141393290Y-87668086D03*
X142327864Y-88452286D03*
X142003938Y-86940343D03*
X142938512Y-87724544D03*
D18*
X142099064Y-86263027D03*
D19*
X142591247Y-86676018D03*
X143096837Y-87100258D03*
D18*
X143589020Y-87513249D03*
D19*
X140249751Y-88470842D03*
X140740019Y-88882226D03*
X141245609Y-89306466D03*
X141735877Y-89717850D03*
%TD*%
D11*
%TO.C,C3*%
X126067663Y-105175687D03*
X126067663Y-103625687D03*
%TD*%
D10*
%TO.C,R5*%
X148400825Y-102078731D03*
X148400825Y-100428731D03*
%TD*%
D20*
%TO.C,D4*%
X153838507Y-84230679D03*
X152353583Y-85715603D03*
%TD*%
D21*
%TO.C,U2*%
X155232962Y-103799122D03*
X145332962Y-103799122D03*
X145332962Y-115699122D03*
X155232962Y-115699122D03*
D22*
X148307962Y-111724122D03*
X150282962Y-111724122D03*
X152257962Y-111724122D03*
X148307962Y-109749122D03*
X150282962Y-109749122D03*
X152257962Y-109749122D03*
X148307962Y-107774122D03*
X150282962Y-107774122D03*
D23*
X152257962Y-107774122D03*
D24*
X155182962Y-104949122D03*
X155182962Y-105749122D03*
X155182962Y-106549122D03*
X155182962Y-107349122D03*
X155182962Y-108149122D03*
X155182962Y-108949122D03*
X155182962Y-109749122D03*
X155182962Y-110549122D03*
X155182962Y-111349122D03*
X155182962Y-112149122D03*
X155182962Y-112949122D03*
X155182962Y-113749122D03*
X155182962Y-114549122D03*
D25*
X154282962Y-115649122D03*
X153482962Y-115649122D03*
X152682962Y-115649122D03*
X151882962Y-115649122D03*
X151082962Y-115649122D03*
X150282962Y-115649122D03*
X149482962Y-115649122D03*
X148682962Y-115649122D03*
X147882962Y-115649122D03*
X147082962Y-115649122D03*
X146282962Y-115649122D03*
D24*
X145382962Y-114549122D03*
X145382962Y-113749122D03*
X145382962Y-112949122D03*
X145382962Y-112149122D03*
X145382962Y-111349122D03*
X145382962Y-110549122D03*
X145382962Y-109749122D03*
X145382962Y-108949122D03*
X145382962Y-108149122D03*
X145382962Y-107349122D03*
X145382962Y-106549122D03*
X145382962Y-105749122D03*
X145382962Y-104949122D03*
D25*
X146282962Y-103849122D03*
X147082962Y-103849122D03*
X147882962Y-103849122D03*
X148682962Y-103849122D03*
X149482962Y-103849122D03*
X150282962Y-103849122D03*
X151082962Y-103849122D03*
X151882962Y-103849122D03*
X152682962Y-103849122D03*
X153482962Y-103849122D03*
X154282962Y-103849122D03*
%TD*%
D26*
%TO.C,R2*%
X130653448Y-103278427D03*
X129003448Y-103278427D03*
%TD*%
D27*
%TO.C,C4*%
X132167663Y-106325687D03*
X132167663Y-107875687D03*
%TD*%
D28*
%TO.C,Q2*%
X142738353Y-93991231D03*
X144638353Y-93991231D03*
X143688353Y-92116231D03*
%TD*%
D29*
%TO.C,U1*%
X130405126Y-106946096D03*
X130405126Y-105996096D03*
X130405126Y-105046096D03*
X128130126Y-105046096D03*
X128130126Y-105996096D03*
X128130126Y-106946096D03*
%TD*%
D11*
%TO.C,C6*%
X136088353Y-106528731D03*
X136088353Y-104978731D03*
%TD*%
D30*
%TO.C,L1*%
X128117663Y-111100687D03*
X131817663Y-111100687D03*
%TD*%
D11*
%TO.C,C2*%
X124567663Y-105175687D03*
X124567663Y-103625687D03*
%TD*%
D14*
%TO.C,R4*%
X143671646Y-105871537D03*
X142021646Y-105871537D03*
%TD*%
D17*
%TO.C,Q1*%
X137343752Y-84147649D03*
X138278326Y-84931849D03*
X137954400Y-83419906D03*
X138888974Y-84204107D03*
D18*
X138049526Y-82742590D03*
D19*
X138541709Y-83155581D03*
X139047299Y-83579821D03*
D18*
X139539482Y-83992812D03*
D19*
X136200213Y-84950405D03*
X136690481Y-85361789D03*
X137196071Y-85786029D03*
X137686339Y-86197413D03*
%TD*%
M02*
